<svg width="40" height="41" viewBox="0 0 40 41" fill="none" xmlns="http://www.w3.org/2000/svg">
<rect x="0.5" y="1.21582" width="39" height="39" rx="19.5" stroke="black"/>
<path fill-rule="evenodd" clip-rule="evenodd" d="M19.6118 13.7563C19.8656 13.5025 20.2772 13.5025 20.531 13.7563L27.031 20.2563C27.2849 20.5101 27.2849 20.9217 27.031 21.1755L20.531 27.6755C20.2772 27.9294 19.8656 27.9294 19.6118 27.6755C19.358 27.4217 19.358 27.0101 19.6118 26.7563L25.0022 21.3659H13.4286C13.0696 21.3659 12.7786 21.0749 12.7786 20.7159C12.7786 20.3569 13.0696 20.0659 13.4286 20.0659H25.0022L19.6118 14.6755C19.358 14.4217 19.358 14.0101 19.6118 13.7563Z" fill="black"/>
</svg>
