<svg width="40" height="41" viewBox="0 0 40 41" fill="none" xmlns="http://www.w3.org/2000/svg">
<rect x="-0.5" y="0.5" width="39" height="39" rx="19.5" transform="matrix(-1 0 0 1 39 0.71582)" stroke="black"/>
<path fill-rule="evenodd" clip-rule="evenodd" d="M20.3882 13.7563C20.1344 13.5025 19.7228 13.5025 19.469 13.7563L12.969 20.2563C12.7151 20.5101 12.7151 20.9217 12.969 21.1755L19.469 27.6755C19.7228 27.9294 20.1344 27.9294 20.3882 27.6755C20.642 27.4217 20.642 27.0101 20.3882 26.7563L14.9978 21.3659H26.5714C26.9304 21.3659 27.2214 21.0749 27.2214 20.7159C27.2214 20.3569 26.9304 20.0659 26.5714 20.0659H14.9978L20.3882 14.6755C20.642 14.4217 20.642 14.0101 20.3882 13.7563Z" fill="black"/>
</svg>
