<svg width="226" height="175" viewBox="0 0 226 175" fill="none" xmlns="http://www.w3.org/2000/svg">
<g clip-path="url(#clip0_201_18262)">
<path d="M114.75 24.2563L106.25 27.0063" stroke="#FABE68" stroke-width="2"/>
<path d="M106.25 27.0063L101.75 28.5063" stroke="#AD7A3B" stroke-width="2"/>
<path d="M101.75 28.5063C101.303 28.3463 100.957 28.4163 100.71 28.7163" stroke="#FABE68" stroke-width="2"/>
<path d="M100.71 28.7163L87 32.6763" stroke="#AD7A3B" stroke-width="2"/>
<path d="M113 51.2564C110.613 51.2697 108.317 50.9364 106.11 50.2564C104.963 49.8964 104.613 50.2764 105.06 51.3964C106.613 55.2964 109.58 56.9864 113.96 56.4664" stroke="#A86975" stroke-width="2"/>
<path d="M116 61.9263C118.813 66.753 120.08 71.933 119.8 77.4663C119.767 78.0863 119.637 78.5563 119.41 78.8763C119.037 79.403 118.54 79.6196 117.92 79.5263C117.407 79.453 116.883 79.1096 116.35 78.4963C114.717 76.6496 113.34 74.6196 112.22 72.4063C112.147 72.2643 112.036 72.1494 111.906 72.0818C111.776 72.0141 111.636 71.998 111.51 72.0363C111.043 72.183 110.77 72.573 110.69 73.2063C110.37 75.813 109.757 78.3363 108.85 80.7763C108.303 82.2296 107.683 83.1996 106.99 83.6863C105.837 84.4996 104.493 84.3396 102.96 83.2063C101.353 82.013 100.18 80.7863 99.44 79.5263C96.1533 73.973 93.91 67.7863 92.71 60.9663" stroke="#F77E74" stroke-width="2"/>
<path d="M88 35.4263C90.9333 36.053 93.3833 36.9396 95.35 38.0863C96.9833 39.0463 97.9367 38.5896 98.21 36.7163C98.6367 33.823 99.47 31.1563 100.71 28.7163" stroke="#A86975" stroke-width="2"/>
<path d="M101.75 28.5063C101.297 29.7397 101.44 30.443 102.18 30.6163C102.317 30.6468 102.468 30.6333 102.619 30.5772C102.77 30.5212 102.915 30.4244 103.04 30.2963L106.25 27.0063" stroke="#A86975" stroke-width="2"/>
<path d="M169.25 96.7565C168.85 96.6365 168.37 96.7265 167.81 97.0265C158.25 102.187 150.91 106.333 145.79 109.467" stroke="#CA4664" stroke-width="2"/>
<path d="M145.79 109.466C145.51 108.826 145.1 107.473 144.56 105.406C141.427 93.2928 136.507 81.9528 129.8 71.3861C128.693 69.6395 128.51 69.7328 129.25 71.6661C129.51 72.3528 129.967 73.1761 130.62 74.1361C131.353 75.2161 131.86 76.0028 132.14 76.4961C138.08 86.9095 142.263 97.5861 144.69 108.526C144.85 109.266 145.05 109.746 145.29 109.966" stroke="#FC8D85" stroke-width="2"/>
<path d="M145.29 109.966L146.29 117.466" stroke="#CA4664" stroke-width="2"/>
<path d="M51.5 154.256L87.66 166.266C87.8758 166.338 88.1117 166.321 88.316 166.218C88.5203 166.115 88.6763 165.934 88.75 165.716L98.25 138.006" stroke="#B0809B" stroke-width="2"/>
<path d="M98.25 138.006C99.45 137.106 100.187 135.926 100.46 134.466" stroke="#F77E74" stroke-width="2"/>
<path d="M100.46 134.466L100.75 133.256" stroke="#D35368" stroke-width="2"/>
<path d="M100.75 133.256C102.497 132.196 103.317 130.683 103.21 128.716" stroke="#F77E74" stroke-width="2"/>
<path d="M103.21 128.716L103.5 127.506" stroke="#CA4664" stroke-width="2"/>
<path d="M103.5 127.506C104.873 126.173 105.457 124.563 105.25 122.676" stroke="#F77E74" stroke-width="2"/>
<path d="M105.25 122.676C105.09 122.396 105.077 122.076 105.21 121.716" stroke="#CA4664" stroke-width="2"/>
<path d="M105.21 121.716C107.223 119.556 107.5 117.223 106.04 114.716" stroke="#F77E74" stroke-width="2"/>
<path d="M106.04 114.716L109.98 102.786C110.091 102.447 110.074 102.082 109.931 101.769C109.789 101.456 109.533 101.221 109.22 101.116L94.04 96.2163" stroke="#B0809B" stroke-width="2"/>
<path d="M94.04 96.2163L96.36 89.1163C96.4449 88.8504 96.4274 88.5637 96.3113 88.3184C96.1952 88.0732 95.9899 87.8891 95.74 87.8063L80.21 82.6263C80.0131 82.563 79.797 82.585 79.6068 82.6875C79.4167 82.79 79.2673 82.9652 79.19 83.1763L76.71 89.9663" stroke="#FC8F3A" stroke-width="2"/>
<path d="M76.71 89.9662L61.56 85.0662C61.2831 84.9748 60.9811 84.997 60.7191 85.128C60.4571 85.259 60.2563 85.4882 60.16 85.7662L53.25 105.506" stroke="#B0809B" stroke-width="2"/>
<path d="M53.25 105.506C43.8967 100.68 34.23 96.5963 24.25 93.2563" stroke="#CA4664" stroke-width="2"/>
<path d="M24.25 93.2563L14.79 89.2163" stroke="#F77E74" stroke-width="2"/>
<path d="M24.25 93.2563C32.8233 97.5697 41.1267 102.693 49.16 108.626C50.3867 109.533 50.25 109.853 48.75 109.586C45.0967 108.926 41.53 108.803 38.05 109.216C37.8233 109.243 37.8267 109.27 38.06 109.296L51.71 110.716" stroke="#C87592" stroke-width="2"/>
<path d="M105.21 121.716C103.877 122.87 101.974 123.62 99.5002 123.966C98.6536 124.086 98.4936 124.296 99.0202 124.596C99.1602 124.676 99.3202 124.71 99.5002 124.696C101.58 124.49 103.497 123.816 105.25 122.676" stroke="#C87592" stroke-width="2"/>
<path d="M103.5 127.506C101.987 128.613 100.32 129.06 98.5002 128.846C98.1644 128.808 97.8675 128.847 97.6602 128.956C97.1535 129.243 97.2869 129.476 98.0602 129.656C99.5069 129.99 101.224 129.676 103.21 128.716" stroke="#C87592" stroke-width="2"/>
<path d="M100.75 133.256L96.57 134.016C96.3826 134.051 96.2126 134.115 96.0837 134.199C95.9547 134.283 95.8731 134.384 95.85 134.486C95.7634 134.86 96.0634 135.01 96.75 134.936C97.99 134.796 99.2267 134.64 100.46 134.466" stroke="#D18296" stroke-width="2"/>
<path d="M98.25 138.006C95.59 139.486 93.1733 140.473 91 140.966C74.6133 144.68 57.4467 146.693 39.5 147.006" stroke="#ADAFC9" stroke-width="2"/>
<path d="M149.79 137.966L146.29 117.466" stroke="#F77E74" stroke-width="2"/>
<path d="M146.29 117.466C153.357 109.913 161.01 103.01 169.25 96.7563" stroke="#C87592" stroke-width="2"/>
<path d="M169.25 96.7563C170.65 95.6163 172.22 94.853 173.96 94.4663" stroke="#F77E74" stroke-width="2"/>
<path d="M175 95.2563C173.313 99.423 172.713 103.746 173.2 108.226C173.247 108.646 173.417 108.923 173.71 109.056C173.761 109.079 173.816 109.086 173.871 109.077C173.927 109.067 173.979 109.041 174.025 109C174.07 108.96 174.106 108.907 174.13 108.847C174.154 108.787 174.164 108.721 174.16 108.656C173.88 104.13 174.23 99.6496 175.21 95.2163" stroke="#D18296" stroke-width="2"/>
<path d="M145.79 109.466C145.69 109.7 145.523 109.866 145.29 109.966" stroke="#CD83A3" stroke-width="2"/>
<path d="M94.0402 96.2163L92.9202 99.5463C92.8552 99.7417 92.7549 99.9233 92.625 100.081C92.4952 100.238 92.3383 100.367 92.1635 100.462C91.9887 100.557 91.7995 100.615 91.6067 100.633C91.4139 100.651 91.2214 100.628 91.0402 100.566L76.2602 95.5563C75.9588 95.4533 75.7164 95.2123 75.584 94.884C75.4516 94.5558 75.4395 94.1659 75.5502 93.7963L76.7102 89.9663" stroke="#B3C08F" stroke-width="2"/>
<path d="M106.04 114.716C104.153 116.456 101.377 117.16 97.71 116.826C97.5061 116.808 97.3099 116.741 97.1358 116.631C96.9617 116.52 96.814 116.37 96.7038 116.189C96.5935 116.009 96.5233 115.804 96.4984 115.589C96.4735 115.374 96.4946 115.154 96.56 114.946L98.84 107.576C99.5333 105.316 98.82 104.79 96.7 105.996C95.1133 106.896 93.5633 107.883 92.05 108.956C86.5966 112.81 80.4966 114.71 73.75 114.656C66.1766 114.59 58.83 113.276 51.71 110.716" stroke="#ADAFC9" stroke-width="2"/>
<path d="M51.71 110.716L53.25 105.506" stroke="#8176B9" stroke-width="2"/>
<path d="M213.54 32.7163C213.293 33.2896 212.933 33.7896 212.46 34.2163" stroke="#8BA7A6" stroke-width="2"/>
<path d="M212.46 34.2163H211.04" stroke="#5E6E96" stroke-width="2"/>
<path d="M211.04 34.2162L208.99 30.3562C208.856 30.1114 208.626 29.9321 208.349 29.8572C208.072 29.7824 207.771 29.8179 207.51 29.9562L198.65 34.7262C198.404 34.8611 198.223 35.0918 198.147 35.3686C198.07 35.6454 198.104 35.9462 198.24 36.2062L200.94 41.2962C201.092 41.5802 201.336 41.8 201.62 41.9084C201.904 42.0169 202.206 42.0053 202.46 41.8762L210.25 37.9262" stroke="#90B86C" stroke-width="2"/>
<path d="M210.25 37.9263C211.523 38.0196 212.42 38.2196 212.94 38.5263C213.847 39.0663 213.937 39.7963 213.21 40.7163" stroke="#5E6E96" stroke-width="2"/>
<path d="M213.21 40.7164C212.69 40.1364 212.203 39.9697 211.75 40.2164C209.243 41.5564 206.747 42.913 204.26 44.2864C203.907 44.4797 203.677 44.713 203.57 44.9864C203.377 45.4864 203.53 45.8464 204.03 46.0664C204.156 46.1232 204.304 46.1508 204.464 46.1474C204.624 46.1439 204.793 46.1096 204.96 46.0464C207.947 44.9064 210.723 43.3797 213.29 41.4664" stroke="#68BED0" stroke-width="2"/>
<path d="M213.29 41.4663L216.54 43.4663" stroke="#5E6E96" stroke-width="2"/>
<path d="M216.54 43.4663C216.14 44.153 216.14 44.8196 216.54 45.4663" stroke="#8BA7A6" stroke-width="2"/>
<path d="M216.54 45.4663C216.613 46.2396 216.997 46.6163 217.69 46.5963C217.842 46.5933 217.989 46.6309 218.106 46.7033C218.224 46.7757 218.306 46.8787 218.34 46.9963L218.71 48.2163" stroke="#5E6E96" stroke-width="2"/>
<path d="M218.71 48.2163C219.31 50.2163 220.657 50.813 222.75 50.0063" stroke="#8BA7A6" stroke-width="2"/>
<path d="M221.71 60.4663L212.23 65.0163C212.097 65.0815 211.947 65.1022 211.806 65.075C211.664 65.0477 211.539 64.9742 211.45 64.8663C210.617 63.813 209.84 62.7897 209.12 61.7963C208.447 60.8697 207.92 59.7163 207.54 58.3363C207.2 57.0963 206.793 55.8763 206.32 54.6763C205.813 53.3897 205.367 52.1897 204.98 51.0763C203.1 45.563 200.107 40.7063 196 36.5063" stroke="#8BA7A6" stroke-width="2"/>
<path d="M222.96 44.9661C221.953 44.9328 220.903 45.2028 219.81 45.7761C218.73 46.3495 217.64 46.2461 216.54 45.4661" stroke="#C87592" stroke-width="2"/>
<path d="M216.54 43.4663C217.513 42.3796 218.69 41.663 220.07 41.3163C220.229 41.2736 220.372 41.2063 220.486 41.1207C220.599 41.0351 220.68 40.9339 220.72 40.8263C220.853 40.453 220.56 40.383 219.84 40.6163C218.48 41.0496 217.113 41.4563 215.74 41.8363C215.578 41.8796 215.412 41.8877 215.254 41.8599C215.096 41.8322 214.951 41.7693 214.83 41.6763C213.817 40.8763 213.707 39.973 214.5 38.9663C215.247 38.013 216.4 37.2896 217.96 36.7963C218.026 36.7751 218.088 36.7403 218.14 36.695C218.192 36.6496 218.232 36.595 218.258 36.5359C218.283 36.4769 218.293 36.4151 218.287 36.3559C218.28 36.2967 218.257 36.2419 218.22 36.1963C218 35.923 217.677 35.9296 217.25 36.2163C215.25 37.5696 213.917 38.153 213.25 37.9663C211.003 37.3396 210.74 36.0896 212.46 34.2163" stroke="#C87592" stroke-width="2"/>
<path d="M213.29 41.4663L213.21 40.7163" stroke="#A58CBC" stroke-width="2"/>
<path d="M211.04 34.2163L210.25 37.9263" stroke="#CD8658" stroke-width="2"/>
<path d="M222.96 45.4663C221.053 45.653 219.637 46.5696 218.71 48.2163" stroke="#C87592" stroke-width="2"/>
<path d="M214.991 44.0424C214.88 43.8254 214.687 43.6616 214.454 43.587C214.222 43.5124 213.969 43.5332 213.752 43.6447L205.819 47.722C205.711 47.7772 205.616 47.8531 205.538 47.9452C205.46 48.0374 205.4 48.144 205.363 48.259C205.326 48.3741 205.313 48.4952 205.322 48.6157C205.332 48.7361 205.366 48.8534 205.421 48.9608L205.549 49.2098C205.661 49.4268 205.854 49.5906 206.086 49.6652C206.318 49.7398 206.571 49.7191 206.788 49.6075L214.721 45.5302C214.829 45.475 214.924 45.3992 215.003 45.307C215.081 45.2149 215.14 45.1082 215.177 44.9932C215.214 44.8782 215.228 44.757 215.218 44.6366C215.208 44.5162 215.174 44.3989 215.119 44.2914L214.991 44.0424Z" stroke="#47C0C3" stroke-width="2"/>
<path d="M220.5 54.7963C220.5 53.1891 219.861 51.6477 218.725 50.5113C217.588 49.3748 216.047 48.7363 214.44 48.7363C212.833 48.7363 211.291 49.3748 210.155 50.5113C209.018 51.6477 208.38 53.1891 208.38 54.7963C208.38 56.4035 209.018 57.9449 210.155 59.0814C211.291 60.2179 212.833 60.8563 214.44 60.8563C216.047 60.8563 217.588 60.2179 218.725 59.0814C219.861 57.9449 220.5 56.4035 220.5 54.7963Z" stroke="#3E6279" stroke-width="2"/>
<path d="M114.81 30.6564C113.937 29.9231 113.83 29.3331 114.49 28.8864C114.65 28.7797 114.787 28.662 114.89 28.5412C114.994 28.4204 115.062 28.2994 115.09 28.1864C115.443 26.8131 114.39 26.7731 111.93 28.0664C111.01 28.5464 111.023 28.9997 111.97 29.4264C113.743 30.2264 114.687 31.4664 114.8 33.1464C114.827 33.4997 114.95 33.5531 115.17 33.3064C115.977 32.4064 115.857 31.5231 114.81 30.6564Z" stroke="#A86975" stroke-width="2"/>
<path d="M109.7 30.6462C109.733 30.0862 109.49 29.6695 108.97 29.3962C108.841 29.3308 108.692 29.3064 108.539 29.3258C108.387 29.3453 108.238 29.4078 108.11 29.5062L104.39 32.3962C104.11 32.6162 104.14 32.7695 104.48 32.8562C106.253 33.2829 107.79 32.9129 109.09 31.7462C109.47 31.4062 109.673 31.0395 109.7 30.6462Z" stroke="#A86975" stroke-width="2"/>
<path d="M108.05 39.5464C108.05 38.5678 107.661 37.6292 106.969 36.9372C106.277 36.2452 105.339 35.8564 104.36 35.8564C103.381 35.8564 102.443 36.2452 101.751 36.9372C101.059 37.6292 100.67 38.5678 100.67 39.5464C100.67 40.5251 101.059 41.4637 101.751 42.1557C102.443 42.8477 103.381 43.2364 104.36 43.2364C105.339 43.2364 106.277 42.8477 106.969 42.1557C107.661 41.4637 108.05 40.5251 108.05 39.5464Z" stroke="#F09E9A" stroke-width="2"/>
<path d="M113.33 38.1562C112.777 38.0428 112.287 37.8028 111.86 37.4362C110.787 36.4895 110.587 36.5162 111.26 37.5162C112.613 39.5095 114.207 39.7462 116.04 38.2262C117.007 37.4128 117.05 37.2495 116.17 37.7361C115.283 38.2228 114.337 38.3628 113.33 38.1562Z" stroke="#D18296" stroke-width="2"/>
<path d="M93.2101 41.5666C90.9167 39.7466 88.7801 39.0299 86.8001 39.4166C86.6286 39.4474 86.4727 39.5211 86.3569 39.6261C86.2411 39.731 86.1719 39.8613 86.1601 39.9966C86.1201 40.4099 86.5034 40.5032 87.3101 40.2766C89.2034 39.7566 91.0201 40.3999 92.7601 42.2066C93.8134 43.2999 94.1701 43.3732 93.8301 42.4266C93.7056 42.0865 93.491 41.7889 93.2101 41.5666Z" stroke="#D18296" stroke-width="2"/>
<path d="M116.99 78.4266C117.903 79.5866 118.59 79.4666 119.05 78.0666C119.383 77.0466 119.473 75.9566 119.32 74.7966C118.833 71.1233 117.79 67.6199 116.19 64.2866C115.823 63.5199 115.45 63.5133 115.07 64.2666C114.403 65.5799 113.217 66.7666 111.51 67.8266C111.39 67.9028 111.302 68.019 111.259 68.1545C111.217 68.2899 111.225 68.436 111.28 68.5666C112.847 72.2599 114.75 75.5466 116.99 78.4266Z" stroke="#F77E74" stroke-width="2"/>
<path d="M103.57 68.5861C100.563 68.3394 97.8333 67.2294 95.38 65.2561C94.8 64.7894 94.5867 64.9228 94.74 65.6561C95.9733 71.5161 98.3533 76.8194 101.88 81.5661C103.2 83.3528 104.567 83.9394 105.98 83.3261C106.92 82.9128 107.653 81.9594 108.18 80.4661C109.467 76.7861 109.98 72.9761 109.72 69.0361C109.716 68.9699 109.699 68.9051 109.67 68.8457C109.64 68.7863 109.599 68.7335 109.549 68.6905C109.498 68.6475 109.439 68.6151 109.376 68.5955C109.313 68.5758 109.246 68.5692 109.18 68.5761C107.313 68.7361 105.443 68.7394 103.57 68.5861Z" stroke="#F77E74" stroke-width="2"/>
<path d="M212.94 52.2764C213.067 53.1697 213.9 54.8164 215.44 57.2164C215.483 57.2844 215.536 57.3415 215.593 57.3832C215.65 57.4249 215.711 57.4499 215.77 57.4564C215.977 57.4764 216.003 57.3497 215.85 57.0764C214.983 55.4964 214.2 53.8764 213.5 52.2164C212.92 50.8431 212.733 50.8631 212.94 52.2764Z" stroke="#692D57" stroke-width="2"/>
<path d="M215.44 51.7765C215.953 52.4498 216.57 53.6598 217.29 55.4065C217.343 55.5395 217.424 55.6539 217.52 55.7343C217.617 55.8147 217.725 55.8573 217.83 55.8565C218.13 55.8631 218.147 55.6165 217.88 55.1165C217.227 53.8965 216.543 52.6965 215.83 51.5165C215.78 51.4321 215.71 51.3649 215.631 51.3265C215.552 51.2882 215.471 51.2811 215.4 51.3065C215.227 51.3665 215.24 51.5231 215.44 51.7765Z" stroke="#692D57" stroke-width="2"/>
<path d="M211.64 56.5963C211.879 57.3917 212.385 58.0775 213.07 58.5363C213.317 58.703 213.32 58.1063 213.08 56.7463C212.993 56.2397 212.793 55.783 212.48 55.3763C211.153 53.6563 210.873 54.063 211.64 56.5963Z" stroke="#692D57" stroke-width="2"/>
<path d="M111.74 74.9563C112.9 81.243 114.264 87.4897 115.83 93.6963C116.357 95.763 115.83 96.9897 114.25 97.3763C113.904 97.463 113.874 97.5897 114.16 97.7563C114.767 98.103 115.297 98.0663 115.75 97.6463C116.09 97.3263 116.277 96.8163 116.31 96.1163C116.43 93.4097 116.014 90.423 115.06 87.1563C114.587 85.5163 113.66 81.3663 112.28 74.7063C112.167 74.1463 112.014 74.0397 111.82 74.3863C111.73 74.5345 111.702 74.7383 111.74 74.9563Z" stroke="#F77E74" stroke-width="2"/>
<path d="M111.17 84.8564C111.203 85.1297 111.343 85.2464 111.59 85.2064C111.731 85.1861 111.862 85.1106 111.965 84.9915C112.068 84.8724 112.136 84.7161 112.16 84.5464C112.253 83.873 112.043 83.7297 111.53 84.1164C111.403 84.2104 111.302 84.3289 111.239 84.4592C111.176 84.5896 111.152 84.7269 111.17 84.8564Z" stroke="#FC8D85" stroke-width="2"/>
<path d="M113.75 91.3861C112.83 90.2928 112.567 90.4295 112.96 91.7961C112.992 91.9199 113.052 92.0306 113.132 92.1143C113.212 92.198 113.309 92.2508 113.41 92.2661C113.563 92.2861 113.693 92.2628 113.8 92.1961C113.851 92.1616 113.89 92.1126 113.915 92.0521C113.94 91.9916 113.95 91.921 113.946 91.8448C113.941 91.7686 113.921 91.6884 113.887 91.6094C113.854 91.5305 113.807 91.4544 113.75 91.3861Z" stroke="#F77E74" stroke-width="2"/>
<path d="M114.75 24.2562L106.25 27.0062L101.75 28.5062C101.303 28.3462 100.957 28.4162 100.71 28.7162L86.9999 32.6762C86.0599 32.8295 85.1399 33.0562 84.2399 33.3562C83.5466 33.5895 82.9966 33.6428 82.5899 33.5162C81.8033 33.2762 81.5933 32.7228 81.9599 31.8562C82.1024 31.5261 82.1447 31.1948 82.0799 30.9162C81.7999 29.6628 81.4733 28.4195 81.0999 27.1862C78.6533 19.1128 80.4799 12.3195 86.5799 6.80616C90.6933 3.08616 95.2799 1.33283 100.34 1.54616C104.233 1.71283 107.727 3.00283 110.82 5.41616C113.907 7.8295 116.18 11.0028 117.64 14.9362C117.688 15.0638 117.776 15.1773 117.894 15.2652C118.012 15.3531 118.155 15.4121 118.31 15.4362L125.7 16.5262C127.06 16.7328 127.153 17.2395 125.98 18.0462C122.513 20.4262 118.77 22.4962 114.75 24.2562Z" fill="#FFCF2D"/>
<path d="M213.54 32.7164C213.294 33.2898 212.934 33.7898 212.46 34.2164H211.04L208.99 30.3564C208.856 30.1116 208.626 29.9324 208.349 29.8575C208.072 29.7826 207.77 29.8182 207.51 29.9564L198.65 34.7264C198.404 34.8613 198.223 35.092 198.147 35.3689C198.07 35.6457 198.104 35.9465 198.24 36.2064L200.94 41.2964C201.092 41.5804 201.336 41.8002 201.62 41.9087C201.904 42.0171 202.206 42.0055 202.46 41.8764L210.25 37.9264C211.524 38.0198 212.42 38.2198 212.94 38.5264C213.847 39.0664 213.937 39.7964 213.21 40.7164C212.69 40.1364 212.204 39.9698 211.75 40.2164C209.244 41.5564 206.747 42.9131 204.26 44.2864C203.907 44.4798 203.677 44.7131 203.57 44.9864C203.377 45.4864 203.53 45.8464 204.03 46.0664C204.156 46.1233 204.304 46.1509 204.464 46.1474C204.624 46.144 204.793 46.1096 204.96 46.0464C207.947 44.9064 210.724 43.3798 213.29 41.4664L216.54 43.4664C216.14 44.1531 216.14 44.8198 216.54 45.4664C216.614 46.2398 216.997 46.6164 217.69 46.5964C217.842 46.5934 217.989 46.631 218.107 46.7034C218.224 46.7758 218.306 46.8789 218.34 46.9964L218.71 48.2164C219.31 50.2164 220.657 50.8131 222.75 50.0064L225.03 57.6764C225.071 57.819 225.068 57.9695 225.022 58.1061C224.975 58.2428 224.887 58.3584 224.77 58.4364L221.71 60.4664L212.23 65.0164C212.097 65.0816 211.947 65.1022 211.806 65.075C211.664 65.0478 211.539 64.9743 211.45 64.8664C210.617 63.8131 209.84 62.7898 209.12 61.7964C208.447 60.8698 207.92 59.7164 207.54 58.3364C207.2 57.0964 206.794 55.8764 206.32 54.6764C205.814 53.3898 205.367 52.1898 204.98 51.0764C203.1 45.5631 200.107 40.7064 196 36.5064C196.214 36.1331 196.23 35.7631 196.05 35.3964C195.777 34.8364 195.637 34.5264 195.63 34.4664C195.517 33.6731 195.924 33.1831 196.85 32.9964C196.967 32.9727 197.077 32.9222 197.171 32.8488C197.265 32.7754 197.341 32.6812 197.392 32.5736C197.443 32.4659 197.469 32.3479 197.467 32.2286C197.465 32.1094 197.435 31.9922 197.38 31.8864C194.887 27.1531 192.464 22.5131 190.11 17.9664C189.637 17.0531 189.454 16.3031 189.56 15.7164C189.74 14.6631 190.54 14.3064 191.96 14.6464C192.108 14.6812 192.249 14.75 192.373 14.8483C192.497 14.9465 192.602 15.072 192.68 15.2164L200.77 30.2764C200.838 30.4028 200.949 30.4997 201.078 30.5464C201.207 30.5931 201.344 30.5859 201.46 30.5264L208.19 27.1764C208.401 27.0695 208.636 27.0321 208.857 27.0704C209.078 27.1087 209.27 27.2204 209.4 27.3864L213.54 32.7164ZM214.991 44.0427C214.88 43.8257 214.687 43.6619 214.454 43.5873C214.222 43.5127 213.97 43.5335 213.752 43.645L205.819 47.7223C205.711 47.7775 205.616 47.8534 205.538 47.9455C205.46 48.0377 205.4 48.1443 205.363 48.2593C205.326 48.3744 205.313 48.4956 205.322 48.616C205.332 48.7364 205.366 48.8537 205.421 48.9611L205.549 49.2101C205.661 49.4271 205.854 49.591 206.086 49.6655C206.318 49.7401 206.571 49.7194 206.788 49.6078L214.721 45.5305C214.829 45.4753 214.924 45.3995 215.003 45.3073C215.081 45.2152 215.14 45.1085 215.177 44.9935C215.214 44.8785 215.228 44.7573 215.218 44.6369C215.208 44.5165 215.175 44.3992 215.119 44.2917L214.991 44.0427ZM220.5 54.7964C220.5 53.1892 219.862 51.6478 218.725 50.5114C217.589 49.3749 216.047 48.7364 214.44 48.7364C212.833 48.7364 211.292 49.3749 210.155 50.5114C209.019 51.6478 208.38 53.1892 208.38 54.7964C208.38 56.4036 209.019 57.945 210.155 59.0815C211.292 60.218 212.833 60.8564 214.44 60.8564C216.047 60.8564 217.589 60.218 218.725 59.0815C219.862 57.945 220.5 56.4036 220.5 54.7964Z" fill="#21A0AA"/>
<path d="M114.75 24.2563C116.35 28.8363 119.247 32.843 123.44 36.2763C124.653 37.2697 125.297 38.553 125.37 40.1264C125.43 41.3197 125.087 42.6164 124.34 44.0163C122.053 48.3097 118.273 50.723 113 51.2563C110.613 51.2697 108.317 50.9363 106.11 50.2563C104.963 49.8963 104.613 50.2763 105.06 51.3963C106.613 55.2963 109.58 56.9863 113.96 56.4663C114.213 57.853 114.527 59.2263 114.9 60.5863C114.9 60.6063 114.93 60.8697 114.99 61.3764C115.043 61.8563 115.38 62.0397 116 61.9263C118.813 66.753 120.08 71.933 119.8 77.4663C119.767 78.0863 119.637 78.5564 119.41 78.8764C119.037 79.403 118.54 79.6197 117.92 79.5263C117.407 79.453 116.883 79.1097 116.35 78.4963C114.717 76.6497 113.34 74.6197 112.22 72.4063C112.147 72.2644 112.036 72.1495 111.906 72.0818C111.776 72.0142 111.636 71.9981 111.51 72.0363C111.043 72.183 110.77 72.573 110.69 73.2063C110.37 75.813 109.757 78.3363 108.85 80.7763C108.303 82.2297 107.683 83.1997 106.99 83.6863C105.837 84.4997 104.493 84.3397 102.96 83.2063C101.353 82.013 100.18 80.7863 99.44 79.5263C96.1534 73.973 93.91 67.7863 92.71 60.9663C92.93 60.553 93.11 59.3863 93.25 57.4663C93.4567 54.573 93.5967 51.6763 93.67 48.7763C93.672 48.7156 93.6604 48.6551 93.6361 48.599C93.6117 48.5429 93.5752 48.4923 93.5289 48.4508C93.4826 48.4092 93.4276 48.3775 93.3674 48.3578C93.3073 48.338 93.2434 48.3307 93.18 48.3363C90.28 48.5963 87.7734 47.983 85.66 46.4963C83.7067 45.123 82.5767 43.3063 82.27 41.0463C81.8234 37.7997 83.7334 35.9263 88 35.4263C90.9334 36.053 93.3834 36.9397 95.35 38.0863C96.9834 39.0463 97.9367 38.5897 98.21 36.7163C98.6367 33.823 99.47 31.1563 100.71 28.7163C100.957 28.4163 101.303 28.3463 101.75 28.5063C101.297 29.7397 101.44 30.443 102.18 30.6163C102.317 30.6468 102.468 30.6333 102.619 30.5772C102.77 30.5212 102.915 30.4244 103.04 30.2963L106.25 27.0063L114.75 24.2563ZM114.81 30.6563C113.937 29.923 113.83 29.333 114.49 28.8863C114.65 28.7797 114.787 28.6619 114.89 28.5412C114.994 28.4204 115.062 28.2994 115.09 28.1863C115.443 26.813 114.39 26.773 111.93 28.0663C111.01 28.5463 111.023 28.9997 111.97 29.4263C113.743 30.2263 114.687 31.4663 114.8 33.1463C114.827 33.4997 114.95 33.553 115.17 33.3063C115.977 32.4063 115.857 31.523 114.81 30.6563ZM109.7 30.6463C109.733 30.0863 109.49 29.6697 108.97 29.3963C108.841 29.3309 108.692 29.3065 108.54 29.326C108.387 29.3455 108.238 29.408 108.11 29.5063L104.39 32.3963C104.11 32.6163 104.14 32.7697 104.48 32.8563C106.253 33.283 107.79 32.913 109.09 31.7463C109.47 31.4063 109.673 31.0397 109.7 30.6463ZM108.05 39.5463C108.05 38.5677 107.661 37.6291 106.969 36.9371C106.277 36.2451 105.339 35.8563 104.36 35.8563C103.381 35.8563 102.443 36.2451 101.751 36.9371C101.059 37.6291 100.67 38.5677 100.67 39.5463C100.67 40.525 101.059 41.4636 101.751 42.1556C102.443 42.8476 103.381 43.2363 104.36 43.2363C105.339 43.2363 106.277 42.8476 106.969 42.1556C107.661 41.4636 108.05 40.525 108.05 39.5463ZM113.33 38.1563C112.777 38.043 112.287 37.803 111.86 37.4363C110.787 36.4897 110.587 36.5163 111.26 37.5163C112.613 39.5097 114.207 39.7463 116.04 38.2263C117.007 37.413 117.05 37.2497 116.17 37.7363C115.283 38.223 114.337 38.363 113.33 38.1563ZM93.21 41.5663C90.9167 39.7463 88.78 39.0297 86.8 39.4163C86.6285 39.4472 86.4727 39.5209 86.3569 39.6259C86.2411 39.7308 86.1718 39.8611 86.16 39.9963C86.12 40.4097 86.5034 40.503 87.31 40.2763C89.2034 39.7563 91.02 40.3997 92.76 42.2063C93.8134 43.2997 94.17 43.373 93.83 42.4263C93.7056 42.0863 93.491 41.7886 93.21 41.5663ZM116.99 78.4263C117.903 79.5863 118.59 79.4663 119.05 78.0663C119.383 77.0463 119.473 75.9563 119.32 74.7963C118.833 71.123 117.79 67.6197 116.19 64.2863C115.823 63.5197 115.45 63.513 115.07 64.2663C114.403 65.5797 113.217 66.7663 111.51 67.8263C111.39 67.9026 111.302 68.0188 111.26 68.1542C111.217 68.2897 111.225 68.4357 111.28 68.5663C112.847 72.2597 114.75 75.5463 116.99 78.4263ZM103.57 68.5863C100.563 68.3397 97.8334 67.2297 95.38 65.2563C94.8 64.7897 94.5867 64.923 94.74 65.6563C95.9734 71.5163 98.3534 76.8197 101.88 81.5663C103.2 83.353 104.567 83.9397 105.98 83.3263C106.92 82.913 107.653 81.9597 108.18 80.4663C109.467 76.7863 109.98 72.9763 109.72 69.0363C109.716 68.9701 109.699 68.9053 109.67 68.8459C109.64 68.7865 109.599 68.7337 109.549 68.6907C109.498 68.6477 109.439 68.6154 109.376 68.5957C109.313 68.5761 109.246 68.5695 109.18 68.5763C107.313 68.7363 105.443 68.7397 103.57 68.5863Z" fill="#F4ADA2"/>
<path d="M106.25 27.0063L103.04 30.2963C102.915 30.4244 102.77 30.5212 102.619 30.5772C102.468 30.6333 102.317 30.6468 102.18 30.6163C101.44 30.443 101.297 29.7397 101.75 28.5063L106.25 27.0063Z" fill="#5B2448"/>
<path d="M114.81 30.6564C115.857 31.5231 115.977 32.4064 115.17 33.3064C114.95 33.5531 114.827 33.4997 114.8 33.1464C114.687 31.4664 113.743 30.2264 111.97 29.4264C111.023 28.9997 111.01 28.5464 111.93 28.0664C114.39 26.7731 115.443 26.8131 115.09 28.1864C115.062 28.2994 114.994 28.4204 114.89 28.5412C114.787 28.662 114.65 28.7797 114.49 28.8864C113.83 29.3331 113.937 29.9231 114.81 30.6564Z" fill="#5B2448"/>
<path d="M100.71 28.7163C99.47 31.1563 98.6367 33.823 98.21 36.7163C97.9367 38.5896 96.9833 39.0463 95.35 38.0863C93.3833 36.9396 90.9333 36.053 88 35.4263C87.98 34.393 87.6467 33.4763 87 32.6763L100.71 28.7163Z" fill="#5B2448"/>
<path d="M109.09 31.7462C107.79 32.9129 106.253 33.2829 104.48 32.8562C104.14 32.7695 104.11 32.6162 104.39 32.3962L108.11 29.5062C108.238 29.4078 108.387 29.3453 108.539 29.3258C108.692 29.3064 108.841 29.3308 108.97 29.3962C109.49 29.6695 109.733 30.0862 109.7 30.6462C109.673 31.0395 109.47 31.4062 109.09 31.7462Z" fill="#5B2448"/>
<path d="M211.04 34.2162L210.25 37.9262L202.46 41.8762C202.205 42.0053 201.904 42.0169 201.62 41.9084C201.335 41.8 201.091 41.5802 200.94 41.2962L198.24 36.2062C198.103 35.9462 198.07 35.6454 198.146 35.3686C198.223 35.0918 198.404 34.8611 198.65 34.7262L207.51 29.9562C207.77 29.8179 208.071 29.7824 208.349 29.8572C208.626 29.9321 208.856 30.1114 208.99 30.3562L211.04 34.2162Z" fill="#FFCF2D"/>
<path d="M222.96 44.9664C221.953 44.933 220.903 45.203 219.81 45.7764C218.73 46.3497 217.64 46.2464 216.54 45.4664C216.14 44.8197 216.14 44.153 216.54 43.4664C217.513 42.3797 218.69 41.663 220.07 41.3164C220.229 41.2736 220.372 41.2064 220.486 41.1208C220.599 41.0352 220.68 40.934 220.72 40.8264C220.853 40.4531 220.56 40.3831 219.84 40.6164C218.48 41.0497 217.113 41.4564 215.74 41.8364C215.578 41.8797 215.412 41.8877 215.254 41.86C215.096 41.8322 214.951 41.7694 214.83 41.6764C213.817 40.8764 213.707 39.9731 214.5 38.9664C215.247 38.0131 216.4 37.2897 217.96 36.7964C218.026 36.7752 218.088 36.7404 218.14 36.695C218.192 36.6497 218.232 36.5951 218.258 36.536C218.283 36.4769 218.293 36.4151 218.287 36.356C218.28 36.2968 218.257 36.242 218.22 36.1964C218 35.9231 217.677 35.9297 217.25 36.2164C215.25 37.5697 213.917 38.153 213.25 37.9664C211.003 37.3397 210.74 36.0897 212.46 34.2164C212.933 33.7897 213.293 33.2897 213.54 32.7164C215.373 31.5631 217.117 31.633 218.77 32.9264C219.623 33.593 219.8 34.473 219.3 35.5664C219.216 35.7411 219.199 35.9409 219.253 36.1285C219.306 36.3161 219.426 36.4788 219.59 36.5864C220.83 37.4131 221.473 38.6364 221.52 40.2564C221.526 40.4811 221.578 40.703 221.673 40.9091C221.767 41.1152 221.902 41.3012 222.07 41.4564C223.43 42.7164 223.727 43.8864 222.96 44.9664Z" fill="#F4ADA2"/>
<path d="M211.04 34.2163H212.46C210.74 36.0896 211.003 37.3396 213.25 37.9663C213.917 38.153 215.25 37.5696 217.25 36.2163C217.677 35.9296 218 35.923 218.22 36.1963C218.257 36.2419 218.28 36.2967 218.287 36.3559C218.293 36.4151 218.283 36.4769 218.258 36.5359C218.232 36.595 218.192 36.6496 218.14 36.695C218.088 36.7403 218.026 36.7751 217.96 36.7963C216.4 37.2896 215.247 38.013 214.5 38.9663C213.707 39.973 213.817 40.8763 214.83 41.6763C214.951 41.7693 215.096 41.8322 215.254 41.8599C215.412 41.8877 215.578 41.8796 215.74 41.8363C217.113 41.4563 218.48 41.0496 219.84 40.6163C220.56 40.383 220.853 40.453 220.72 40.8263C220.68 40.9339 220.599 41.0351 220.486 41.1207C220.372 41.2063 220.229 41.2736 220.07 41.3163C218.69 41.663 217.513 42.3796 216.54 43.4663L213.29 41.4663L213.21 40.7163C213.937 39.7963 213.847 39.0663 212.94 38.5263C212.42 38.2196 211.523 38.0196 210.25 37.9263L211.04 34.2163Z" fill="#9B3C82"/>
<path d="M196 36.5065C200.107 40.7065 203.1 45.5632 204.98 51.0765C205.367 52.1899 205.813 53.3899 206.32 54.6765C206.793 55.8765 207.2 57.0965 207.54 58.3365C207.92 59.7165 208.447 60.8699 209.12 61.7965C209.84 62.7899 210.617 63.8132 211.45 64.8665C211.539 64.9744 211.664 65.0479 211.806 65.0751C211.947 65.1023 212.097 65.0817 212.23 65.0165L221.71 60.4665C220.73 75.3132 218.247 89.8965 214.26 104.217C211.033 115.83 206.01 125.893 199.19 134.407C194.597 140.14 188.357 143.603 180.47 144.797C169.29 146.503 159.063 144.227 149.79 137.967L146.29 117.467C153.357 109.913 161.01 103.01 169.25 96.7565C170.65 95.6165 172.22 94.8532 173.96 94.4665L175 95.2565C173.313 99.4232 172.713 103.747 173.2 108.227C173.247 108.647 173.417 108.923 173.71 109.057C173.761 109.08 173.816 109.087 173.871 109.077C173.926 109.067 173.979 109.041 174.024 109.001C174.07 108.96 174.106 108.908 174.13 108.847C174.154 108.787 174.164 108.721 174.16 108.657C173.88 104.13 174.23 99.6498 175.21 95.2165C180.003 88.1299 184.49 80.8565 188.67 73.3965C190.41 70.2899 191.89 67.0732 193.11 63.7465C194.49 60.0065 195.237 56.5765 195.35 53.4565C195.55 48.0965 194.427 42.9165 191.98 37.9165C191.825 37.608 191.783 37.2765 191.86 36.9865C192.473 34.7065 193.853 34.5465 196 36.5065Z" fill="#F4ADA2"/>
<path d="M104.36 43.2364C106.398 43.2364 108.05 41.5844 108.05 39.5464C108.05 37.5085 106.398 35.8564 104.36 35.8564C102.322 35.8564 100.67 37.5085 100.67 39.5464C100.67 41.5844 102.322 43.2364 104.36 43.2364Z" fill="#EC8E91"/>
<path d="M113.33 38.1562C114.337 38.3628 115.283 38.2228 116.17 37.7361C117.05 37.2495 117.007 37.4128 116.04 38.2262C114.207 39.7462 112.613 39.5095 111.26 37.5162C110.587 36.5162 110.787 36.4895 111.86 37.4362C112.287 37.8028 112.777 38.0428 113.33 38.1562Z" fill="#AD578A"/>
<path d="M93.2101 41.5661C93.491 41.7884 93.7056 42.086 93.8301 42.4261C94.1701 43.3728 93.8134 43.2994 92.7601 42.2061C91.0201 40.3994 89.2034 39.7561 87.3101 40.2761C86.5034 40.5028 86.1201 40.4094 86.1601 39.9961C86.1719 39.8609 86.2411 39.7306 86.3569 39.6256C86.4727 39.5206 86.6286 39.447 86.8001 39.4161C88.7801 39.0294 90.9167 39.7461 93.2101 41.5661Z" fill="#AD578A"/>
<path d="M213.21 40.7164L213.29 41.4664C210.723 43.3797 207.947 44.9064 204.96 46.0464C204.793 46.1096 204.624 46.1439 204.464 46.1474C204.304 46.1508 204.156 46.1232 204.03 46.0664C203.53 45.8464 203.377 45.4864 203.57 44.9864C203.677 44.713 203.907 44.4797 204.26 44.2864C206.747 42.913 209.243 41.5564 211.75 40.2164C212.203 39.9697 212.69 40.1364 213.21 40.7164Z" fill="#AEDCF6"/>
<path d="M213.752 43.6447L205.819 47.722C205.367 47.9543 205.189 48.5089 205.421 48.9608L205.549 49.2099C205.781 49.6618 206.336 49.8399 206.788 49.6076L214.721 45.5303C215.173 45.298 215.351 44.7434 215.119 44.2915L214.991 44.0425C214.759 43.5906 214.204 43.4125 213.752 43.6447Z" fill="#6CE0DC"/>
<path d="M222.96 44.9661C223.013 45.1328 223.013 45.2995 222.96 45.4661C221.053 45.6528 219.637 46.5695 218.71 48.2161L218.34 46.9961C218.306 46.8786 218.224 46.7755 218.106 46.7031C217.989 46.6307 217.842 46.5931 217.69 46.5961C216.997 46.6161 216.613 46.2395 216.54 45.4661C217.64 46.2461 218.73 46.3495 219.81 45.7761C220.903 45.2028 221.953 44.9328 222.96 44.9661Z" fill="#9B3C82"/>
<path d="M222.96 45.4663C224.733 47.0463 224.663 48.5596 222.75 50.0063C220.657 50.813 219.31 50.2163 218.71 48.2163C219.637 46.5696 221.053 45.653 222.96 45.4663Z" fill="#F4ADA2"/>
<path d="M220.5 54.7963C220.5 56.4035 219.861 57.9449 218.725 59.0814C217.588 60.2179 216.047 60.8563 214.44 60.8563C212.833 60.8563 211.291 60.2179 210.155 59.0814C209.018 57.9449 208.38 56.4035 208.38 54.7963C208.38 53.1891 209.018 51.6477 210.155 50.5113C211.291 49.3748 212.833 48.7363 214.44 48.7363C216.047 48.7363 217.588 49.3748 218.725 50.5113C219.861 51.6477 220.5 53.1891 220.5 54.7963ZM212.94 52.2763C213.067 53.1697 213.9 54.8163 215.44 57.2163C215.483 57.2843 215.536 57.3415 215.593 57.3831C215.65 57.4248 215.711 57.4499 215.77 57.4563C215.977 57.4763 216.003 57.3497 215.85 57.0763C214.983 55.4963 214.2 53.8763 213.5 52.2163C212.92 50.843 212.733 50.863 212.94 52.2763ZM215.44 51.7763C215.953 52.4497 216.57 53.6597 217.29 55.4063C217.343 55.5394 217.424 55.6537 217.52 55.7341C217.617 55.8146 217.725 55.8572 217.83 55.8563C218.13 55.863 218.147 55.6163 217.88 55.1163C217.227 53.8963 216.543 52.6963 215.83 51.5163C215.78 51.432 215.709 51.3648 215.631 51.3264C215.552 51.288 215.471 51.2809 215.4 51.3063C215.227 51.3663 215.24 51.523 215.44 51.7763ZM211.64 56.5963C211.879 57.3917 212.385 58.0775 213.07 58.5363C213.317 58.703 213.32 58.1063 213.08 56.7463C212.993 56.2397 212.793 55.783 212.48 55.3763C211.153 53.6563 210.873 54.063 211.64 56.5963Z" fill="#5B2448"/>
<path d="M113 51.2564L113.96 56.4664C109.58 56.9864 106.613 55.2964 105.06 51.3964C104.613 50.2764 104.963 49.8964 106.11 50.2564C108.317 50.9364 110.613 51.2697 113 51.2564Z" fill="#5B2448"/>
<path d="M212.94 52.2764C212.733 50.8631 212.92 50.8431 213.5 52.2164C214.2 53.8764 214.983 55.4964 215.85 57.0764C216.003 57.3497 215.977 57.4764 215.77 57.4564C215.711 57.4499 215.65 57.4249 215.593 57.3832C215.536 57.3415 215.483 57.2844 215.44 57.2164C213.9 54.8164 213.067 53.1697 212.94 52.2764Z" fill="#773666"/>
<path d="M215.44 51.7765C215.24 51.5231 215.227 51.3665 215.4 51.3065C215.471 51.2811 215.552 51.2882 215.631 51.3265C215.71 51.3649 215.78 51.4321 215.83 51.5165C216.543 52.6965 217.227 53.8965 217.88 55.1165C218.147 55.6165 218.13 55.8631 217.83 55.8565C217.725 55.8573 217.617 55.8147 217.52 55.7343C217.424 55.6539 217.343 55.5395 217.29 55.4065C216.57 53.6598 215.953 52.4498 215.44 51.7765Z" fill="#773666"/>
<path d="M211.64 56.5963C210.873 54.063 211.153 53.6563 212.48 55.3763C212.793 55.783 212.993 56.2397 213.08 56.7463C213.32 58.1063 213.317 58.703 213.07 58.5363C212.385 58.0775 211.879 57.3917 211.64 56.5963Z" fill="#773666"/>
<path d="M92.71 60.9661C93.91 67.7861 96.1534 73.9727 99.44 79.5261C100.18 80.7861 101.353 82.0127 102.96 83.2061C104.493 84.3394 105.837 84.4994 106.99 83.6861C107.683 83.1994 108.303 82.2294 108.85 80.7761C109.757 78.3361 110.37 75.8127 110.69 73.2061C110.77 72.5727 111.043 72.1827 111.51 72.0361C111.636 71.9978 111.776 72.0139 111.906 72.0815C112.036 72.1492 112.147 72.2641 112.22 72.4061C113.34 74.6194 114.717 76.6494 116.35 78.4961C116.883 79.1094 117.407 79.4527 117.92 79.5261C118.54 79.6194 119.037 79.4027 119.41 78.8761C119.637 78.5561 119.767 78.0861 119.8 77.4661C120.08 71.9327 118.813 66.7527 116 61.9261C120.58 59.4661 125.43 58.8994 130.55 60.2261C139.003 62.4194 146.54 66.3561 153.16 72.0361C160.947 78.7227 167.88 86.1994 173.96 94.4661C172.22 94.8527 170.65 95.6161 169.25 96.7561C168.85 96.6361 168.37 96.7261 167.81 97.0261C158.25 102.186 150.91 106.333 145.79 109.466C145.51 108.826 145.1 107.473 144.56 105.406C141.427 93.2927 136.507 81.9527 129.8 71.3861C128.693 69.6394 128.51 69.7327 129.25 71.6661C129.51 72.3527 129.967 73.1761 130.62 74.1361C131.353 75.2161 131.86 76.0027 132.14 76.4961C138.08 86.9094 142.263 97.5861 144.69 108.526C144.85 109.266 145.05 109.746 145.29 109.966L146.29 117.466L149.79 137.966C149.79 140.206 149.963 142.436 150.31 144.656C151.463 151.943 152.17 159.186 152.43 166.386C152.439 166.604 152.373 166.82 152.242 166.996C152.111 167.172 151.923 167.299 151.71 167.356C133.49 172.183 115.17 174.523 96.75 174.376C80.6767 174.249 64.8834 171.343 49.37 165.656C49.1857 165.589 49.0339 165.45 48.9436 165.268C48.8532 165.085 48.8306 164.871 48.88 164.666L51.5 154.256L87.66 166.266C87.8759 166.338 88.1117 166.321 88.316 166.217C88.5203 166.114 88.6764 165.934 88.75 165.716L98.25 138.006C99.45 137.106 100.187 135.926 100.46 134.466L100.75 133.256C102.497 132.196 103.317 130.683 103.21 128.716L103.5 127.506C104.873 126.173 105.457 124.563 105.25 122.676C105.09 122.396 105.077 122.076 105.21 121.716C107.223 119.556 107.5 117.223 106.04 114.716L109.98 102.786C110.091 102.447 110.074 102.081 109.931 101.768C109.789 101.455 109.533 101.221 109.22 101.116L94.04 96.2161L96.36 89.1161C96.4449 88.8502 96.4275 88.5635 96.3114 88.3182C96.1953 88.0729 95.99 87.8889 95.74 87.8061L80.21 82.6261C80.0132 82.5628 79.7971 82.5847 79.6069 82.6873C79.4168 82.7898 79.2674 82.965 79.19 83.1761L76.71 89.9661L61.56 85.0661C61.2832 84.9747 60.9811 84.9968 60.7191 85.1278C60.4572 85.2588 60.2563 85.4881 60.16 85.7661L53.25 105.506C43.8967 100.679 34.23 96.5961 24.25 93.2561L14.79 89.2161C25.69 77.1294 38.4067 67.6927 52.94 60.9061C66.1467 54.7327 79.4034 54.7527 92.71 60.9661ZM111.74 74.9561C112.9 81.2427 114.263 87.4894 115.83 93.6961C116.357 95.7627 115.83 96.9894 114.25 97.3761C113.903 97.4627 113.873 97.5894 114.16 97.7561C114.767 98.1027 115.297 98.0661 115.75 97.6461C116.09 97.3261 116.277 96.8161 116.31 96.1161C116.43 93.4094 116.013 90.4227 115.06 87.1561C114.587 85.5161 113.66 81.3661 112.28 74.7061C112.167 74.1461 112.013 74.0394 111.82 74.3861C111.73 74.5343 111.702 74.738 111.74 74.9561ZM111.17 84.8561C111.203 85.1294 111.343 85.2461 111.59 85.2061C111.731 85.1858 111.862 85.1103 111.965 84.9912C112.068 84.8721 112.137 84.7158 112.16 84.5461C112.253 83.8727 112.043 83.7294 111.53 84.1161C111.403 84.2101 111.302 84.3286 111.239 84.4589C111.176 84.5893 111.152 84.7266 111.17 84.8561ZM113.75 91.3861C112.83 90.2927 112.567 90.4294 112.96 91.7961C112.992 91.9198 113.052 92.0306 113.132 92.1143C113.212 92.1979 113.309 92.2508 113.41 92.2661C113.563 92.2861 113.693 92.2627 113.8 92.1961C113.851 92.1616 113.89 92.1125 113.915 92.052C113.94 91.9916 113.95 91.9209 113.946 91.8447C113.941 91.7685 113.921 91.6883 113.888 91.6094C113.854 91.5304 113.807 91.4543 113.75 91.3861Z" fill="#F16D22"/>
<path d="M116.99 78.4261C114.75 75.5461 112.847 72.2594 111.28 68.5661C111.225 68.4355 111.217 68.2895 111.259 68.154C111.302 68.0185 111.39 67.9023 111.51 67.8261C113.217 66.7661 114.403 65.5794 115.07 64.2661C115.45 63.5128 115.823 63.5194 116.19 64.2861C117.79 67.6194 118.833 71.1228 119.32 74.7961C119.473 75.9561 119.383 77.0461 119.05 78.0661C118.59 79.4661 117.903 79.5861 116.99 78.4261Z" fill="#F16D22"/>
<path d="M103.57 68.5861C105.443 68.7394 107.313 68.7361 109.18 68.5761C109.246 68.5692 109.313 68.5758 109.376 68.5955C109.439 68.6151 109.498 68.6475 109.549 68.6905C109.599 68.7335 109.64 68.7863 109.67 68.8457C109.699 68.9051 109.716 68.9699 109.72 69.0361C109.98 72.9761 109.467 76.7861 108.18 80.4661C107.653 81.9594 106.92 82.9128 105.98 83.3261C104.567 83.9394 103.2 83.3528 101.88 81.5661C98.3533 76.8194 95.9733 71.5161 94.74 65.6561C94.5867 64.9228 94.8 64.7894 95.38 65.2561C97.8333 67.2294 100.563 68.3394 103.57 68.5861Z" fill="#F16D22"/>
<path d="M145.79 109.466C145.69 109.699 145.523 109.866 145.29 109.966C145.05 109.746 144.85 109.266 144.69 108.526C142.263 97.5861 138.08 86.9095 132.14 76.4961C131.86 76.0028 131.353 75.2161 130.62 74.1361C129.967 73.1761 129.51 72.3528 129.25 71.6661C128.51 69.7328 128.693 69.6395 129.8 71.3861C136.507 81.9528 141.427 93.2928 144.56 105.406C145.1 107.473 145.51 108.826 145.79 109.466Z" fill="#FECAC4"/>
<path d="M111.82 74.3863C112.014 74.0397 112.167 74.1463 112.28 74.7063C113.66 81.3663 114.587 85.5163 115.06 87.1563C116.014 90.423 116.43 93.4097 116.31 96.1163C116.277 96.8163 116.09 97.3263 115.75 97.6463C115.297 98.0663 114.767 98.103 114.16 97.7563C113.874 97.5897 113.904 97.463 114.25 97.3763C115.83 96.9897 116.357 95.763 115.83 93.6963C114.264 87.4897 112.9 81.243 111.74 74.9563C111.702 74.7383 111.73 74.5345 111.82 74.3863Z" fill="#F4ADA2"/>
<path d="M94.0402 96.2163L92.9202 99.5463C92.8552 99.7417 92.7549 99.9233 92.625 100.081C92.4952 100.238 92.3383 100.367 92.1635 100.462C91.9887 100.557 91.7995 100.615 91.6067 100.633C91.4139 100.651 91.2214 100.628 91.0402 100.566L76.2602 95.5563C75.9588 95.4533 75.7164 95.2123 75.584 94.884C75.4516 94.5558 75.4395 94.1658 75.5502 93.7963L76.7102 89.9663L79.1902 83.1763C79.2676 82.9652 79.417 82.79 79.6071 82.6875C79.7973 82.585 80.0134 82.563 80.2102 82.6263L95.7402 87.8063C95.9902 87.8891 96.1955 88.0732 96.3116 88.3184C96.4277 88.5637 96.4451 88.8504 96.3602 89.1163L94.0402 96.2163Z" fill="#FFCF2D"/>
<path d="M111.53 84.1164C112.043 83.7297 112.253 83.873 112.16 84.5464C112.136 84.7161 112.068 84.8724 111.965 84.9915C111.862 85.1106 111.731 85.1861 111.59 85.2064C111.343 85.2464 111.203 85.1297 111.17 84.8564C111.152 84.7269 111.176 84.5896 111.239 84.4592C111.302 84.3289 111.403 84.2104 111.53 84.1164Z" fill="#FECAC4"/>
<path d="M76.71 89.9662L75.55 93.7962C75.4392 94.1658 75.4513 94.5557 75.5837 94.884C75.7161 95.2122 75.9586 95.4532 76.26 95.5562L91.04 100.566C91.2211 100.628 91.4136 100.651 91.6064 100.633C91.7992 100.615 91.9885 100.557 92.1633 100.462C92.338 100.367 92.4949 100.238 92.6248 100.08C92.7546 99.9232 92.855 99.7417 92.92 99.5462L94.04 96.2162L109.22 101.116C109.533 101.221 109.789 101.456 109.931 101.769C110.074 102.081 110.091 102.447 109.98 102.786L106.04 114.716C104.153 116.456 101.377 117.16 97.71 116.826C97.5061 116.808 97.3099 116.741 97.1358 116.631C96.9617 116.52 96.814 116.37 96.7038 116.189C96.5935 116.009 96.5233 115.804 96.4984 115.589C96.4735 115.374 96.4946 115.154 96.56 114.946L98.84 107.576C99.5333 105.316 98.82 104.79 96.7 105.996C95.1133 106.896 93.5633 107.883 92.05 108.956C86.5966 112.81 80.4966 114.71 73.75 114.656C66.1766 114.59 58.83 113.276 51.71 110.716L53.25 105.506L60.16 85.7662C60.2563 85.4882 60.4571 85.259 60.7191 85.128C60.981 84.997 61.2831 84.9748 61.56 85.0662L76.71 89.9662Z" fill="#21A0AA"/>
<path d="M14.7901 89.2163L24.2501 93.2563C32.8235 97.5696 41.1268 102.693 49.1602 108.626C50.3868 109.533 50.2501 109.853 48.7501 109.586C45.0968 108.926 41.5301 108.803 38.0501 109.216C37.8235 109.243 37.8268 109.27 38.0602 109.296L51.7101 110.716C58.8301 113.276 66.1768 114.59 73.7501 114.656C80.4968 114.71 86.5968 112.81 92.0501 108.956C93.5635 107.883 95.1135 106.896 96.7001 105.996C98.8201 104.79 99.5335 105.316 98.8401 107.576L96.5601 114.946C96.4947 115.154 96.4737 115.374 96.4986 115.589C96.5235 115.804 96.5936 116.009 96.7039 116.189C96.8142 116.37 96.9618 116.52 97.136 116.631C97.3101 116.741 97.5063 116.808 97.7101 116.826C101.377 117.16 104.153 116.456 106.04 114.716C107.5 117.223 107.223 119.556 105.21 121.716C103.877 122.87 101.973 123.62 99.5001 123.966C98.6535 124.086 98.4935 124.296 99.0201 124.596C99.1601 124.676 99.3201 124.71 99.5001 124.696C101.58 124.49 103.497 123.816 105.25 122.676C105.457 124.563 104.873 126.173 103.5 127.506C101.987 128.613 100.32 129.06 98.5001 128.846C98.1644 128.808 97.8674 128.846 97.6601 128.956C97.1535 129.243 97.2868 129.476 98.0601 129.656C99.5068 129.99 101.223 129.676 103.21 128.716C103.317 130.683 102.497 132.196 100.75 133.256L96.5701 134.016C96.3827 134.051 96.2128 134.115 96.0838 134.199C95.9548 134.283 95.8732 134.384 95.8501 134.486C95.7635 134.86 96.0635 135.01 96.7501 134.936C97.9901 134.796 99.2268 134.64 100.46 134.466C100.187 135.926 99.4501 137.106 98.2501 138.006C95.5901 139.486 93.1735 140.473 91.0001 140.966C74.6135 144.68 57.4468 146.693 39.5001 147.006C34.2468 147.006 29.7468 146.66 26.0001 145.966C14.4201 143.82 6.56681 137.173 2.44015 126.026C1.28015 122.893 0.810148 119.873 1.03015 116.966C1.54348 110.22 3.73681 104.086 7.61015 98.5663C9.87015 95.3463 12.2635 92.2296 14.7901 89.2163Z" fill="#F4ADA2"/>
<path d="M113.8 92.1961C113.693 92.2628 113.563 92.2861 113.41 92.2661C113.309 92.2508 113.212 92.198 113.132 92.1143C113.052 92.0306 112.992 91.9199 112.96 91.7961C112.567 90.4295 112.83 90.2928 113.75 91.3861C113.807 91.4544 113.854 91.5305 113.887 91.6094C113.921 91.6884 113.941 91.7686 113.946 91.8448C113.95 91.921 113.94 91.9916 113.915 92.0521C113.89 92.1126 113.851 92.1616 113.8 92.1961Z" fill="#F4ADA2"/>
<path d="M24.25 93.2563C34.23 96.5963 43.8967 100.68 53.25 105.506L51.71 110.716L38.06 109.296C37.8267 109.27 37.8233 109.243 38.05 109.216C41.53 108.803 45.0967 108.926 48.75 109.586C50.25 109.853 50.3867 109.533 49.16 108.626C41.1267 102.693 32.8233 97.5697 24.25 93.2563Z" fill="#9B3C59"/>
<path d="M175 95.2563L175.21 95.2163C174.23 99.6496 173.88 104.13 174.16 108.656C174.164 108.721 174.154 108.787 174.13 108.847C174.106 108.907 174.07 108.96 174.025 109C173.979 109.041 173.927 109.067 173.871 109.077C173.816 109.086 173.761 109.079 173.71 109.056C173.417 108.923 173.247 108.646 173.2 108.226C172.713 103.746 173.313 99.423 175 95.2563Z" fill="#AD578A"/>
<path d="M169.25 96.7565C161.01 103.01 153.357 109.913 146.29 117.467L145.29 109.967C145.523 109.867 145.69 109.7 145.79 109.467C150.91 106.333 158.25 102.187 167.81 97.0265C168.37 96.7265 168.85 96.6365 169.25 96.7565Z" fill="#9B3C59"/>
<path d="M105.21 121.716C105.076 122.076 105.09 122.396 105.25 122.676C103.496 123.816 101.58 124.49 99.4998 124.696C99.3198 124.71 99.1598 124.676 99.0198 124.596C98.4931 124.296 98.6531 124.086 99.4998 123.966C101.973 123.62 103.876 122.87 105.21 121.716Z" fill="#9B3C82"/>
<path d="M103.5 127.506L103.21 128.716C101.224 129.676 99.5069 129.99 98.0602 129.656C97.2869 129.476 97.1535 129.243 97.6602 128.956C97.8675 128.847 98.1644 128.808 98.5002 128.846C100.32 129.06 101.987 128.613 103.5 127.506Z" fill="#9B3C82"/>
<path d="M100.75 133.256L100.46 134.466C99.2267 134.64 97.99 134.796 96.75 134.936C96.0634 135.01 95.7634 134.86 95.85 134.486C95.8731 134.384 95.9547 134.283 96.0837 134.199C96.2126 134.115 96.3826 134.051 96.57 134.016L100.75 133.256Z" fill="#AD578A"/>
<path d="M98.25 138.006L88.75 165.716C88.6764 165.934 88.5203 166.115 88.316 166.218C88.1117 166.321 87.8759 166.338 87.6601 166.266L51.5001 154.256C47.7801 152.903 44.0301 151.64 40.2501 150.466C38.6101 149.96 38.3601 148.806 39.5001 147.006C57.4467 146.693 74.6134 144.68 91 140.966C93.1734 140.473 95.59 139.486 98.25 138.006Z" fill="#21A0AA"/>
</g>
<defs>
<clipPath id="clip0_201_18262">
<rect width="225" height="174" fill="white" transform="translate(0.5 0.716309)"/>
</clipPath>
</defs>
</svg>
