<svg width="320" height="177" viewBox="0 0 320 177" fill="none" xmlns="http://www.w3.org/2000/svg">
<g clip-path="url(#clip0_201_18374)">
<path d="M114.238 5.58008C114.153 5.97012 113.91 6.22461 113.511 6.34353C112.16 6.74784 110.818 7.30437 109.486 8.01311C108.549 8.51256 108.271 9.25697 108.652 10.2463C109.251 11.8256 110.49 12.1466 112.369 11.2096C113.825 10.4866 115.32 9.85869 116.857 9.32594" stroke="#CD8558" stroke-width="1.427"/>
<path d="M120.096 17.146C118.493 17.9356 116.871 18.6871 115.23 19.4006C114.312 19.8002 113.706 20.3234 113.411 20.9703C112.807 22.2879 113.373 23.1394 115.109 23.5247C115.337 23.5758 115.575 23.5585 115.794 23.4747L121.316 21.2771" stroke="#CD8558" stroke-width="1.427"/>
<path d="M118.491 30.7594C116.583 30.4978 114.845 29.4918 113.275 27.7413C107.172 20.9488 104.333 13.1455 104.756 4.33147C104.789 3.59894 105.206 2.59766 106.005 1.32764" stroke="#90B76C" stroke-width="1.427"/>
<path d="M112.069 34.0915C112.022 33.7633 111.858 33.5778 111.577 33.535C111.187 33.4732 110.961 33.428 110.899 33.3994C108.63 32.3815 106.701 30.7191 105.113 28.4121C101.35 22.9515 99.0313 17.1246 98.156 10.9314C97.8088 8.46269 98.225 5.95594 99.4047 3.41113" stroke="#8ECED4" stroke-width="1.427"/>
<path d="M110.464 34.5052C108.885 33.6918 107.508 32.6215 106.333 31.2944C102.656 27.1561 100.004 22.4352 98.3772 17.1315C97.0263 12.7173 96.7742 8.4601 97.6209 4.35986" stroke="#8ECED4" stroke-width="1.427"/>
<path d="M84.4213 29.9889C84.6306 29.6464 84.6211 29.3562 84.3928 29.1184C84.1216 28.8283 83.9694 28.6546 83.9361 28.5975L82.8159 26.4214" stroke="#43A8CC" stroke-width="1.427"/>
<path d="M78.5634 32.5143C78.6157 31.2205 78.19 30.6212 77.2862 30.7163C76.8391 30.7639 76.3254 31.0207 75.7451 31.4869C74.2515 32.6618 72.9315 34.0151 71.7852 35.5467" stroke="#ADAEC8" stroke-width="1.427"/>
<path d="M71.7853 35.5469C71.6569 35.3661 71.469 35.2971 71.2217 35.3399" stroke="#867DBA" stroke-width="1.427"/>
<path d="M73.3907 30.5527C72.9103 32.2604 72.1873 33.8562 71.2217 35.3403" stroke="#ADAEC8" stroke-width="1.427"/>
<path d="M71.2215 35.3402C70.4604 36.1964 69.7207 37.0692 69.0025 37.9587C68.7361 38.2869 68.4697 38.4843 68.2034 38.5509C67.6659 38.6841 67.3638 38.3963 67.2972 37.6876C67.0261 34.6862 67.2045 31.1282 67.8323 27.0137" stroke="#CE7C94" stroke-width="1.427"/>
<path d="M71.7852 35.5469C68.7837 39.7708 67.0642 42.639 66.6266 44.1517C66.3888 44.9698 66.1319 45.1767 65.856 44.7724C65.7995 44.6922 65.7672 44.5916 65.7622 44.4804C65.7572 44.3691 65.7797 44.251 65.8275 44.1374C66.3174 42.9673 66.8573 41.8233 67.4471 40.7055C68.0607 39.5448 67.8443 39.0121 66.7978 39.1072C66.7007 39.1182 66.6076 39.1619 66.5301 39.233C66.4527 39.3041 66.3944 39.3994 66.3626 39.5068C66.0772 40.4676 65.5421 41.2192 64.7572 41.7614C64.2625 42.1039 63.7916 42.1848 63.3445 42.004C62.8498 41.8138 62.4717 41.4213 62.21 40.8268C62.0293 40.4272 61.8247 40.4296 61.5964 40.8339L60.4049 42.9458C60.3406 43.0587 60.2956 43.1727 60.2734 43.279C60.2511 43.3854 60.2522 43.4813 60.2765 43.5595C61.2183 46.4753 61.5489 49.4601 61.2682 52.5139C61.2444 52.7517 61.1755 52.961 61.0613 53.1417C60.657 53.7791 60.3882 53.7506 60.255 53.0561C60.217 52.8706 60.2146 52.6447 60.2479 52.3783C60.5476 49.8763 60.3977 47.4028 59.7984 44.9579C59.532 43.8877 58.878 43.0576 57.8363 42.4678C57.7982 42.4469 57.7558 42.4349 57.7124 42.4328C57.669 42.4307 57.6257 42.4386 57.5857 42.4558C57.5458 42.473 57.5104 42.4991 57.4821 42.5321C57.4538 42.5651 57.4334 42.6041 57.4225 42.6462C57.0181 44.1636 56.1572 44.77 54.8396 44.4656" stroke="#CE7C94" stroke-width="1.427"/>
<path d="M54.8396 44.4659C54.1214 43.995 53.9335 43.4504 54.276 42.832" stroke="#867DBA" stroke-width="1.427"/>
<path d="M70.0014 101.724C69.2451 104.512 68.5744 107.318 67.9894 110.143C67.8799 110.676 68.0012 110.809 68.3532 110.543C68.4484 110.472 68.5221 110.369 68.5744 110.236C69.3973 108.034 70.0418 105.779 70.508 103.472C70.6269 102.873 70.5579 102.29 70.3011 101.724" stroke="#CE7C94" stroke-width="1.427"/>
<path d="M72.1135 99.9116C72.5226 100.04 72.8294 100.287 73.0339 100.654" stroke="#F77E74" stroke-width="1.427"/>
<path d="M73.0339 100.654C77.8857 110.167 81.6221 119.68 84.243 129.194C85.2229 132.756 85.9459 136.859 86.412 141.502" stroke="#C87592" stroke-width="1.427"/>
<path d="M86.4119 141.501C84.4474 142.244 82.4163 142.729 80.3186 142.957" stroke="#A86975" stroke-width="1.427"/>
<path d="M51.6289 47.6766L54.8396 44.4658" stroke="#ADAEC8" stroke-width="1.427"/>
<path d="M67.654 27.0137C67.711 27.2705 67.6635 27.4394 67.5113 27.5203C67.3947 27.5808 67.2936 27.6491 67.2183 27.7181C67.143 27.7871 67.0964 27.8543 67.0832 27.9127C66.5266 30.486 66.2246 33.0903 66.177 35.7255C66.139 37.7851 65.7798 39.243 65.0996 40.0992C63.7868 41.7593 62.914 41.5548 62.4811 39.4856C61.896 36.6602 61.7676 33.8228 62.0958 30.9736C62.1148 30.7928 62.1077 30.6359 62.0744 30.5027C61.9412 29.9937 61.7557 29.939 61.5179 30.3386C61.4465 30.4622 61.4037 30.6168 61.3895 30.8024C61.1374 33.7039 60.9233 36.6102 60.7473 39.5213C60.7045 40.23 60.626 40.7842 60.5118 41.1837C60.1266 42.5156 59.5391 42.7701 58.7495 41.9472C58.4023 41.5857 58.1288 41.0743 57.929 40.4132C57.2535 38.1442 56.9658 35.8206 57.0657 33.4423C57.0681 33.3868 57.0611 33.3313 57.0453 33.2796C57.0294 33.2278 57.0051 33.181 56.9739 33.1424C56.9427 33.1038 56.9055 33.0742 56.8646 33.0558C56.8238 33.0374 56.7804 33.0305 56.7374 33.0356C56.5519 33.0546 56.4449 33.1783 56.4164 33.4066C56.131 35.6851 56.2499 37.9445 56.7731 40.1848C57.1537 41.8069 56.961 42.8628 56.1952 43.3528C55.4912 43.7999 54.8514 43.6263 54.2759 42.8319" stroke="#CE7C94" stroke-width="1.427"/>
<path d="M54.2761 42.8319L53.3557 41.0767" stroke="#ADAEC8" stroke-width="1.427"/>
<path d="M240.499 98.8984C239.229 99.8973 238.173 101.091 237.331 102.48C230.453 113.787 226.167 126.021 224.474 139.183" stroke="#CA4664" stroke-width="1.427"/>
<path d="M224.474 139.183C224.108 142.736 224.112 145.932 224.488 148.772C224.64 149.909 225.064 151.169 225.758 152.554C225.82 152.677 225.97 152.853 226.208 153.082C226.498 153.367 226.555 153.728 226.379 154.166" stroke="#AA3A47" stroke-width="1.427"/>
<path d="M212.344 156.485C212.558 158.345 213.024 160.138 213.743 161.865" stroke="#9C807D" stroke-width="1.427"/>
<path d="M213.743 161.865L215.705 172.332" stroke="#AA3A47" stroke-width="1.427"/>
<path d="M105.798 172.717L106.868 161.479" stroke="#AA3A47" stroke-width="1.427"/>
<path d="M106.868 161.479L107.581 156.128" stroke="#9C807D" stroke-width="1.427"/>
<path d="M98.3344 154.73C98.049 154.568 97.9491 154.345 98.0348 154.059C98.1346 153.755 98.187 153.579 98.1917 153.531C98.401 151.633 98.2702 149.586 97.7993 147.388C97.0525 143.878 96.1012 140.776 94.9453 138.084" stroke="#AA3A47" stroke-width="1.427"/>
<path d="M94.9455 138.084C89.8035 125.122 82.9516 112.957 74.3896 101.588C73.9948 101.07 73.5429 100.758 73.0339 100.654" stroke="#CA4664" stroke-width="1.427"/>
<path d="M94.9453 138.084C92.3196 139.787 89.4751 140.926 86.4119 141.502" stroke="#7B3065" stroke-width="1.427"/>
<path d="M106.868 161.479C101.464 162.417 96.4938 163.739 91.9559 165.447C90.7239 165.913 89.461 166.681 88.1672 167.751" stroke="#4D6A7E" stroke-width="1.427"/>
<path d="M231.58 142.186C231.285 142.362 230.943 142.358 230.553 142.172C228.522 141.188 226.495 140.191 224.474 139.183" stroke="#7B3065" stroke-width="1.427"/>
<path d="M169.656 61.9466C165.418 62.3747 161.539 61.8752 158.019 60.4482C157.296 60.1581 157.151 60.3365 157.583 60.9834C159.196 63.3997 161.446 64.8505 164.333 65.3357C167.349 65.8399 169.361 66.0777 170.369 66.0492" stroke="#A86975" stroke-width="1.427"/>
<path d="M173.787 81.0611C175.076 86.6597 174.577 92.0847 172.289 97.336C171.314 99.5859 169.925 101.063 168.122 101.767C166.486 102.409 165.02 102.178 163.727 101.075C162.533 100.047 161.65 98.9699 161.08 97.8426C159.557 94.8459 158.421 91.5162 157.669 87.8536C157.622 87.6205 157.574 87.6182 157.526 87.8465C156.08 94.7674 154.96 102.782 154.166 111.891C153.79 116.187 155.521 118.796 159.36 119.718C159.574 119.771 159.745 119.861 159.874 119.99C160.326 120.441 160.24 120.675 159.617 120.689C159.431 120.689 159.22 120.66 158.982 120.603C154.739 119.523 152.777 116.679 153.096 112.07C153.624 104.459 154.611 97.3693 156.057 90.8004C156.104 90.5816 156.135 90.3723 156.149 90.1725C156.273 88.2841 156.052 88.1485 155.486 89.7658C154.054 93.866 151.88 97.4739 148.964 100.59C147.961 101.655 146.957 102.195 145.953 102.209C144.622 102.223 143.492 101.588 142.564 100.304C141.684 99.0865 141.075 97.7689 140.738 96.3514C140.528 95.4857 140.331 94.0729 140.146 92.1132C139.798 88.4648 140.205 84.7261 141.366 80.897C141.556 80.2691 141.898 79.9076 142.393 79.8125" stroke="#F77E74" stroke-width="1.427"/>
<path d="M236.396 143.97L231.58 142.187" stroke="#A86975" stroke-width="1.427"/>
<path d="M231.58 142.186C230.581 126.884 233.554 112.455 240.499 98.8984" stroke="#C87592" stroke-width="1.427"/>
<path d="M240.499 98.8984C240.765 98.6511 240.894 98.3443 240.884 97.978" stroke="#F77E74" stroke-width="1.427"/>
<path d="M247.812 104.607L247.598 105.327C247.508 105.641 247.47 105.865 247.484 105.998C247.693 108.495 248.195 110.928 248.99 113.297C249.068 113.533 249.209 113.727 249.389 113.846C249.988 114.256 250.184 114.018 249.974 113.133C249.304 110.284 248.633 107.432 247.962 104.578" stroke="#CE7C94" stroke-width="1.427"/>
<path d="M230.688 167.751C229.437 166.719 228.174 165.951 226.9 165.446C222.823 163.839 218.437 162.645 213.743 161.865" stroke="#4D6A7E" stroke-width="1.427"/>
<path d="M169.299 30.5524L165.396 31.7154C165.292 31.7469 165.18 31.7467 165.077 31.7149C164.974 31.683 164.884 31.6211 164.818 31.537C163.938 30.4335 164.081 29.4179 165.246 28.4904C165.422 28.3524 165.408 28.3191 165.204 28.3905C162.573 29.299 160.245 30.6975 158.218 32.5859C158.033 32.7523 158.061 32.8142 158.304 32.7714C158.623 32.7095 158.939 32.6334 159.253 32.5431C159.824 32.3718 160.249 32.3242 160.53 32.4003C161.034 32.5288 161.339 32.8641 161.443 33.4064C161.48 33.6123 161.424 33.8499 161.286 34.0699C160.116 35.8965 158.946 37.723 157.776 39.5496C157.143 40.539 156.549 40.715 155.992 40.0776C155.712 39.7589 155.533 39.3165 155.457 38.7505C155.286 37.4614 155.488 36.2128 156.064 35.0046C156.268 34.586 156.209 34.5218 155.885 34.812C155.838 34.8548 155.8 34.9047 155.771 34.9618C154.035 38.2011 153.148 41.6663 153.11 45.3575C153.091 46.9177 152.986 48.0783 152.796 48.8393C152.42 50.3329 151.583 50.6611 150.284 49.824C147.278 47.8785 144.122 46.8059 140.816 46.6061" stroke="#A86975" stroke-width="1.427"/>
<path d="M246.892 33.4067C247.192 35.0383 247.746 36.5842 248.554 38.0445" stroke="#ADAEC8" stroke-width="1.427"/>
<path d="M248.554 38.0444C248.573 38.3203 248.445 38.4488 248.169 38.4297" stroke="#867DBA" stroke-width="1.427"/>
<path d="M248.169 38.4295C246.728 36.7456 245.479 35.4875 244.423 34.6551C242.739 33.3327 241.838 33.6895 241.719 35.7253" stroke="#ADAEC8" stroke-width="1.427"/>
<path d="M258.693 33.4351C259.036 39.4189 259.333 43.2147 259.585 44.8225C259.794 46.1353 260.282 46.4564 261.048 45.7857C261.333 45.5384 261.564 45.1768 261.74 44.7012C262.701 42.1659 263.181 39.5307 263.181 36.7956" stroke="#CE7C94" stroke-width="1.427"/>
<path d="M263.688 36.646C263.902 39.2669 263.78 41.8688 263.324 44.4517C263.19 45.208 263.181 45.8144 263.295 46.2711C263.633 47.6315 264.408 47.7433 265.621 46.6064" stroke="#CE7C94" stroke-width="1.427"/>
<path d="M265.621 46.6064L266.392 47.4983" stroke="#867DBA" stroke-width="1.427"/>
<path d="M266.335 47.6766C266.021 47.4102 265.761 47.3888 265.557 47.6124C265.362 47.8312 265.26 47.9454 265.25 47.9549C264.289 48.6541 263.326 48.2308 262.36 46.6848C261.894 45.9333 261.469 45.9571 261.083 46.7562C259.58 49.8908 258.995 53.035 259.328 56.1886C259.352 56.417 259.352 56.6001 259.328 56.738C259.247 57.1804 259.059 57.2803 258.764 57.0377C258.609 56.9052 258.502 56.6856 258.465 56.4241C258.084 53.5939 258.293 51.1085 259.093 48.968C259.587 47.6552 259.54 46.535 258.95 45.6075C258.812 45.3934 258.738 45.1746 258.729 44.951C258.681 43.9236 258.434 43.6953 257.987 44.2661C257.711 44.6181 257.54 44.825 257.473 44.8868C256.017 46.2758 254.838 45.9476 253.934 43.9022C253.216 42.2754 252.7 42.1541 252.386 43.5383C252.335 43.7532 252.376 43.9888 252.5 44.1947C253.418 45.7407 253.863 46.8561 253.834 47.541C253.782 48.6922 253.544 48.8872 253.121 48.1261C253.045 47.9834 252.971 47.7955 252.899 47.5625C252.219 45.3791 251.132 43.2624 249.639 41.2123C249.135 40.5131 248.645 39.5856 248.169 38.4297" stroke="#CE7C94" stroke-width="1.427"/>
<path d="M252.478 30.5527C252.878 33.9442 252.997 37.3405 252.835 40.7415C252.811 41.1648 252.712 41.4835 252.536 41.6976C252.164 42.1399 251.741 42.0401 251.265 41.3979C250.409 40.242 249.506 39.1242 248.554 38.0445" stroke="#CE7C94" stroke-width="1.427"/>
<path d="M235.326 28.3833C234.974 29.3204 234.525 30.2027 233.978 31.0304C233.959 31.0637 233.861 31.1731 233.685 31.3586C233.504 31.5441 233.516 31.7415 233.721 31.9508" stroke="#43A8CC" stroke-width="1.427"/>
<path d="M258.336 33.4352C258.137 34.4864 258.077 35.5472 258.158 36.6174C258.31 38.5581 258.17 40.4584 257.737 42.3182C257.556 43.0793 257.321 43.6787 257.031 44.1163C256.246 45.2959 255.432 45.0557 254.59 43.3956C253.934 42.0971 253.694 40.0755 253.87 37.3309C254.022 34.9573 253.727 32.648 252.985 30.4028" stroke="#CE7C94" stroke-width="1.427"/>
<path d="M266.748 43.0386L265.621 46.6061" stroke="#ADAEC8" stroke-width="1.427"/>
<path d="M221.085 6.82861C221.579 9.64931 221.57 12.3249 221.056 14.8555C219.472 22.6611 215.712 29.3062 209.776 34.7906C209.048 35.4613 208.051 35.9607 206.786 36.2889" stroke="#8ECED4" stroke-width="1.427"/>
<path d="M219.451 5.72998C220.626 9.38785 220.678 13.0719 219.608 16.7821C218.209 21.6338 215.993 26.0766 212.958 30.1102C211.455 32.108 209.74 33.6682 207.814 34.7907C207.062 35.2284 206.115 35.4805 204.974 35.5471" stroke="#8ECED4" stroke-width="1.427"/>
<path d="M212.851 3.46826C213.974 5.9988 214.211 8.84328 213.564 12.0017C212.114 19.0844 209.036 25.0444 204.332 29.882C202.905 31.3518 201.285 32.2389 199.473 32.5433" stroke="#90B76C" stroke-width="1.427"/>
<path d="M206.94 13.6586C207.283 13.8212 207.713 13.7664 208.133 13.5063C208.554 13.2462 208.931 12.8022 209.181 12.2718C209.306 12.0092 209.395 11.7333 209.444 11.4599C209.494 11.1865 209.503 10.9209 209.47 10.6783C209.437 10.4357 209.364 10.2208 209.254 10.0459C209.145 9.87109 209 9.73968 208.83 9.65919C208.486 9.49665 208.057 9.55145 207.636 9.81153C207.216 10.0716 206.839 10.5157 206.588 11.046C206.464 11.3086 206.375 11.5845 206.325 11.8579C206.276 12.1314 206.267 12.3969 206.3 12.6396C206.332 12.8822 206.406 13.097 206.515 13.2719C206.625 13.4467 206.769 13.5781 206.94 13.6586Z" stroke="#CD8558" stroke-width="1.427"/>
<path d="M201.589 25.1314C201.756 25.206 201.944 25.2281 202.143 25.1966C202.342 25.165 202.548 25.0804 202.749 24.9474C202.95 24.8145 203.143 24.6359 203.315 24.4219C203.487 24.2079 203.636 23.9625 203.754 23.6999C203.991 23.1697 204.085 22.6012 204.014 22.1197C203.944 21.6382 203.715 21.2831 203.378 21.1324C203.211 21.0578 203.023 21.0356 202.824 21.0672C202.625 21.0987 202.419 21.1834 202.218 21.3163C202.017 21.4492 201.825 21.6278 201.653 21.8418C201.48 22.0559 201.331 22.3012 201.214 22.5638C200.977 23.0941 200.883 23.6625 200.953 24.144C201.024 24.6255 201.253 24.9807 201.589 25.1314Z" stroke="#CD8558" stroke-width="1.427"/>
<path d="M143.463 24.0167C143.192 23.7599 142.921 23.7194 142.65 23.8954C142.616 23.9172 142.59 23.9477 142.572 23.9843C142.555 24.021 142.547 24.0627 142.55 24.106C142.553 24.1493 142.566 24.1929 142.588 24.2332C142.611 24.2736 142.641 24.3094 142.678 24.3378C143.91 25.2511 144.902 26.3713 145.654 27.6984C145.715 27.804 145.802 27.8882 145.9 27.9355C145.997 27.9827 146.097 27.9897 146.182 27.9552C146.41 27.8649 146.455 27.6603 146.317 27.3416C145.856 26.2666 145.071 25.3082 143.963 24.4662C143.929 24.4424 143.763 24.2926 143.463 24.0167Z" stroke="#7B3065" stroke-width="1.427"/>
<path d="M169.413 37.916C169.356 37.8911 169.306 37.8516 169.268 37.8013C169.231 37.7511 169.208 37.6919 169.2 37.6297C169.193 37.5676 169.202 37.5046 169.227 37.4471C169.252 37.3897 169.291 37.3397 169.342 37.3023C170.203 36.6697 170.69 35.9586 170.804 35.169C170.938 34.2938 170.569 34.0583 169.698 34.4626L166.973 35.7398C166.876 35.7857 166.79 35.8515 166.72 35.9317C166.65 36.0119 166.6 36.1045 166.572 36.2021C166.544 36.2997 166.54 36.3996 166.56 36.494C166.58 36.5884 166.624 36.6746 166.687 36.7458C167.629 37.7875 168.84 38.6152 170.319 39.2288C170.53 39.3157 170.702 39.4756 170.806 39.6797C170.909 39.8838 170.936 40.1186 170.883 40.3419C170.521 41.883 170.731 42.2612 171.511 41.4763C172.738 40.2538 172.545 39.2883 170.933 38.5795L169.413 37.916Z" stroke="#A86975" stroke-width="1.427"/>
<path d="M164.697 40.6486C164.887 40.4392 165.011 40.1789 165.052 39.9007C165.094 39.6225 165.053 39.3389 164.932 39.086C164.29 37.7399 163.62 37.4568 162.92 38.2369C161.76 39.5212 160.478 40.7556 159.075 41.94C158.575 42.3681 158.651 42.6178 159.303 42.6892C161.434 42.927 163.232 42.2468 164.697 40.6486Z" stroke="#A86975" stroke-width="1.427"/>
<path d="M170.564 50.477C170.724 50.515 170.897 50.4902 171.073 50.4039C171.249 50.3176 171.426 50.1716 171.592 49.9742C171.758 49.7768 171.911 49.5318 172.042 49.2533C172.173 48.9748 172.279 48.6682 172.354 48.351C172.43 48.0338 172.473 47.7122 172.482 47.4046C172.491 47.097 172.465 46.8094 172.406 46.5582C172.346 46.3071 172.255 46.0973 172.136 45.9408C172.018 45.7843 171.875 45.6842 171.715 45.6462C171.556 45.6082 171.383 45.633 171.207 45.7193C171.03 45.8056 170.854 45.9516 170.688 46.149C170.522 46.3464 170.369 46.5914 170.238 46.8699C170.107 47.1484 170.001 47.455 169.925 47.7722C169.849 48.0894 169.806 48.411 169.797 48.7186C169.789 49.0262 169.815 49.3138 169.874 49.5649C169.933 49.8161 170.025 50.0259 170.143 50.1824C170.262 50.3389 170.405 50.439 170.564 50.477Z" stroke="#C87592" stroke-width="1.427"/>
<path d="M164.597 50.1953C164.597 49.0675 164.149 47.9859 163.351 47.1884C162.554 46.3909 161.472 45.9429 160.344 45.9429C159.217 45.9429 158.135 46.3909 157.338 47.1884C156.54 47.9859 156.092 49.0675 156.092 50.1953C156.092 51.3231 156.54 52.4048 157.338 53.2022C158.135 53.9997 159.217 54.4478 160.344 54.4478C161.472 54.4478 162.554 53.9997 163.351 53.2022C164.149 52.4048 164.597 51.3231 164.597 50.1953Z" stroke="#F09E9A" stroke-width="1.427"/>
<path d="M144.134 52.1786C145.594 52.3689 146.936 53.2227 148.158 54.7401C148.296 54.9065 148.429 55.0231 148.558 55.0897C148.871 55.2562 149.067 55.2205 149.143 54.9827C149.169 54.8949 149.166 54.7909 149.135 54.6801C149.104 54.5693 149.045 54.4551 148.964 54.3477C146.838 51.5127 144.032 50.5875 140.545 51.5721C140.369 51.6245 140.226 51.7101 140.117 51.829C139.703 52.2999 139.9 52.4545 140.709 52.2928C141.841 52.0645 142.983 52.0264 144.134 52.1786Z" stroke="#CE7C94" stroke-width="1.427"/>
<path d="M150.663 59.8452C150.611 59.7418 150.521 59.6631 150.412 59.6262C150.302 59.5894 150.183 59.5976 150.079 59.6489L147.472 60.9433C147.421 60.9687 147.375 61.0039 147.337 61.047C147.3 61.0901 147.271 61.1401 147.253 61.1943C147.234 61.2485 147.227 61.3057 147.231 61.3627C147.235 61.4197 147.25 61.4754 147.275 61.5266L147.294 61.565C147.346 61.6684 147.436 61.7471 147.545 61.784C147.655 61.8208 147.774 61.8126 147.878 61.7613L150.485 60.4669C150.536 60.4415 150.582 60.4063 150.62 60.3632C150.657 60.3201 150.686 60.2701 150.704 60.2159C150.722 60.1618 150.73 60.1045 150.726 60.0475C150.722 59.9905 150.707 59.9348 150.682 59.8836L150.663 59.8452Z" stroke="#CE7C94" stroke-width="1.427"/>
<path d="M144.526 100.903C145.392 101.574 146.296 101.629 147.237 101.067C148.755 100.168 150.025 98.7985 151.048 96.9577C153.083 93.2903 155.043 89.3804 156.927 85.2278C156.965 85.1414 156.982 85.0469 156.976 84.9525C156.969 84.8581 156.94 84.7667 156.89 84.6864C156.84 84.6061 156.771 84.5393 156.689 84.4919C156.607 84.4445 156.515 84.4179 156.42 84.4144C151.635 84.2289 147.109 82.8471 142.842 80.269C142.805 80.2464 142.763 80.2325 142.719 80.2284C142.676 80.2242 142.632 80.2299 142.591 80.2449C142.55 80.26 142.512 80.2841 142.482 80.3154C142.451 80.3467 142.428 80.3845 142.414 80.426C140.754 85.7011 140.504 91.0167 141.665 96.3726C142.069 98.2325 143.023 99.7427 144.526 100.903Z" stroke="#F77E74" stroke-width="1.427"/>
<path d="M164.468 100.518C165.953 101.564 167.334 101.55 168.614 100.475C170.16 99.1718 171.29 97.5522 172.003 95.6162C172.541 94.1607 172.971 92.277 173.294 89.9653C173.67 87.2445 173.549 84.5166 172.931 81.7815C172.921 81.7392 172.902 81.6997 172.875 81.6658C172.848 81.6318 172.814 81.6043 172.775 81.5851C172.736 81.566 172.693 81.5558 172.65 81.5552C172.606 81.5546 172.563 81.5637 172.524 81.5817C168.01 83.5747 163.272 84.5356 158.311 84.4642C158.257 84.4629 158.204 84.4739 158.156 84.4964C158.107 84.5189 158.064 84.5522 158.03 84.594C157.995 84.6358 157.971 84.685 157.958 84.7379C157.945 84.7907 157.944 84.846 157.954 84.8995C158.72 88.5764 159.759 92.17 161.072 95.6804C161.9 97.897 163.032 99.5095 164.468 100.518Z" stroke="#F77E74" stroke-width="1.427"/>
<path d="M158.861 100.632C158.861 100.394 158.766 100.165 158.597 99.9967C158.429 99.8281 158.2 99.7334 157.962 99.7334C157.723 99.7334 157.494 99.8281 157.326 99.9967C157.157 100.165 157.063 100.394 157.062 100.632C157.063 100.871 157.157 101.1 157.326 101.268C157.494 101.437 157.723 101.531 157.962 101.531C158.2 101.531 158.429 101.437 158.597 101.268C158.766 101.1 158.861 100.871 158.861 100.632Z" stroke="#F77E74" stroke-width="1.427"/>
<path d="M158.009 112.344C158.083 112.138 158.065 111.907 157.958 111.704C157.852 111.501 157.666 111.342 157.441 111.262C157.33 111.222 157.213 111.203 157.096 111.205C156.98 111.208 156.866 111.232 156.761 111.276C156.657 111.32 156.564 111.384 156.487 111.463C156.411 111.542 156.353 111.636 156.316 111.738C156.242 111.945 156.26 112.175 156.367 112.378C156.473 112.581 156.659 112.74 156.883 112.82C156.995 112.86 157.112 112.879 157.229 112.877C157.345 112.875 157.459 112.851 157.564 112.806C157.668 112.762 157.761 112.699 157.838 112.619C157.914 112.54 157.972 112.447 158.009 112.344Z" stroke="#F77E74" stroke-width="1.427"/>
<path d="M120.638 127.752C116.809 133.969 112.73 140.017 108.402 145.897C108.368 145.943 108.341 145.995 108.324 146.048C108.307 146.102 108.3 146.156 108.302 146.206C108.305 146.257 108.318 146.303 108.34 146.342C108.362 146.381 108.393 146.412 108.43 146.432C108.644 146.555 108.892 146.444 109.172 146.096C113.458 140.726 117.554 134.585 121.459 127.674C121.513 127.579 121.531 127.468 121.51 127.36C121.489 127.253 121.431 127.156 121.345 127.089C121.121 126.918 120.95 126.991 120.831 127.31C120.755 127.515 120.691 127.662 120.638 127.752Z" stroke="#F77E74" stroke-width="1.427"/>
<path d="M114.238 5.58009C114.153 5.97014 113.91 6.22462 113.511 6.34354C112.16 6.74786 110.818 7.30438 109.487 8.01312C108.549 8.51257 108.271 9.25698 108.652 10.2464C109.251 11.8256 110.49 12.1467 112.369 11.2096C113.825 10.4866 115.321 9.8587 116.857 9.32596C118.203 11.8232 119.283 14.4298 120.096 17.1459C118.493 17.9355 116.871 18.687 115.23 19.4005C114.312 19.8001 113.706 20.3233 113.411 20.9702C112.807 22.2878 113.373 23.1393 115.109 23.5246C115.337 23.5757 115.575 23.5584 115.794 23.4746L121.316 21.277C121.578 24.0216 121.587 26.1027 121.345 27.5202C121.088 29.0328 120.137 30.1125 118.491 30.7594C116.583 30.4978 114.845 29.4918 113.275 27.7413C107.172 20.9488 104.333 13.1455 104.756 4.33147C104.789 3.59895 105.206 2.59767 106.005 1.32764C107.346 0.671223 108.666 0.709279 109.965 1.4418C111.753 2.45021 113.178 3.82964 114.238 5.58009Z" fill="#FECE2D"/>
<path d="M106.005 1.32764C105.206 2.59766 104.789 3.59894 104.756 4.33147C104.333 13.1455 107.173 20.9488 113.275 27.7413C114.845 29.4918 116.584 30.4978 118.491 30.7594C116.479 32.1151 114.338 33.2257 112.069 34.0915C112.022 33.7632 111.858 33.5777 111.577 33.5349C111.187 33.4731 110.961 33.4279 110.899 33.3994C108.63 32.3814 106.702 30.719 105.113 28.412C101.35 22.9514 99.0315 17.1245 98.1563 10.9313C97.8091 8.46262 98.2253 5.95587 99.4049 3.41106C101.512 2.42643 103.712 1.73195 106.005 1.32764Z" fill="#21A0AA"/>
<path d="M212.851 3.46811C213.974 5.99865 214.211 8.84313 213.564 12.0015C212.114 19.0842 209.036 25.0443 204.332 29.8818C202.905 31.3516 201.285 32.2387 199.473 32.5432C197.699 31.8297 196.747 30.4526 196.619 28.412C196.495 26.438 196.588 24.697 196.897 23.1892C198.239 16.6583 201.095 10.8861 205.466 5.8726C206.289 4.93079 207.233 4.13643 208.299 3.48952C209.807 2.581 211.324 2.57386 212.851 3.46811ZM206.94 13.6588C207.284 13.8213 207.713 13.7665 208.133 13.5065C208.554 13.2464 208.931 12.8023 209.182 12.272C209.306 12.0094 209.395 11.7335 209.445 11.46C209.494 11.1866 209.503 10.921 209.47 10.6784C209.438 10.4358 209.364 10.221 209.255 10.0461C209.145 9.87125 209.001 9.73983 208.83 9.65935C208.486 9.49681 208.057 9.5516 207.637 9.81168C207.216 10.0718 206.839 10.5158 206.588 11.0462C206.464 11.3088 206.375 11.5847 206.325 11.8581C206.276 12.1315 206.267 12.3971 206.3 12.6397C206.332 12.8823 206.406 13.0972 206.516 13.272C206.625 13.4469 206.77 13.5783 206.94 13.6588ZM201.589 25.1316C201.756 25.2062 201.945 25.2284 202.144 25.1968C202.343 25.1653 202.548 25.0806 202.749 24.9477C202.95 24.8148 203.143 24.6362 203.315 24.4221C203.487 24.2081 203.636 23.9628 203.754 23.7002C203.991 23.1699 204.085 22.6015 204.014 22.12C203.944 21.6385 203.715 21.2833 203.378 21.1326C203.212 21.058 203.023 21.0359 202.824 21.0674C202.625 21.099 202.419 21.1836 202.218 21.3166C202.017 21.4495 201.825 21.6281 201.653 21.8421C201.48 22.0561 201.331 22.3014 201.214 22.564C200.977 23.0943 200.883 23.6627 200.953 24.1443C201.024 24.6258 201.253 24.9809 201.589 25.1316Z" fill="#FECE2D"/>
<path d="M99.4049 3.41113C98.2252 5.95594 97.809 8.46269 98.1563 10.9314C99.0315 17.1246 101.35 22.9515 105.113 28.4121C106.702 30.7191 108.63 32.3815 110.899 33.3994C110.961 33.428 111.187 33.4732 111.577 33.535C111.858 33.5778 112.022 33.7633 112.069 34.0915C111.575 34.3817 111.04 34.5196 110.464 34.5054C108.885 33.692 107.508 32.6217 106.333 31.2946C102.656 27.1563 100.004 22.4354 98.3775 17.1317C97.0266 12.7175 96.7745 8.46031 97.6212 4.36008C98.1491 3.90344 98.7437 3.58713 99.4049 3.41113Z" fill="#FBFCFE"/>
<path d="M212.851 3.46826C215.129 3.99149 217.329 4.74543 219.451 5.73006C220.626 9.38793 220.678 13.0719 219.608 16.7821C218.209 21.6339 215.993 26.0766 212.958 30.1103C211.455 32.1081 209.74 33.6683 207.814 34.7908C207.062 35.2284 206.116 35.4805 204.974 35.5471C202.962 34.8669 201.128 33.8657 199.473 32.5433C201.285 32.2389 202.905 31.3518 204.332 29.882C209.036 25.0444 212.114 19.0844 213.564 12.0017C214.211 8.84328 213.974 5.9988 212.851 3.46826Z" fill="#21A0AA"/>
<path d="M116.857 9.32617C115.32 9.85891 113.825 10.4868 112.369 11.2098C110.49 12.1469 109.251 11.8258 108.652 10.2466C108.271 9.25719 108.549 8.51278 109.486 8.01333C110.818 7.30459 112.16 6.74807 113.511 6.34375C113.91 6.22483 114.153 5.97035 114.238 5.5803L118.698 4.1105C118.935 4.02821 119.17 4.02565 119.354 4.10336C121.323 4.92626 121.692 6.00365 120.46 7.33551C120.113 7.71129 119.535 8.06804 118.726 8.40576C118.084 8.67689 117.461 8.98369 116.857 9.32617Z" fill="#9B3C82"/>
<path d="M97.621 4.35986C96.7743 8.4601 97.0264 12.7173 98.3773 17.1315C100.004 22.4352 102.656 27.1561 106.333 31.2944C107.508 32.6215 108.885 33.6918 110.464 34.5052C105.265 36.1605 99.9732 36.5077 94.5886 35.5469C90.7833 34.8714 87.613 33.1067 85.0777 30.2527C84.9547 30.1158 84.8085 30.0312 84.671 30.0173L84.4213 29.9887C84.6306 29.6462 84.6211 29.3561 84.3928 29.1182C84.1216 28.8281 83.9694 28.6545 83.9361 28.5974L82.8159 26.4212C82.0073 22.3686 82.6756 18.6465 84.8209 15.255C87.9174 10.3699 92.1842 6.73819 97.621 4.35986Z" fill="#21A0AA"/>
<path d="M219.451 5.72998C220.107 5.92976 220.652 6.29602 221.085 6.82876C221.579 9.64946 221.57 12.3251 221.056 14.8556C219.472 22.6613 215.712 29.3063 209.776 34.7907C209.048 35.4614 208.051 35.9609 206.786 36.2891C206.111 36.2035 205.507 35.9561 204.974 35.5471C206.115 35.4805 207.062 35.2284 207.814 34.7907C209.74 33.6682 211.455 32.108 212.958 30.1102C215.993 26.0766 218.209 21.6338 219.608 16.7821C220.678 13.0719 220.626 9.38785 219.451 5.72998Z" fill="#FBFCFE"/>
<path d="M221.085 6.82861C228.339 10.2011 233.086 15.7307 235.326 23.4174C235.597 24.3497 235.597 26.0051 235.326 28.3834C234.974 29.3205 234.525 30.2028 233.978 31.0305C233.958 31.0638 233.861 31.1732 233.685 31.3587C233.504 31.5442 233.516 31.7416 233.721 31.9509C230.876 35.2901 227.266 37.2855 222.89 37.9371C217.377 38.7553 212.009 38.2059 206.786 36.2889C208.051 35.9607 209.048 35.4613 209.776 34.7906C215.712 29.3062 219.472 22.6611 221.056 14.8555C221.57 12.3249 221.579 9.64931 221.085 6.82861Z" fill="#21A0AA"/>
<path d="M206.588 11.0464C206.066 12.1508 206.224 13.3205 206.94 13.659C207.656 13.9974 208.659 13.3765 209.181 12.2721C209.704 11.1678 209.546 9.99806 208.83 9.65957C208.114 9.32109 207.11 9.94198 206.588 11.0464Z" fill="#9B3C82"/>
<path d="M169.299 30.5525L165.396 31.7155C165.291 31.747 165.18 31.7469 165.077 31.715C164.974 31.6832 164.884 31.6212 164.818 31.5372C163.938 30.4336 164.081 29.4181 165.246 28.4905C165.422 28.3526 165.408 28.3193 165.203 28.3906C162.573 29.2992 160.245 30.6976 158.218 32.586C158.033 32.7525 158.061 32.8143 158.304 32.7715C158.623 32.7097 158.939 32.6336 159.253 32.5432C159.824 32.372 160.249 32.3244 160.53 32.4005C161.034 32.5289 161.339 32.8643 161.443 33.4065C161.48 33.6125 161.424 33.8501 161.286 34.0701C160.116 35.8966 158.946 37.7232 157.776 39.5497C157.143 40.5391 156.549 40.7151 155.992 40.0777C155.712 39.759 155.533 39.3167 155.457 38.7506C155.286 37.4616 155.488 36.2129 156.064 35.0048C156.268 34.5862 156.209 34.522 155.885 34.8121C155.838 34.8549 155.8 34.9049 155.771 34.9619C154.035 38.2012 153.148 41.6665 153.11 45.3576C153.091 46.9178 152.986 48.0784 152.796 48.8395C152.42 50.3331 151.583 50.6613 150.284 49.8241C147.278 47.8787 144.122 46.806 140.816 46.6062C139.974 44.5323 138.835 42.6582 137.398 40.9839C137.389 40.9696 136.504 40.1372 134.744 38.4866C131.862 35.7801 131.094 32.6288 132.44 29.0328C133.196 27.0207 134.347 25.5842 135.893 24.7233C137.634 23.7481 139.625 23.5507 141.865 24.1311C141.908 24.1425 141.953 24.1429 141.996 24.1324C142.039 24.1219 142.078 24.1008 142.111 24.0709C142.144 24.0411 142.168 24.0035 142.183 23.9616C142.197 23.9198 142.201 23.875 142.193 23.8314C141.832 21.748 142.157 19.9095 143.171 18.316C144.098 16.8558 145.478 15.7998 147.309 15.1481C150.296 14.0874 153.091 14.7414 155.693 17.1102C155.762 17.1728 155.853 17.2056 155.947 17.2016C156.04 17.1976 156.128 17.1571 156.192 17.0888C158.28 14.877 160.625 13.9851 163.227 14.4132C165.696 14.8223 167.579 16.0305 168.878 18.0378C170.538 20.5969 170.291 23.6887 168.136 27.3133C168.074 27.4191 168.042 27.5453 168.042 27.6808C168.042 27.8163 168.074 27.9571 168.136 28.091L169.299 30.5525ZM143.463 24.0169C143.192 23.76 142.921 23.7196 142.65 23.8956C142.616 23.9174 142.59 23.9479 142.572 23.9845C142.555 24.0211 142.547 24.0628 142.55 24.1061C142.553 24.1494 142.566 24.1931 142.588 24.2334C142.611 24.2737 142.642 24.3096 142.678 24.338C143.91 25.2512 144.902 26.3714 145.654 27.6985C145.715 27.8042 145.803 27.8884 145.9 27.9356C145.997 27.9828 146.097 27.9899 146.182 27.9554C146.41 27.865 146.455 27.6605 146.317 27.3418C145.856 26.2668 145.071 25.3083 143.963 24.4664C143.929 24.4426 143.763 24.2928 143.463 24.0169Z" fill="#5B2448"/>
<path d="M121.316 21.2771L115.794 23.4747C115.575 23.5585 115.337 23.5758 115.109 23.5246C113.373 23.1394 112.807 22.2879 113.411 20.9703C113.706 20.3234 114.312 19.8002 115.23 19.4006C116.871 18.6871 118.493 17.9356 120.096 17.146C120.857 16.9747 121.578 16.6893 122.258 16.2898C124.028 15.2386 125.314 15.612 126.118 17.41C126.518 18.2995 126.294 18.944 125.447 19.3435L121.316 21.2771Z" fill="#9B3C82"/>
<path d="M201.214 22.564C200.72 23.6683 200.888 24.8178 201.59 25.1316C202.291 25.4453 203.26 24.8045 203.754 23.7002C204.248 22.5959 204.08 21.4463 203.378 21.1326C202.677 20.8188 201.708 21.4597 201.214 22.564Z" fill="#9B3C82"/>
<path d="M143.963 24.4662C145.071 25.3082 145.856 26.2666 146.317 27.3416C146.455 27.6603 146.41 27.8649 146.182 27.9552C146.097 27.9897 145.997 27.9827 145.9 27.9355C145.803 27.8882 145.715 27.804 145.654 27.6984C144.902 26.3713 143.91 25.2511 142.679 24.3378C142.642 24.3094 142.611 24.2736 142.589 24.2332C142.566 24.1929 142.553 24.1493 142.55 24.106C142.548 24.0627 142.555 24.021 142.572 23.9843C142.59 23.9477 142.616 23.9172 142.65 23.8954C142.921 23.7194 143.192 23.7599 143.463 24.0167C143.763 24.2926 143.93 24.4424 143.963 24.4662Z" fill="#9B3C82"/>
<path d="M73.3907 30.5523C72.9103 32.2599 72.1873 33.8558 71.2217 35.3399C70.4606 36.1961 69.721 37.0689 69.0027 37.9584C68.7363 38.2866 68.47 38.484 68.2036 38.5506C67.6661 38.6838 67.3641 38.396 67.2975 37.6873C67.0263 34.6858 67.2047 31.1279 67.8326 27.0134C69.0217 25.672 70.2537 25.3081 71.5285 25.9217C72.3038 26.3022 72.8437 26.9515 73.1481 27.8696C73.424 28.7162 73.5049 29.6105 73.3907 30.5523Z" fill="#F4ADA2"/>
<path d="M82.816 26.4214L83.9362 28.5975C83.9695 28.6546 84.1217 28.8283 84.3929 29.1184C84.6212 29.3562 84.6307 29.6464 84.4214 29.9889L78.5636 32.5147C78.6159 31.2208 78.1902 30.6215 77.2864 30.7166C76.8393 30.7642 76.3256 31.0211 75.7453 31.4872C74.2517 32.6621 72.9317 34.0154 71.7853 35.547C71.6569 35.3663 71.469 35.2973 71.2217 35.3401C72.1873 33.856 72.9103 32.2602 73.3907 30.5525L82.816 26.4214Z" fill="#65AFEE"/>
<path d="M67.6542 27.0136C67.7112 27.2704 67.6637 27.4393 67.5115 27.5201C67.3949 27.5807 67.2938 27.649 67.2185 27.718C67.1432 27.787 67.0966 27.8542 67.0834 27.9126C66.5268 30.4859 66.2248 33.0902 66.1772 35.7254C66.1392 37.785 65.78 39.2429 65.0998 40.0991C63.787 41.7592 62.9142 41.5546 62.4813 39.4855C61.8962 36.66 61.7678 33.8227 62.096 30.9735C62.115 30.7927 62.1079 30.6358 62.0746 30.5026C61.9414 29.9936 61.7559 29.9389 61.5181 30.3385C61.4467 30.4621 61.4039 30.6167 61.3897 30.8022C61.1376 33.7038 60.9235 36.6101 60.7475 39.5212C60.7047 40.2299 60.6262 40.7841 60.5121 41.1836C60.1268 42.5155 59.5393 42.77 58.7497 41.9471C58.4025 41.5856 58.129 41.0742 57.9292 40.4131C57.2537 38.1441 56.966 35.8205 57.0659 33.4422C57.0683 33.3867 57.0613 33.3312 57.0455 33.2795C57.0296 33.2277 57.0053 33.1809 56.9741 33.1423C56.9429 33.1036 56.9057 33.0741 56.8649 33.0557C56.824 33.0372 56.7806 33.0304 56.7376 33.0355C56.5521 33.0545 56.4451 33.1782 56.4166 33.4065C56.1312 35.6849 56.2501 37.9444 56.7733 40.1847C57.1539 41.8068 56.9612 42.8627 56.1954 43.3527C55.4914 43.7998 54.8516 43.6262 54.2761 42.8318L53.3557 41.0766C53.1559 38.7839 53.1654 37.0002 53.3842 35.7254C53.6553 34.1367 54.8374 33.0426 56.9303 32.4433C57.3004 32.3381 57.6159 32.0866 57.8079 31.7441C58.5357 30.4312 59.8984 29.7439 61.8962 29.682C62.0365 29.678 62.1729 29.6335 62.2892 29.5539C62.4056 29.4742 62.497 29.3627 62.5527 29.2325C63.5658 26.8304 65.2663 26.0908 67.6542 27.0136Z" fill="#F4ADA2"/>
<path d="M67.6541 27.0137H67.8324C67.2046 31.1282 67.0262 34.6862 67.2973 37.6876C67.3639 38.3963 67.6659 38.6841 68.2034 38.5509C68.4698 38.4843 68.7362 38.2869 69.0026 37.9587C69.7208 37.0692 70.4605 36.1964 71.2215 35.3402C71.4689 35.2974 71.6568 35.3664 71.7852 35.5471C68.7838 39.771 67.0642 42.6393 66.6266 44.1519C66.3888 44.97 66.1319 45.177 65.856 44.7726C65.7995 44.6924 65.7672 44.5919 65.7622 44.4806C65.7572 44.3694 65.7797 44.2512 65.8275 44.1376C66.3174 42.9675 66.8573 41.8235 67.4471 40.7057C68.0608 39.5451 67.8443 39.0123 66.7979 39.1075C66.7007 39.1184 66.6076 39.1622 66.5301 39.2333C66.4527 39.3044 66.3944 39.3996 66.3626 39.507C66.0772 40.4679 65.5421 41.2194 64.7573 41.7617C64.2626 42.1042 63.7917 42.185 63.3445 42.0043C62.8498 41.814 62.4717 41.4216 62.2101 40.827C62.0293 40.4274 61.8248 40.4298 61.5965 40.8341L60.4049 42.9461C60.3406 43.059 60.2957 43.1729 60.2734 43.2793C60.2512 43.3856 60.2522 43.4816 60.2765 43.5597C61.2183 46.4755 61.5489 49.4603 61.2683 52.5141C61.2445 52.7519 61.1755 52.9612 61.0613 53.142C60.657 53.7794 60.3883 53.7508 60.2551 53.0564C60.217 52.8708 60.2147 52.6449 60.248 52.3785C60.5476 49.8765 60.3978 47.4031 59.7984 44.9582C59.5321 43.8879 58.878 43.0579 57.8363 42.4681C57.7982 42.4471 57.7559 42.4351 57.7124 42.433C57.669 42.4309 57.6257 42.4388 57.5858 42.456C57.5459 42.4732 57.5104 42.4993 57.4821 42.5323C57.4538 42.5653 57.4334 42.6043 57.4225 42.6464C57.0182 44.1638 56.1572 44.7703 54.8396 44.4658C54.1214 43.9949 53.9335 43.4503 54.276 42.8319C54.8515 43.6263 55.4913 43.7999 56.1953 43.3528C56.9611 42.8628 57.1537 41.8069 56.7732 40.1848C56.25 37.9445 56.1311 35.6851 56.4165 33.4066C56.445 33.1783 56.552 33.0546 56.7375 33.0356C56.7805 33.0305 56.8239 33.0374 56.8647 33.0558C56.9056 33.0742 56.9428 33.1038 56.974 33.1424C57.0052 33.181 57.0295 33.2278 57.0453 33.2796C57.0612 33.3314 57.0681 33.3868 57.0658 33.4423C56.9659 35.8206 57.2536 38.1442 57.9291 40.4132C58.1289 41.0743 58.4024 41.5857 58.7496 41.9472C59.5392 42.7701 60.1267 42.5156 60.5119 41.1837C60.6261 40.7842 60.7046 40.23 60.7474 39.5213C60.9234 36.6102 61.1374 33.7039 61.3895 30.8024C61.4038 30.6168 61.4466 30.4622 61.518 30.3386C61.7558 29.939 61.9413 29.9937 62.0745 30.5027C62.1078 30.6359 62.1149 30.7928 62.0959 30.9736C61.7677 33.8228 61.8961 36.6602 62.4812 39.4856C62.9141 41.5548 63.7869 41.7593 65.0997 40.0992C65.7799 39.243 66.1391 37.7851 66.1771 35.7255C66.2247 33.0903 66.5267 30.486 67.0833 27.9127C67.0965 27.8543 67.1431 27.7871 67.2184 27.7181C67.2937 27.6491 67.3948 27.5808 67.5114 27.5203C67.6636 27.4394 67.7111 27.2705 67.6541 27.0137Z" fill="#A74B86"/>
<path d="M169.299 30.5524C171.592 35.4517 174.886 39.4568 179.181 42.5677C181.811 44.4704 183.3 45.6714 183.647 46.1709C184.875 47.9403 185.022 50.0333 184.09 52.4496C183.519 53.9242 182.484 55.2608 180.986 56.4595C177.637 59.1422 173.861 60.9712 169.656 61.9463C165.418 62.3744 161.538 61.8749 158.019 60.4479C157.296 60.1578 157.15 60.3362 157.583 60.9831C159.196 63.3994 161.446 64.8502 164.333 65.3354C167.349 65.8396 169.361 66.0774 170.369 66.0489C171.387 70.972 172.348 75.9071 173.252 80.854C173.29 81.049 173.468 81.118 173.787 81.0609C175.076 86.6595 174.576 92.0845 172.289 97.3358C171.313 99.5857 169.924 101.063 168.122 101.767C166.485 102.409 165.02 102.178 163.727 101.075C162.533 100.047 161.65 98.9697 161.079 97.8424C159.557 94.8457 158.42 91.516 157.669 87.8534C157.621 87.6203 157.574 87.6179 157.526 87.8463C156.08 94.7672 154.96 102.782 154.166 111.891C153.79 116.186 155.521 118.795 159.36 119.718C159.574 119.771 159.745 119.861 159.874 119.989C160.326 120.441 160.24 120.674 159.617 120.689C159.431 120.689 159.22 120.66 158.982 120.603C154.739 119.523 152.777 116.679 153.095 112.07C153.623 104.459 154.61 97.3691 156.056 90.8002C156.104 90.5814 156.135 90.3721 156.149 90.1723C156.273 88.2839 156.052 88.1483 155.486 89.7656C154.054 93.8658 151.88 97.4737 148.964 100.589C147.961 101.655 146.957 102.195 145.953 102.209C144.621 102.223 143.492 101.588 142.564 100.304C141.684 99.0863 141.075 97.7687 140.738 96.3512C140.528 95.4855 140.331 94.0727 140.145 92.113C139.798 88.4646 140.205 84.7259 141.366 80.8968C141.556 80.2689 141.898 79.9074 142.393 79.8123L145.825 62.0747C145.843 61.978 145.84 61.8785 145.816 61.7827C145.792 61.687 145.747 61.5974 145.685 61.5197C145.623 61.4421 145.545 61.3782 145.456 61.3324C145.367 61.2866 145.269 61.26 145.168 61.2542C142.495 61.1258 140.291 60.3409 138.554 58.8997C136.728 57.3871 135.765 55.4582 135.665 53.1132C135.527 50.0356 137.244 47.8666 140.816 46.6061C144.122 46.8059 147.278 47.8785 150.284 49.824C151.583 50.6611 152.42 50.3329 152.796 48.8393C152.986 48.0783 153.091 46.9177 153.11 45.3575C153.148 41.6663 154.035 38.2011 155.771 34.9618C155.8 34.9047 155.838 34.8548 155.885 34.812C156.209 34.5218 156.268 34.586 156.064 35.0046C155.488 36.2128 155.286 37.4614 155.457 38.7505C155.533 39.3165 155.712 39.7589 155.992 40.0776C156.549 40.715 157.143 40.539 157.776 39.5496C158.946 37.723 160.116 35.8965 161.286 34.0699C161.424 33.8499 161.48 33.6123 161.443 33.4064C161.339 32.8641 161.034 32.5288 160.53 32.4003C160.249 32.3242 159.824 32.3718 159.253 32.5431C158.939 32.6334 158.623 32.7095 158.304 32.7714C158.061 32.8142 158.033 32.7523 158.218 32.5859C160.245 30.6975 162.573 29.299 165.203 28.3905C165.408 28.3191 165.422 28.3524 165.246 28.4904C164.081 29.4179 163.938 30.4335 164.818 31.537C164.884 31.6211 164.974 31.683 165.077 31.7149C165.18 31.7467 165.291 31.7469 165.396 31.7154L169.299 30.5524ZM169.413 37.9157C169.356 37.8908 169.306 37.8513 169.268 37.8011C169.231 37.7508 169.208 37.6916 169.2 37.6295C169.193 37.5673 169.202 37.5043 169.227 37.4468C169.252 37.3894 169.292 37.3394 169.342 37.3021C170.203 36.6694 170.69 35.9583 170.804 35.1687C170.938 34.2935 170.569 34.058 169.699 34.4624L166.973 35.7395C166.876 35.7855 166.79 35.8512 166.72 35.9314C166.65 36.0117 166.6 36.1042 166.572 36.2018C166.544 36.2994 166.54 36.3994 166.56 36.4937C166.581 36.5881 166.624 36.6743 166.688 36.7455C167.629 37.7873 168.84 38.6149 170.319 39.2285C170.53 39.3154 170.703 39.4753 170.806 39.6794C170.909 39.8835 170.937 40.1183 170.883 40.3416C170.521 41.8827 170.731 42.2609 171.511 41.476C172.738 40.2536 172.545 39.288 170.933 38.5792L169.413 37.9157ZM164.697 40.6484C164.887 40.439 165.011 40.1787 165.052 39.9005C165.094 39.6223 165.053 39.3387 164.932 39.0858C164.29 37.7397 163.62 37.4567 162.92 38.2368C161.76 39.521 160.478 40.7554 159.075 41.9398C158.575 42.3679 158.651 42.6176 159.303 42.689C161.434 42.9268 163.232 42.2466 164.697 40.6484ZM170.564 50.477C170.724 50.515 170.897 50.4902 171.073 50.4039C171.249 50.3177 171.426 50.1717 171.592 49.9742C171.758 49.7768 171.911 49.5318 172.042 49.2533C172.173 48.9748 172.279 48.6682 172.354 48.351C172.43 48.0338 172.473 47.7122 172.482 47.4046C172.491 47.097 172.465 46.8094 172.406 46.5583C172.346 46.3071 172.255 46.0973 172.136 45.9408C172.018 45.7843 171.875 45.6842 171.715 45.6462C171.556 45.6082 171.383 45.633 171.207 45.7193C171.03 45.8056 170.854 45.9516 170.688 46.149C170.522 46.3464 170.369 46.5914 170.238 46.8699C170.107 47.1484 170.001 47.455 169.925 47.7722C169.85 48.0894 169.806 48.411 169.797 48.7186C169.789 49.0262 169.815 49.3138 169.874 49.565C169.933 49.8161 170.025 50.0259 170.143 50.1824C170.262 50.3389 170.405 50.439 170.564 50.477ZM164.597 50.195C164.597 49.0672 164.149 47.9855 163.351 47.1881C162.554 46.3906 161.472 45.9425 160.345 45.9425C159.217 45.9425 158.135 46.3906 157.338 47.1881C156.54 47.9855 156.092 49.0672 156.092 50.195C156.092 51.3228 156.54 52.4044 157.338 53.2019C158.135 53.9994 159.217 54.4474 160.345 54.4474C161.472 54.4474 162.554 53.9994 163.351 53.2019C164.149 52.4044 164.597 51.3228 164.597 50.195ZM144.134 52.1785C145.594 52.3688 146.936 53.2226 148.158 54.74C148.296 54.9064 148.429 55.023 148.558 55.0896C148.872 55.2561 149.067 55.2204 149.143 54.9825C149.169 54.8948 149.166 54.7908 149.135 54.68C149.104 54.5692 149.045 54.455 148.964 54.3475C146.838 51.5126 144.032 50.5874 140.545 51.572C140.369 51.6244 140.226 51.71 140.117 51.8289C139.703 52.2998 139.9 52.4544 140.709 52.2927C141.841 52.0644 142.983 52.0263 144.134 52.1785ZM150.663 59.8449C150.611 59.7415 150.521 59.6628 150.412 59.6259C150.302 59.5891 150.183 59.5973 150.079 59.6486L147.472 60.943C147.421 60.9684 147.375 61.0036 147.337 61.0467C147.3 61.0898 147.271 61.1398 147.253 61.194C147.235 61.2482 147.227 61.3054 147.231 61.3624C147.235 61.4194 147.25 61.4751 147.275 61.5263L147.294 61.5647C147.346 61.6681 147.436 61.7469 147.545 61.7837C147.655 61.8205 147.774 61.8123 147.878 61.761L150.485 60.4667C150.536 60.4412 150.582 60.406 150.62 60.3629C150.657 60.3198 150.686 60.2698 150.704 60.2156C150.723 60.1615 150.73 60.1042 150.726 60.0472C150.722 59.9902 150.707 59.9345 150.682 59.8833L150.663 59.8449ZM144.526 100.903C145.392 101.574 146.296 101.629 147.238 101.067C148.755 100.168 150.025 98.7985 151.048 96.9576C153.084 93.2903 155.043 89.3803 156.927 85.2277C156.966 85.1414 156.982 85.0468 156.976 84.9524C156.969 84.858 156.94 84.7667 156.89 84.6864C156.84 84.6061 156.771 84.5393 156.689 84.4918C156.607 84.4444 156.515 84.4178 156.42 84.4143C151.635 84.2288 147.109 82.847 142.842 80.2689C142.805 80.2463 142.763 80.2325 142.719 80.2283C142.676 80.2241 142.632 80.2298 142.591 80.2449C142.55 80.2599 142.513 80.284 142.482 80.3153C142.451 80.3467 142.428 80.3844 142.414 80.4259C140.754 85.701 140.505 91.0166 141.665 96.3726C142.069 98.2324 143.023 99.7427 144.526 100.903ZM164.469 100.518C165.953 101.564 167.334 101.55 168.614 100.475C170.16 99.1719 171.29 97.5522 172.003 95.6163C172.541 94.1607 172.971 92.2771 173.295 89.9654C173.67 87.2445 173.549 84.5166 172.931 81.7815C172.921 81.7393 172.902 81.6998 172.875 81.6658C172.848 81.6318 172.814 81.6043 172.775 81.5852C172.736 81.5661 172.693 81.5558 172.65 81.5553C172.606 81.5547 172.563 81.5637 172.524 81.5818C168.01 83.5748 163.272 84.5356 158.311 84.4643C158.258 84.463 158.205 84.474 158.156 84.4965C158.107 84.5189 158.064 84.5523 158.03 84.5941C157.996 84.6359 157.971 84.685 157.958 84.7379C157.945 84.7908 157.944 84.846 157.954 84.8995C158.72 88.5764 159.759 92.1701 161.072 95.6805C161.9 97.8971 163.032 99.5096 164.469 100.518Z" fill="#F4ADA2"/>
<path d="M235.326 28.3833L246.892 33.4063C247.192 35.0379 247.746 36.5838 248.554 38.0441C248.573 38.3199 248.445 38.4484 248.169 38.4294C246.728 36.7455 245.479 35.4874 244.423 34.6549C242.739 33.3326 241.838 33.6893 241.719 35.7252L233.721 31.9508C233.516 31.7415 233.504 31.5441 233.685 31.3586C233.861 31.1731 233.959 31.0637 233.978 31.0304C234.525 30.2027 234.974 29.3204 235.326 28.3833Z" fill="#65AFEE"/>
<path d="M252.479 30.5523C252.878 33.9438 252.997 37.34 252.835 40.741C252.812 41.1644 252.712 41.4831 252.536 41.6971C252.165 42.1395 251.741 42.0396 251.266 41.3975C250.409 40.2416 249.506 39.1238 248.554 38.044C247.746 36.5837 247.192 35.0378 246.892 33.4063C246.802 32.1125 247.108 31.0113 247.812 30.1028C248.412 29.3179 249.161 28.9588 250.06 29.0254C251.025 29.0967 251.832 29.6057 252.479 30.5523Z" fill="#F4ADA2"/>
<path d="M258.336 33.4351C258.137 34.4863 258.077 35.547 258.158 36.6173C258.31 38.558 258.17 40.4583 257.737 42.3181C257.556 43.0792 257.321 43.6785 257.031 44.1161C256.246 45.2958 255.432 45.0556 254.59 43.3955C253.934 42.0969 253.694 40.0754 253.87 37.3308C254.022 34.9572 253.727 32.6478 252.985 30.4027C254.931 29.6083 256.372 30.0602 257.309 31.7583C257.842 32.7144 258.184 33.2733 258.336 33.4351Z" fill="#F4ADA2"/>
<path d="M252.985 30.4028C253.727 32.648 254.022 34.9573 253.87 37.3309C253.694 40.0755 253.934 42.0971 254.591 43.3956C255.433 45.0557 256.246 45.2959 257.031 44.1163C257.321 43.6787 257.556 43.0793 257.737 42.3182C258.17 40.4584 258.31 38.5581 258.158 36.6174C258.077 35.5472 258.137 34.4864 258.337 33.4352C258.455 33.3972 258.574 33.3972 258.693 33.4352C259.036 39.4191 259.333 43.2149 259.585 44.8226C259.794 46.1355 260.282 46.4565 261.048 45.7859C261.333 45.5385 261.564 45.177 261.74 44.7013C262.701 42.166 263.181 39.5309 263.181 36.7958C263.324 36.6531 263.493 36.6031 263.688 36.6459C263.902 39.2669 263.781 41.8688 263.324 44.4516C263.191 45.2079 263.181 45.8144 263.295 46.271C263.633 47.6314 264.408 47.7432 265.621 46.6064L266.392 47.4982L266.335 47.6766C266.021 47.4102 265.762 47.3888 265.557 47.6124C265.362 47.8312 265.26 47.9454 265.25 47.9549C264.289 48.6541 263.326 48.2308 262.361 46.6848C261.895 45.9333 261.469 45.9571 261.084 46.7562C259.58 49.8908 258.995 53.035 259.328 56.1886C259.352 56.417 259.352 56.6001 259.328 56.7381C259.247 57.1804 259.06 57.2803 258.765 57.0377C258.609 56.9053 258.502 56.6856 258.465 56.4241C258.084 53.5939 258.294 51.1085 259.093 48.9681C259.588 47.6552 259.54 46.535 258.95 45.6075C258.812 45.3934 258.738 45.1746 258.729 44.9511C258.681 43.9236 258.434 43.6953 257.987 44.2661C257.711 44.6181 257.54 44.825 257.473 44.8868C256.018 46.2758 254.838 45.9476 253.934 43.9022C253.216 42.2754 252.7 42.1542 252.386 43.5383C252.336 43.7532 252.377 43.9888 252.5 44.1947C253.418 45.7407 253.863 46.8561 253.834 47.5411C253.782 48.6922 253.544 48.8872 253.121 48.1261C253.045 47.9834 252.971 47.7955 252.9 47.5625C252.219 45.3792 251.133 43.2624 249.639 41.2123C249.135 40.5131 248.645 39.5856 248.169 38.4297C248.445 38.4487 248.574 38.3203 248.554 38.0444C249.506 39.1242 250.41 40.242 251.266 41.3978C251.741 42.04 252.165 42.1399 252.536 41.6975C252.712 41.4835 252.812 41.1648 252.835 40.7414C252.997 37.3404 252.878 33.9442 252.479 30.5527L252.985 30.4028Z" fill="#A74B86"/>
<path d="M78.5636 32.5148C75.7239 41.9615 73.8117 51.5938 72.8271 61.4115C72.4941 64.7269 72.1136 70.8534 71.6855 79.7912C71.3335 87.1164 70.7722 94.4274 70.0016 101.724C69.2453 104.512 68.5746 107.318 67.9895 110.143C67.8801 110.676 68.0014 110.809 68.3534 110.543C68.4486 110.472 68.5223 110.369 68.5746 110.236C69.3975 108.034 70.042 105.779 70.5082 103.472C70.6271 102.873 70.5581 102.29 70.3013 101.724L72.1136 99.9118C72.5226 100.04 72.8294 100.288 73.034 100.654C77.8858 110.167 81.6221 119.68 84.243 129.194C85.2229 132.757 85.9459 136.859 86.4121 141.502C84.4476 142.244 82.4165 142.729 80.3188 142.957C74.3872 143.956 68.753 143.992 63.416 143.064C57.356 142.008 51.9525 139.547 47.2053 135.679C44.5559 133.52 42.4939 131.035 41.0193 128.223C39.4972 125.308 38.4602 122.18 37.9085 118.841C36.158 108.215 36.3435 97.6263 38.465 87.076C41.2191 73.3959 45.6071 60.2628 51.629 47.6767L54.8398 44.4659C56.1574 44.7703 57.0183 44.1639 57.4226 42.6465C57.4336 42.6044 57.4539 42.5654 57.4822 42.5324C57.5105 42.4994 57.546 42.4733 57.5859 42.4561C57.6258 42.4389 57.6692 42.431 57.7126 42.4331C57.756 42.4352 57.7984 42.4472 57.8365 42.4681C58.8782 43.058 59.5322 43.888 59.7986 44.9582C60.3979 47.4031 60.5478 49.8766 60.2481 52.3786C60.2148 52.645 60.2172 52.8709 60.2552 53.0564C60.3884 53.7509 60.6572 53.7794 61.0615 53.142C61.1756 52.9613 61.2446 52.752 61.2684 52.5142C61.549 49.4604 61.2185 46.4756 60.2766 43.5598C60.2523 43.4816 60.2513 43.3857 60.2736 43.2793C60.2958 43.173 60.3408 43.059 60.4051 42.9462L61.5966 40.8342C61.8249 40.4299 62.0295 40.4275 62.2102 40.8271C62.4718 41.4216 62.85 41.8141 63.3447 42.0043C63.7918 42.1851 64.2627 42.1042 64.7574 41.7617C65.5422 41.2195 66.0774 40.4679 66.3628 39.5071C66.3946 39.3997 66.4529 39.3044 66.5303 39.2333C66.6077 39.1623 66.7009 39.1185 66.798 39.1075C67.8445 39.0124 68.0609 39.5452 67.4473 40.7058C66.8575 41.8236 66.3176 42.9676 65.8276 44.1377C65.7799 44.2513 65.7574 44.3695 65.7624 44.4807C65.7674 44.5919 65.7997 44.6925 65.8562 44.7727C66.1321 45.177 66.3889 44.9701 66.6268 44.152C67.0644 42.6394 68.7839 39.7711 71.7854 35.5472C72.9317 34.0155 74.2517 32.6623 75.7453 31.4874C76.3256 31.0212 76.8393 30.7644 77.2864 30.7168C78.1902 30.6217 78.6159 31.221 78.5636 32.5148Z" fill="#F4ADA2"/>
<path d="M258.693 33.4352C261.01 33.4209 262.506 34.5411 263.181 36.7958C263.181 39.5308 262.701 42.166 261.74 44.7013C261.564 45.177 261.333 45.5385 261.048 45.7858C260.282 46.4565 259.794 46.1354 259.585 44.8226C259.333 43.2149 259.036 39.4191 258.693 33.4352Z" fill="#F4ADA2"/>
<path d="M248.169 38.4295C248.645 39.5853 249.135 40.5129 249.639 41.2121C251.132 43.2622 252.219 45.3789 252.9 47.5622C252.971 47.7953 253.045 47.9832 253.121 48.1259C253.544 48.887 253.782 48.692 253.834 47.5408C253.863 46.8559 253.418 45.7404 252.5 44.1945C252.377 43.9886 252.336 43.753 252.386 43.5381C252.7 42.1539 253.216 42.2752 253.934 43.902C254.838 45.9474 256.018 46.2756 257.473 44.8866C257.54 44.8248 257.711 44.6179 257.987 44.2659C258.434 43.6951 258.681 43.9234 258.729 44.9508C258.738 45.1744 258.812 45.3932 258.95 45.6073C259.54 46.5348 259.587 47.655 259.093 48.9678C258.294 51.1083 258.084 53.5937 258.465 56.4239C258.502 56.6854 258.609 56.905 258.765 57.0375C259.059 57.2801 259.247 57.1802 259.328 56.7378C259.352 56.5999 259.352 56.4168 259.328 56.1884C258.995 53.0348 259.58 49.8906 261.083 46.756C261.469 45.9569 261.894 45.9331 262.361 46.6846C263.326 48.2305 264.289 48.6539 265.25 47.9547C265.26 47.9452 265.362 47.831 265.557 47.6122C265.762 47.3886 266.021 47.41 266.335 47.6764C271.424 58.5121 275.294 69.7401 277.943 81.3606C279.209 86.9021 280.079 91.5779 280.555 95.388C281.782 105.239 281.285 115.069 279.064 124.877C277.513 131.736 273.979 136.966 268.461 140.567C264.889 142.893 260.622 144.453 255.661 145.247C249.767 146.189 243.346 145.763 236.396 143.97L231.58 142.186C230.581 126.884 233.554 112.455 240.499 98.8984C240.765 98.6511 240.894 98.3443 240.884 97.978L247.812 104.606L247.598 105.327C247.508 105.641 247.47 105.865 247.484 105.998C247.693 108.495 248.195 110.928 248.99 113.297C249.068 113.533 249.209 113.726 249.389 113.846C249.989 114.255 250.184 114.017 249.974 113.133C249.304 110.283 248.633 107.432 247.962 104.578C247.539 98.6225 247.311 93.5091 247.277 89.2377C247.182 76.78 246.587 64.9478 245.493 53.7411C245.213 50.8443 243.955 44.8391 241.719 35.7253C241.838 33.6895 242.739 33.3327 244.423 34.6551C245.479 35.4875 246.728 36.7456 248.169 38.4295Z" fill="#F4ADA2"/>
<path d="M169.413 37.916L170.933 38.5795C172.545 39.2883 172.738 40.2538 171.511 41.4763C170.731 42.2612 170.521 41.883 170.883 40.3418C170.936 40.1186 170.909 39.8838 170.806 39.6797C170.702 39.4756 170.53 39.3157 170.319 39.2288C168.84 38.6152 167.629 37.7875 166.687 36.7458C166.624 36.6746 166.58 36.5884 166.56 36.494C166.54 36.3996 166.544 36.2997 166.572 36.2021C166.6 36.1045 166.65 36.0119 166.72 35.9317C166.79 35.8515 166.876 35.7857 166.973 35.7398L169.698 34.4626C170.569 34.0583 170.938 34.2938 170.804 35.169C170.69 35.9586 170.203 36.6697 169.342 37.3023C169.291 37.3397 169.252 37.3897 169.227 37.4471C169.202 37.5046 169.193 37.5676 169.2 37.6297C169.208 37.6919 169.231 37.7511 169.268 37.8013C169.306 37.8516 169.356 37.8911 169.413 37.916Z" fill="#5B2448"/>
<path d="M263.688 36.646C264.853 36.5651 265.671 36.9861 266.142 37.9089C266.889 39.3834 267.091 41.0935 266.749 43.0389L265.621 46.6064C264.408 47.7433 263.633 47.6315 263.295 46.2711C263.181 45.8144 263.191 45.208 263.324 44.4517C263.781 41.8688 263.902 39.2669 263.688 36.646Z" fill="#F4ADA2"/>
<path d="M164.697 40.6486C163.232 42.2468 161.434 42.927 159.303 42.6892C158.651 42.6178 158.575 42.3681 159.075 41.94C160.478 40.7556 161.76 39.5212 162.92 38.2369C163.62 37.4568 164.29 37.7399 164.932 39.086C165.053 39.3389 165.094 39.6225 165.052 39.9007C165.011 40.1789 164.887 40.4392 164.697 40.6486Z" fill="#5B2448"/>
<path d="M53.3557 41.0767L54.2762 42.8319C53.9337 43.4502 54.1216 43.9949 54.8398 44.4658L51.6291 47.6765C48.0426 50.716 44.8818 54.5213 42.1467 59.0925C35.5635 70.0994 32.1768 81.8578 31.9865 94.3678C31.9722 95.4238 31.732 96.2134 31.2659 96.7366C30.3335 97.7783 29.3442 97.5619 28.2977 96.0873C28.1679 95.9064 28.098 95.6766 28.0979 95.4309C28.0884 81.8887 31.5679 69.2265 38.5364 57.4443C42.4369 50.8468 47.3766 45.3909 53.3557 41.0767Z" fill="#65AFEE"/>
<path d="M266.749 43.0386C276.857 49.0748 283.863 57.5773 287.768 68.5461C290.989 77.5885 292.137 87.021 291.215 96.8435C291.215 96.8815 291.198 97.2834 291.165 98.0493C291.107 99.5619 290.396 100.254 289.031 100.126C287.638 99.9924 287.017 99.2289 287.169 97.8352C287.882 91.3519 287.718 85.0874 286.677 79.0417C284.512 66.4508 278.386 56.3025 268.297 48.5967C267.707 48.1448 267.072 47.7786 266.392 47.4979L265.621 46.6061L266.749 43.0386Z" fill="#65AFEE"/>
<path d="M169.925 47.7722C169.607 49.1062 169.894 50.3171 170.564 50.4769C171.235 50.6367 172.037 49.6849 172.355 48.3509C172.672 47.0169 172.386 45.806 171.715 45.6462C171.044 45.4864 170.243 46.4382 169.925 47.7722Z" fill="#9B3C82"/>
<path d="M160.345 54.4478C162.693 54.4478 164.597 52.5439 164.597 50.1953C164.597 47.8468 162.693 45.9429 160.345 45.9429C157.996 45.9429 156.092 47.8468 156.092 50.1953C156.092 52.5439 157.996 54.4478 160.345 54.4478Z" fill="#EC8E91"/>
<path d="M144.134 52.1786C142.983 52.0264 141.841 52.0645 140.709 52.2928C139.9 52.4545 139.703 52.2999 140.117 51.829C140.226 51.7101 140.369 51.6245 140.545 51.5721C144.032 50.5875 146.838 51.5127 148.964 54.3477C149.045 54.4551 149.104 54.5693 149.135 54.6801C149.166 54.7909 149.169 54.8949 149.143 54.9827C149.067 55.2205 148.871 55.2562 148.558 55.0897C148.429 55.0231 148.296 54.9065 148.158 54.7401C146.936 53.2227 145.594 52.3689 144.134 52.1786Z" fill="#A74B86"/>
<path d="M150.079 59.6488L147.472 60.9432C147.257 61.0501 147.169 61.3113 147.276 61.5266L147.295 61.5649C147.401 61.7802 147.663 61.8681 147.878 61.7612L150.485 60.4669C150.701 60.36 150.789 60.0988 150.682 59.8835L150.663 59.8452C150.556 59.6299 150.295 59.542 150.079 59.6488Z" fill="#A74B86"/>
<path d="M169.656 61.9466L170.369 66.0492C169.361 66.0777 167.349 65.8399 164.333 65.3357C161.446 64.8505 159.196 63.3997 157.583 60.9834C157.151 60.3365 157.296 60.1581 158.019 60.4482C161.539 61.8752 165.418 62.3747 169.656 61.9466Z" fill="#5B2448"/>
<path d="M240.884 97.9781C240.894 98.3443 240.765 98.6512 240.499 98.8985C239.229 99.8974 238.173 101.091 237.331 102.48C230.453 113.787 226.167 126.021 224.474 139.183C224.108 142.736 224.112 145.932 224.488 148.772C224.64 149.909 225.064 151.169 225.758 152.554C225.82 152.677 225.97 152.853 226.208 153.082C226.498 153.367 226.555 153.728 226.379 154.166C220.343 151.402 214.751 147.925 209.605 143.735C209.419 143.587 209.352 143.625 209.405 143.849L212.344 156.485C212.558 158.345 213.025 160.138 213.743 161.865L215.705 172.332C213.465 172.85 210.715 173.321 207.457 173.744C197.178 175.067 187.141 175.911 177.347 176.277C173.043 176.439 168.286 176.556 163.077 176.627C144.094 176.889 125.188 175.704 106.361 173.074C106.185 173.05 105.998 172.931 105.798 172.717L106.868 161.479L107.582 156.128L108.338 147.281C108.395 146.615 108.193 146.52 107.731 146.995C104.911 149.94 101.778 152.518 98.3346 154.73C98.0492 154.568 97.9493 154.344 98.0349 154.059C98.1348 153.755 98.1871 153.579 98.1919 153.531C98.4012 151.633 98.2704 149.585 97.7994 147.388C97.0527 143.877 96.1013 140.776 94.9455 138.084C89.8035 125.122 82.9516 112.957 74.3896 101.588C73.9948 101.07 73.5429 100.758 73.0339 100.654C72.8294 100.287 72.5226 100.04 72.1135 99.9117C79.9382 91.5399 88.7523 84.6666 98.5558 79.2916C102.28 77.251 106.354 75.5837 110.778 74.2899C121.295 71.2029 131.048 72.5775 140.039 78.414C140.077 78.4377 140.393 78.7041 140.987 79.2131C141.378 79.5508 141.846 79.7506 142.393 79.8124C141.898 79.9076 141.556 80.2691 141.366 80.8969C140.205 84.726 139.798 88.4648 140.146 92.1131C140.331 94.0729 140.528 95.4856 140.738 96.3513C141.075 97.7688 141.684 99.0864 142.564 100.304C143.492 101.588 144.622 102.223 145.953 102.209C146.957 102.195 147.961 101.655 148.964 100.589C151.88 97.4739 154.054 93.8659 155.486 89.7657C156.052 88.1484 156.273 88.284 156.149 90.1724C156.135 90.3722 156.104 90.5815 156.057 90.8003C154.611 97.3692 153.624 104.459 153.096 112.07C152.777 116.679 154.739 119.523 158.982 120.603C159.22 120.66 159.431 120.689 159.617 120.689C160.24 120.674 160.326 120.441 159.874 119.989C159.745 119.861 159.574 119.771 159.36 119.718C155.521 118.796 153.79 116.187 154.166 111.891C154.96 102.782 156.08 94.7673 157.526 87.8464C157.574 87.6181 157.621 87.6205 157.669 87.8535C158.421 91.5162 159.557 94.8458 161.08 97.8425C161.65 98.9698 162.533 100.047 163.727 101.075C165.02 102.178 166.486 102.409 168.122 101.767C169.925 101.063 171.314 99.5858 172.289 97.3359C174.577 92.0846 175.076 86.6596 173.787 81.0611C182.801 72.8939 193.187 70.7724 204.945 74.6966C210.187 76.4471 215.153 78.7874 219.843 81.7175C227.402 86.4361 234.415 91.8563 240.884 97.9781ZM158.861 100.632C158.861 100.394 158.766 100.165 158.597 99.9966C158.429 99.828 158.2 99.7333 157.962 99.7333C157.723 99.7333 157.494 99.828 157.326 99.9966C157.157 100.165 157.063 100.394 157.063 100.632C157.063 100.871 157.157 101.099 157.326 101.268C157.494 101.437 157.723 101.531 157.962 101.531C158.2 101.531 158.429 101.437 158.597 101.268C158.766 101.099 158.861 100.871 158.861 100.632ZM158.009 112.344C158.083 112.137 158.065 111.907 157.958 111.704C157.852 111.501 157.666 111.342 157.441 111.262C157.33 111.222 157.213 111.203 157.096 111.205C156.98 111.208 156.866 111.232 156.761 111.276C156.657 111.32 156.564 111.384 156.487 111.463C156.411 111.542 156.353 111.636 156.316 111.738C156.242 111.945 156.26 112.175 156.367 112.378C156.473 112.581 156.659 112.74 156.883 112.82C156.995 112.86 157.112 112.879 157.229 112.877C157.345 112.875 157.459 112.851 157.564 112.806C157.668 112.762 157.761 112.699 157.838 112.619C157.914 112.54 157.972 112.446 158.009 112.344ZM120.639 127.752C116.809 133.969 112.731 140.017 108.402 145.897C108.368 145.943 108.342 145.995 108.324 146.048C108.307 146.102 108.3 146.156 108.302 146.206C108.305 146.257 108.318 146.303 108.34 146.342C108.362 146.381 108.393 146.412 108.431 146.432C108.645 146.555 108.892 146.444 109.173 146.096C113.458 140.726 117.554 134.585 121.459 127.674C121.513 127.579 121.532 127.468 121.511 127.36C121.49 127.253 121.431 127.156 121.345 127.089C121.121 126.918 120.95 126.991 120.831 127.31C120.755 127.515 120.691 127.662 120.639 127.752Z" fill="#F16D22"/>
<path d="M144.526 100.903C143.023 99.7427 142.07 98.2325 141.665 96.3726C140.505 91.0167 140.754 85.7011 142.414 80.426C142.428 80.3845 142.452 80.3467 142.482 80.3154C142.513 80.2841 142.55 80.26 142.591 80.2449C142.632 80.2299 142.676 80.2242 142.719 80.2284C142.763 80.2325 142.805 80.2464 142.843 80.269C147.109 82.8471 151.635 84.2289 156.42 84.4144C156.515 84.4179 156.607 84.4445 156.689 84.4919C156.771 84.5393 156.84 84.6061 156.89 84.6864C156.94 84.7667 156.97 84.8581 156.976 84.9525C156.982 85.0469 156.966 85.1414 156.927 85.2278C155.043 89.3804 153.084 93.2903 151.048 96.9577C150.025 98.7985 148.755 100.168 147.238 101.067C146.296 101.629 145.392 101.574 144.526 100.903Z" fill="#F16D22"/>
<path d="M164.469 100.518C163.032 99.5095 161.9 97.897 161.072 95.6804C159.76 92.17 158.72 88.5764 157.954 84.8995C157.944 84.846 157.945 84.7907 157.958 84.7379C157.971 84.685 157.996 84.6358 158.03 84.594C158.064 84.5522 158.107 84.5189 158.156 84.4964C158.205 84.4739 158.258 84.4629 158.311 84.4642C163.272 84.5356 168.01 83.5747 172.524 81.5817C172.564 81.5637 172.607 81.5546 172.65 81.5552C172.693 81.5558 172.736 81.566 172.775 81.5851C172.814 81.6043 172.848 81.6318 172.875 81.6658C172.902 81.6997 172.921 81.7392 172.931 81.7815C173.549 84.5166 173.67 87.2445 173.295 89.9653C172.971 92.277 172.541 94.1607 172.003 95.6162C171.29 97.5522 170.16 99.1718 168.614 100.475C167.335 101.55 165.953 101.564 164.469 100.518Z" fill="#F16D22"/>
<path d="M240.499 98.8984C233.554 112.455 230.581 126.884 231.58 142.186C231.285 142.362 230.943 142.358 230.553 142.172C228.522 141.187 226.495 140.191 224.474 139.183C226.167 126.021 230.453 113.787 237.331 102.48C238.173 101.091 239.229 99.8973 240.499 98.8984Z" fill="#9B3C59"/>
<path d="M157.962 101.531C158.458 101.531 158.861 101.129 158.861 100.632C158.861 100.136 158.458 99.7334 157.962 99.7334C157.465 99.7334 157.062 100.136 157.062 100.632C157.062 101.129 157.465 101.531 157.962 101.531Z" fill="#F4ADA2"/>
<path d="M73.0339 100.654C73.5429 100.758 73.9948 101.07 74.3896 101.588C82.9516 112.957 89.8035 125.122 94.9455 138.084C92.3198 139.787 89.4753 140.926 86.412 141.502C85.9459 136.859 85.2229 132.756 84.243 129.194C81.6221 119.68 77.8857 110.167 73.0339 100.654Z" fill="#9B3C59"/>
<path d="M70.0017 101.724H70.3013C70.5582 102.29 70.6272 102.873 70.5082 103.472C70.0421 105.779 69.3976 108.034 68.5747 110.236C68.5223 110.369 68.4486 110.472 68.3535 110.543C68.0015 110.809 67.8802 110.676 67.9896 110.143C68.5747 107.318 69.2454 104.512 70.0017 101.724Z" fill="#A74B86"/>
<path d="M247.812 104.607L247.962 104.578C248.633 107.432 249.304 110.284 249.974 113.133C250.184 114.018 249.988 114.256 249.389 113.846C249.209 113.727 249.068 113.533 248.99 113.297C248.195 110.928 247.693 108.495 247.484 105.998C247.47 105.865 247.508 105.641 247.598 105.327L247.812 104.607Z" fill="#A74B86"/>
<path d="M156.883 112.82C157.351 112.988 157.855 112.775 158.009 112.344C158.163 111.914 157.909 111.429 157.441 111.262C156.974 111.095 156.47 111.308 156.316 111.738C156.162 112.169 156.416 112.653 156.883 112.82Z" fill="#F4ADA2"/>
<path d="M120.831 127.31C120.95 126.991 121.121 126.918 121.345 127.089C121.431 127.156 121.49 127.253 121.511 127.36C121.532 127.468 121.513 127.579 121.459 127.674C117.554 134.585 113.458 140.726 109.173 146.096C108.892 146.444 108.645 146.555 108.431 146.432C108.393 146.412 108.362 146.381 108.34 146.342C108.318 146.303 108.305 146.257 108.303 146.206C108.3 146.156 108.307 146.102 108.324 146.048C108.342 145.995 108.368 145.943 108.402 145.897C112.731 140.017 116.809 133.969 120.639 127.752C120.691 127.662 120.755 127.515 120.831 127.31Z" fill="#F4ADA2"/>
<path d="M94.9456 138.084C96.1014 140.776 97.0528 143.878 97.7995 147.388C98.2705 149.586 98.4013 151.633 98.192 153.531C98.1872 153.579 98.1349 153.755 98.035 154.059C97.9494 154.345 98.0493 154.568 98.3347 154.73C96.4938 155.458 94.6387 155.455 92.7694 154.723C89.7061 153.529 87.1756 151.724 85.1778 149.307C83.9268 147.795 82.3071 145.678 80.3188 142.957C82.4165 142.729 84.4476 142.244 86.4121 141.502C89.4754 140.926 92.3199 139.787 94.9456 138.084Z" fill="#5B2448"/>
<path d="M224.474 139.183C226.495 140.191 228.522 141.188 230.553 142.172C230.943 142.358 231.285 142.362 231.58 142.186L236.396 143.97C236.116 144.199 235.921 144.501 235.811 144.876C234.684 148.862 232.843 151.945 230.289 154.123C229.2 155.051 227.896 155.065 226.379 154.166C226.555 153.728 226.498 153.367 226.208 153.082C225.97 152.853 225.82 152.677 225.758 152.554C225.064 151.169 224.64 149.909 224.488 148.772C224.112 145.932 224.108 142.736 224.474 139.183Z" fill="#5B2448"/>
<path d="M107.581 156.128L106.868 161.479C101.464 162.416 96.4937 163.739 91.9559 165.446C90.7239 165.912 89.461 166.681 88.1672 167.751C85.0801 165.943 84.9707 164.045 87.839 162.057C89.1328 161.153 90.5289 160.454 92.0272 159.959C96.3986 158.504 100.865 157.45 105.427 156.799C106.012 156.713 106.73 156.489 107.581 156.128Z" fill="#21A0AA"/>
<path d="M212.344 156.485C216.169 157.194 219.964 158.021 223.732 158.968C226.139 159.572 228.398 160.497 230.51 161.743C231.77 162.49 232.541 163.308 232.822 164.198C233.273 165.63 232.562 166.814 230.688 167.751C229.437 166.719 228.174 165.951 226.9 165.446C222.823 163.839 218.438 162.645 213.743 161.865C213.024 160.138 212.558 158.345 212.344 156.485Z" fill="#21A0AA"/>
<path d="M106.868 161.479L105.798 172.717C99.6236 172.08 93.7468 170.424 88.1672 167.751C89.461 166.681 90.7239 165.913 91.9559 165.447C96.4938 163.739 101.464 162.417 106.868 161.479Z" fill="#5B2448"/>
<path d="M213.743 161.865C218.438 162.645 222.823 163.839 226.9 165.446C228.175 165.951 229.437 166.719 230.688 167.751C225.951 170.096 220.956 171.623 215.705 172.332L213.743 161.865Z" fill="#5B2448"/>
</g>
<defs>
<clipPath id="clip0_201_18374">
<rect width="264.74" height="176" fill="white" transform="translate(27.6304 0.716309)"/>
</clipPath>
</defs>
</svg>
