<svg width="170" height="231" viewBox="0 0 170 231" fill="none" xmlns="http://www.w3.org/2000/svg">
<path d="M87.0227 11.7551C85.8353 11.5977 85.3346 11.9518 85.5206 12.8173C85.5558 12.9831 85.5424 13.1515 85.483 13.2902C85.4235 13.4289 85.3223 13.5279 85.1987 13.5683L81.7117 14.77C81.6305 14.7976 81.5449 14.81 81.4601 14.8066C81.3754 14.8031 81.2931 14.7838 81.2181 14.7499C81.1431 14.7159 81.077 14.6679 81.0235 14.6087C80.9701 14.5495 80.9305 14.4803 80.907 14.4052C80.8355 14.1834 80.8606 13.951 80.9822 13.7078C81.0751 13.5218 81.2575 13.3609 81.5293 13.225C82.8884 12.5454 82.8097 12.2379 81.2933 12.3023C81.043 12.3094 80.8141 12.3845 80.6066 12.5276C78.9758 13.672 77.817 15.2456 77.1304 17.2484C76.3579 19.5016 75.3708 19.5981 74.1691 17.5381C73.1319 15.7642 71.426 14.6126 69.0513 14.0833" stroke="#A86975" stroke-width="2.14584"/>
<path d="M80.8532 29.7264L77.0551 27.3767C77.0038 27.345 76.9459 27.3253 76.8861 27.3193C76.8263 27.3133 76.7666 27.3212 76.7118 27.3423C76.6571 27.3633 76.609 27.3969 76.5716 27.4403C76.5342 27.4836 76.5087 27.5354 76.4972 27.5913C75.8963 30.4167 77.0658 32.0976 80.0056 32.634" stroke="#A86975" stroke-width="2.14584"/>
<path d="M79.555 35.853C79.412 36.4253 79.04 36.7972 78.4392 36.9689" stroke="#F77E74" stroke-width="2.14584"/>
<path d="M78.4392 36.9687C73.2749 37.4909 68.1642 37.2083 63.1072 36.1211" stroke="#F7897F" stroke-width="2.14584"/>
<path d="M74.3729 58.3843C74.1297 58.7777 74.0403 59.2247 74.1047 59.7254" stroke="#F37976" stroke-width="2.14584"/>
<path d="M74.1045 59.7256C73.0673 53.9533 73.4536 47.9699 75.2632 41.7756C75.3069 41.6313 75.3137 41.4784 75.283 41.3307C75.2522 41.183 75.185 41.045 75.0872 40.9292C74.9894 40.8133 74.8641 40.7232 74.7226 40.6668C74.5811 40.6104 74.4277 40.5896 74.2762 40.6061C70.7856 41.0138 67.5203 40.8994 64.4804 40.2628C64.1728 40.1984 63.8652 40.041 63.5577 39.7907C62.0842 38.6105 60.8074 39.0182 59.7273 41.0138C55.0423 49.7045 51.6447 58.0017 49.5346 65.9056C49.3772 66.4778 49.0875 66.9356 48.6655 67.2789" stroke="#F95A51" stroke-width="2.14584"/>
<path d="M48.6656 67.2787L48.1292 67.1929" stroke="#CA506F" stroke-width="2.14584"/>
<path d="M48.1292 67.1929C51.3408 57.1933 55.4322 47.5728 60.4034 38.3314C60.5679 38.0238 60.947 37.8378 61.5407 37.7734" stroke="#F95A51" stroke-width="2.14584"/>
<path d="M109.018 58.9636C107.766 58.6847 106.518 58.6847 105.273 58.9636C98.7283 60.4299 92.534 62.8082 86.6901 66.0985C85.2381 66.914 84.276 67.665 83.804 68.3517" stroke="#CA4664" stroke-width="2.14584"/>
<path d="M83.8037 68.3516C81.522 69.4173 79.5692 70.923 77.9456 72.8686" stroke="#AA3A47" stroke-width="2.14584"/>
<path d="M77.9456 72.8687C76.043 68.2265 74.852 63.3984 74.3728 58.3843" stroke="#F36F6C" stroke-width="2.14584"/>
<path d="M74.3729 58.3843C73.2428 50.695 74.5983 43.5565 78.4393 36.9688" stroke="#F95A51" stroke-width="2.14584"/>
<path d="M77.9456 72.8687L77.5916 74.478" stroke="#A4596D" stroke-width="2.14584"/>
<path d="M48.1292 67.1928L39.3206 61.8711" stroke="#CA4664" stroke-width="2.14584"/>
<path d="M39.3206 61.8713C36.996 60.4765 34.4639 59.94 31.7244 60.2619" stroke="#AA3A47" stroke-width="2.14584"/>
<path d="M48.0863 69.9179C44.5385 68.0439 40.7976 66.6884 36.8635 65.8516" stroke="#C87592" stroke-width="2.14584"/>
<path d="M74.1045 59.7256C74.5408 63.3664 75.4492 67.8369 76.8297 73.1371C77.0014 73.8095 77.2553 74.2565 77.5915 74.4782" stroke="#F36F6C" stroke-width="2.14584"/>
<path d="M77.5916 74.478C78.5572 75.4794 80.002 75.9265 81.9262 75.8192C84.4726 75.6761 86.4253 75.2291 87.7843 74.478" stroke="#AA3A47" stroke-width="2.14584"/>
<path d="M96.6788 109.122L95.3376 109.037" stroke="#8D7878" stroke-width="2.14584"/>
<path d="M95.3378 109.037L89.3402 97.1058C88.7966 96.0185 88.5677 96.0829 88.6535 97.2989L88.8574 100.228" stroke="#AA3A47" stroke-width="2.14584"/>
<path d="M88.8571 100.228L88.9966 108.071C89.0003 108.318 88.9564 108.563 88.8678 108.79C88.7793 109.018 88.6479 109.223 88.4823 109.393C88.3166 109.563 88.1202 109.693 87.9058 109.776C87.6914 109.859 87.4636 109.892 87.237 109.874C74.1402 108.808 61.2831 108.915 48.6655 110.195" stroke="#8D7878" stroke-width="2.14584"/>
<path d="M48.6656 110.195C46.205 110.346 44.0735 111.225 42.271 112.835" stroke="#AA3A47" stroke-width="2.14584"/>
<path d="M44.3311 93.7905L48.0863 69.918" stroke="#F77E74" stroke-width="2.14584"/>
<path d="M48.0862 69.9182C48.5726 69.1099 48.7657 68.2301 48.6656 67.2788" stroke="#CA4664" stroke-width="2.14584"/>
<path d="M100.209 86.0119C95.209 83.0864 91.0676 79.2418 87.7844 74.478" stroke="#F77E74" stroke-width="2.14584"/>
<path d="M87.7843 74.4779L86.4431 72.332" stroke="#A86975" stroke-width="2.14584"/>
<path d="M86.4431 72.332C92.7519 65.8515 100.277 61.3953 109.017 58.9634" stroke="#C87592" stroke-width="2.14584"/>
<path d="M109.018 58.9637C109.511 58.6632 110.033 58.4701 110.584 58.3843" stroke="#F77E74" stroke-width="2.14584"/>
<path d="M86.4433 72.3321L83.804 68.3516" stroke="#7B3065" stroke-width="2.14584"/>
<path d="M39.3205 61.8711C38.1761 63.0155 37.3571 64.3424 36.8635 65.8516" stroke="#7B3065" stroke-width="2.14584"/>
<path d="M36.8635 65.8516L35.0288 68.845" stroke="#A86975" stroke-width="2.14584"/>
<path d="M74.1904 205.911L68.5146 203.99" stroke="#8BA7A6" stroke-width="2.14584"/>
<path d="M68.5147 203.99C68.3716 203.568 68.014 203.225 67.4417 202.96C63.9154 201.322 60.711 198.908 57.8284 195.718" stroke="#5E6E96" stroke-width="2.14584"/>
<path d="M57.8285 195.718C54.7814 190.44 52.8215 187.199 51.9489 185.998C50.833 184.445 49.1879 183.126 47.0134 182.039" stroke="#3E6279" stroke-width="2.14584"/>
<path d="M47.0133 182.038C46.7987 181.487 46.8488 180.983 47.1635 180.525C53.5438 171.234 59.9206 161.939 66.2937 152.64C66.3509 152.561 66.3831 152.486 66.3903 152.415C66.3974 152.308 66.3831 152.218 66.3474 152.147C66.3307 152.115 66.3039 152.092 66.2697 152.079C66.2355 152.066 66.1949 152.065 66.1518 152.075C66.1088 152.084 66.0647 152.105 66.0238 152.134C65.9829 152.164 65.9465 152.201 65.9182 152.243L62.6565 156.76C61.5693 158.269 61.1509 158.105 61.4012 156.267C62.1522 150.687 62.3811 145.205 62.0879 139.819C61.8232 134.783 61.6015 130.731 61.4227 127.663C61.1866 123.585 60.643 119.548 59.7918 115.549C59.7203 115.22 59.6201 115.152 59.4914 115.345C59.4294 115.434 59.4026 115.564 59.4163 115.71C59.638 117.641 60.0779 123.299 60.736 132.684C61.3297 141.088 61.3654 148.402 60.8433 154.625C60.6215 157.257 60.0207 159.521 59.0408 161.417C58.1038 163.219 56.8592 165.243 55.307 167.489C50.3501 174.635 47.0884 179.213 45.522 181.223C45.4098 181.366 45.3301 181.521 45.2968 181.662C45.2635 181.803 45.2786 181.921 45.3396 181.995C45.4612 182.124 45.6758 182.153 45.9833 182.081" stroke="#31AFB5" stroke-width="2.14584"/>
<path d="M45.9835 182.081C44.4313 182.625 43.4872 183.662 43.151 185.193C43.0938 185.45 43.1259 186.026 43.2475 186.92C43.3334 187.521 43.2618 188.114 43.033 188.701" stroke="#3E6279" stroke-width="2.14584"/>
<path d="M35.029 193.572L31.7244 190.89" stroke="#8BA7A6" stroke-width="2.14584"/>
<path d="M31.7242 190.89C32.0103 190.375 31.9495 189.942 31.5418 189.592C31.1484 189.255 30.9231 189.055 30.8659 188.991C28.484 186.087 26.6386 182.861 25.3296 179.313" stroke="#5E6E96" stroke-width="2.14584"/>
<path d="M48.6228 116.858L48.6657 110.195" stroke="#3E6279" stroke-width="2.14584"/>
<path d="M95.3376 109.037L94.254 109.498C94.1206 109.557 93.9636 109.561 93.8068 109.511C93.6499 109.461 93.5018 109.358 93.3849 109.219C91.1604 106.587 89.6511 103.59 88.8572 100.228" stroke="#3E6279" stroke-width="2.14584"/>
<path d="M154.08 36.6148C153.787 38.0811 153.14 38.968 152.138 39.2756C150.271 39.8407 149.309 39.0574 149.252 36.9259C149.224 35.9317 149.134 35.2915 148.984 35.0054" stroke="#C87592" stroke-width="2.14584"/>
<path d="M115.455 88.115C125.519 84.7174 134.439 78.8092 142.214 70.3903C147.972 64.1531 152.721 58.0946 156.462 52.215C157.807 50.0978 158.486 48.1629 158.501 46.4105C158.522 44.2218 157.968 42.1367 156.838 40.1554C156.788 40.0696 156.523 39.4437 156.044 38.2778C155.707 37.4337 155.053 36.8794 154.08 36.6147" stroke="#FABE68" stroke-width="2.14584"/>
<path d="M154.08 36.6144C154.08 35.6417 154.152 34.6832 154.295 33.739C154.595 31.7648 153.808 30.7563 151.934 30.7134" stroke="#CD8658" stroke-width="2.14584"/>
<path d="M165.657 13.3218V14.3947" stroke="#E1A449" stroke-width="2.14584"/>
<path d="M165.346 19.4477C162.256 19.2116 159.177 19.276 156.108 19.6408C156.029 19.648 155.393 19.6802 154.198 19.7374C152.045 19.8375 150.951 21.0964 150.915 23.5141C150.879 25.9103 150.862 28.31 150.862 30.7134" stroke="#E1A449" stroke-width="2.14584"/>
<path d="M150.861 30.7134C148.902 31.3285 148.276 32.7591 148.984 35.0051" stroke="#CD8658" stroke-width="2.14584"/>
<path d="M148.984 35.0054C147.925 35.2843 147.217 35.9424 146.859 36.9795C146.073 39.2541 144.971 41.3356 143.555 43.2239C142.432 44.7332 140.751 46.3283 138.512 48.0092C131.567 53.2307 123.97 57.3007 115.723 60.219" stroke="#FABE68" stroke-width="2.14584"/>
<path d="M25.3294 179.313L21.5742 182.081" stroke="#7B3065" stroke-width="2.14584"/>
<path d="M72.4953 208.861C67.1307 206.794 61.6016 205.349 55.908 204.527" stroke="#ADAFC9" stroke-width="2.14584"/>
<path d="M57.8285 195.718C56.963 196.67 56.7091 197.753 57.0667 198.969C57.1033 199.088 57.1029 199.228 57.0655 199.375C57.0281 199.523 56.9549 199.674 56.8521 199.817C56.7091 200.017 56.6483 200.26 56.6697 200.546" stroke="#7B3065" stroke-width="2.14584"/>
<path d="M68.5146 203.99L56.7554 200.814" stroke="#C87592" stroke-width="2.14584"/>
<path d="M47.0134 182.039L45.9834 182.081" stroke="#4E7184" stroke-width="2.14584"/>
<path d="M29.3532 197.102L19.3857 184.453" stroke="#ADAFC9" stroke-width="2.14584"/>
<path d="M31.7243 190.89C28.0979 188.444 24.7289 185.672 21.6174 182.575" stroke="#C87592" stroke-width="2.14584"/>
<path d="M165.614 21.143L154.144 21.1216C152.628 21.1216 151.877 21.9263 151.891 23.5357L151.934 30.7135" stroke="#E1A449" stroke-width="2.14584"/>
<path d="M151.934 30.7134H150.862" stroke="#AF5B73" stroke-width="2.14584"/>
<path d="M71.9589 209.934L71.1864 210.052C70.7572 210.124 70.4103 210.127 70.1457 210.063L55.1462 206.447" stroke="#B3D8F8" stroke-width="2.14584"/>
<path d="M28.3231 197.596L18.0874 185.482" stroke="#B3D8F8" stroke-width="2.14584"/>
<path d="M70.6177 211.812C66.1972 210.124 61.6516 208.901 56.9809 208.142C56.8658 208.122 56.729 208.144 56.5829 208.206C56.4368 208.268 56.286 208.368 56.144 208.496C55.8364 208.775 55.4144 208.718 54.8779 208.325" stroke="#B3D8F8" stroke-width="2.14584"/>
<path d="M26.9391 198.443C24.6502 195.539 22.3041 192.685 19.9007 189.881C18.9637 188.794 18.1805 188.161 17.551 187.982" stroke="#B3D8F8" stroke-width="2.14584"/>
<path d="M69.8988 213.153C69.1692 213.41 68.4324 213.493 67.6886 213.4C66.6943 213.278 65.9826 213.224 65.5534 213.239C62.2703 213.389 59.5236 212.355 57.3134 210.138C56.5051 209.323 55.679 208.883 54.835 208.818" stroke="#616A9C" stroke-width="2.14584"/>
<path d="M17.551 187.982C17.7298 191.18 18.9136 193.855 21.1024 196.008C21.3742 196.28 21.9142 196.92 22.7225 197.928C23.2661 198.615 23.9564 199.144 24.7932 199.516" stroke="#616A9C" stroke-width="2.14584"/>
<path d="M9.77222 194.066C11.1098 195.132 12.6298 195.754 14.3321 195.933C15.9916 196.104 17.5116 196.637 18.892 197.531C19.0423 197.624 19.1889 197.696 19.3319 197.746C20.3405 198.061 20.4406 197.853 19.6324 197.124C18.1517 195.786 16.5638 195.139 14.8686 195.182C13.1948 195.225 11.7643 194.674 10.5769 193.529" stroke="#AD92A4" stroke-width="2.14584"/>
<path d="M10.577 193.529C9.99043 193.443 9.72219 193.622 9.77226 194.066" stroke="#CBBEC9" stroke-width="2.14584"/>
<path d="M125.648 197.639C124.331 204.048 126.656 206.269 132.622 204.302C134.381 203.722 135.186 204.08 135.036 205.374C134.95 206.111 134.961 206.834 135.068 207.542C135.147 208.042 135.218 208.751 135.282 209.666C135.39 211.225 136.212 211.883 137.75 211.64C139.109 211.426 140.003 211.318 140.432 211.318C145.16 211.39 149.695 210.482 154.037 208.593" stroke="#CD8658" stroke-width="2.14584"/>
<path d="M154.037 208.593C154.116 209.144 153.937 209.591 153.501 209.934" stroke="#9B3C82" stroke-width="2.14584"/>
<path d="M153.501 209.935C147.786 211.329 141.988 212.059 136.109 212.123" stroke="#CD8658" stroke-width="2.14584"/>
<path d="M136.109 212.123C136.545 216.351 138.398 218.865 141.667 219.666C144.435 220.345 146.999 219.741 149.359 217.853C151.698 215.986 153.079 213.346 153.501 209.935" stroke="#CD8658" stroke-width="2.14584"/>
<path d="M154.08 197.639C154.896 201.294 154.881 204.945 154.037 208.593" stroke="#CD8658" stroke-width="2.14584"/>
<path d="M161.022 18.4071C161.894 18.5716 162.62 18.5752 163.2 18.4178C164.452 18.0816 164.562 17.7025 163.532 17.2805C163.289 17.1875 163.014 17.141 162.706 17.141C155.26 17.0623 147.496 17.0409 139.413 17.0766C139.139 17.0801 138.875 16.9786 138.673 16.7931C138.472 16.6076 138.349 16.352 138.33 16.0788C138.129 13.089 137.922 12.5382 137.707 14.4265C137.421 16.9014 138.412 18.0816 140.679 17.9672C141.659 17.9171 142.188 17.8921 142.267 17.8921C147.818 17.9922 153.365 18.0745 158.908 18.1388C159.409 18.146 160.113 18.2354 161.022 18.4071Z" stroke="#FEDA57" stroke-width="2.14584"/>
<path d="M83.2136 16.8405C84.4868 16.9692 85.3773 16.6903 85.8852 16.0036C85.9252 15.9485 85.9508 15.8841 85.9596 15.8166C85.9683 15.7491 85.9599 15.6807 85.9351 15.6182C85.9103 15.5556 85.8699 15.501 85.818 15.4595C85.766 15.418 85.7042 15.3911 85.6384 15.3813C84.8444 15.2526 83.9897 15.5959 83.0741 16.4113C82.7951 16.6545 82.8416 16.7976 83.2136 16.8405Z" stroke="#845E5D" stroke-opacity="0.988" stroke-width="2.14584"/>
<path d="M71.8087 19.4372C70.2279 17.4631 69.0334 16.3365 68.2251 16.0575C67.1451 15.6856 67.1379 15.7321 68.2037 16.197C69.7344 16.8694 70.7787 17.9959 71.3366 19.5767C71.5369 20.1418 71.7085 20.292 71.8516 20.0273C71.9023 19.9343 71.9253 19.8289 71.9177 19.7242C71.9101 19.6194 71.8722 19.5197 71.8087 19.4372Z" stroke="#DB9383" stroke-width="2.14584"/>
<path d="M79.9514 23.8783C80.239 23.8394 80.5153 23.7374 80.7643 23.578C81.0134 23.4186 81.2304 23.2051 81.4029 22.9495C81.5755 22.6939 81.7002 22.4014 81.77 22.0885C81.8397 21.7756 81.8532 21.4486 81.8096 21.126C81.7215 20.4746 81.4063 19.8811 80.9333 19.476C80.4603 19.071 79.8682 18.8875 79.2873 18.966C78.9996 19.0049 78.7234 19.107 78.4744 19.2663C78.2253 19.4257 78.0083 19.6393 77.8358 19.8948C77.6632 20.1504 77.5385 20.443 77.4687 20.7558C77.3989 21.0687 77.3855 21.3958 77.4291 21.7183C77.5172 22.3697 77.8324 22.9632 78.3054 23.3683C78.7784 23.7734 79.3705 23.9568 79.9514 23.8783Z" stroke="#F09E9A" stroke-width="2.14584"/>
<path d="M84.469 21.6043C84.0327 20.5886 83.6965 20.4062 83.4605 21.0571C83.4068 21.2151 83.3895 21.3853 83.4099 21.5557C83.4303 21.7262 83.4878 21.8929 83.5785 22.0442C84.165 23.0456 85.0305 23.4247 86.175 23.1815C86.5755 23.1028 86.5862 22.9741 86.2071 22.7952L85.1771 22.3124C84.8592 22.1675 84.6073 21.9156 84.469 21.6043Z" stroke="#C5959B" stroke-width="2.14584"/>
<path d="M110.262 65.7018C110.131 65.8998 110.071 66.1369 110.093 66.3746C110.114 66.6122 110.215 66.8365 110.38 67.0108C110.487 67.1181 110.602 66.9786 110.723 66.5924C111.052 65.5266 111.585 64.5931 112.322 63.792C112.601 63.4925 112.782 63.1763 112.837 62.8908C113.059 61.7392 112.2 62.6762 110.262 65.7018Z" stroke="#DB9383" stroke-width="2.14584"/>
<path d="M8.69939 202.96C6.34612 202.703 4.87622 201.437 4.28969 199.162C4.16094 198.662 3.9857 198.576 3.76396 198.905C3.70844 198.987 3.67725 199.086 3.67348 199.193C3.66972 199.301 3.69351 199.412 3.7425 199.516C4.48639 201.183 5.66303 202.449 7.27241 203.314C7.55137 203.465 7.80172 203.508 8.02345 203.443C8.28811 203.364 8.51342 203.204 8.69939 202.96Z" stroke="#AD92A4" stroke-width="2.14584"/>
<path d="M57.9035 216.479C56.7447 217.538 55.4859 218.457 54.1268 219.237C53.6404 219.515 53.9301 219.619 54.9959 219.548C55.5212 219.506 56.0166 219.274 56.3907 218.893C58.4507 216.74 60.4356 215.631 62.3454 215.567C62.6315 215.56 62.7996 215.46 62.8497 215.267C62.8643 215.213 62.863 215.157 62.8459 215.103C62.8288 215.049 62.7963 214.998 62.7509 214.953C62.7055 214.909 62.6484 214.873 62.5837 214.847C62.5191 214.821 62.4486 214.807 62.3776 214.805C60.6681 214.755 59.1767 215.313 57.9035 216.479Z" stroke="#AD92A4" stroke-width="2.14584"/>
<path d="M59.2447 225.191C58.0001 224.333 56.7269 224.093 55.4251 224.473C54.5954 224.716 54.0017 225.22 53.644 225.985C53.0289 227.309 53.687 228.099 55.6182 228.357C57.2491 228.578 58.4793 228.371 59.3091 227.734C59.505 227.583 59.6626 227.387 59.7689 227.163C59.8752 226.94 59.9274 226.694 59.9211 226.447C59.9149 226.199 59.8503 225.956 59.7328 225.738C59.6153 225.52 59.4481 225.333 59.2447 225.191Z" stroke="#CBBEC9" stroke-width="2.14584"/>
<path d="M57.0451 225.159C55.4929 224.98 54.6167 225.427 54.4164 226.5C54.3853 226.652 54.411 226.811 54.4891 226.952C54.5672 227.092 54.693 227.205 54.8456 227.273C55.7755 227.673 56.759 227.82 57.7961 227.712C58.1477 227.678 58.4694 227.517 58.6974 227.262C59.756 226.103 59.2052 225.402 57.0451 225.159Z" stroke="#CBBEC9" stroke-width="2.14584"/>
<path d="M87.0227 11.7551C85.8353 11.5977 85.3346 11.9518 85.5206 12.8173C85.5558 12.9831 85.5424 13.1515 85.483 13.2902C85.4235 13.4289 85.3223 13.5279 85.1987 13.5683L81.7117 14.77C81.6305 14.7976 81.5449 14.81 81.4601 14.8066C81.3754 14.8031 81.2931 14.7838 81.2181 14.7499C81.1431 14.7159 81.077 14.6679 81.0235 14.6087C80.9701 14.5495 80.9305 14.4803 80.907 14.4052C80.8355 14.1834 80.8606 13.951 80.9822 13.7078C81.0751 13.5218 81.2575 13.3609 81.5293 13.225C82.8884 12.5454 82.8097 12.2379 81.2933 12.3022C81.043 12.3094 80.8141 12.3845 80.6066 12.5276C78.9758 13.672 77.817 15.2456 77.1304 17.2484C76.3579 19.5016 75.3708 19.5981 74.1691 17.5381C73.1319 15.7642 71.426 14.6126 69.0513 14.0833C70.3674 13.8687 70.8144 12.9889 70.3924 11.4439C70.2279 10.8288 70.0312 9.58061 69.8023 7.69942C69.6235 6.21879 69.7701 4.99924 70.2422 4.04076C71.5583 1.337 73.858 0.610989 77.1411 1.86273C77.2911 1.91854 77.4543 1.93305 77.6144 1.90481C77.7744 1.87657 77.9257 1.80656 78.0531 1.70179C81.4578 -1.03058 84.04 -0.472661 85.7996 3.37555C85.8648 3.51197 85.9732 3.62339 86.1087 3.69306C86.2442 3.76272 86.3992 3.78685 86.5506 3.7618C89.2258 3.28256 90.8924 4.11229 91.5504 6.25098C91.9867 7.68154 91.79 8.93328 90.9603 10.0062C90.0877 11.1506 88.7751 11.7336 87.0227 11.7551Z" fill="#5B2448"/>
<path d="M165.657 13.3216V14.3945L165.346 19.448C162.256 19.212 159.176 19.2763 156.108 19.6411C156.029 19.6483 155.393 19.6805 154.198 19.7377C152.045 19.8378 150.951 21.0967 150.915 23.5144C150.879 25.9106 150.861 28.3103 150.861 30.7137C148.901 31.3288 148.276 32.7594 148.984 35.0054C147.925 35.2843 147.217 35.9424 146.859 36.9795C146.073 39.2541 144.971 41.3356 143.555 43.2239C142.432 44.7332 140.751 46.3282 138.512 48.0092C131.567 53.2307 123.97 57.3006 115.723 60.219V13.1178C115.723 12.9584 115.786 12.8056 115.899 12.6929C116.012 12.5802 116.165 12.5169 116.324 12.5169H136.924C137.034 12.5167 137.142 12.4929 137.241 12.4471C137.341 12.4013 137.429 12.3347 137.499 12.2519C137.57 12.1691 137.621 12.0721 137.65 11.9678C137.678 11.8634 137.683 11.7542 137.664 11.6479C137.321 9.70945 138.104 8.79747 140.014 8.91191C141.18 8.98344 141.795 9.01921 141.859 9.01921C149.42 8.90476 156.977 8.9906 164.53 9.27671C164.684 9.28261 164.831 9.34181 164.945 9.44388C165.059 9.54594 165.132 9.68432 165.153 9.83463L165.657 13.3216ZM161.022 18.4073C161.895 18.5718 162.621 18.5754 163.2 18.418C164.452 18.0818 164.563 17.7027 163.532 17.2807C163.289 17.1877 163.014 17.1412 162.706 17.1412C155.26 17.0625 147.496 17.0411 139.413 17.0768C139.139 17.0803 138.875 16.9788 138.673 16.7933C138.472 16.6078 138.349 16.3522 138.33 16.079C138.129 13.0892 137.922 12.5384 137.707 14.4267C137.421 16.9016 138.412 18.0818 140.679 17.9674C141.659 17.9173 142.189 17.8923 142.267 17.8923C147.818 17.9924 153.365 18.0747 158.908 18.139C159.409 18.1462 160.113 18.2356 161.022 18.4073Z" fill="white"/>
<path d="M87.0226 11.7551C86.6578 14.1155 87.2264 16.0968 88.7285 17.699C88.8266 17.8067 88.8852 17.9454 88.8949 18.093C88.9046 18.2407 88.8649 18.389 88.7822 18.5145C87.7808 19.9879 87.9596 21.4257 89.3186 22.8276C92.0081 25.61 91.6898 27.8954 88.3637 29.6836C86.7186 30.5705 84.2151 30.5848 80.8533 29.7265L77.0551 27.3768C77.0039 27.3451 76.9459 27.3254 76.8862 27.3194C76.8264 27.3134 76.7666 27.3213 76.7119 27.3423C76.6571 27.3634 76.609 27.397 76.5717 27.4404C76.5343 27.4837 76.5088 27.5355 76.4972 27.5914C75.8964 30.4167 77.0659 32.0976 80.0057 32.6341L79.5551 35.8529C79.412 36.4251 79.0401 36.797 78.4392 36.9687C73.2749 37.4909 68.1642 37.2083 63.1072 36.1211C65.6321 32.3516 67.7708 28.2316 69.5232 23.761C69.5477 23.7019 69.5601 23.6385 69.5598 23.5746C69.5595 23.5106 69.5465 23.4473 69.5215 23.3884C69.4966 23.3295 69.4602 23.2762 69.4144 23.2315C69.3687 23.1868 69.3145 23.1516 69.255 23.128C67.9317 22.5987 66.9053 21.7654 66.1757 20.6281C65.4175 19.4479 65.135 18.2284 65.3281 16.9695C65.6071 15.2242 66.8481 14.2621 69.0512 14.0833C71.4259 14.6126 73.1318 15.7642 74.169 17.5381C75.3707 19.5981 76.3577 19.5016 77.1303 17.2484C77.8169 15.2456 78.9757 13.672 80.6065 12.5276C80.8139 12.3845 81.0428 12.3094 81.2932 12.3023C82.8096 12.2379 82.8883 12.5454 81.5292 13.225C81.2574 13.3609 81.075 13.5218 80.982 13.7078C80.8604 13.951 80.8354 14.1834 80.9069 14.4052C80.9304 14.4803 80.97 14.5495 81.0234 14.6087C81.0768 14.6679 81.143 14.7159 81.218 14.7499C81.2929 14.7838 81.3752 14.8031 81.46 14.8066C81.5448 14.81 81.6304 14.7976 81.7116 14.77L85.1986 13.5683C85.3222 13.5279 85.4234 13.4289 85.4828 13.2902C85.5423 13.1515 85.5557 12.9831 85.5205 12.8173C85.3345 11.9518 85.8352 11.5977 87.0226 11.7551ZM83.2137 16.8407C84.4869 16.9695 85.3774 16.6905 85.8853 16.0038C85.9253 15.9487 85.951 15.8843 85.9597 15.8168C85.9684 15.7493 85.96 15.681 85.9352 15.6184C85.9104 15.5559 85.8701 15.5012 85.8181 15.4597C85.7661 15.4182 85.7043 15.3913 85.6385 15.3815C84.8446 15.2528 83.9898 15.5961 83.0742 16.4115C82.7953 16.6547 82.8418 16.7978 83.2137 16.8407ZM71.8086 19.4372C70.2278 17.463 69.0333 16.3364 68.225 16.0575C67.1449 15.6855 67.1378 15.732 68.2036 16.197C69.7343 16.8693 70.7786 17.9959 71.3365 19.5767C71.5368 20.1417 71.7084 20.2919 71.8515 20.0273C71.9022 19.9342 71.9252 19.8289 71.9176 19.7241C71.9099 19.6194 71.8721 19.5197 71.8086 19.4372ZM79.9515 23.8782C80.2391 23.8393 80.5154 23.7373 80.7644 23.5779C81.0135 23.4186 81.2304 23.205 81.403 22.9494C81.5755 22.6938 81.7003 22.4013 81.7701 22.0884C81.8398 21.7755 81.8533 21.4485 81.8097 21.126C81.7216 20.4746 81.4064 19.881 80.9334 19.476C80.4604 19.0709 79.8683 18.8874 79.2874 18.966C78.9997 19.0048 78.7235 19.1069 78.4745 19.2662C78.2254 19.4256 78.0084 19.6392 77.8359 19.8947C77.6633 20.1503 77.5386 20.4429 77.4688 20.7558C77.399 21.0686 77.3856 21.3957 77.4292 21.7182C77.5172 22.3696 77.8324 22.9631 78.3055 23.3682C78.7785 23.7733 79.3706 23.9567 79.9515 23.8782ZM84.469 21.6045C84.0327 20.5888 83.6965 20.4064 83.4605 21.0573C83.4068 21.2153 83.3895 21.3854 83.4099 21.5559C83.4303 21.7264 83.4878 21.8931 83.5785 22.0444C84.165 23.0458 85.0305 23.4249 86.175 23.1817C86.5755 23.103 86.5863 22.9742 86.2072 22.7954L85.1772 22.3126C84.8593 22.1677 84.6073 21.9158 84.469 21.6045Z" fill="#F4ADA2"/>
<path d="M158.908 18.1388C153.365 18.0745 147.818 17.9922 142.267 17.8921C142.188 17.8921 141.659 17.9171 140.679 17.9672C138.412 18.0816 137.421 16.9014 137.707 14.4265C137.922 12.5382 138.129 13.089 138.33 16.0788C138.349 16.352 138.472 16.6076 138.673 16.7931C138.875 16.9786 139.139 17.0801 139.413 17.0766C147.496 17.0409 155.26 17.0623 162.706 17.141C163.014 17.141 163.289 17.1875 163.532 17.2805C164.562 17.7025 164.452 18.0816 163.2 18.4178C162.62 18.5752 161.894 18.5716 161.022 18.4071C160.113 18.2354 159.409 18.146 158.908 18.1388Z" fill="#21A0AA"/>
<path d="M165.657 13.3218L169.369 14.3518C168.897 14.5091 168.758 14.7631 168.951 15.1136C169.13 15.4283 169.23 15.6393 169.251 15.7466C169.931 18.8437 168.719 20.6427 165.614 21.1434L154.145 21.1219C152.628 21.1219 151.877 21.9266 151.892 23.536L151.934 30.7138H150.862C150.862 28.3105 150.879 25.9107 150.915 23.5145C150.951 21.0969 152.045 19.838 154.198 19.7378C155.393 19.6806 156.029 19.6484 156.108 19.6413C159.177 19.2765 162.256 19.2121 165.346 19.4482C165.632 19.7986 165.968 19.9882 166.355 20.0168C166.676 20.0383 166.988 19.8988 167.288 19.5984C168.49 18.4038 168.779 16.9447 168.157 15.2208C168.099 15.0542 168.001 14.9082 167.876 14.7999C167.751 14.6915 167.602 14.6254 167.449 14.6093L165.657 14.3947V13.3218Z" fill="black"/>
<path d="M83.2136 16.841C82.8416 16.7981 82.7951 16.655 83.0741 16.4118C83.9897 15.5964 84.8444 15.2531 85.6384 15.3818C85.7042 15.3916 85.766 15.4185 85.818 15.46C85.8699 15.5015 85.9103 15.5561 85.9351 15.6187C85.9599 15.6812 85.9683 15.7495 85.9596 15.8171C85.9508 15.8846 85.9252 15.949 85.8852 16.0041C85.3773 16.6908 84.4868 16.9697 83.2136 16.841Z" fill="#100D17" fill-opacity="0.973"/>
<path d="M71.8087 19.4372C71.8722 19.5197 71.9101 19.6194 71.9177 19.7242C71.9253 19.8289 71.9023 19.9343 71.8516 20.0273C71.7085 20.292 71.5369 20.1418 71.3366 19.5767C70.7787 17.9959 69.7344 16.8694 68.2037 16.197C67.1379 15.7321 67.1451 15.6856 68.2251 16.0575C69.0334 16.3365 70.2279 17.4631 71.8087 19.4372Z" fill="#C27964"/>
<path d="M77.429 21.7183C77.6124 23.0748 78.7417 24.0418 79.9514 23.8783C81.1611 23.7147 81.993 22.4825 81.8096 21.126C81.6262 19.7696 80.4969 18.8025 79.2873 18.9661C78.0776 19.1296 77.2456 20.3618 77.429 21.7183Z" fill="#EC8E91"/>
<path d="M85.1774 22.3124L86.2074 22.7952C86.5865 22.9741 86.5758 23.1028 86.1752 23.1815C85.0308 23.4247 84.1653 23.0456 83.5787 22.0442C83.4881 21.8929 83.4305 21.7262 83.4102 21.5557C83.3898 21.3853 83.407 21.2151 83.4607 21.0571C83.6968 20.4062 84.0329 20.5886 84.4693 21.6043C84.6076 21.9156 84.8595 22.1675 85.1774 22.3124Z" fill="#967D93"/>
<path d="M165.614 21.143L165.657 22.7095C165.593 22.9813 165.593 23.2495 165.657 23.5142V73.405V91.1082C165.278 91.7305 165.264 92.3564 165.614 92.9858C166.408 94.4164 165.693 95.1317 163.468 95.1317H144.027C143.791 95.1317 143.564 95.221 143.397 95.3799C143.23 95.5389 143.136 95.7545 143.136 95.9793L143.126 102.106C143.047 102.671 143.136 103.207 143.394 103.715L143.351 111.537L143.008 119.197C143.002 119.344 142.945 119.483 142.849 119.585C142.753 119.687 142.626 119.744 142.493 119.744L116.528 119.809C116.312 119.809 116.104 119.721 115.951 119.564C115.798 119.407 115.713 119.194 115.713 118.972L115.455 88.1148C125.519 84.7172 134.439 78.809 142.214 70.3901C147.972 64.1529 152.721 58.0944 156.462 52.2148C157.807 50.0976 158.486 48.1628 158.501 46.4103C158.522 44.2216 157.968 42.1365 156.838 40.1552C156.788 40.0694 156.523 39.4435 156.044 38.2776C155.707 37.4336 155.053 36.8792 154.08 36.6146C154.08 35.6418 154.152 34.6833 154.295 33.7391C154.595 31.765 153.808 30.7564 151.934 30.7135L151.891 23.5357C151.877 21.9263 152.628 21.1216 154.145 21.1216L165.614 21.143Z" fill="white"/>
<path d="M80.8535 29.7264L80.0059 32.634C77.0661 32.0976 75.8966 30.4167 76.4974 27.5913C76.509 27.5354 76.5345 27.4836 76.5719 27.4403C76.6092 27.3969 76.6573 27.3633 76.7121 27.3423C76.7668 27.3212 76.8266 27.3133 76.8864 27.3193C76.9461 27.3253 77.0041 27.345 77.0553 27.3767L80.8535 29.7264Z" fill="#5B2448"/>
<path d="M150.862 30.7134H151.935C153.809 30.7563 154.595 31.7648 154.295 33.739C154.152 34.6832 154.08 35.6417 154.08 36.6144C153.787 38.0808 153.14 38.9677 152.138 39.2753C150.272 39.8404 149.31 39.0571 149.252 36.9256C149.224 35.9314 149.134 35.2912 148.984 35.0051C148.276 32.7591 148.902 31.3285 150.862 30.7134Z" fill="black"/>
<path d="M148.984 35.0054C149.134 35.2915 149.224 35.9317 149.252 36.9259C149.309 39.0574 150.271 39.8407 152.138 39.2756C153.14 38.968 153.787 38.0811 154.08 36.6148C155.053 36.8794 155.708 37.4337 156.044 38.2778C156.523 39.4437 156.788 40.0696 156.838 40.1554C157.968 42.1367 158.522 44.2218 158.501 46.4105C158.486 48.163 157.807 50.0978 156.462 52.215C152.721 58.0946 147.972 64.1531 142.214 70.3903C134.439 78.8092 125.519 84.7174 115.455 88.115C110.162 88.9089 105.08 88.2079 100.209 86.012C95.2091 83.0865 91.0676 79.2419 87.7845 74.4781L86.4434 72.3323C92.7521 65.8518 100.277 61.3956 109.018 58.9637C109.511 58.6633 110.033 58.4701 110.584 58.3843C111.142 58.9852 111.686 59.6003 112.215 60.2297C112.766 60.895 113.284 61.2633 113.771 61.3348C114.565 61.4564 115.216 61.0845 115.723 60.219C123.971 57.3007 131.567 53.2307 138.512 48.0092C140.751 46.3283 142.432 44.7332 143.555 43.2239C144.971 41.3356 146.073 39.2541 146.86 36.9795C147.217 35.9424 147.925 35.2843 148.984 35.0054ZM110.262 65.7016C110.131 65.8996 110.071 66.1367 110.093 66.3744C110.114 66.6121 110.216 66.8363 110.38 67.0106C110.488 67.1179 110.602 66.9784 110.724 66.5922C111.053 65.5264 111.585 64.593 112.322 63.7918C112.601 63.4923 112.782 63.1761 112.837 62.8906C113.059 61.739 112.201 62.676 110.262 65.7016Z" fill="#F4ADA2"/>
<path d="M110.584 58.3839C110.033 58.4698 109.511 58.6629 109.018 58.9633C107.766 58.6844 106.518 58.6844 105.273 58.9633C98.7282 60.4296 92.5339 62.8079 86.6901 66.0982C85.2381 66.9137 84.276 67.6647 83.8039 68.3514C81.5222 69.4171 79.5695 70.9228 77.9458 72.8684C76.0431 68.2262 74.8522 63.3981 74.3729 58.3839C73.2428 50.6947 74.5983 43.5562 78.4393 36.9684C79.0401 36.7968 79.4121 36.4248 79.5551 35.8526C85.1844 34.8727 90.1985 36.3712 94.5975 40.3481C100.863 46.006 106.192 52.0179 110.584 58.3839Z" fill="#F16D22"/>
<path d="M63.1074 36.1211C68.1644 37.2083 73.2751 37.4909 78.4394 36.9687C74.5984 43.5564 73.2429 50.6949 74.373 58.3842C74.1298 58.7776 74.0404 59.2247 74.1048 59.7254C73.0677 53.953 73.4539 47.9697 75.2636 41.7754C75.3072 41.631 75.314 41.4782 75.2833 41.3305C75.2526 41.1828 75.1853 41.0448 75.0875 40.929C74.9897 40.8131 74.8645 40.723 74.7229 40.6666C74.5814 40.6102 74.428 40.5894 74.2765 40.6059C70.7859 41.0136 67.5206 40.8992 64.4807 40.2626C64.1731 40.1982 63.8656 40.0408 63.558 39.7905C62.0845 38.6103 60.8077 39.018 59.7277 41.0136C55.0426 49.7043 51.645 58.0015 49.5349 65.9054C49.3776 66.4776 49.0879 66.9354 48.6659 67.2787L48.1294 67.1929C51.341 57.1933 55.4324 47.5727 60.4036 38.3313C60.5681 38.0237 60.9472 37.8378 61.5409 37.7734C62.292 37.473 62.8141 36.9222 63.1074 36.1211Z" fill="#F9645B"/>
<path d="M61.5408 37.7733C60.9472 37.8377 60.5681 38.0237 60.4035 38.3313C55.4323 47.5727 51.3409 57.1932 48.1293 67.1928L39.3206 61.8711C36.996 60.4763 34.4639 59.9399 31.7244 60.2618C38.0045 51.3708 45.6401 44.3289 54.6312 39.1359C56.6054 37.9987 58.9086 37.5445 61.5408 37.7733Z" fill="#F16D22"/>
<path d="M74.1048 59.7256C74.5411 63.3664 75.4495 67.8369 76.83 73.1371C77.0017 73.8094 77.2556 74.2565 77.5918 74.4782C78.5574 75.4796 80.0023 75.9267 81.9264 75.8194C84.4728 75.6763 86.4255 75.2293 87.7845 74.4782C91.0677 79.242 95.2092 83.0866 100.209 86.0121L104.125 105.743C104.183 106.043 104.124 106.355 103.96 106.618C103.795 106.882 103.537 107.079 103.235 107.17L96.6791 109.123L95.3379 109.037L89.3403 97.1061C88.7967 96.0189 88.5678 96.0833 88.6536 97.2993L88.8575 100.228L88.9969 108.071C89.0006 108.318 88.9567 108.563 88.8682 108.791C88.7796 109.018 88.6483 109.223 88.4826 109.393C88.3169 109.563 88.1206 109.693 87.9061 109.776C87.6917 109.859 87.4639 109.892 87.2373 109.874C74.1406 108.808 61.2834 108.915 48.6658 110.196C46.2053 110.346 44.0737 111.226 42.2712 112.835L44.3312 93.7908L48.0865 69.9183C48.5729 69.1101 48.766 68.2303 48.6658 67.2789C49.0879 66.9356 49.3775 66.4778 49.5349 65.9056C51.645 58.0017 55.0426 49.7045 59.7277 41.0138C60.8077 39.0182 62.0845 38.6105 63.558 39.7907C63.8656 40.041 64.1731 40.1984 64.4807 40.2628C67.5206 40.8994 70.7859 41.0138 74.2765 40.6061C74.428 40.5896 74.5814 40.6104 74.7229 40.6668C74.8645 40.7232 74.9897 40.8133 75.0875 40.9292C75.1853 41.045 75.2526 41.183 75.2833 41.3307C75.314 41.4784 75.3072 41.6313 75.2636 41.7756C73.4539 47.9699 73.0676 53.9533 74.1048 59.7256Z" fill="#F16D22"/>
<path d="M74.3729 58.3843C74.8522 63.3984 76.0431 68.2265 77.9457 72.8687L77.5917 74.4781C77.2555 74.2564 77.0016 73.8093 76.8299 73.1369C75.4494 67.8367 74.541 63.3662 74.1047 59.7254C74.0403 59.2247 74.1297 58.7777 74.3729 58.3843Z" fill="#EC8E91"/>
<path d="M109.018 58.9636C100.277 61.3956 92.7521 65.8518 86.4433 72.3322L83.804 68.3517C84.276 67.665 85.2381 66.914 86.6901 66.0985C92.534 62.8082 98.7283 60.4299 105.273 58.9636C106.518 58.6847 107.766 58.6847 109.018 58.9636Z" fill="#9B3C59"/>
<path d="M31.7243 60.2619C34.4638 59.94 36.9959 60.4765 39.3205 61.8713C38.1761 63.0157 37.3571 64.3426 36.8636 65.8518L35.0289 68.8453C32.7972 67.2359 31.3738 65.5157 30.7586 63.6845C30.4153 62.6474 30.7372 61.5065 31.7243 60.2619Z" fill="#5B2448"/>
<path d="M39.3205 61.8711L48.1292 67.1928L48.6657 67.2786C48.7658 68.2299 48.5727 69.1097 48.0863 69.918C44.5385 68.044 40.7976 66.6885 36.8635 65.8516C37.3571 64.3424 38.1761 63.0155 39.3205 61.8711Z" fill="#9B3C59"/>
<path d="M110.262 65.7013C112.2 62.6757 113.059 61.7387 112.837 62.8903C112.782 63.1758 112.601 63.492 112.322 63.7915C111.585 64.5927 111.052 65.5261 110.723 66.5919C110.602 66.9781 110.487 67.1176 110.38 67.0103C110.215 66.836 110.114 66.6118 110.093 66.3741C110.071 66.1364 110.131 65.8993 110.262 65.7013Z" fill="#C27964"/>
<path d="M36.8636 65.8516C40.7976 66.6884 44.5386 68.0439 48.0863 69.9179L44.3311 93.7904C40.9979 91.3155 38.1726 88.4044 35.8551 85.0568C34.0669 82.4818 33.1549 79.8818 33.1191 77.2567C33.0833 74.3813 33.7199 71.5774 35.0289 68.845L36.8636 65.8516Z" fill="#F4ADA2"/>
<path d="M83.8038 68.3516L86.4431 72.3321L87.7843 74.4779C86.4253 75.229 84.4726 75.676 81.9262 75.8191C80.002 75.9264 78.5572 75.4793 77.5916 74.4779L77.9456 72.8686C79.5693 70.923 81.522 69.4173 83.8038 68.3516Z" fill="#5B2448"/>
<path d="M95.3378 109.037L94.2542 109.498C94.1209 109.557 93.9638 109.561 93.807 109.511C93.6501 109.461 93.502 109.358 93.3851 109.219C91.1606 106.587 89.6514 103.59 88.8574 100.228L88.6535 97.2989C88.5677 96.0829 88.7966 96.0185 89.3402 97.1058L95.3378 109.037Z" fill="#5B2448"/>
<path d="M88.8575 100.228C89.6515 103.59 91.1607 106.587 93.3853 109.219C93.5021 109.358 93.6502 109.461 93.8071 109.511C93.964 109.561 94.121 109.557 94.2543 109.498L95.338 109.037L96.6791 109.123C96.5504 114.537 96.4288 119.955 96.3143 125.377C96.1641 132.423 95.903 137.827 95.5311 141.589C94.0934 156.245 90.8782 170.243 85.8855 183.583C83.0959 191.036 79.1977 198.479 74.1907 205.911L68.5149 203.99C68.3719 203.568 68.0142 203.225 67.442 202.96C63.9157 201.322 60.7112 198.908 57.8287 195.718C54.7816 190.439 52.8217 187.199 51.949 185.997C50.8332 184.445 49.1881 183.125 47.0136 182.038C46.799 181.487 46.8491 180.983 47.1638 180.525C53.5441 171.234 59.9208 161.939 66.294 152.64C66.3512 152.562 66.3834 152.486 66.3906 152.415C66.3977 152.308 66.3834 152.218 66.3476 152.147C66.331 152.115 66.3042 152.092 66.27 152.079C66.2357 152.066 66.1952 152.065 66.1521 152.075C66.1091 152.084 66.065 152.105 66.0241 152.134C65.9832 152.164 65.9468 152.201 65.9185 152.243L62.6568 156.76C61.5696 158.269 61.1511 158.105 61.4015 156.267C62.1525 150.687 62.3814 145.205 62.0882 139.819C61.8235 134.783 61.6018 130.731 61.4229 127.663C61.1869 123.586 60.6433 119.548 59.7921 115.549C59.7206 115.22 59.6204 115.152 59.4917 115.345C59.4297 115.434 59.4028 115.564 59.4166 115.71C59.6383 117.642 60.0782 123.299 60.7363 132.684C61.33 141.088 61.3657 148.402 60.8436 154.625C60.6218 157.257 60.021 159.521 59.0411 161.417C58.104 163.219 56.8595 165.243 55.3073 167.489C50.3504 174.635 47.0887 179.213 45.5222 181.223C45.41 181.366 45.3304 181.521 45.2971 181.662C45.2638 181.803 45.2789 181.921 45.3399 181.995C45.4615 182.124 45.676 182.153 45.9836 182.081C44.4314 182.625 43.4873 183.662 43.1511 185.193C43.0939 185.45 43.1261 186.026 43.2477 186.92C43.3335 187.521 43.262 188.115 43.0331 188.701L35.0291 193.572L31.7245 190.89C32.0106 190.375 31.9498 189.942 31.5421 189.592C31.1487 189.255 30.9234 189.055 30.8661 188.991C28.4843 186.087 26.6388 182.861 25.3299 179.313C24.7219 176.023 23.7277 172.861 22.3472 169.828C21.4531 167.876 20.0904 166.352 18.2593 165.258C16.9074 164.449 15.5091 164.396 14.0642 165.097C15.1586 163.659 16.9253 162.132 19.3644 160.515C24.1926 157.304 29.2425 154.486 34.5141 152.061C39.049 149.972 42.8042 148.005 45.7797 146.16C47.5966 145.037 48.716 143.313 49.138 140.988C49.6387 138.242 49.8175 135.473 49.6745 132.684C49.4026 127.405 49.0522 122.13 48.623 116.858L48.6659 110.195C61.2835 108.915 74.1406 108.808 87.2374 109.874C87.464 109.892 87.6918 109.859 87.9062 109.776C88.1206 109.693 88.317 109.563 88.4827 109.393C88.6483 109.223 88.7797 109.018 88.8682 108.79C88.9568 108.563 89.0007 108.318 88.997 108.071L88.8575 100.228Z" fill="#F7CF3D"/>
<path d="M48.6658 110.196L48.6229 116.859C47.3211 116.336 45.9943 115.889 44.6424 115.517C43.5051 115.203 42.7147 114.309 42.2712 112.835C44.0737 111.226 46.2053 110.346 48.6658 110.196Z" fill="#5B2448"/>
<path d="M47.0133 182.038L45.9833 182.081C45.6758 182.153 45.4612 182.124 45.3396 181.995C45.2786 181.921 45.2635 181.803 45.2968 181.662C45.3301 181.521 45.4098 181.366 45.522 181.223C47.0884 179.213 50.3501 174.635 55.307 167.489C56.8592 165.243 58.1038 163.219 59.0408 161.417C60.0207 159.521 60.6215 157.257 60.8433 154.625C61.3654 148.402 61.3297 141.088 60.736 132.684C60.0779 123.299 59.638 117.641 59.4163 115.71C59.4026 115.564 59.4294 115.434 59.4914 115.345C59.6201 115.152 59.7203 115.22 59.7918 115.549C60.643 119.548 61.1866 123.585 61.4227 127.663C61.6015 130.731 61.8232 134.783 62.0879 139.819C62.3811 145.205 62.1523 150.687 61.4012 156.267C61.1509 158.105 61.5693 158.269 62.6565 156.76L65.9182 152.243C65.9465 152.201 65.9829 152.164 66.0238 152.134C66.0647 152.105 66.1088 152.084 66.1518 152.075C66.1949 152.065 66.2355 152.066 66.2697 152.079C66.3039 152.092 66.3307 152.115 66.3474 152.147C66.3831 152.218 66.3974 152.308 66.3903 152.415C66.3831 152.486 66.3509 152.561 66.2937 152.64C59.9206 161.939 53.5438 171.234 47.1635 180.525C46.8488 180.983 46.7987 181.487 47.0133 182.038Z" fill="#41BEC0"/>
<path d="M25.3296 179.313L21.5744 182.081C18.1983 179.227 15.4802 175.844 13.4202 171.931C12.1327 169.492 12.3473 167.214 14.064 165.097C15.5088 164.396 16.9072 164.449 18.2591 165.258C20.0902 166.352 21.4528 167.876 22.3469 169.828C23.7274 172.861 24.7216 176.023 25.3296 179.313Z" fill="#5B2448"/>
<path d="M25.3297 179.313C26.6386 182.861 28.4841 186.087 30.866 188.991C30.9232 189.055 31.1485 189.255 31.5419 189.592C31.9496 189.942 32.0104 190.375 31.7243 190.89C28.0978 188.444 24.7289 185.672 21.6174 182.575L21.5745 182.081L25.3297 179.313Z" fill="#9B3C59"/>
<path d="M45.9835 182.081L47.0135 182.039C49.1879 183.126 50.8331 184.445 51.9489 185.998C52.8216 187.199 54.7814 190.44 57.8285 195.718C56.963 196.67 56.7091 197.753 57.0668 198.969C57.1033 199.088 57.1029 199.228 57.0656 199.375C57.0282 199.523 56.955 199.675 56.8522 199.817C56.7091 200.017 56.6483 200.26 56.6698 200.546C51.6199 198.322 47.55 194.957 44.4599 190.45C44.4385 190.415 44.2954 190.107 44.0308 189.528C43.8448 189.12 43.5122 188.844 43.033 188.701C43.2618 188.115 43.3334 187.521 43.2475 186.92C43.1259 186.026 43.0938 185.45 43.151 185.193C43.4872 183.662 44.4313 182.625 45.9835 182.081Z" fill="#5B2448"/>
<path d="M21.6174 182.575C24.7289 185.672 28.0979 188.444 31.7243 190.89L35.0289 193.572L29.3532 197.102L19.3857 184.452L21.6174 182.575Z" fill="#F4ADA2"/>
<path d="M19.3856 184.453L29.3531 197.102C29.0741 197.403 28.7308 197.567 28.3231 197.596L18.0874 185.483L19.3856 184.453Z" fill="#66B0F0"/>
<path d="M18.0874 185.482L28.3231 197.596C28.0441 198.168 27.5828 198.45 26.939 198.443C24.6501 195.539 22.304 192.685 19.9007 189.881C18.9637 188.794 18.1804 188.161 17.551 187.982C17.0717 187.746 16.7892 187.374 16.7034 186.866L18.0874 185.482Z" fill="white"/>
<path d="M16.7033 186.867C16.7891 187.375 17.0717 187.746 17.5509 187.983C17.7297 191.18 18.9135 193.855 21.1023 196.008C21.3741 196.28 21.9141 196.92 22.7224 197.929C23.266 198.615 23.9562 199.144 24.7931 199.516L26.6707 203.454C24.8325 203.125 22.9906 202.978 21.1452 203.014C20.7518 203.021 20.387 203.1 20.0508 203.25C17.8334 204.237 18.0945 204.72 20.8341 204.699C23.4806 204.684 26.0377 205.178 28.5054 206.179V207.252C26.1522 206.458 23.7739 206.269 21.3705 206.684C21.1931 206.714 21.0267 206.779 20.8837 206.876C20.7407 206.973 20.6247 207.097 20.5444 207.241C20.0222 208.171 20.3512 208.497 21.5314 208.218C21.9821 208.111 22.3755 208.071 22.7117 208.1C25.1436 208.314 27.5219 208.837 29.8466 209.666V211.007L23.7095 210.192C23.5606 210.172 23.399 210.196 23.2385 210.263C23.0779 210.331 22.923 210.439 22.7868 210.578C21.6852 211.708 22.1752 212.12 24.2567 211.812C25.4655 211.633 27.6864 212.17 30.9195 213.421C31.4488 217.305 31.0161 221.046 29.6213 224.644L29.6105 223.41C29.6077 223.26 29.5514 223.112 29.4494 222.987C29.3475 222.862 29.205 222.766 29.0419 222.713C25.2438 221.49 22.1502 219.265 19.7611 216.039C18.9314 214.916 17.4937 212.306 15.448 208.207C15.2906 207.9 15.0617 207.638 14.7613 207.424C13.5883 206.58 12.6584 205.557 11.9717 204.355C11.8001 204.062 11.4388 202.714 10.8881 200.31C10.2515 197.521 8.27015 196.065 4.94409 195.944L8.11994 193.304L9.77224 194.066C11.1098 195.132 12.6298 195.754 14.3321 195.933C15.9916 196.105 17.5116 196.637 18.8921 197.532C19.0423 197.625 19.1889 197.696 19.332 197.746C20.3405 198.061 20.4406 197.853 19.6324 197.124C18.1517 195.786 16.5638 195.139 14.8686 195.182C13.1949 195.225 11.7643 194.674 10.5769 193.53C10.2765 192.979 9.82946 192.621 9.23577 192.457L16.7033 186.867Z" fill="#5B2448"/>
<path d="M17.551 187.982C18.1805 188.161 18.9637 188.794 19.9007 189.881C22.3041 192.685 24.6502 195.539 26.9391 198.443L24.7932 199.516C23.9564 199.144 23.2661 198.615 22.7225 197.928C21.9142 196.92 21.3742 196.28 21.1024 196.008C18.9136 193.855 17.7298 191.18 17.551 187.982Z" fill="#66B0F0"/>
<path d="M9.23596 192.457C9.82964 192.621 10.2767 192.979 10.5771 193.529C9.99058 193.444 9.72235 193.622 9.77242 194.066L8.12012 193.304C8.39908 192.925 8.77102 192.643 9.23596 192.457Z" fill="#967D93"/>
<path d="M10.577 193.529C11.7643 194.674 13.1949 195.224 14.8686 195.181C16.5639 195.139 18.1518 195.786 19.6324 197.123C20.4407 197.853 20.3405 198.06 19.332 197.746C19.1889 197.696 19.0423 197.624 18.8921 197.531C17.5116 196.637 15.9916 196.104 14.3322 195.933C12.6298 195.754 11.1098 195.131 9.77226 194.066C9.72219 193.622 9.99043 193.443 10.577 193.529Z" fill="white"/>
<path d="M57.8285 195.718C60.7111 198.908 63.9155 201.322 67.4419 202.96C68.0141 203.225 68.3717 203.568 68.5148 203.99L56.7556 200.815L56.6697 200.546C56.6483 200.26 56.7091 200.017 56.8521 199.817C56.9549 199.674 57.0281 199.523 57.0655 199.375C57.1029 199.228 57.1033 199.088 57.0667 198.969C56.7091 197.753 56.963 196.67 57.8285 195.718Z" fill="#9B3C59"/>
<path d="M4.94414 195.943C8.27019 196.065 10.2515 197.521 10.8881 200.31C11.4389 202.713 11.8001 204.062 11.9718 204.355C12.6584 205.557 13.5883 206.58 14.7614 207.424C15.0618 207.638 15.2907 207.899 15.448 208.207C17.4937 212.305 18.9315 214.916 19.7612 216.039C22.1502 219.265 25.2438 221.49 29.0419 222.713C29.205 222.766 29.3475 222.862 29.4495 222.987C29.5514 223.112 29.6077 223.26 29.6106 223.41L29.6213 224.644C26.4884 224.229 23.7918 222.917 21.5315 220.706C17.2756 216.536 13.034 212.352 8.80665 208.153C8.09853 207.452 6.88255 206.04 5.15873 203.915C3.98567 202.463 2.66597 201.122 1.19965 199.892C0.241171 199.091 0.369922 198.551 1.5859 198.272C2.68028 198.021 3.79969 197.245 4.94414 195.943ZM8.69936 202.96C6.34609 202.703 4.87619 201.437 4.28966 199.162C4.16091 198.661 3.98566 198.576 3.76393 198.905C3.70841 198.987 3.67722 199.086 3.67345 199.193C3.66968 199.301 3.69348 199.412 3.74247 199.516C4.48636 201.183 5.663 202.449 7.27238 203.314C7.55134 203.465 7.80168 203.507 8.02342 203.443C8.28808 203.364 8.51339 203.203 8.69936 202.96C9.38603 202.688 9.65426 202.241 9.50405 201.619C9.01051 199.602 7.71585 198.179 5.62008 197.349C4.41126 196.87 4.17164 197.023 4.90122 197.81C5.07588 198.006 5.33409 198.156 5.64154 198.239C8.01627 198.883 9.03555 200.457 8.69936 202.96Z" fill="white"/>
<path d="M8.6993 202.96C9.03549 200.457 8.01621 198.883 5.64148 198.239C5.33404 198.156 5.07582 198.006 4.90116 197.81C4.17158 197.023 4.4112 196.87 5.62002 197.349C7.71579 198.178 9.01045 199.602 9.50399 201.619C9.6542 202.241 9.38597 202.688 8.6993 202.96Z" fill="#5B2448"/>
<path d="M125.648 197.638C124.332 204.047 126.656 206.268 132.622 204.301C134.381 203.722 135.186 204.08 135.036 205.374C134.95 206.111 134.961 206.833 135.068 207.542C135.147 208.042 135.218 208.75 135.283 209.666C135.39 211.225 136.213 211.883 137.75 211.64C139.109 211.426 140.004 211.318 140.433 211.318C145.161 211.39 149.696 210.481 154.037 208.593C154.116 209.144 153.937 209.591 153.501 209.934C147.786 211.329 141.988 212.059 136.109 212.123C129.636 212.059 123.456 210.746 117.569 208.185C117.433 208.121 117.172 207.942 116.786 207.649C116.328 207.291 115.959 207.427 115.68 208.057L115.144 206.447L115.412 205.374C115.233 203.393 114.443 201.68 113.041 200.235V199.784C113.799 198.146 115.072 197.385 116.861 197.499C117.762 197.563 118.259 197.596 118.352 197.596C120.784 197.581 123.216 197.596 125.648 197.638Z" fill="#9B3C82"/>
<path d="M125.648 197.639H154.08C154.896 201.294 154.881 204.945 154.037 208.593C149.696 210.482 145.161 211.39 140.433 211.318C140.004 211.318 139.109 211.426 137.75 211.64C136.213 211.883 135.39 211.225 135.283 209.666C135.218 208.751 135.147 208.042 135.068 207.542C134.961 206.834 134.95 206.111 135.036 205.374C135.186 204.08 134.381 203.722 132.622 204.302C126.656 206.269 124.332 204.048 125.648 197.639Z" fill="white"/>
<path d="M154.08 197.639C156.183 197.374 158.24 197.538 160.25 198.132C161.28 198.44 162.063 199.176 162.599 200.342C162.785 200.757 162.76 200.954 162.524 200.932C162.424 200.918 162.313 200.854 162.192 200.739C161.562 200.103 161.129 200.221 160.893 201.093C160.8 201.43 160.632 201.726 160.389 201.984C159.76 202.649 159.445 203.432 159.445 204.334C159.452 205.22 159.452 205.696 159.445 205.761C158.865 211.955 158.297 218.149 157.739 224.344C157.582 226.103 157.17 227.298 156.505 227.927C155.582 228.807 154.238 229.247 152.471 229.247C142.457 229.247 132.443 229.247 122.429 229.247C120.505 229.247 119.078 228.75 118.148 227.755C117.519 227.09 117.115 225.806 116.936 223.904C116.449 218.625 116.031 213.343 115.68 208.057C115.959 207.427 116.328 207.291 116.786 207.649C117.172 207.942 117.433 208.121 117.569 208.185C123.456 210.746 129.636 212.059 136.109 212.123C136.545 216.35 138.398 218.864 141.667 219.666C144.435 220.345 146.999 219.741 149.359 217.852C151.698 215.985 153.079 213.346 153.501 209.934C153.937 209.591 154.116 209.144 154.037 208.593C154.881 204.945 154.896 201.294 154.08 197.639Z" fill="#9B3C82"/>
<path d="M8.6994 202.96C8.51342 203.204 8.28811 203.364 8.02345 203.443C7.80172 203.508 7.55137 203.465 7.27241 203.314C5.66303 202.449 4.48639 201.183 3.7425 199.516C3.69351 199.412 3.66972 199.301 3.67348 199.193C3.67725 199.086 3.70844 198.987 3.76396 198.905C3.9857 198.576 4.16094 198.662 4.28969 199.162C4.87622 201.437 6.34612 202.703 8.6994 202.96Z" fill="#5B2448"/>
<path d="M56.7556 200.814L68.5148 203.99L74.1905 205.911L72.4953 208.861C67.1307 206.794 61.6016 205.349 55.908 204.527L56.7556 200.814Z" fill="#F4ADA2"/>
<path d="M26.6708 203.454C27.8581 203.976 28.4697 204.885 28.5054 206.179C26.0377 205.178 23.4806 204.684 20.8341 204.699C18.0945 204.72 17.8335 204.237 20.0508 203.25C20.387 203.1 20.7518 203.021 21.1452 203.014C22.9906 202.978 24.8325 203.125 26.6708 203.454Z" fill="#FFCF2D"/>
<path d="M55.908 204.527C61.6016 205.349 67.1308 206.794 72.4954 208.861L71.9589 209.934L71.1864 210.052C70.7572 210.124 70.4103 210.127 70.1457 210.063L55.1462 206.447C55.2607 205.754 55.5146 205.113 55.908 204.527Z" fill="#66B0F0"/>
<path d="M28.5055 207.252C29.557 207.731 30.004 208.536 29.8467 209.666C27.522 208.836 25.1437 208.314 22.7117 208.1C22.3756 208.071 21.9821 208.11 21.5315 208.218C20.3513 208.497 20.0223 208.171 20.5444 207.241C20.6248 207.097 20.7407 206.972 20.8837 206.876C21.0268 206.779 21.1932 206.713 21.3706 206.683C23.7739 206.268 26.1522 206.458 28.5055 207.252Z" fill="#FFCF2D"/>
<path d="M55.1462 206.447L70.1456 210.063C70.4102 210.127 70.7572 210.124 71.1863 210.052L71.9588 209.934C71.6513 210.65 71.2042 211.275 70.6177 211.812C66.1972 210.124 61.6516 208.901 56.9809 208.142C56.8658 208.123 56.729 208.145 56.5829 208.206C56.4368 208.268 56.286 208.368 56.144 208.497C55.8364 208.776 55.4144 208.718 54.8779 208.325L55.1462 206.447Z" fill="white"/>
<path d="M70.6176 211.812L69.8988 213.153C69.1692 213.41 68.4324 213.493 67.6886 213.4C66.6943 213.278 65.9826 213.224 65.5534 213.239C62.2703 213.389 59.5236 212.355 57.3134 210.138C56.5051 209.323 55.679 208.883 54.835 208.818L54.8779 208.325C55.4143 208.718 55.8364 208.775 56.1439 208.496C56.286 208.368 56.4368 208.268 56.5829 208.206C56.729 208.144 56.8657 208.122 56.9808 208.142C61.6516 208.901 66.1972 210.124 70.6176 211.812Z" fill="#66B0F0"/>
<path d="M54.835 208.818C55.679 208.883 56.5052 209.323 57.3134 210.138C59.5237 212.355 62.2703 213.389 65.5535 213.239C65.9826 213.224 66.6943 213.278 67.6886 213.4C68.4325 213.493 69.1692 213.41 69.8988 213.153L72.8493 214.226C70.868 215.478 69.1191 216.969 67.6028 218.7C67.3453 218.993 67.1772 219.315 67.0985 219.666C66.8052 220.967 67.1521 221.261 68.1392 220.545C68.3753 220.374 68.6328 220.102 68.9117 219.73C70.3852 217.749 72.3379 216.411 74.7699 215.717C75.2491 215.581 75.503 215.263 75.5316 214.762C75.8321 215.242 76.2648 215.524 76.8299 215.61C74.2191 216.704 72.1877 218.435 70.7357 220.803C70.6389 220.96 70.5761 221.13 70.5519 221.299C70.5277 221.468 70.5429 221.632 70.5962 221.779C70.8394 222.466 71.2399 222.473 71.7979 221.801C73.629 219.612 75.5459 218.113 77.5487 217.305C77.6059 217.284 77.8456 217.237 78.2676 217.166C78.6467 217.108 78.8827 216.858 78.9757 216.415L80.5851 217.402C78.332 218.138 76.5259 219.472 75.1668 221.404C74.3514 222.562 74.3979 223.088 75.3063 222.981C75.6028 222.947 75.9206 222.767 76.1968 222.477C77.9636 220.653 80.0665 219.333 82.5056 218.518C85.0163 220.27 86.9547 222.505 88.3209 225.223C84.9519 227.24 81.3934 228.081 77.6453 227.745C76.508 227.645 74.9272 227.262 72.903 226.597C71.3508 226.082 69.7915 225.588 68.225 225.116C67.9093 225.018 67.5495 225.01 67.1843 225.095C64.7381 225.695 62.4778 225.223 60.4035 223.678C58.043 221.933 55.8006 221.726 53.6762 223.056C52.5747 223.743 51.8701 224.712 51.5626 225.964C51.255 227.208 51.2872 228.481 51.6591 229.783V230.051C45.9154 230.988 40.1968 230.935 34.5031 229.891C34.0311 229.805 33.6841 229.647 33.4624 229.418C32.9331 228.861 33.373 228.471 34.7821 228.249C39.832 227.455 44.889 227.383 49.9532 228.034C50.0984 228.052 50.2451 228.016 50.3656 227.933C50.4861 227.85 50.5721 227.726 50.6077 227.584C51.6734 223.371 52.2993 220.549 52.4853 219.118C52.9502 215.614 53.7335 212.18 54.835 208.818ZM57.9035 216.479C56.7448 217.538 55.4859 218.457 54.1269 219.236C53.6405 219.515 53.9302 219.619 54.9959 219.548C55.5213 219.506 56.0166 219.274 56.3907 218.893C58.4507 216.74 60.4356 215.631 62.3454 215.567C62.6315 215.56 62.7996 215.46 62.8497 215.267C62.8643 215.213 62.8631 215.157 62.846 215.103C62.8289 215.049 62.7964 214.998 62.751 214.953C62.7056 214.909 62.6484 214.873 62.5837 214.847C62.5191 214.821 62.4486 214.807 62.3776 214.805C60.6681 214.755 59.1767 215.313 57.9035 216.479Z" fill="#5B2448"/>
<path d="M153.501 209.934C153.079 213.346 151.698 215.985 149.359 217.852C146.999 219.741 144.435 220.345 141.667 219.665C138.398 218.864 136.545 216.35 136.109 212.123C141.988 212.058 147.786 211.329 153.501 209.934Z" fill="white"/>
<path d="M29.8467 211.007C30.6836 211.601 31.0412 212.405 30.9196 213.421C27.6866 212.169 25.4656 211.633 24.2568 211.812C22.1753 212.119 21.6854 211.708 22.7869 210.578C22.9231 210.438 23.078 210.33 23.2386 210.263C23.3992 210.196 23.5607 210.171 23.7096 210.192L29.8467 211.007Z" fill="#FFCF2D"/>
<path d="M72.8494 214.226C73.8794 213.976 74.7735 214.155 75.5317 214.763C75.5031 215.263 75.2492 215.582 74.7699 215.718C72.338 216.411 70.3853 217.749 68.9118 219.73C68.6328 220.102 68.3753 220.374 68.1393 220.546C67.1522 221.261 66.8053 220.968 67.0986 219.666C67.1772 219.315 67.3453 218.994 67.6028 218.7C69.1192 216.969 70.8681 215.478 72.8494 214.226Z" fill="#FFCF2D"/>
<path d="M57.9037 216.479C59.1769 215.313 60.6683 214.755 62.3778 214.805C62.4488 214.807 62.5193 214.821 62.584 214.847C62.6486 214.873 62.7058 214.909 62.7512 214.953C62.7966 214.998 62.8291 215.049 62.8462 215.103C62.8633 215.157 62.8645 215.213 62.8499 215.267C62.7998 215.46 62.6318 215.56 62.3456 215.567C60.4358 215.631 58.4509 216.74 56.3909 218.893C56.0168 219.274 55.5215 219.506 54.9961 219.548C53.9304 219.619 53.6407 219.515 54.1271 219.237C55.4861 218.457 56.745 217.538 57.9037 216.479Z" fill="white"/>
<path d="M76.8299 215.61C77.7026 215.424 78.4178 215.692 78.9758 216.415C78.8828 216.858 78.6467 217.108 78.2676 217.166C77.8456 217.237 77.606 217.284 77.5488 217.305C75.546 218.113 73.629 219.612 71.7979 221.801C71.24 222.473 70.8395 222.466 70.5963 221.779C70.5429 221.632 70.5278 221.468 70.5519 221.299C70.5761 221.13 70.639 220.96 70.7357 220.803C72.1878 218.435 74.2192 216.704 76.8299 215.61Z" fill="#FFCF2D"/>
<path d="M80.5852 217.402C81.4507 217.366 82.0909 217.738 82.5057 218.518C80.0666 219.333 77.9637 220.653 76.197 222.477C75.9207 222.767 75.6029 222.947 75.3064 222.981C74.398 223.088 74.3515 222.563 75.167 221.404C76.526 219.472 78.3321 218.139 80.5852 217.402Z" fill="#FFCF2D"/>
<path d="M88.3209 225.223C89.0934 226.118 88.9288 226.833 87.8273 227.369C84.1508 229.157 80.7532 229.976 77.6346 229.826L51.6591 229.783C51.2872 228.482 51.255 227.208 51.5626 225.964C51.8702 224.712 52.5747 223.743 53.6762 223.056C55.8006 221.726 58.043 221.933 60.4035 223.678C62.4778 225.223 64.7381 225.695 67.1843 225.095C67.5495 225.01 67.9093 225.018 68.225 225.116C69.7915 225.588 71.3508 226.082 72.903 226.597C74.9272 227.262 76.508 227.645 77.6453 227.745C81.3934 228.081 84.9519 227.24 88.3209 225.223ZM59.2447 225.191C58.0001 224.333 56.7269 224.093 55.4251 224.472C54.5954 224.716 54.0017 225.22 53.6441 225.985C53.0289 227.308 53.687 228.099 55.6182 228.356C57.2491 228.578 58.4793 228.371 59.3091 227.734C59.505 227.583 59.6626 227.387 59.7689 227.163C59.8752 226.94 59.9274 226.694 59.9211 226.446C59.9149 226.199 59.8504 225.956 59.7328 225.738C59.6153 225.52 59.4481 225.333 59.2447 225.191Z" fill="white"/>
<path d="M59.2447 225.191C59.4481 225.333 59.6153 225.52 59.7328 225.738C59.8503 225.956 59.9149 226.199 59.9211 226.447C59.9274 226.694 59.8752 226.94 59.7689 227.163C59.6626 227.387 59.505 227.583 59.3091 227.734C58.4793 228.371 57.2491 228.578 55.6182 228.357C53.687 228.099 53.0289 227.309 53.644 225.985C54.0017 225.22 54.5954 224.716 55.4251 224.473C56.7269 224.093 58.0001 224.333 59.2447 225.191ZM57.0452 225.159C55.493 224.98 54.6168 225.427 54.4165 226.5C54.3854 226.652 54.4111 226.811 54.4892 226.952C54.5673 227.092 54.6931 227.206 54.8457 227.273C55.7756 227.673 56.7591 227.82 57.7963 227.713C58.1478 227.678 58.4695 227.517 58.6975 227.262C59.7561 226.103 59.2053 225.402 57.0452 225.159Z" fill="#967D93"/>
<path d="M57.0453 225.159C59.2055 225.402 59.7563 226.103 58.6976 227.262C58.4697 227.517 58.1479 227.678 57.7964 227.712C56.7592 227.82 55.7757 227.673 54.8459 227.273C54.6933 227.205 54.5674 227.092 54.4893 226.952C54.4112 226.811 54.3856 226.652 54.4167 226.5C54.617 225.427 55.4932 224.98 57.0453 225.159Z" fill="white"/>
<path d="M162.109 200.272C158.988 205.946 155.3 211.905 138.842 211.905C123.793 211.905 116.71 211.905 113.589 199.988" stroke="black" stroke-width="1.13499" stroke-linecap="round"/>
</svg>
