<svg width="40" height="41" viewBox="0 0 40 41" fill="none" xmlns="http://www.w3.org/2000/svg">
<rect x="0.5" y="1.21582" width="39" height="39" rx="19.5" stroke="black"/>
<path d="M16.8269 20.7158C17.1455 20.7158 17.4038 20.4575 17.4038 20.1389C17.4038 19.8203 17.1455 19.562 16.8269 19.562C16.5083 19.562 16.25 19.8203 16.25 20.1389C16.25 20.4575 16.5083 20.7158 16.8269 20.7158Z" stroke="#20304A" stroke-linecap="round" stroke-linejoin="round"/>
<path d="M20.5769 20.7158C20.8955 20.7158 21.1538 20.4575 21.1538 20.1389C21.1538 19.8203 20.8955 19.562 20.5769 19.562C20.2583 19.562 20 19.8203 20 20.1389C20 20.4575 20.2583 20.7158 20.5769 20.7158Z" stroke="#20304A" stroke-linecap="round" stroke-linejoin="round"/>
<path d="M24.3269 20.7158C24.6455 20.7158 24.9038 20.4575 24.9038 20.1389C24.9038 19.8203 24.6455 19.562 24.3269 19.562C24.0083 19.562 23.75 19.8203 23.75 20.1389C23.75 20.4575 24.0083 20.7158 24.3269 20.7158Z" stroke="#20304A" stroke-linecap="round" stroke-linejoin="round"/>
<path d="M17.1154 27.062L12.5 28.2158L13.6538 24.7543V14.3697C13.6538 14.0636 13.7754 13.7702 13.9918 13.5538C14.2082 13.3374 14.5017 13.2158 14.8077 13.2158H26.3462C26.6522 13.2158 26.9457 13.3374 27.162 13.5538C27.3784 13.7702 27.5 14.0636 27.5 14.3697V25.9081C27.5 26.2141 27.3784 26.5076 27.162 26.724C26.9457 26.9404 26.6522 27.062 26.3462 27.062H17.1154Z" stroke="#20304A" stroke-linecap="round" stroke-linejoin="round"/>
</svg>
