<svg width="40" height="41" viewBox="0 0 40 41" fill="none" xmlns="http://www.w3.org/2000/svg">
<rect x="0.5" y="1.21582" width="39" height="39" rx="19.5" stroke="#20304A"/>
<path fill-rule="evenodd" clip-rule="evenodd" d="M16.7857 13.2158C17.0816 13.2158 17.3214 13.4557 17.3214 13.7515V14.823H19.4643V13.7515C19.4643 13.4557 19.7041 13.2158 20 13.2158C20.2959 13.2158 20.5357 13.4557 20.5357 13.7515V14.823H22.6786V13.7515C22.6786 13.4557 22.9184 13.2158 23.2143 13.2158C23.5102 13.2158 23.75 13.4557 23.75 13.7515V14.823H25.8929C26.7805 14.823 27.5 15.5425 27.5 16.4301V26.6087C27.5 27.4963 26.7805 28.2158 25.8929 28.2158H14.1071C13.2195 28.2158 12.5 27.4963 12.5 26.6087V16.4301C12.5 15.5425 13.2195 14.823 14.1071 14.823H16.25V13.7515C16.25 13.4557 16.4898 13.2158 16.7857 13.2158ZM16.25 15.8944H14.1071C13.8113 15.8944 13.5714 16.1342 13.5714 16.4301V26.6087C13.5714 26.9045 13.8113 27.1444 14.1071 27.1444H25.8929C26.1887 27.1444 26.4286 26.9045 26.4286 26.6087V16.4301C26.4286 16.1342 26.1887 15.8944 25.8929 15.8944H23.75V16.9658C23.75 17.2617 23.5102 17.5015 23.2143 17.5015C22.9184 17.5015 22.6786 17.2617 22.6786 16.9658V15.8944H20.5357V16.9658C20.5357 17.2617 20.2959 17.5015 20 17.5015C19.7041 17.5015 19.4643 17.2617 19.4643 16.9658V15.8944H17.3214V16.9658C17.3214 17.2617 17.0816 17.5015 16.7857 17.5015C16.4898 17.5015 16.25 17.2617 16.25 16.9658V15.8944ZM15.7143 20.7158C15.7143 20.42 15.9541 20.1801 16.25 20.1801H23.75C24.0459 20.1801 24.2857 20.42 24.2857 20.7158C24.2857 21.0117 24.0459 21.2515 23.75 21.2515H16.25C15.9541 21.2515 15.7143 21.0117 15.7143 20.7158ZM15.7143 23.9301C15.7143 23.6342 15.9541 23.3944 16.25 23.3944H20.5357C20.8316 23.3944 21.0714 23.6342 21.0714 23.9301C21.0714 24.226 20.8316 24.4658 20.5357 24.4658H16.25C15.9541 24.4658 15.7143 24.226 15.7143 23.9301Z" fill="#20304A"/>
</svg>
