<svg width="40" height="41" viewBox="0 0 40 41" fill="none" xmlns="http://www.w3.org/2000/svg">
<rect x="0.5" y="1.21582" width="39" height="39" rx="19.5" stroke="black"/>
<path d="M22.0261 27.6329C22.7368 28.0914 23.5836 28.2912 24.4243 28.1987C25.2649 28.1063 26.0481 27.7272 26.6421 27.1252L27.1613 26.6174C27.389 26.3846 27.5165 26.0719 27.5165 25.7462C27.5165 25.4205 27.389 25.1078 27.1613 24.8749L24.9572 22.6939C24.7263 22.467 24.4155 22.3398 24.0918 22.3398C23.768 22.3398 23.4572 22.467 23.2263 22.6939C22.9934 22.9216 22.6807 23.0491 22.355 23.0491C22.0294 23.0491 21.7166 22.9216 21.4838 22.6939L18.0218 19.232C17.9063 19.1182 17.8146 18.9825 17.752 18.833C17.6894 18.6834 17.6572 18.5229 17.6572 18.3607C17.6572 18.1986 17.6894 18.0381 17.752 17.8885C17.8146 17.7389 17.9063 17.6033 18.0218 17.4895C18.2488 17.2586 18.3759 16.9478 18.3759 16.624C18.3759 16.3002 18.2488 15.9894 18.0218 15.7585L15.8293 13.5659C15.5964 13.3383 15.2837 13.2108 14.958 13.2108C14.6324 13.2108 14.3196 13.3383 14.0868 13.5659L13.579 14.0852C12.977 14.6792 12.5979 15.4624 12.5055 16.303C12.413 17.1437 12.6128 17.9905 13.0713 18.7012C15.4601 22.2216 18.4995 25.2533 22.0261 27.6329Z" stroke="#20304A" stroke-linecap="round" stroke-linejoin="round"/>
</svg>
