<svg width="40" height="41" viewBox="0 0 40 41" fill="none" xmlns="http://www.w3.org/2000/svg">
<rect x="0.5" y="1.21582" width="39" height="39" rx="19.5" stroke="#20304A"/>
<path d="M16.5384 18.4081H21.1538M16.5384 21.2927H21.1538M16.5384 24.1774H18.8461M17.1153 13.2158H24.6153C24.9213 13.2158 25.2148 13.3374 25.4312 13.5538C25.6476 13.7702 25.7692 14.0636 25.7692 14.3697V25.3312M15.3846 15.5235H22.3076C22.9449 15.5235 23.4615 16.0401 23.4615 16.6774V27.062C23.4615 27.6992 22.9449 28.2158 22.3076 28.2158H15.3846C14.7473 28.2158 14.2307 27.6992 14.2307 27.062V16.6774C14.2307 16.0401 14.7473 15.5235 15.3846 15.5235Z" stroke="black" stroke-linecap="round" stroke-linejoin="round"/>
</svg>
