<svg width="40" height="41" viewBox="0 0 40 41" fill="none" xmlns="http://www.w3.org/2000/svg">
<rect x="0.5" y="0.71582" width="39" height="39" rx="19.5" stroke="#21A0AA"/>
<path d="M16.5384 17.9081H21.1538M16.5384 20.7927H21.1538M16.5384 23.6774H18.8461M17.1153 12.7158H24.6153C24.9213 12.7158 25.2148 12.8374 25.4312 13.0538C25.6476 13.2702 25.7692 13.5636 25.7692 13.8697V24.8312M15.3846 15.0235H22.3076C22.9449 15.0235 23.4615 15.5401 23.4615 16.1774V26.562C23.4615 27.1992 22.9449 27.7158 22.3076 27.7158H15.3846C14.7473 27.7158 14.2307 27.1992 14.2307 26.562V16.1774C14.2307 15.5401 14.7473 15.0235 15.3846 15.0235Z" stroke="#21A0AA" stroke-linecap="round" stroke-linejoin="round"/>
</svg>
