<svg width="40" height="40" viewBox="0 0 40 40" fill="none" xmlns="http://www.w3.org/2000/svg">
<g clip-path="url(#clip0_1620_184)">
<mask id="mask0_1620_184" style="mask-type:alpha" maskUnits="userSpaceOnUse" x="0" y="0" width="40" height="40">
<path d="M36.1905 0H3.80952C1.70558 0 0 2.38781 0 5.33333V34.6667C0 37.6122 1.70558 40 3.80952 40H36.1905C38.2944 40 40 37.6122 40 34.6667V5.33333C40 2.38781 38.2944 0 36.1905 0Z" fill="white"/>
</mask>
<g mask="url(#mask0_1620_184)">
<path d="M36.1905 0H3.80952C1.70558 0 0 2.38781 0 5.33333V34.6667C0 37.6122 1.70558 40 3.80952 40H36.1905C38.2944 40 40 37.6122 40 34.6667V5.33333C40 2.38781 38.2944 0 36.1905 0Z" fill="#0034A9"/>
<path fill-rule="evenodd" clip-rule="evenodd" d="M0 26.6665H40V39.9998H0V26.6665Z" fill="#D7280F"/>
<path fill-rule="evenodd" clip-rule="evenodd" d="M0 0H40V13.3333H0V0Z" fill="white"/>
</g>
</g>
<rect x="0.5" y="0.5" width="39" height="39" rx="19.5" stroke="#EFF1F4"/>
<defs>
<clipPath id="clip0_1620_184">
<rect width="40" height="40" rx="20" fill="white"/>
</clipPath>
</defs>
</svg>
