<svg width="20" height="21" viewBox="0 0 20 21" fill="none" xmlns="http://www.w3.org/2000/svg">
<path fill-rule="evenodd" clip-rule="evenodd" d="M3 9.21582C3 5.12908 6.0807 1.71582 10 1.71582C13.9193 1.71582 17 5.12908 17 9.21582C17 11.3069 16.1105 13.3181 15.0407 14.9923C13.9647 16.6761 12.6606 18.09 11.7303 19.0023C10.7602 19.9536 9.23977 19.9536 8.2697 19.0023C7.33935 18.09 6.03528 16.6761 4.95934 14.9923C3.88954 13.3181 3 11.3069 3 9.21582ZM7 8.72006C7 7.06321 8.34315 5.72006 10 5.72006C11.6569 5.72006 13 7.06321 13 8.72006C13 10.3769 11.6569 11.7201 10 11.7201C8.34315 11.7201 7 10.3769 7 8.72006Z" fill="#499DDF"/>
</svg>
