<svg width="415" height="343" viewBox="0 0 415 343" fill="none" xmlns="http://www.w3.org/2000/svg">
<path d="M187.455 51.7593C190.744 54.2105 192.721 57.4439 193.386 61.4594C193.416 61.6567 193.4 61.8508 193.339 62.0091C193.278 62.1673 193.178 62.2799 193.054 62.3278C192.783 62.4263 192.573 62.1985 192.426 61.6442C191.76 59.2053 189.771 56.2429 186.458 52.757" stroke="#7B3065" stroke-width="3.69529"/>
<path d="M174.06 88.3981C176.277 88.4474 178.439 88.1456 180.545 87.4927C183.083 86.6921 183.606 85.485 182.116 83.8713C182.066 83.8221 181.543 83.5696 180.545 83.1138L179.455 82.615C178.273 82.073 178.359 81.8451 179.714 81.9313L192.536 82.7443C194.975 82.9044 195.006 83.3725 192.629 84.1485C190.338 84.8999 189.309 85.8175 189.543 86.9015C189.679 87.542 190.399 88.2256 191.705 88.9524C194.008 90.2457 196.25 91.6253 198.43 93.0911C199.822 94.0396 200.986 94.5939 201.923 94.754C204.682 95.2344 205.205 93.4545 203.493 89.4143C202.705 87.5543 203.043 87.3203 204.509 88.7122C209.042 93.0233 212.596 97.975 215.17 103.567C217.129 107.829 219.629 108.18 222.672 104.62C226.207 100.494 230.198 96.9096 234.644 93.8671" stroke="#A76875" stroke-width="3.69529"/>
<path d="M195.308 142.756C200.74 141.056 205.784 138.574 210.44 135.31C211.536 134.558 212.041 134.842 211.955 136.16C211.302 146.272 206.037 152.191 196.158 153.915" stroke="#A76875" stroke-width="3.69529"/>
<path d="M193.922 164.927C192.678 165.679 192.148 166.787 192.333 168.253C192.432 168.992 192.426 169.596 192.315 170.064C190.27 178.908 190.036 187.074 191.613 194.563C192.241 197.544 193.861 199.497 196.472 200.42C198.517 201.135 200.752 200.901 203.179 199.718C208.685 197.008 212.325 192.506 214.098 186.212C215.01 182.96 215.65 182.757 216.02 185.602C216.069 186.009 216.038 186.44 215.928 186.896C215.041 190.32 214.659 193.8 214.782 197.335" stroke="#F67E74" stroke-width="3.69529"/>
<path d="M214.782 197.335L218.015 193.64" stroke="#8AA6A6" stroke-width="3.69529"/>
<path d="M218.015 193.64C217.338 190.376 217.566 186.816 218.699 182.96C218.97 182.012 219.192 182.03 219.364 183.016L220.713 190.942" stroke="#F67E74" stroke-width="3.69529"/>
<path d="M220.713 190.943L222.635 189.021" stroke="#8AA6A6" stroke-width="3.69529"/>
<path d="M222.634 189.021C221.008 184.266 220.109 179.383 219.937 174.369C219.932 174.249 219.951 174.129 219.993 174.016C220.035 173.903 220.1 173.799 220.182 173.712C220.265 173.624 220.364 173.554 220.474 173.505C220.584 173.456 220.703 173.429 220.824 173.427C231.392 173.279 240.489 169.645 248.113 162.526C248.557 162.107 248.785 162.199 248.797 162.803C248.883 171.154 247.645 179.315 245.083 187.284C243.913 190.918 241.758 194.385 238.617 197.687C235.426 201.025 231.897 201.523 228.03 199.183" stroke="#F67E74" stroke-width="3.69529"/>
<path d="M228.03 199.183C227.401 199.627 226.964 200.218 226.718 200.957" stroke="#8AA6A6" stroke-width="3.69529"/>
<path d="M226.718 200.957C231.842 203.285 236.27 202.502 240.002 198.61C243.39 195.063 245.822 190.659 247.3 185.399C249.567 177.368 250.688 169.183 250.663 160.844" stroke="#F67E74" stroke-width="3.69529"/>
<path d="M232.649 124.815C230.456 125.443 228.436 125.283 226.588 124.335C225.763 123.928 225.8 123.713 226.699 123.688L232.723 123.503" stroke="#CB7C96" stroke-width="3.69529"/>
<path d="M222.634 189.021L227.18 184.79" stroke="#8D7878" stroke-width="3.69529"/>
<path d="M227.18 184.79L231.189 180.263C231.486 179.934 231.918 179.74 232.407 179.716C232.895 179.693 233.407 179.841 233.85 180.134C239.996 184.161 240.39 188.023 235.032 191.718" stroke="#AA3A47" stroke-width="3.69529"/>
<path d="M235.032 191.718L228.03 199.183" stroke="#8D7878" stroke-width="3.69529"/>
<path d="M205.47 207.885L221.175 206.5" stroke="#8AA6A6" stroke-width="3.69529"/>
<path d="M91.8397 249.143C110.439 259.145 126.261 272.861 139.306 290.29C140.18 291.46 140.525 292.63 140.34 293.801" stroke="#CA4664" stroke-width="3.69529"/>
<path d="M308.476 331.677C308.476 330.987 308.187 330.544 307.608 330.347C307.189 330.199 306.93 330.101 306.832 330.051C290.942 321.343 277.195 310.029 265.592 296.11C257.044 285.862 249.13 275.145 241.85 263.961C240.47 261.855 238.352 259.792 235.494 257.771" stroke="#F67E74" stroke-width="3.69529"/>
<path d="M235.494 257.771H233.185" stroke="#CE4D68" stroke-width="3.69529"/>
<path d="M233.185 257.772C223.257 258.178 214.671 256.934 207.428 254.039C203.388 252.413 202.273 249.396 204.084 244.986" stroke="#F67E74" stroke-width="3.69529"/>
<path d="M204.084 244.986C203.653 244.801 203.345 244.493 203.16 244.062" stroke="#CA4664" stroke-width="3.69529"/>
<path d="M203.16 244.062C199.145 243.68 197.236 242.061 197.433 239.203C197.556 237.38 198.609 235.754 200.592 234.325C205.753 230.618 211.69 229.072 218.403 229.688C220.35 229.872 221.169 229.638 220.861 228.985C220.758 228.777 220.564 228.588 220.298 228.439C220.032 228.29 219.704 228.186 219.346 228.136C212.485 227.175 206.221 228.579 200.555 232.348C200.481 232.385 199.915 232.921 198.855 233.956C197.931 234.855 196.774 234.966 195.382 234.288" stroke="#F67E74" stroke-width="3.69529"/>
<path d="M195.382 234.288L181.525 248.145" stroke="#8D7878" stroke-width="3.69529"/>
<path d="M181.524 248.146L175.908 249.919" stroke="#FCA7A3" stroke-width="3.69529"/>
<path d="M175.907 249.919C172.2 252.038 171.147 250.985 172.748 246.76" stroke="#CA4664" stroke-width="3.69529"/>
<path d="M172.748 246.76C172.859 244.912 173.425 243.218 174.448 241.679" stroke="#FCA7A3" stroke-width="3.69529"/>
<path d="M174.448 241.679C176.788 237.922 179.628 234.578 182.966 231.646C185.134 229.724 186.963 227.526 188.453 225.05" stroke="#8D7878" stroke-width="3.69529"/>
<path d="M188.453 225.05C186.088 223.116 185.485 221.151 186.642 219.156C190.362 212.763 196.638 209.006 205.47 207.885" stroke="#F67E74" stroke-width="3.69529"/>
<path d="M205.47 207.886L214.782 197.335" stroke="#8D7878" stroke-width="3.69529"/>
<path d="M226.718 200.957L221.175 206.499" stroke="#8D7878" stroke-width="3.69529"/>
<path d="M221.175 206.5C235.734 208.15 249.413 212.498 262.211 219.544C276.697 227.513 290.437 236.394 303.432 246.187C304.91 247.295 305.212 247.037 304.337 245.411C301.812 240.73 299.262 236.074 296.688 231.443C296.516 231.147 296.429 230.858 296.429 230.574C296.429 229.823 296.731 229.62 297.335 229.965C297.581 230.1 297.797 230.34 297.981 230.685C300.814 235.748 303.66 240.804 306.517 245.854C308.193 248.823 310.373 251.403 313.058 253.596C320.055 259.287 326.996 265.039 333.881 270.853" stroke="#F67E74" stroke-width="3.69529"/>
<path d="M333.881 270.853L336.117 270.317" stroke="#CA4664" stroke-width="3.69529"/>
<path d="M336.117 270.317C336.191 270.034 336.369 269.855 336.653 269.781" stroke="#F67E74" stroke-width="3.69529"/>
<path d="M336.653 269.781C354.144 261.405 372.158 254.372 390.696 248.681" stroke="#CA4664" stroke-width="3.69529"/>
<path d="M390.696 248.681C396.707 246.735 402.829 246.076 409.062 246.704C409.197 246.717 409.542 246.834 410.096 247.055C410.491 247.228 410.669 246.975 410.632 246.298" stroke="#AA3A47" stroke-width="3.69529"/>
<path d="M218.015 193.64C219.346 193.209 220.245 192.31 220.713 190.942" stroke="#8D7878" stroke-width="3.69529"/>
<path d="M227.18 184.79L235.032 191.718" stroke="#3E6279" stroke-width="3.69529"/>
<path d="M188.453 225.05L192.924 226.897" stroke="#8AA6A6" stroke-width="3.69529"/>
<path d="M192.924 226.897C198.418 219.236 205.969 216.119 215.576 217.548C218.693 218.004 218.878 218.472 216.131 218.953C215.823 219.014 215.496 219.026 215.151 218.989C206.184 218.053 198.978 220.997 193.534 227.821" stroke="#CB7C96" stroke-width="3.69529"/>
<path d="M193.534 227.821C193.337 230.186 193.953 232.342 195.382 234.288" stroke="#8AA6A6" stroke-width="3.69529"/>
<path d="M203.16 244.062C208.666 239.726 214.948 238.002 222.006 238.889C222.336 238.935 222.641 239.033 222.899 239.177C223.158 239.321 223.364 239.506 223.503 239.72C224.094 240.656 223.318 240.995 221.175 240.736C214.856 239.972 209.159 241.389 204.084 244.986" stroke="#C77491" stroke-width="3.69529"/>
<path d="M233.185 257.772C228.06 253.461 222.185 251.607 215.558 252.21C215.115 252.247 214.573 252.395 213.932 252.654C212.725 253.122 212.14 252.992 212.177 252.266C212.189 252.018 212.304 251.776 212.505 251.579C212.706 251.382 212.981 251.24 213.285 251.176C221.822 249.34 229.224 251.539 235.494 257.772" stroke="#CB7C96" stroke-width="3.69529"/>
<path d="M397.699 268.007L393.93 257.31" stroke="#A76875" stroke-width="3.69529"/>
<path d="M393.929 257.31C376.906 260.278 360.093 264.14 343.489 268.894C341.247 269.535 338.968 269.83 336.652 269.781" stroke="#C77491" stroke-width="3.69529"/>
<path d="M336.117 270.317C339.689 273.926 343.329 277.468 347.036 280.941C347.295 281.2 347.48 281.465 347.591 281.736C347.96 282.696 347.677 283.004 346.741 282.659C346.445 282.549 346.15 282.358 345.854 282.087C341.789 278.428 337.798 274.684 333.881 270.853" stroke="#C77491" stroke-width="3.69529"/>
<path d="M172.748 246.76C174.091 247.548 175.144 248.601 175.907 249.919" stroke="#CD9EC0" stroke-width="3.69529"/>
<path d="M66.8965 127.66C69.5694 126.54 71.5711 127.106 72.9014 129.36" stroke="#616A9C" stroke-width="3.69529"/>
<path d="M73.2894 131.744C73.4741 132.717 73.1416 133.425 72.2916 133.869C68.5471 135.84 66.4408 134.694 65.9727 130.432" stroke="#4F618B" stroke-width="3.69529"/>
<path d="M57.2703 154.377H58.1572C58.7361 154.377 59.2904 154.23 59.82 153.934C70.7334 147.8 82.5091 145.644 95.147 147.467C98.1525 147.898 98.7191 149.309 96.8468 151.698C95.8737 152.93 94.2047 154.002 91.8397 154.913" stroke="#ADAFC9" stroke-width="3.69529"/>
<path d="M91.8398 154.913C91.2732 155.233 90.8113 155.646 90.4541 156.151" stroke="#8176B9" stroke-width="3.69529"/>
<path d="M90.4542 156.151C91.7475 156.533 94.6729 157.174 99.2305 158.073C100.598 158.344 101.466 159.12 101.836 160.401C101.907 160.654 101.894 160.932 101.799 161.2C101.704 161.469 101.531 161.717 101.3 161.916C98.6392 164.182 95.6399 165.852 92.3018 166.923" stroke="#ADAFC9" stroke-width="3.69529"/>
<path d="M92.3018 166.923C92.1293 168.118 91.3595 168.684 89.9922 168.623" stroke="#8176B9" stroke-width="3.69529"/>
<path d="M89.992 168.623C93.946 168.807 97.7644 169.645 101.447 171.135C103.504 171.973 103.652 173.069 101.891 174.424C97.3579 177.91 92.0059 180.337 85.8348 181.704" stroke="#ADAFC9" stroke-width="3.69529"/>
<path d="M85.8349 181.704C85.9088 182.69 85.4469 183.256 84.4492 183.404" stroke="#857EBD" stroke-width="3.69529"/>
<path d="M84.4493 183.404L96.3666 185.455C100.062 186.083 100.234 187.401 96.8839 189.409C89.8136 193.658 81.9734 196.941 73.3634 199.257" stroke="#ADAFC9" stroke-width="3.69529"/>
<path d="M73.3633 199.257C74.2009 200.402 73.9299 201.031 72.5503 201.141C68.584 201.474 67.1367 203.747 68.2083 207.959" stroke="#8176B9" stroke-width="3.69529"/>
<path d="M68.2084 207.959C69.859 213.761 71.2693 219.618 72.4395 225.53C72.9569 228.191 73.8499 230.001 75.1186 230.962C76.8431 232.268 79.0294 232.785 81.6777 232.514" stroke="#ADAFC9" stroke-width="3.69529"/>
<path d="M81.6778 232.514L161.126 235.6" stroke="#AF809B" stroke-width="3.69529"/>
<path d="M161.126 235.6C160.116 235.132 159.901 234.541 160.48 233.826C160.872 233.359 161.154 232.807 161.304 232.212C161.454 231.617 161.469 230.994 161.348 230.39L139.878 126.127" stroke="#8BC6F4" stroke-width="3.69529"/>
<path d="M119.481 130.358C121.538 128.806 123.102 129.089 124.174 131.208" stroke="#616A9C" stroke-width="3.69529"/>
<path d="M125.024 133.591C125.147 135.784 124.248 137.016 122.326 137.287C119.308 137.705 117.793 136.32 117.781 133.129" stroke="#616A9C" stroke-width="3.69529"/>
<path d="M92.6895 128.511C95.8428 127.328 97.9984 128.252 99.1562 131.282" stroke="#8176B9" stroke-width="3.69529"/>
<path d="M99.1562 133.13C95.8305 137.971 93.3916 137.533 91.8396 131.818" stroke="#616A9C" stroke-width="3.69529"/>
<path d="M142.188 297.644C142.878 297.496 143.494 296.855 144.036 295.722C150.527 282.136 157.179 266.104 163.99 247.628C164.155 247.192 164.205 246.72 164.138 246.255C164.07 245.79 163.886 245.347 163.602 244.967C163.331 244.622 163.073 244.82 162.826 245.559C157.222 262.187 150.515 278.36 142.705 294.078C141.757 295.987 140.969 295.895 140.34 293.801" stroke="#F67E74" stroke-width="3.69529"/>
<path d="M140.34 293.801C129.673 283.171 117.485 273.92 103.775 266.049C102.716 265.445 102.427 265.704 102.907 266.825C105.383 272.664 107.538 278.909 109.374 285.56C109.534 286.151 109.565 286.57 109.466 286.817C109.208 287.531 108.912 287.359 108.579 286.299C104.551 273.23 98.9716 260.845 91.8397 249.143" stroke="#C87592" stroke-width="3.69529"/>
<path d="M91.8398 249.143C87.8243 243.982 84.4369 238.439 81.6778 232.514" stroke="#F67E74" stroke-width="3.69529"/>
<path d="M68.2084 207.959C66.1883 212.763 63.5585 215.806 60.3189 217.087C57.7692 218.097 57.0855 217.875 58.268 216.421C58.5021 216.126 58.847 215.861 59.3027 215.627C64.1066 213.102 66.4346 208.52 66.2868 201.881C66.2818 201.582 66.3674 201.293 66.5291 201.064C66.6908 200.835 66.9186 200.68 67.1737 200.624L73.3633 199.257" stroke="#C87592" stroke-width="3.69529"/>
<path d="M84.4492 183.404C77.2557 183.7 70.5611 185.597 64.3653 189.095C62.9488 189.896 62.6655 189.588 63.5154 188.171C63.6755 187.9 63.9034 187.672 64.199 187.487C70.8136 183.509 78.0256 181.581 85.835 181.704" stroke="#CC7C96" stroke-width="3.69529"/>
<path d="M89.9922 168.623C81.4438 168.931 73.1602 170.508 65.1414 173.353C62.4931 174.301 62.062 173.975 63.848 172.374C64.1067 172.152 64.4023 171.98 64.7349 171.856C73.579 168.42 82.7679 166.775 92.3018 166.923" stroke="#C87592" stroke-width="3.69529"/>
<path d="M90.4541 156.151C81.647 157.235 73.1232 159.378 64.8827 162.581C64.6733 162.655 64.4762 162.679 64.2915 162.655C63.4415 162.532 63.4847 162.236 64.4208 161.768C73.0432 157.469 82.1828 155.184 91.8398 154.913" stroke="#C87592" stroke-width="3.69529"/>
<path d="M161.127 235.6C164.834 234.565 166.201 232.231 165.228 228.597C164.797 227.021 164.575 226.195 164.563 226.121C159.845 203.149 155.183 180.158 150.576 157.149" stroke="#D4959F" stroke-width="3.69529"/>
<path d="M174.448 241.679L181.524 248.145" stroke="#90D0D5" stroke-width="3.69529"/>
<path d="M390.696 248.681C392.494 251.292 393.572 254.169 393.929 257.31" stroke="#7B3065" stroke-width="3.69529"/>
<path d="M192.924 226.897L193.534 227.821" stroke="#62769A" stroke-width="3.69529"/>
<path d="M112.7 123.892L117.781 133.13" stroke="#AEBE90" stroke-width="3.69529"/>
<path d="M117.781 133.129C120.207 134.337 122.622 134.49 125.023 133.591" stroke="#A8783C" stroke-width="3.69529"/>
<path d="M125.024 133.591C125.368 132.458 125.085 131.664 124.174 131.208" stroke="#AEBE90" stroke-width="3.69529"/>
<path d="M124.174 131.208C122.424 131.651 120.86 131.368 119.481 130.358" stroke="#A8783C" stroke-width="3.69529"/>
<path d="M119.48 130.358C117.029 129.176 115.822 127.199 115.859 124.427" stroke="#AEBE90" stroke-width="3.69529"/>
<path d="M127.481 124.815C128.318 125.345 129.217 125.474 130.178 125.203" stroke="#AEBE90" stroke-width="3.69529"/>
<path d="M86.6849 122.968C87.7935 126.269 89.5118 129.219 91.8398 131.818" stroke="#AEBE90" stroke-width="3.69529"/>
<path d="M91.8396 131.818C94.143 132.951 96.5819 133.388 99.1562 133.13" stroke="#A8783C" stroke-width="3.69529"/>
<path d="M99.1562 133.129V131.282" stroke="#AEBE90" stroke-width="3.69529"/>
<path d="M99.1562 131.282C96.5942 131.294 94.4386 130.37 92.6895 128.51" stroke="#C88458" stroke-width="3.69529"/>
<path d="M92.6897 128.511C91.384 127.266 90.4848 125.751 89.9921 123.965" stroke="#AEBE90" stroke-width="3.69529"/>
<path d="M102.002 123.355C102.667 124.07 103.307 124.095 103.923 123.429" stroke="#AEBE90" stroke-width="3.69529"/>
<path d="M60.8177 122.044C61.7169 125.37 63.4352 128.166 65.9727 130.432" stroke="#AEBE90" stroke-width="3.69529"/>
<path d="M65.9726 130.432C68.2021 131.787 70.641 132.224 73.2893 131.744" stroke="#966F2A" stroke-width="3.69529"/>
<path d="M73.2895 131.744C73.8561 130.82 73.7268 130.026 72.9015 129.36" stroke="#AEBE90" stroke-width="3.69529"/>
<path d="M72.9014 129.36C70.6103 129.668 68.6087 129.102 66.8965 127.661" stroke="#A8783C" stroke-width="3.69529"/>
<path d="M66.8965 127.661C65.0365 126.429 64.1373 124.711 64.1989 122.506" stroke="#AEBE90" stroke-width="3.69529"/>
<path d="M76.1348 122.432H77.9824" stroke="#AEBE90" stroke-width="3.69529"/>
<path d="M86.2969 26.5019C86.8635 25.8983 87.1468 25.2085 87.1468 24.4325C87.1514 24.2563 87.08 24.0854 86.9483 23.9572C86.8167 23.829 86.6356 23.7541 86.4447 23.7489C73.1909 23.2069 73.4126 22.9113 87.1098 22.862C87.391 22.8571 87.6644 22.9326 87.8926 23.0781C88.1209 23.2237 88.2927 23.4321 88.3847 23.675C89.3701 26.3356 89.3763 30.0247 88.4032 34.7424C88.3075 35.1845 88.0871 35.5808 87.7781 35.8662C87.4692 36.1517 87.0901 36.3092 86.7034 36.3129L75.0632 36.4053C74.8111 36.4069 74.5573 36.3075 74.3382 36.1216C74.1191 35.9357 73.9459 35.6727 73.8437 35.3706C73.0924 33.1781 73.0308 30.9855 73.659 28.793C73.8561 28.1155 74.0901 28.1094 74.3611 28.7745C74.8907 30.0679 75.0078 31.5029 74.7121 33.0795C74.6523 33.3947 74.6628 33.7193 74.7429 34.03C74.823 34.3407 74.9706 34.6299 75.1753 34.877C75.38 35.1241 75.6368 35.3229 75.9272 35.4593C76.2176 35.5958 76.5345 35.6664 76.8554 35.6662H84.8187C85.197 35.6659 85.565 35.5434 85.8679 35.317C86.1709 35.0906 86.3926 34.7724 86.5001 34.4098C87.5102 30.9732 87.2884 29.2118 85.835 29.1256" stroke="#D7EDFB" stroke-width="3.69529"/>
<path d="M85.835 29.1258C83.162 33.2768 80.7539 33.8804 78.6107 30.9364C77.4282 29.3105 76.4366 28.0726 75.636 27.2227C74.5274 26.0279 73.6036 24.6914 72.8645 23.2133C71.5342 20.4788 71.8052 20.06 73.6775 21.9569C75.9809 24.2972 78.0933 26.8593 80.0149 29.6431C81.2097 31.3799 82.2198 31.2752 83.045 29.329C83.6363 27.9248 84.7202 26.9825 86.2969 26.5021" stroke="#FCA7A3" stroke-width="3.69529"/>
<path d="M85.835 29.1256C86.5618 28.2141 86.7157 27.3396 86.2969 26.502" stroke="#D4959F" stroke-width="3.69529"/>
<path d="M46.1105 29.5323C46.1105 29.3216 46.1942 29.1195 46.3432 28.9705C46.4922 28.8215 46.6943 28.7378 46.905 28.7378H67.7834C67.9941 28.7378 68.1962 28.8215 68.3452 28.9705C68.4942 29.1195 68.5779 29.3216 68.5779 29.5323V29.7909C68.5779 30.0017 68.4942 30.2037 68.3452 30.3527C68.1962 30.5017 67.9941 30.5854 67.7834 30.5854H46.905C46.6943 30.5854 46.4922 30.5017 46.3432 30.3527C46.1942 30.2037 46.1105 30.0017 46.1105 29.7909V29.5323Z" stroke="#C9E2F7" stroke-width="3.69529"/>
<path d="M24.8444 29.5915C24.8446 29.4775 24.8672 29.3646 24.911 29.2593C24.9549 29.154 25.019 29.0584 25.0998 28.9779C25.1805 28.8974 25.2764 28.8336 25.3818 28.7901C25.4872 28.7467 25.6002 28.7244 25.7143 28.7246L40.5693 28.7505C40.7996 28.7509 41.0203 28.8428 41.1828 29.0059C41.3453 29.1691 41.4364 29.3901 41.436 29.6203L41.4358 29.7312C41.4356 29.8452 41.413 29.9581 41.3692 30.0634C41.3254 30.1687 41.2612 30.2643 41.1805 30.3448C41.0997 30.4253 41.0038 30.4891 40.8984 30.5326C40.793 30.576 40.68 30.5983 40.566 30.5981L25.7109 30.5723C25.4806 30.5718 25.26 30.4799 25.0974 30.3168C24.9349 30.1537 24.8438 29.9327 24.8442 29.7024L24.8444 29.5915Z" stroke="#C9E2F7" stroke-width="3.69529"/>
<path d="M86.6847 47.2139C88.2121 45.859 87.9657 44.8982 85.9456 44.3316C84.2827 43.8635 81.6283 43.611 77.9823 43.5741C74.829 43.5371 74.829 43.3893 77.9823 43.1306C81.0617 42.872 84.1103 42.989 87.1281 43.4817C87.4125 43.5263 87.6755 43.6488 87.883 43.8333C88.0906 44.0178 88.2331 44.2558 88.2921 44.5164C88.5631 45.7358 88.8218 47.8668 89.0682 50.9092C89.4254 55.2943 88.1135 57.7763 85.1327 58.3552C83.6053 58.6385 81.2957 58.6878 78.204 58.503C73.8559 58.2444 72.3162 55.5468 73.5849 50.4104C73.7573 49.7083 74.0222 49.6651 74.3794 50.281C74.9953 51.3527 75.1985 52.7138 74.9891 54.3643C74.9568 54.6275 74.998 54.8931 75.11 55.1421C75.222 55.3911 75.4018 55.6173 75.6367 55.8045C75.8716 55.9917 76.1557 56.1352 76.4686 56.2248C76.7814 56.3145 77.1154 56.3479 77.4465 56.3228L85.5022 55.6946C85.7352 55.6756 85.9632 55.6227 86.1731 55.5389C86.383 55.4551 86.5706 55.3422 86.7251 55.2065C86.8796 55.0709 86.9981 54.9152 87.0736 54.7485C87.1491 54.5817 87.1802 54.4072 87.1651 54.235L86.6847 48.5997" stroke="#D7EDFB" stroke-width="3.69529"/>
<path d="M86.6848 48.5998L82.4352 53.145C82.2669 53.3268 82.0205 53.4274 81.744 53.4274C81.4674 53.4274 81.1804 53.3268 80.9386 53.145C77.7607 50.7062 75.0385 47.8177 72.772 44.4796C71.0968 42.0037 71.3432 41.3016 73.5111 42.3733C73.9299 42.5704 74.2871 42.8906 74.5827 43.3341C76.2087 45.8099 77.9947 48.2303 79.9409 50.5953C80.1452 50.8368 80.4051 51.0253 80.6979 51.1444C80.9908 51.2635 81.3077 51.3096 81.621 51.2786C81.9344 51.2476 82.2347 51.1405 82.4958 50.9667C82.7568 50.7929 82.9708 50.5575 83.1188 50.2812C84.0796 48.5075 85.2683 47.4851 86.6848 47.2141" stroke="#FCA7A3" stroke-width="3.69529"/>
<path d="M86.6849 48.6001C86.7958 48.132 86.7958 47.6701 86.6849 47.2144" stroke="#D4959F" stroke-width="3.69529"/>
<path d="M58.6207 50.2493C58.6218 50.1426 58.6439 50.0371 58.6858 49.9389C58.7277 49.8407 58.7885 49.7517 58.8648 49.677C58.9411 49.6023 59.0313 49.5433 59.1304 49.5035C59.2295 49.4637 59.3354 49.4437 59.4422 49.4449L67.4604 49.5289C67.676 49.5312 67.8818 49.619 68.0327 49.773C68.1836 49.927 68.2671 50.1346 68.2648 50.3502L68.2625 50.5719C68.2613 50.6787 68.2392 50.7842 68.1973 50.8824C68.1554 50.9806 68.0946 51.0696 68.0184 51.1443C67.9421 51.219 67.8518 51.278 67.7528 51.3178C67.6537 51.3576 67.5478 51.3775 67.441 51.3764L59.4228 51.2923C59.2072 51.2901 59.0013 51.2023 58.8505 51.0483C58.6996 50.8943 58.6161 50.6866 58.6183 50.4711L58.6207 50.2493Z" stroke="#C9E2F7" stroke-width="3.69529"/>
<path d="M28.189 50.4934C28.1877 50.3866 28.2074 50.2806 28.247 50.1815C28.2867 50.0823 28.3455 49.992 28.42 49.9156C28.4946 49.8391 28.5835 49.7782 28.6816 49.7361C28.7798 49.694 28.8852 49.6717 28.992 49.6704L53.0095 49.377C53.2251 49.3744 53.4329 49.4575 53.5872 49.6081C53.7415 49.7587 53.8296 49.9644 53.8323 50.18L53.8332 50.2539C53.8345 50.3607 53.8148 50.4666 53.7751 50.5658C53.7355 50.6649 53.6767 50.7553 53.6021 50.8317C53.5276 50.9081 53.4387 50.9691 53.3405 51.0112C53.2424 51.0532 53.137 51.0755 53.0302 51.0768L29.0127 51.3703C28.7971 51.3729 28.5893 51.2897 28.435 51.1391C28.2807 50.9886 28.1925 50.7828 28.1899 50.5673L28.189 50.4934Z" stroke="#B3D8F8" stroke-width="3.69529"/>
<path d="M85.7241 78.0515C86.2581 78.0096 86.7566 77.7693 87.1197 77.3787C87.4829 76.9881 87.6839 76.4761 87.6826 75.9451V67.0395C87.6826 66.595 87.5066 66.1681 87.1924 65.8504C86.8781 65.5327 86.4505 65.3493 86.0013 65.3397C72.3533 65.1426 72.1439 64.6437 85.3731 63.8431C87.8366 63.6953 89.0684 65.6969 89.0684 69.8479C89.0684 71.8557 89.0314 73.8573 88.9575 75.8528C88.8713 78.3779 87.5471 79.4618 84.9851 79.1046C83.2729 78.8583 81.5669 78.8521 79.8671 79.0861C74.7306 79.7759 72.6921 77.5711 73.7514 72.4716C73.8007 72.2498 73.8314 72.0405 73.8438 71.8434C74.3488 62.3465 74.6506 62.3465 74.7491 71.8434C74.7491 72.0405 74.7306 72.2498 74.6937 72.4716C73.7822 77.2015 75.6668 79.2463 80.3475 78.6057C82.1212 78.3717 83.9134 78.187 85.7241 78.0515Z" stroke="#C9E2F7" stroke-width="3.69529"/>
<path d="M40.272 70.9933C40.272 70.8169 40.3421 70.6477 40.4668 70.5229C40.5916 70.3982 40.7608 70.3281 40.9372 70.3281H67.5802C67.7566 70.3281 67.9258 70.3982 68.0505 70.5229C68.1753 70.6477 68.2454 70.8169 68.2454 70.9933V71.0302C68.2454 71.2066 68.1753 71.3758 68.0505 71.5006C67.9258 71.6253 67.7566 71.6954 67.5802 71.6954H40.9372C40.7608 71.6954 40.5916 71.6253 40.4668 71.5006C40.3421 71.3758 40.272 71.2066 40.272 71.0302V70.9933Z" stroke="#B3D8F8" stroke-width="3.69529"/>
<path d="M22.4239 70.6054C26.5134 70.0018 30.5659 70.1435 34.5814 71.0304C35.5422 71.2397 35.5422 71.3568 34.5814 71.3814L22.6457 71.7509C22.4501 71.7559 22.2597 71.714 22.094 71.6296C21.9284 71.5451 21.7935 71.4212 21.7033 71.2705C21.5063 70.9256 21.7465 70.7039 22.4239 70.6054Z" stroke="#B3D8F8" stroke-width="3.69529"/>
<path d="M179.51 100.279C177.7 99.8228 176.419 98.8497 175.667 97.3593C175.617 97.2567 175.592 97.1438 175.593 97.0287C175.594 96.9135 175.623 96.7989 175.676 96.693C175.729 96.5871 175.805 96.4926 175.899 96.4161C175.994 96.3397 176.104 96.2832 176.222 96.2507C184.561 93.701 185.842 95.9859 180.065 103.105C179.831 103.393 179.716 103.977 179.736 104.781C179.756 105.584 179.909 106.572 180.176 107.614C180.619 109.314 180.274 109.585 179.141 108.427C178.895 108.193 178.71 107.928 178.587 107.632C177.49 105.169 177.872 102.988 179.732 101.092C180.126 100.685 180.052 100.414 179.51 100.279Z" stroke="#A76875" stroke-width="3.69529"/>
<path d="M199.132 101.368C195.856 102.662 192.696 102.606 189.654 101.202C189.395 101.081 189.169 100.901 188.992 100.676C188.816 100.452 188.694 100.189 188.638 99.9088C187.936 96.3859 188.89 95.1911 191.502 96.3244C193.435 97.1496 194.47 97.5869 194.606 97.6362C196.281 98.1658 197.716 98.5477 198.911 98.7817C201.891 99.3853 201.965 100.248 199.132 101.368Z" stroke="#A76875" stroke-width="3.69529"/>
<path d="M228.436 112.343C227.623 114.093 227.5 114.062 228.066 112.251C229.988 106.08 234.151 102.526 240.557 101.59C241.37 101.479 241.831 101.639 241.942 102.071C241.971 102.177 241.967 102.29 241.93 102.401C241.892 102.512 241.824 102.619 241.728 102.715C241.631 102.811 241.51 102.894 241.372 102.958C241.234 103.022 241.082 103.066 240.926 103.087C235.124 103.826 230.961 106.911 228.436 112.343Z" stroke="#CB7C96" stroke-width="3.69529"/>
<path d="M197.192 113.619C197.192 111.531 198.022 109.529 199.498 108.053C200.974 106.577 202.976 105.748 205.063 105.748C207.151 105.748 209.153 106.577 210.629 108.053C212.105 109.529 212.934 111.531 212.934 113.619C212.934 115.706 212.105 117.708 210.629 119.184C209.153 120.66 207.151 121.489 205.063 121.489C202.976 121.489 200.974 120.66 199.498 119.184C198.022 117.708 197.192 115.706 197.192 113.619Z" stroke="#EF9D99" stroke-width="3.69529"/>
<path d="M184.684 117.849C185.679 117.624 186.546 117.029 187.104 116.187C188.977 113.366 190.017 112.467 190.227 113.489C190.35 114.08 190.208 114.832 189.802 115.743C188.114 119.574 185.01 120.787 180.49 119.383C178.975 118.903 178.463 118.305 178.956 117.591C179.082 117.406 179.3 117.284 179.571 117.247C179.841 117.21 180.147 117.26 180.434 117.388C181.838 118.028 183.255 118.182 184.684 117.849Z" stroke="#CB7C96" stroke-width="3.69529"/>
<path d="M196.287 167.089C202.162 170.329 208.635 172.515 215.706 173.648C215.792 173.664 215.874 173.696 215.948 173.744C216.022 173.791 216.085 173.853 216.135 173.925C216.185 173.997 216.22 174.078 216.238 174.164C216.256 174.25 216.258 174.338 216.242 174.424C214.726 182.086 211.789 188.817 207.428 194.619C204.977 197.871 201.904 199.404 198.209 199.22C195.536 199.072 193.953 197.686 193.46 195.062C191.834 186.342 192.265 177.233 194.753 167.736C194.795 167.581 194.871 167.437 194.977 167.316C195.082 167.195 195.214 167.099 195.362 167.037C195.51 166.974 195.67 166.947 195.83 166.956C195.991 166.965 196.147 167.01 196.287 167.089Z" stroke="#F67E74" stroke-width="3.69529"/>
<path d="M28.096 87.4743C27.8497 88.7307 28.1576 89.8085 29.0198 90.7077C29.8821 90.3751 30.5349 90.6214 30.9783 91.4467C32.5057 94.3044 34.92 96.5708 38.2211 98.246C38.4305 98.3446 38.7816 98.4493 39.2743 98.5602C40.0749 98.7326 40.1981 99.1699 39.6438 99.872C48.7958 100.931 55.4966 97.7041 59.7462 90.1903C60.2635 89.2665 60.7624 88.6568 61.2428 88.3611C62.4868 87.6098 63.269 88.3673 63.5893 90.6338C63.9834 91.4467 64.6239 91.9333 65.5108 92.0934C66.7795 91.6623 67.7341 91.8039 68.3747 92.5183C68.9043 93.1096 69.3601 93.4668 69.7419 93.59C82.7739 97.9627 93.2563 95.1358 101.189 85.1093C102.507 83.4341 103.597 81.3463 104.459 78.8458C105.247 76.5793 105.993 74.2944 106.695 71.991C106.874 71.4407 107.245 70.9589 107.748 70.6238C116.752 64.662 121.673 56.8219 122.511 47.1033C123.176 39.3432 121.254 32.4391 116.746 26.3912C112.078 20.1215 105.5 16.0752 97.0131 14.2522C96.7052 14.1906 90.8618 12.6817 85.373 13.5685C84.0563 13.7813 83.8148 14.0612 82.9526 12.6817C81.031 9.61457 78.278 7.01555 74.6936 4.8846C71.4787 2.96305 67.962 1.81751 64.1435 1.44798C53.8091 0.437933 45.3407 4.37958 38.7384 13.2729C38.5855 13.4825 38.359 13.6279 38.1007 13.6823C37.8425 13.7367 37.5702 13.6962 37.3342 13.5685C30.7197 9.89787 24.5177 9.26351 18.7284 11.6654C13.5058 13.821 9.88441 17.4855 7.86432 22.6589C5.85654 27.82 6.1768 33.4615 8.82509 39.5833C8.93159 39.8349 8.96722 40.1107 8.92814 40.381C8.88906 40.6514 8.77673 40.9058 8.60336 41.1169C0.991066 50.2566 -0.708755 59.8828 3.50387 69.9956C5.46237 74.7132 8.35086 78.4085 12.1693 81.0814C16.382 84.013 21.075 85.5035 26.2484 85.5527C28.096 85.5774 28.7119 86.2179 28.096 87.4743ZM86.2968 26.502C86.8634 25.8985 87.1467 25.2087 87.1467 24.4327C87.1513 24.2565 87.0799 24.0855 86.9483 23.9573C86.8166 23.8292 86.6355 23.7542 86.4446 23.749C73.1908 23.2071 73.4126 22.9114 87.1098 22.8622C87.391 22.8573 87.6644 22.9327 87.8926 23.0783C88.1208 23.2238 88.2927 23.4323 88.3847 23.6751C89.3701 26.3357 89.3762 30.0249 88.4031 34.7425C88.3074 35.1846 88.087 35.5809 87.7781 35.8664C87.4691 36.1518 87.0901 36.3093 86.7033 36.313L75.0631 36.4054C74.8111 36.407 74.5572 36.3077 74.3381 36.1217C74.119 35.9358 73.9459 35.6729 73.8437 35.3707C73.0923 33.1782 73.0307 30.9856 73.6589 28.7931C73.856 28.1156 74.09 28.1095 74.361 28.7746C74.8907 30.068 75.0077 31.503 74.7121 33.0796C74.6522 33.3949 74.6628 33.7194 74.7428 34.0301C74.8229 34.3409 74.9705 34.6301 75.1752 34.8771C75.38 35.1242 75.6367 35.3231 75.9271 35.4595C76.2175 35.5959 76.5345 35.6665 76.8553 35.6663H84.8187C85.1969 35.666 85.5649 35.5435 85.8678 35.3171C86.1708 35.0907 86.3926 34.7726 86.5 34.4099C87.5101 30.9733 87.2884 29.2119 85.8349 29.1257C83.162 33.2767 80.7539 33.8803 78.6106 30.9364C77.4281 29.3104 76.4365 28.0725 75.6359 27.2226C74.5273 26.0278 73.6035 24.6913 72.8644 23.2132C71.5341 20.4787 71.8051 20.0599 73.6774 21.9568C75.9808 24.2972 78.0933 26.8592 80.0148 29.643C81.2096 31.3798 82.2197 31.2751 83.045 29.3289C83.6362 27.9247 84.7201 26.9824 86.2968 26.502ZM46.1105 29.5322C46.1105 29.3215 46.1943 29.1194 46.3432 28.9704C46.4922 28.8214 46.6943 28.7377 46.905 28.7377H67.7834C67.9941 28.7377 68.1962 28.8214 68.3452 28.9704C68.4942 29.1194 68.5779 29.3215 68.5779 29.5322V29.7908C68.5779 30.0015 68.4942 30.2036 68.3452 30.3526C68.1962 30.5016 67.9941 30.5853 67.7834 30.5853H46.905C46.6943 30.5853 46.4922 30.5016 46.3432 30.3526C46.1943 30.2036 46.1105 30.0015 46.1105 29.7908V29.5322ZM24.8443 29.5917C24.8445 29.4776 24.8672 29.3647 24.911 29.2594C24.9548 29.1542 25.019 29.0585 25.0997 28.978C25.1805 28.8975 25.2763 28.8337 25.3818 28.7903C25.4872 28.7468 25.6002 28.7246 25.7142 28.7247L40.5693 28.7506C40.7996 28.7511 41.0202 28.8429 41.1828 29.0061C41.3453 29.1692 41.4364 29.3902 41.436 29.6205L41.4358 29.7313C41.4356 29.8454 41.413 29.9583 41.3692 30.0635C41.3253 30.1688 41.2612 30.2645 41.1804 30.345C41.0997 30.4255 41.0038 30.4893 40.8984 30.5327C40.7929 30.5762 40.68 30.5984 40.5659 30.5983L25.7109 30.5724C25.4806 30.5719 25.2599 30.4801 25.0974 30.3169C24.9349 30.1538 24.8438 29.9328 24.8442 29.7025L24.8443 29.5917ZM86.6848 47.2141C88.2122 45.8592 87.9658 44.8984 85.9457 44.3318C84.2829 43.8637 81.6284 43.6112 77.9824 43.5743C74.8291 43.5373 74.8291 43.3895 77.9824 43.1308C81.0618 42.8722 84.1104 42.9892 87.1282 43.4819C87.4126 43.5265 87.6756 43.649 87.8832 43.8335C88.0907 44.018 88.2332 44.2559 88.2923 44.5166C88.5632 45.736 88.8219 47.867 89.0683 50.9094C89.4255 55.2945 88.1136 57.7765 85.1328 58.3554C83.6054 58.6387 81.2958 58.688 78.2041 58.5032C73.856 58.2446 72.3163 55.547 73.585 50.4105C73.7575 49.7084 74.0223 49.6653 74.3795 50.2812C74.9954 51.3528 75.1986 52.7139 74.9892 54.3645C74.9569 54.6277 74.9982 54.8933 75.1101 55.1423C75.2221 55.3912 75.4019 55.6175 75.6368 55.8046C75.8717 55.9918 76.1558 56.1354 76.4687 56.225C76.7816 56.3146 77.1155 56.3481 77.4466 56.323L85.5023 55.6948C85.7353 55.6758 85.9633 55.6228 86.1732 55.5391C86.3831 55.4553 86.5707 55.3424 86.7252 55.2067C86.8798 55.0711 86.9982 54.9154 87.0737 54.7487C87.1492 54.5819 87.1803 54.4074 87.1652 54.2352L86.6848 48.5998L82.4352 53.1451C82.2669 53.3268 82.0205 53.4274 81.744 53.4274C81.4674 53.4274 81.1804 53.3268 80.9386 53.1451C77.7607 50.7062 75.0385 47.8177 72.772 44.4796C71.0968 42.0038 71.3432 41.3017 73.5111 42.3733C73.9299 42.5704 74.2871 42.8906 74.5827 43.3341C76.2087 45.8099 77.9947 48.2303 79.9409 50.5953C80.1452 50.8368 80.4051 51.0253 80.6979 51.1444C80.9908 51.2635 81.3077 51.3096 81.6211 51.2786C81.9344 51.2476 82.2347 51.1406 82.4958 50.9667C82.7569 50.7929 82.9708 50.5575 83.1189 50.2812C84.0796 48.5075 85.2683 47.4851 86.6848 47.2141ZM58.6206 50.2492C58.6217 50.1425 58.6438 50.037 58.6857 49.9388C58.7276 49.8406 58.7884 49.7516 58.8647 49.6769C58.941 49.6022 59.0312 49.5432 59.1303 49.5034C59.2293 49.4636 59.3353 49.4437 59.442 49.4448L67.4603 49.5288C67.6758 49.5311 67.8817 49.6189 68.0326 49.7729C68.1834 49.9269 68.2669 50.1345 68.2647 50.3501L68.2623 50.5718C68.2612 50.6786 68.2391 50.7841 68.1972 50.8823C68.1553 50.9805 68.0945 51.0695 68.0182 51.1442C67.9419 51.2189 67.8517 51.2779 67.7526 51.3177C67.6535 51.3575 67.5476 51.3774 67.4409 51.3763L59.4226 51.2922C59.207 51.29 59.0012 51.2022 58.8503 51.0482C58.6994 50.8942 58.616 50.6865 58.6182 50.471L58.6206 50.2492ZM28.1889 50.4933C28.1876 50.3866 28.2073 50.2806 28.247 50.1814C28.2866 50.0823 28.3454 49.9919 28.42 49.9155C28.4945 49.8391 28.5834 49.7781 28.6816 49.7361C28.7797 49.694 28.8852 49.6717 28.9919 49.6704L53.0095 49.377C53.2251 49.3744 53.4328 49.4575 53.5871 49.6081C53.7414 49.7587 53.8296 49.9644 53.8322 50.18L53.8331 50.2539C53.8345 50.3606 53.8147 50.4666 53.7751 50.5657C53.7355 50.6649 53.6767 50.7552 53.6021 50.8317C53.5275 50.9081 53.4386 50.9691 53.3405 51.0111C53.2424 51.0532 53.1369 51.0755 53.0302 51.0768L29.0126 51.3702C28.797 51.3728 28.5892 51.2897 28.4349 51.1391C28.2806 50.9885 28.1925 50.7828 28.1899 50.5672L28.1889 50.4933ZM85.724 78.0513C86.258 78.0094 86.7565 77.7691 87.1196 77.3785C87.4828 76.988 87.6838 76.476 87.6825 75.945V67.0393C87.6825 66.5948 87.5065 66.168 87.1923 65.8502C86.878 65.5325 86.4504 65.3492 86.0012 65.3395C72.3532 65.1424 72.1438 64.6436 85.373 63.8429C87.8365 63.6951 89.0683 65.6967 89.0683 69.8478C89.0683 71.8555 89.0313 73.8571 88.9574 75.8526C88.8712 78.3777 87.547 79.4617 84.985 79.1045C83.2728 78.8581 81.5668 78.8519 79.867 79.086C74.7306 79.7758 72.692 77.5709 73.7513 72.4714C73.8006 72.2497 73.8314 72.0403 73.8437 71.8432C74.3487 62.3463 74.6505 62.3463 74.749 71.8432C74.749 72.0403 74.7306 72.2497 74.6936 72.4714C73.7821 77.2014 75.6667 79.2461 80.3474 78.6056C82.1211 78.3716 83.9133 78.1868 85.724 78.0513ZM40.272 70.9933C40.272 70.8169 40.342 70.6477 40.4668 70.523C40.5915 70.3982 40.7607 70.3281 40.9371 70.3281H67.5802C67.7566 70.3281 67.9258 70.3982 68.0505 70.523C68.1752 70.6477 68.2453 70.8169 68.2453 70.9933V71.0302C68.2453 71.2067 68.1752 71.3758 68.0505 71.5006C67.9258 71.6253 67.7566 71.6954 67.5802 71.6954H40.9371C40.7607 71.6954 40.5915 71.6253 40.4668 71.5006C40.342 71.3758 40.272 71.2067 40.272 71.0302V70.9933ZM22.4237 70.6053C26.5132 70.0017 30.5657 70.1434 34.5812 71.0302C35.542 71.2396 35.542 71.3567 34.5812 71.3813L22.6455 71.7508C22.4499 71.7558 22.2595 71.7139 22.0938 71.6295C21.9282 71.545 21.7934 71.4211 21.7032 71.2704C21.5061 70.9255 21.7463 70.7038 22.4237 70.6053Z" fill="white"/>
<path d="M128.867 19.0378C131.207 20.1587 133.005 21.8524 134.262 24.1188C137.427 26.0773 140.71 26.2313 144.11 24.5807C145.773 21.9817 147.879 19.8261 150.429 18.114C151.722 10.6248 149.646 5.80249 144.202 3.6469C139.866 1.93475 135.888 2.37819 132.266 4.97721C128.165 7.94576 127.031 12.6326 128.867 19.0378Z" fill="white"/>
<path d="M164.286 11.1853V16.7283C166.355 21.6553 169.946 23.0411 175.058 20.8855C174.91 20.1218 175.23 19.3889 176.018 18.6868C178.186 16.7776 178.944 14.1231 178.291 10.7234C173.462 3.93642 168.794 4.0904 164.286 11.1853Z" fill="white"/>
<path d="M178.291 10.7231C178.944 14.1228 178.186 16.7773 176.018 18.6865C175.23 19.3886 174.91 20.1215 175.058 20.8852C179.135 18.6064 180.213 15.2191 178.291 10.7231Z" fill="white"/>
<path d="M164.286 11.1851C162.98 13.0327 162.98 14.8803 164.286 16.728V11.1851Z" fill="white"/>
<path d="M150.429 18.1138C147.879 19.8259 145.773 21.9815 144.11 24.5805C147.189 23.4103 149.295 21.2548 150.429 18.1138Z" fill="white"/>
<path d="M128.867 19.0376C129.704 21.7475 131.503 23.4411 134.262 24.1186C133.005 21.8522 131.207 20.1585 128.867 19.0376Z" fill="white"/>
<path d="M85.8348 29.1258C86.5615 28.2142 86.7155 27.3397 86.2967 26.5021C84.72 26.9825 83.6361 27.9248 83.0449 29.329C82.2196 31.2752 81.2095 31.3799 80.0147 29.6431C78.0932 26.8593 75.9807 24.2972 73.6773 21.9569C71.805 20.06 71.534 20.4788 72.8643 23.2133C73.6034 24.6914 74.5272 26.0279 75.6358 27.2227C76.4364 28.0726 77.428 29.3105 78.6105 30.9364C80.7538 33.8804 83.1619 33.2768 85.8348 29.1258Z" fill="#F16D22"/>
<path d="M86.2969 26.5024C86.7157 27.34 86.5617 28.2145 85.835 29.126C87.2884 29.2123 87.5102 30.9737 86.5001 34.4103C86.3926 34.7729 86.1709 35.0911 85.8679 35.3175C85.565 35.5439 85.197 35.6664 84.8187 35.6667H76.8554C76.5345 35.6669 76.2176 35.5963 75.9272 35.4598C75.6368 35.3234 75.38 35.1246 75.1753 34.8775C74.9706 34.6304 74.823 34.3412 74.7429 34.0305C74.6628 33.7198 74.6523 33.3952 74.7121 33.08C75.0078 31.5033 74.8907 30.0683 74.3611 28.775C74.0901 28.1098 73.8561 28.116 73.659 28.7935C73.0308 30.986 73.0924 33.1785 73.8437 35.3711C73.9459 35.6732 74.1191 35.9362 74.3382 36.1221C74.5573 36.308 74.8111 36.4073 75.0632 36.4058L86.7034 36.3134C87.0901 36.3097 87.4692 36.1522 87.7781 35.8667C88.0871 35.5813 88.3075 35.1849 88.4032 34.7429C89.3763 30.0252 89.3701 26.3361 88.3847 23.6755C88.2927 23.4326 88.1209 23.2241 87.8926 23.0786C87.6644 22.9331 87.391 22.8576 87.1098 22.8625C73.4126 22.9118 73.1909 23.2074 86.4447 23.7494C86.6356 23.7546 86.8167 23.8295 86.9483 23.9577C87.08 24.0859 87.1514 24.2568 87.1468 24.433C87.1468 25.209 86.8635 25.8988 86.2969 26.5024Z" fill="#21A0AA"/>
<path d="M190.984 38.0869C187.862 38.0869 185.331 35.5556 185.331 32.4331C185.331 29.3106 187.862 26.7793 190.984 26.7793C194.107 26.7793 196.638 29.3106 196.638 32.4331C196.638 35.5556 194.107 38.0869 190.984 38.0869Z" fill="white"/>
<path d="M46.905 28.7378H67.7834C68.2222 28.7378 68.5779 29.0935 68.5779 29.5323V29.7909C68.5779 30.2297 68.2222 30.5854 67.7834 30.5854H46.905C46.4662 30.5854 46.1105 30.2297 46.1105 29.7909V29.5323C46.1105 29.0935 46.4662 28.7378 46.905 28.7378Z" fill="#21A0AA"/>
<path d="M25.7141 28.725L40.5691 28.7509C41.0487 28.7518 41.4368 29.1412 41.436 29.6208L41.4358 29.7317C41.435 30.2113 41.0455 30.5994 40.5659 30.5986L25.7108 30.5726C25.2312 30.5718 24.8431 30.1823 24.844 29.7027L24.8442 29.5919C24.845 29.1123 25.2345 28.7242 25.7141 28.725Z" fill="#21A0AA"/>
<path d="M86.6849 48.5998C86.7958 48.1318 86.7958 47.6699 86.6849 47.2141C85.2684 47.4851 84.0797 48.5075 83.119 50.2812C82.9709 50.5575 82.757 50.7929 82.4959 50.9667C82.2348 51.1405 81.9345 51.2476 81.6212 51.2786C81.3078 51.3096 80.9909 51.2635 80.698 51.1444C80.4052 51.0253 80.1453 50.8368 79.941 50.5953C77.9948 48.2303 76.2088 45.8099 74.5828 43.3341C74.2872 42.8906 73.93 42.5704 73.5112 42.3733C71.3433 41.3016 71.0969 42.0037 72.7721 44.4796C75.0386 47.8177 77.7608 50.7062 80.9387 53.145C81.1805 53.3268 81.4675 53.4274 81.7441 53.4274C82.0207 53.4274 82.267 53.3268 82.4353 53.145L86.6849 48.5998Z" fill="#F16D22"/>
<path d="M86.6847 47.2144C86.7956 47.6702 86.7956 48.1321 86.6847 48.6002L87.1651 54.2355C87.1802 54.4077 87.1491 54.5822 87.0736 54.749C86.9981 54.9157 86.8796 55.0714 86.7251 55.207C86.5706 55.3427 86.383 55.4556 86.1731 55.5394C85.9632 55.6232 85.7352 55.6761 85.5022 55.6951L77.4465 56.3233C77.1154 56.3484 76.7814 56.3149 76.4686 56.2253C76.1557 56.1357 75.8716 55.9922 75.6367 55.805C75.4018 55.6178 75.222 55.3915 75.11 55.1426C74.998 54.8936 74.9568 54.628 74.9891 54.3648C75.1985 52.7142 74.9953 51.3531 74.3794 50.2815C74.0222 49.6656 73.7573 49.7087 73.5849 50.4109C72.3162 55.5473 73.8559 58.2449 78.204 58.5035C81.2957 58.6883 83.6053 58.639 85.1327 58.3557C88.1135 57.7768 89.4254 55.2948 89.0682 50.9097C88.8218 47.8673 88.5631 45.7363 88.2921 44.5169C88.2331 44.2562 88.0906 44.0183 87.883 43.8338C87.6755 43.6493 87.4125 43.5268 87.1281 43.4822C84.1103 42.9895 81.0617 42.8725 77.9823 43.1311C74.829 43.3898 74.829 43.5376 77.9823 43.5746C81.6283 43.6115 84.2827 43.864 85.9456 44.3321C87.9657 44.8987 88.2121 45.8595 86.6847 47.2144Z" fill="#21A0AA"/>
<path d="M187.455 51.7595C190.744 54.2107 192.721 57.4441 193.386 61.4596C193.416 61.6569 193.4 61.8511 193.339 62.0093C193.278 62.1675 193.178 62.2801 193.054 62.328C192.783 62.4266 192.573 62.1987 192.426 61.6444C191.76 59.2055 189.771 56.2431 186.458 52.7572C181.703 50.811 177.33 50.6632 173.339 52.3138C169.57 53.8781 166.904 56.8036 165.339 61.0901C162.568 68.7024 165.21 75.6434 173.266 81.9131C173.56 82.1421 173.773 82.4597 173.873 82.8191C173.973 83.1785 173.954 83.5605 173.82 83.9085C173.266 85.325 173.346 86.8216 174.06 88.3983C176.277 88.4476 178.439 88.1458 180.545 87.4929C183.083 86.6923 183.606 85.4852 182.116 83.8716C182.067 83.8223 181.543 83.5698 180.545 83.114L179.455 82.6152C178.273 82.0732 178.359 81.8453 179.714 81.9315L192.536 82.7445C194.975 82.9046 195.006 83.3727 192.629 84.1487C190.338 84.9001 189.309 85.8177 189.543 86.9017C189.679 87.5422 190.399 88.2258 191.705 88.9526C194.008 90.2459 196.25 91.6255 198.43 93.0913C199.822 94.0398 200.986 94.5941 201.923 94.7542C204.682 95.2346 205.205 93.4547 203.493 89.4145C202.705 87.5545 203.043 87.3205 204.509 88.7124C209.042 93.0236 212.596 97.9752 215.17 103.567C217.129 107.829 219.629 108.18 222.672 104.621C226.207 100.494 230.198 96.9098 234.644 93.8673C234.804 86.76 236.289 79.9792 239.097 73.5247C240.489 70.3222 241.049 67.6616 240.778 65.5429C239.966 59.0269 236.184 54.5002 229.434 51.9627C225.172 50.3491 220.676 50.7371 215.946 53.1268C215.777 53.2095 215.592 53.2533 215.404 53.2549C215.216 53.2565 215.03 53.216 214.86 53.1362C214.69 53.0564 214.54 52.9394 214.421 52.7939C214.302 52.6484 214.217 52.478 214.172 52.2953C213.766 50.5832 212.879 49.0312 211.512 47.6393C210.416 46.5184 208.962 45.5822 207.151 44.8308C198.812 41.345 192.247 43.6545 187.455 51.7595Z" fill="#5B2448"/>
<path d="M59.4419 49.4451L67.4603 49.5291C67.9092 49.5338 68.2694 49.9016 68.2647 50.3505L68.2624 50.5722C68.2577 51.0212 67.8899 51.3813 67.4409 51.3766L59.4226 51.2927C58.9736 51.288 58.6135 50.9202 58.6182 50.4712L58.6205 50.2495C58.6252 49.8006 58.993 49.4404 59.4419 49.4451Z" fill="#21A0AA"/>
<path d="M28.9918 49.6706L53.0094 49.3771C53.4583 49.3716 53.8267 49.7311 53.8322 50.1801L53.8331 50.254C53.8386 50.7029 53.4791 51.0713 53.0301 51.0768L29.0125 51.3703C28.5636 51.3758 28.1952 51.0163 28.1897 50.5673L28.1888 50.4934C28.1833 50.0444 28.5428 49.676 28.9918 49.6706Z" fill="#21A0AA"/>
<path d="M187.455 51.7598C187 51.9692 186.667 52.3017 186.458 52.7575C189.771 56.2434 191.76 59.2058 192.426 61.6447C192.573 62.199 192.783 62.4268 193.054 62.3283C193.178 62.2804 193.278 62.1678 193.339 62.0095C193.4 61.8513 193.416 61.6571 193.386 61.4599C192.721 57.4444 190.744 54.211 187.455 51.7598Z" fill="#9B3C81"/>
<path d="M85.7241 78.0515C83.9134 78.187 82.1212 78.3717 80.3475 78.6057C75.6668 79.2463 73.7822 77.2015 74.6937 72.4716C74.7306 72.2499 74.7491 72.0405 74.7491 71.8434C74.6506 62.3465 74.3488 62.3465 73.8438 71.8434C73.8314 72.0405 73.8007 72.2499 73.7514 72.4716C72.6921 77.5711 74.7306 79.7759 79.8671 79.0861C81.5669 78.8521 83.2729 78.8583 84.9851 79.1046C87.5471 79.4618 88.8713 78.3779 88.9575 75.8528C89.0314 73.8573 89.0684 71.8557 89.0684 69.8479C89.0684 65.6969 87.8366 63.6953 85.3731 63.8431C72.1439 64.6437 72.3533 65.1426 86.0013 65.3397C86.4505 65.3493 86.8781 65.5327 87.1924 65.8504C87.5066 66.1681 87.6826 66.595 87.6826 67.0395V75.9451C87.6839 76.4761 87.4829 76.9881 87.1197 77.3787C86.7566 77.7693 86.2581 78.0096 85.7241 78.0515Z" fill="#21A0AA"/>
<path d="M86.6849 72.5998C86.7958 72.1318 86.7958 71.6699 86.6849 71.2141C85.2684 71.4851 84.0797 72.5075 83.119 74.2812C82.9709 74.5575 82.757 74.7929 82.4959 74.9667C82.2348 75.1405 81.9345 75.2476 81.6212 75.2786C81.3078 75.3096 80.9909 75.2635 80.698 75.1444C80.4052 75.0253 80.1453 74.8368 79.941 74.5953C77.9948 72.2303 76.2088 69.8099 74.5828 67.3341C74.2872 66.8906 73.93 66.5704 73.5112 66.3733C71.3433 65.3016 71.0969 66.0037 72.7721 68.4796C75.0386 71.8177 77.7608 74.7062 80.9387 77.145C81.1805 77.3268 81.4675 77.4274 81.7441 77.4274C82.0207 77.4274 82.267 77.3268 82.4353 77.145L86.6849 72.5998Z" fill="#F16D22"/>
<path d="M40.9372 70.3281H67.5802C67.9476 70.3281 68.2454 70.6259 68.2454 70.9933V71.0302C68.2454 71.3976 67.9476 71.6954 67.5802 71.6954H40.9372C40.5698 71.6954 40.272 71.3976 40.272 71.0302V70.9933C40.272 70.6259 40.5698 70.3281 40.9372 70.3281Z" fill="#21A0AA"/>
<path d="M22.4237 70.6054C21.7462 70.7039 21.506 70.9256 21.7031 71.2705C21.7933 71.4212 21.9282 71.5451 22.0938 71.6296C22.2594 71.714 22.4498 71.7559 22.6454 71.7509L34.5812 71.3814C35.542 71.3568 35.542 71.2397 34.5812 71.0304C30.5656 70.1435 26.5131 70.0018 22.4237 70.6054Z" fill="#21A0AA"/>
<path d="M174.06 88.3981C173.592 96.7002 173.093 101.874 172.563 103.918C171.689 107.244 169.496 112.805 165.986 120.603C164.224 124.532 163.338 127.537 163.325 129.619C163.325 133.487 164.939 136.468 168.166 138.562C175.618 143.365 184.666 144.764 195.308 142.756C200.74 141.056 205.784 138.574 210.44 135.31C211.536 134.558 212.041 134.842 211.955 136.16C211.302 146.272 206.037 152.191 196.158 153.916C195.813 156.835 195.53 159.76 195.308 162.692C195.197 164.145 194.735 164.891 193.922 164.927C192.678 165.679 192.148 166.787 192.333 168.253C192.432 168.992 192.426 169.596 192.315 170.064C190.27 178.908 190.036 187.075 191.613 194.564C192.241 197.545 193.861 199.497 196.472 200.421C198.517 201.135 200.752 200.901 203.179 199.719C208.685 197.009 212.325 192.507 214.098 186.212C215.01 182.96 215.651 182.757 216.02 185.603C216.069 186.009 216.039 186.44 215.928 186.896C215.041 190.32 214.659 193.8 214.782 197.335L218.015 193.64C217.338 190.376 217.566 186.816 218.699 182.961C218.97 182.012 219.192 182.031 219.364 183.016L220.713 190.942L222.635 189.021C221.009 184.266 220.109 179.382 219.937 174.369C219.932 174.249 219.951 174.128 219.993 174.015C220.036 173.902 220.1 173.799 220.182 173.711C220.265 173.624 220.364 173.553 220.474 173.504C220.585 173.455 220.703 173.429 220.824 173.427C231.392 173.279 240.489 169.645 248.114 162.526C248.557 162.107 248.785 162.199 248.797 162.803C248.883 171.154 247.646 179.314 245.083 187.284C243.913 190.918 241.758 194.385 238.617 197.686C235.426 201.024 231.897 201.523 228.03 199.183C227.402 199.626 226.964 200.218 226.718 200.957C231.842 203.285 236.27 202.502 240.002 198.61C243.39 195.063 245.823 190.659 247.301 185.399C249.567 177.368 250.688 169.183 250.663 160.844C249.863 161.645 249.241 161.528 248.797 160.493C243.612 148.508 238.229 136.615 232.649 124.815C230.456 125.443 228.436 125.283 226.589 124.335C225.763 123.928 225.8 123.713 226.699 123.688L232.723 123.503C240.175 121.742 245.755 117.751 249.462 111.531C251.556 108.032 251.643 104.319 249.721 100.389C246.691 94.2428 241.665 92.0687 234.644 93.8671C230.198 96.9096 226.207 100.494 222.672 104.62C219.629 108.18 217.129 107.829 215.17 103.567C212.596 97.975 209.042 93.0233 204.509 88.7122C203.043 87.3203 202.705 87.5543 203.493 89.4143C205.205 93.4545 204.682 95.2344 201.923 94.754C200.986 94.5939 199.822 94.0396 198.43 93.0911C196.25 91.6253 194.008 90.2457 191.705 88.9524C190.399 88.2256 189.679 87.542 189.543 86.9015C189.309 85.8175 190.338 84.8999 192.629 84.1485C195.006 83.3725 194.975 82.9044 192.536 82.7443L179.714 81.9313C178.359 81.8451 178.273 82.073 179.455 82.615L180.545 83.1138C181.543 83.5696 182.067 83.8221 182.116 83.8713C183.606 85.485 183.083 86.6921 180.545 87.4927C178.439 88.1456 176.277 88.4474 174.06 88.3981ZM179.511 100.278C177.7 99.8227 176.419 98.8496 175.667 97.3592C175.617 97.2566 175.592 97.1437 175.593 97.0285C175.595 96.9133 175.623 96.7987 175.676 96.6928C175.729 96.587 175.805 96.4924 175.899 96.416C175.994 96.3395 176.104 96.283 176.222 96.2506C184.561 93.7008 185.842 95.9857 180.065 103.105C179.831 103.393 179.716 103.976 179.736 104.78C179.756 105.584 179.909 106.572 180.176 107.614C180.619 109.313 180.274 109.584 179.141 108.427C178.895 108.192 178.71 107.928 178.587 107.632C177.491 105.169 177.872 102.988 179.732 101.091C180.126 100.685 180.053 100.414 179.511 100.278ZM199.133 101.369C195.856 102.662 192.697 102.606 189.654 101.202C189.396 101.081 189.169 100.901 188.992 100.676C188.816 100.452 188.695 100.189 188.638 99.9089C187.936 96.3861 188.89 95.1913 191.502 96.3245C193.436 97.1498 194.47 97.587 194.606 97.6363C196.281 98.166 197.716 98.5478 198.911 98.7818C201.892 99.3854 201.966 100.248 199.133 101.369ZM228.436 112.344C227.623 114.093 227.5 114.062 228.067 112.251C229.988 106.08 234.152 102.526 240.557 101.59C241.37 101.479 241.832 101.64 241.942 102.071C241.971 102.177 241.967 102.29 241.93 102.401C241.893 102.512 241.824 102.619 241.728 102.715C241.632 102.812 241.51 102.894 241.372 102.958C241.234 103.022 241.082 103.066 240.926 103.087C235.125 103.826 230.961 106.911 228.436 112.344ZM197.193 113.618C197.193 111.531 198.022 109.529 199.498 108.053C200.974 106.577 202.976 105.747 205.064 105.747C207.151 105.747 209.153 106.577 210.629 108.053C212.105 109.529 212.934 111.531 212.934 113.618C212.934 115.706 212.105 117.708 210.629 119.184C209.153 120.66 207.151 121.489 205.064 121.489C202.976 121.489 200.974 120.66 199.498 119.184C198.022 117.708 197.193 115.706 197.193 113.618ZM184.684 117.85C185.679 117.624 186.546 117.029 187.104 116.187C188.977 113.366 190.018 112.467 190.227 113.489C190.35 114.08 190.208 114.832 189.802 115.743C188.114 119.574 185.01 120.787 180.49 119.383C178.975 118.903 178.464 118.305 178.956 117.591C179.082 117.406 179.3 117.284 179.571 117.247C179.841 117.21 180.147 117.26 180.434 117.388C181.839 118.028 183.255 118.182 184.684 117.85ZM196.287 167.089C202.163 170.329 208.636 172.515 215.706 173.648C215.792 173.664 215.874 173.696 215.948 173.744C216.022 173.791 216.085 173.853 216.135 173.925C216.185 173.997 216.22 174.078 216.238 174.164C216.257 174.25 216.258 174.338 216.242 174.424C214.727 182.086 211.789 188.818 207.428 194.619C204.977 197.871 201.904 199.405 198.209 199.22C195.536 199.072 193.953 197.686 193.46 195.063C191.834 186.342 192.265 177.233 194.754 167.736C194.795 167.581 194.871 167.437 194.977 167.316C195.082 167.195 195.214 167.099 195.362 167.037C195.51 166.975 195.67 166.947 195.831 166.956C195.991 166.965 196.147 167.011 196.287 167.089Z" fill="#F3ACA1"/>
<path d="M29.0198 90.7077C31.0522 95.4993 34.5935 98.5541 39.6438 99.8721C40.198 99.17 40.0749 98.7327 39.2742 98.5602C38.7815 98.4494 38.4305 98.3447 38.2211 98.2461C34.9199 96.5709 32.5057 94.3045 30.9783 91.4468C30.5349 90.6215 29.882 90.3752 29.0198 90.7077Z" fill="white"/>
<path d="M179.732 101.092C177.872 102.988 177.49 105.169 178.587 107.632C178.71 107.928 178.895 108.193 179.141 108.427C180.274 109.585 180.619 109.314 180.176 107.614C179.909 106.572 179.756 105.584 179.736 104.781C179.716 103.977 179.831 103.393 180.065 103.105C185.842 95.9859 184.561 93.701 176.222 96.2507C176.104 96.2832 175.994 96.3397 175.899 96.4161C175.805 96.4926 175.729 96.5871 175.676 96.693C175.623 96.7989 175.594 96.9135 175.593 97.0287C175.592 97.1438 175.617 97.2567 175.667 97.3593C176.419 98.8497 177.7 99.8228 179.51 100.279C180.052 100.414 180.126 100.685 179.732 101.092Z" fill="#5B2448"/>
<path d="M199.132 101.369C201.965 100.248 201.891 99.3858 198.911 98.7822C197.716 98.5482 196.281 98.1663 194.606 97.6367C194.47 97.5874 193.435 97.1501 191.502 96.3249C188.89 95.1916 187.936 96.3864 188.638 99.9093C188.694 100.189 188.816 100.452 188.992 100.677C189.169 100.901 189.395 101.081 189.654 101.203C192.696 102.607 195.856 102.662 199.132 101.369Z" fill="#5B2448"/>
<path d="M228.436 112.344C230.961 106.912 235.124 103.826 240.926 103.087C241.082 103.067 241.234 103.023 241.372 102.959C241.51 102.895 241.631 102.812 241.728 102.716C241.824 102.62 241.892 102.513 241.93 102.401C241.967 102.29 241.971 102.178 241.942 102.071C241.831 101.64 241.37 101.48 240.557 101.591C234.151 102.527 229.988 106.08 228.066 112.252C227.5 114.062 227.623 114.093 228.436 112.344Z" fill="#A34B8A"/>
<path d="M205.063 121.489C200.716 121.489 197.192 117.966 197.192 113.619C197.192 109.272 200.716 105.748 205.063 105.748C209.41 105.748 212.934 109.272 212.934 113.619C212.934 117.966 209.41 121.489 205.063 121.489Z" fill="#EB8D90"/>
<path d="M60.8178 122.044C61.717 125.37 63.4353 128.166 65.9727 130.432C68.2022 131.787 70.6411 132.225 73.2894 131.744C73.856 130.82 73.7267 130.026 72.9014 129.361C70.6103 129.669 68.6087 129.102 66.8966 127.661C65.0366 126.429 64.1374 124.711 64.199 122.506C62.3883 119.427 62.3637 116.809 64.1251 114.653C67.1675 110.921 70.247 111.229 73.3633 115.577C74.4596 117.105 75.3834 119.39 76.1348 122.432H77.9824C77.7977 118.133 75.9993 114.715 72.5873 112.178C68.4116 109.074 64.975 109.591 62.2774 113.73C60.8609 115.91 60.3744 118.681 60.8178 122.044Z" fill="#F6CD2F" fill-opacity="0.996"/>
<path d="M86.6848 122.968C87.7934 126.269 89.5117 129.219 91.8398 131.818C94.1432 132.951 96.5821 133.389 99.1564 133.13V131.282C96.5944 131.295 94.4388 130.371 92.6897 128.511C91.384 127.267 90.4848 125.752 89.9921 123.966C88.9944 122.414 88.7234 120.701 89.1791 118.829C90.5587 113.175 93.5642 112.128 98.1957 115.688C100.031 117.105 101.3 119.661 102.002 123.356C102.667 124.07 103.307 124.095 103.923 123.43C103.714 119.771 102.47 116.803 100.191 114.524C97.7769 112.135 95.0115 111.352 91.8952 112.178C87.7318 113.262 85.9951 116.858 86.6848 122.968Z" fill="#F6CD2F" fill-opacity="0.996"/>
<path d="M184.684 117.849C183.255 118.182 181.838 118.028 180.434 117.388C180.147 117.26 179.841 117.21 179.571 117.247C179.3 117.284 179.082 117.406 178.956 117.591C178.463 118.305 178.975 118.903 180.49 119.383C185.01 120.787 188.114 119.574 189.802 115.743C190.208 114.832 190.35 114.08 190.227 113.489C190.017 112.467 188.977 113.366 187.104 116.187C186.546 117.029 185.679 117.624 184.684 117.849Z" fill="#A34B8A"/>
<path d="M112.699 123.891L117.781 133.13C120.207 134.337 122.621 134.491 125.023 133.591C125.368 132.458 125.085 131.664 124.173 131.208C122.424 131.651 120.86 131.368 119.48 130.358C117.029 129.176 115.822 127.199 115.859 124.427C114.073 119.512 114.855 116.544 118.205 115.521C120.731 114.745 122.917 115.361 124.765 117.369C126.551 119.303 127.456 121.785 127.481 124.815C128.318 125.345 129.217 125.474 130.178 125.203C129.858 121.582 128.608 118.576 126.428 116.187C124.087 113.637 121.328 112.682 118.15 113.323C113.851 114.185 112.034 117.708 112.699 123.891Z" fill="#F6CD2F" fill-opacity="0.996"/>
<path d="M64.1991 122.506C64.1376 124.711 65.0367 126.429 66.8967 127.661C69.5696 126.54 71.5713 127.107 72.9016 129.361C73.7268 130.026 73.8562 130.82 73.2896 131.744C73.4743 132.717 73.1417 133.426 72.2918 133.869C68.5473 135.84 66.441 134.694 65.9729 130.432C63.4355 128.166 61.7172 125.37 60.818 122.044C53.452 121.108 50.7421 124.15 52.6883 131.171C54.0309 136 55.5583 143.735 57.2705 154.378H58.1574C58.7363 154.378 59.2906 154.23 59.8202 153.934C70.7336 147.8 82.5093 145.645 95.1472 147.468C98.1527 147.899 98.7193 149.309 96.847 151.699C95.8739 152.931 94.2049 154.002 91.8399 154.914C91.2733 155.234 90.8114 155.647 90.4542 156.152C91.7475 156.533 94.673 157.174 99.2305 158.073C100.598 158.344 101.466 159.12 101.836 160.401C101.907 160.655 101.894 160.932 101.799 161.201C101.704 161.469 101.531 161.717 101.3 161.916C98.6392 164.183 95.6399 165.852 92.3018 166.923C92.1294 168.118 91.3595 168.685 89.9923 168.623C93.9462 168.808 97.7647 169.646 101.448 171.136C103.505 171.974 103.653 173.07 101.891 174.425C97.3582 177.911 92.0062 180.337 85.8351 181.705C85.909 182.69 85.4471 183.257 84.4493 183.404L96.3666 185.455C100.062 186.083 100.234 187.401 96.884 189.409C89.8136 193.659 81.9735 196.941 73.3635 199.257C74.2011 200.403 73.9301 201.031 72.5505 201.142C68.5842 201.474 67.1369 203.747 68.2085 207.96C69.8591 213.761 71.2695 219.618 72.4396 225.531C72.957 228.191 73.85 230.002 75.1187 230.963C76.8432 232.268 79.0296 232.786 81.6779 232.515L161.127 235.6C160.117 235.132 159.901 234.541 160.48 233.827C160.872 233.359 161.154 232.807 161.304 232.212C161.454 231.618 161.469 230.995 161.348 230.39L139.879 126.127L130.179 125.204C129.218 125.475 128.319 125.345 127.481 124.816L115.859 124.428C115.822 127.199 117.029 129.176 119.481 130.359C121.538 128.806 123.102 129.09 124.174 131.208C125.085 131.664 125.368 132.459 125.024 133.592C125.147 135.784 124.248 137.016 122.326 137.287C119.308 137.706 117.793 136.32 117.781 133.13L112.7 123.892C109.731 124.532 106.806 124.378 103.923 123.43C103.308 124.095 102.667 124.07 102.002 123.356L89.9923 123.966C90.485 125.752 91.3842 127.267 92.6898 128.511C95.8431 127.328 97.9987 128.252 99.1566 131.282V133.13C95.8308 137.971 93.3919 137.534 91.8399 131.818C89.5119 129.219 87.7936 126.269 86.685 122.968L77.9826 122.432H76.1349L64.1991 122.506Z" fill="#66B0F0"/>
<path d="M232.723 123.503L226.699 123.688C225.8 123.713 225.763 123.928 226.588 124.335C228.436 125.283 230.456 125.443 232.649 124.815L232.723 123.503Z" fill="#A34B8A"/>
<path d="M139.878 126.127L161.348 230.39C161.469 230.994 161.454 231.617 161.304 232.212C161.153 232.807 160.872 233.359 160.48 233.826C159.901 234.541 160.116 235.132 161.126 235.6C164.834 234.565 166.201 232.231 165.228 228.597C164.797 227.021 164.575 226.195 164.563 226.121C159.845 203.149 155.183 180.158 150.576 157.149C148.445 147.935 146.419 138.697 144.497 129.434C144.042 127.242 142.502 126.139 139.878 126.127Z" fill="#AFDBF7"/>
<path d="M66.8965 127.661C68.6087 129.102 70.6103 129.669 72.9014 129.361C71.5711 127.107 69.5694 126.54 66.8965 127.661Z" fill="#5B2448"/>
<path d="M92.6897 128.511C94.4388 130.371 96.5944 131.294 99.1565 131.282C97.9986 128.252 95.8431 127.328 92.6897 128.511Z" fill="#9B3C81"/>
<path d="M119.481 130.358C120.86 131.368 122.424 131.652 124.174 131.208C123.102 129.09 121.538 128.806 119.481 130.358Z" fill="#5B2448"/>
<path d="M65.9727 130.432C66.4408 134.694 68.5471 135.84 72.2916 133.869C73.1416 133.425 73.4741 132.717 73.2894 131.744C70.6411 132.224 68.2022 131.787 65.9727 130.432Z" fill="#371225"/>
<path d="M91.8398 131.818C93.3918 137.533 95.8307 137.971 99.1565 133.13C96.5821 133.388 94.1432 132.951 91.8398 131.818Z" fill="#5B2448"/>
<path d="M117.781 133.13C117.793 136.32 119.308 137.706 122.326 137.287C124.248 137.016 125.147 135.784 125.024 133.592C122.622 134.491 120.207 134.337 117.781 133.13Z" fill="#5B2448"/>
<path d="M195.308 142.756L196.158 153.916C206.037 152.191 211.302 146.273 211.955 136.16C212.041 134.842 211.536 134.559 210.44 135.31C205.784 138.574 200.74 141.056 195.308 142.756Z" fill="#5B2448"/>
<path d="M57.2703 154.377C41.048 165.118 31.1693 179.592 27.6341 197.797C24.9365 211.654 23.7233 227.513 23.9942 245.374C24.2529 263.481 27.0121 281.187 32.2717 298.494C34.4765 305.773 37.6422 312.604 41.7686 318.984C51.0068 333.297 64.2729 340.719 81.5668 341.248C102.421 341.889 118.741 334.067 130.529 317.783C134.2 312.708 137.501 306.599 140.433 299.455C140.531 299.208 140.63 298.789 140.728 298.198C140.864 297.299 141.35 297.114 142.188 297.644C142.878 297.496 143.494 296.855 144.036 295.722C150.527 282.136 157.179 266.105 163.99 247.628C164.155 247.192 164.205 246.72 164.138 246.255C164.07 245.79 163.886 245.347 163.602 244.967C163.331 244.623 163.073 244.82 162.826 245.559C157.222 262.188 150.515 278.361 142.705 294.078C141.757 295.987 140.969 295.895 140.34 293.801C129.673 283.171 117.485 273.92 103.776 266.049C102.716 265.446 102.427 265.704 102.907 266.825C105.383 272.664 107.539 278.909 109.374 285.56C109.534 286.151 109.565 286.57 109.466 286.817C109.208 287.531 108.912 287.359 108.579 286.299C104.552 273.23 98.9716 260.845 91.8397 249.143C87.8242 243.982 84.4368 238.439 81.6777 232.514C79.0294 232.785 76.843 232.268 75.1185 230.962C73.8498 230.002 72.9568 228.191 72.4395 225.53C71.2693 219.618 69.8589 213.761 68.2084 207.959C66.1883 212.763 63.5585 215.806 60.3189 217.087C57.7692 218.097 57.0855 217.875 58.268 216.421C58.5021 216.126 58.847 215.861 59.3027 215.627C64.1066 213.102 66.4346 208.52 66.2868 201.88C66.2818 201.582 66.3674 201.293 66.5291 201.064C66.6908 200.835 66.9186 200.68 67.1737 200.624L73.3633 199.257C81.9733 196.941 89.8135 193.658 96.8838 189.409C100.234 187.401 100.062 186.083 96.3665 185.455L84.4492 183.404C77.2557 183.7 70.561 185.597 64.3653 189.095C62.9487 189.895 62.6654 189.587 63.5153 188.171C63.6755 187.9 63.9033 187.672 64.199 187.487C70.8135 183.509 78.0255 181.581 85.8349 181.704C92.006 180.337 97.358 177.91 101.891 174.424C103.652 173.069 103.505 171.973 101.447 171.136C97.7645 169.645 93.9461 168.808 89.9921 168.623C81.4437 168.931 73.1601 170.507 65.1413 173.353C62.493 174.301 62.0619 173.975 63.8479 172.374C64.1066 172.152 64.4022 171.979 64.7348 171.856C73.5789 168.42 82.7678 166.775 92.3016 166.923C95.6397 165.851 98.6391 164.182 101.3 161.916C101.531 161.717 101.704 161.469 101.799 161.2C101.894 160.932 101.906 160.654 101.835 160.401C101.466 159.12 100.598 158.344 99.2303 158.073C94.6728 157.174 91.7474 156.533 90.454 156.151C81.6469 157.235 73.1231 159.378 64.8826 162.581C64.6732 162.655 64.4761 162.68 64.2914 162.655C63.4414 162.532 63.4846 162.236 64.4207 161.768C73.043 157.469 82.1827 155.184 91.8397 154.913C94.2047 154.002 95.8738 152.93 96.8469 151.698C98.7191 149.309 98.1525 147.898 95.147 147.467C82.5091 145.644 70.7335 147.8 59.8201 153.934C59.2904 154.23 58.7361 154.377 58.1572 154.377H57.2703Z" fill="#F4ADA2"/>
<path d="M250.663 160.845C250.688 169.184 249.567 177.369 247.3 185.4C245.822 190.66 243.39 195.063 240.002 198.611C236.27 202.503 231.842 203.285 226.718 200.957L221.175 206.5C235.734 208.151 249.413 212.499 262.211 219.544C276.696 227.514 290.437 236.395 303.432 246.187C304.91 247.296 305.212 247.037 304.337 245.411C301.812 240.731 299.262 236.075 296.688 231.443C296.516 231.148 296.429 230.858 296.429 230.575C296.429 229.823 296.731 229.62 297.335 229.965C297.581 230.101 297.797 230.341 297.981 230.686C300.814 235.748 303.66 240.805 306.517 245.855C308.193 248.823 310.373 251.404 313.058 253.596C320.055 259.287 326.996 265.039 333.881 270.853L336.117 270.318C336.191 270.034 336.369 269.856 336.653 269.782C354.144 261.406 372.158 254.372 390.696 248.682C396.707 246.736 402.829 246.077 409.062 246.705C409.197 246.717 409.542 246.834 410.096 247.056C410.491 247.228 410.669 246.976 410.632 246.298C392.759 224.447 372.934 204.535 351.157 186.564C339.96 177.326 328.621 169.559 317.141 163.265C310.773 159.779 303.604 156.866 295.635 154.526C279.511 149.796 264.521 151.902 250.663 160.845Z" fill="#F16D22"/>
<path d="M91.8398 154.914C82.1828 155.185 73.0432 157.469 64.4208 161.768C63.4847 162.236 63.4415 162.532 64.2915 162.655C64.4762 162.68 64.6733 162.655 64.8827 162.581C73.1232 159.379 81.647 157.235 90.4541 156.151C90.8113 155.646 91.2732 155.234 91.8398 154.914Z" fill="#9B3C81"/>
<path d="M150.576 157.149C155.183 180.158 159.845 203.149 164.563 226.121C164.575 226.195 164.797 227.021 165.228 228.597C166.201 232.231 164.834 234.565 161.126 235.6L81.6778 232.514C84.4369 238.439 87.8243 243.982 91.8398 249.143C110.439 259.145 126.261 272.861 139.306 290.29C140.18 291.46 140.525 292.631 140.34 293.801C140.969 295.895 141.757 295.987 142.705 294.078C150.515 278.361 157.222 262.188 162.826 245.559C163.073 244.82 163.331 244.623 163.602 244.967C163.886 245.347 164.07 245.79 164.138 246.255C164.205 246.72 164.155 247.192 163.99 247.628C157.179 266.105 150.527 282.136 144.036 295.722C143.494 296.855 142.878 297.496 142.188 297.644C142.681 307.646 142.342 317.919 141.172 328.462C141.125 328.888 141.248 329.316 141.515 329.651C141.781 329.987 142.169 330.204 142.595 330.255C198.159 336.672 253.453 337.146 308.476 331.677C308.476 330.988 308.187 330.544 307.608 330.347C307.189 330.199 306.93 330.101 306.832 330.051C290.942 321.343 277.195 310.029 265.592 296.11C257.044 285.862 249.13 275.146 241.85 263.961C240.47 261.855 238.352 259.792 235.494 257.772H233.185C223.257 258.178 214.671 256.934 207.428 254.039C203.388 252.413 202.273 249.396 204.084 244.986C203.653 244.801 203.345 244.493 203.16 244.062C199.145 243.68 197.236 242.061 197.433 239.203C197.556 237.38 198.609 235.754 200.592 234.325C205.753 230.617 211.69 229.072 218.403 229.687C220.35 229.872 221.169 229.638 220.861 228.985C220.758 228.777 220.564 228.588 220.298 228.439C220.032 228.29 219.704 228.185 219.346 228.135C212.485 227.175 206.221 228.579 200.555 232.348C200.481 232.385 199.915 232.921 198.855 233.956C197.932 234.855 196.774 234.966 195.382 234.288L181.524 248.145L175.908 249.919C172.2 252.038 171.147 250.985 172.748 246.76C172.859 244.912 173.426 243.218 174.448 241.679C176.788 237.922 179.628 234.578 182.966 231.646C185.134 229.724 186.963 227.526 188.453 225.05C186.088 223.116 185.485 221.151 186.642 219.156C190.362 212.763 196.638 209.006 205.47 207.885L214.782 197.335C214.659 193.8 215.041 190.32 215.928 186.896C216.038 186.44 216.069 186.009 216.02 185.603C215.65 182.757 215.01 182.961 214.098 186.212C212.325 192.507 208.685 197.009 203.179 199.719C200.752 200.901 198.517 201.135 196.472 200.421C193.861 199.497 192.241 197.545 191.613 194.564C190.036 187.075 190.27 178.908 192.315 170.064C192.426 169.596 192.432 168.992 192.333 168.253C192.148 166.787 192.678 165.679 193.922 164.928C180.656 156.49 166.207 153.897 150.576 157.149Z" fill="#F16D22"/>
<path d="M222.634 189.021L227.18 184.79L231.189 180.263C231.486 179.934 231.918 179.74 232.407 179.717C232.895 179.693 233.407 179.841 233.85 180.134C239.996 184.162 240.39 188.023 235.032 191.719L228.03 199.183C231.897 201.523 235.426 201.025 238.617 197.687C241.758 194.385 243.913 190.918 245.083 187.284C247.645 179.315 248.883 171.154 248.797 162.803C248.785 162.199 248.557 162.107 248.113 162.526C240.489 169.645 231.392 173.279 220.824 173.427C220.703 173.429 220.584 173.456 220.474 173.505C220.364 173.554 220.265 173.624 220.182 173.712C220.1 173.799 220.035 173.903 219.993 174.016C219.951 174.129 219.932 174.249 219.937 174.369C220.109 179.383 221.008 184.266 222.634 189.021Z" fill="#F16D22"/>
<path d="M196.287 167.089C196.147 167.01 195.991 166.965 195.831 166.956C195.67 166.947 195.51 166.974 195.362 167.037C195.214 167.099 195.082 167.195 194.977 167.316C194.871 167.437 194.795 167.581 194.754 167.736C192.265 177.233 191.834 186.342 193.46 195.062C193.953 197.686 195.536 199.072 198.209 199.22C201.904 199.404 204.977 197.871 207.428 194.619C211.789 188.817 214.727 182.086 216.242 174.424C216.258 174.338 216.257 174.25 216.238 174.164C216.22 174.078 216.185 173.997 216.135 173.925C216.085 173.853 216.022 173.791 215.948 173.744C215.874 173.696 215.792 173.664 215.706 173.648C208.636 172.515 202.163 170.329 196.287 167.089Z" fill="#F16D22"/>
<path d="M92.3018 166.923C82.7679 166.775 73.579 168.42 64.7349 171.856C64.4023 171.98 64.1067 172.152 63.848 172.374C62.062 173.975 62.4931 174.301 65.1414 173.353C73.1602 170.508 81.4438 168.931 89.9922 168.623C91.3595 168.685 92.1293 168.118 92.3018 166.923Z" fill="#9B3C81"/>
<path d="M227.18 184.79L235.032 191.718C240.39 188.023 239.996 184.161 233.85 180.134C233.407 179.841 232.895 179.693 232.407 179.716C231.918 179.74 231.486 179.934 231.189 180.263L227.18 184.79Z" fill="#5B2448"/>
<path d="M85.8349 181.704C78.0255 181.581 70.8135 183.509 64.199 187.487C63.9033 187.672 63.6755 187.9 63.5153 188.171C62.6654 189.588 62.9487 189.896 64.3653 189.095C70.561 185.597 77.2557 183.7 84.4492 183.404C85.4469 183.256 85.9088 182.69 85.8349 181.704Z" fill="#A34B8A"/>
<path d="M218.015 193.64C219.346 193.209 220.245 192.31 220.713 190.942L219.364 183.016C219.192 182.03 218.97 182.012 218.699 182.96C217.566 186.816 217.338 190.376 218.015 193.64Z" fill="#F16D22"/>
<path d="M227.18 184.79L222.635 189.021L220.713 190.943C220.245 192.31 219.346 193.209 218.015 193.64L214.782 197.336L205.47 207.886L221.175 206.5L226.718 200.957C226.964 200.218 227.401 199.627 228.03 199.183L235.032 191.719L227.18 184.79Z" fill="#21A0AA"/>
<path d="M73.3633 199.257L67.1736 200.624C66.9185 200.68 66.6908 200.835 66.5291 201.064C66.3674 201.293 66.2817 201.582 66.2868 201.881C66.4346 208.52 64.1066 213.102 59.3027 215.627C58.8469 215.861 58.502 216.126 58.268 216.421C57.0855 217.875 57.7691 218.097 60.3189 217.087C63.5584 215.806 66.1882 212.763 68.2083 207.959C67.1367 203.747 68.584 201.474 72.5503 201.141C73.9299 201.031 74.2009 200.402 73.3633 199.257Z" fill="#9B3C81"/>
<path d="M221.175 206.5L205.47 207.885C196.638 209.006 190.362 212.763 186.642 219.156C185.484 221.151 186.088 223.116 188.453 225.05L192.924 226.897C198.418 219.236 205.969 216.12 215.576 217.548C218.693 218.004 218.878 218.472 216.131 218.953C215.823 219.014 215.496 219.027 215.151 218.99C206.184 218.053 198.978 220.997 193.534 227.821C193.337 230.186 193.953 232.342 195.382 234.288C196.774 234.966 197.931 234.855 198.855 233.956C199.915 232.921 200.481 232.385 200.555 232.348C206.221 228.579 212.485 227.175 219.346 228.135C219.704 228.185 220.032 228.29 220.298 228.439C220.564 228.588 220.758 228.776 220.861 228.985C221.169 229.638 220.35 229.872 218.403 229.687C211.69 229.072 205.753 230.617 200.592 234.325C198.609 235.754 197.556 237.38 197.433 239.203C197.235 242.06 199.145 243.68 203.16 244.062C208.666 239.726 214.948 238.002 222.006 238.889C222.336 238.935 222.641 239.034 222.899 239.177C223.158 239.321 223.364 239.507 223.503 239.72C224.094 240.656 223.318 240.995 221.175 240.736C214.856 239.973 209.159 241.389 204.084 244.986C202.273 249.396 203.388 252.413 207.428 254.039C214.671 256.934 223.256 258.178 233.184 257.772C228.06 253.46 222.185 251.607 215.558 252.21C215.115 252.247 214.573 252.395 213.932 252.654C212.725 253.122 212.14 252.992 212.177 252.266C212.189 252.018 212.304 251.776 212.505 251.579C212.706 251.382 212.98 251.24 213.285 251.176C221.821 249.34 229.224 251.539 235.494 257.772C238.352 259.792 240.47 261.855 241.85 263.961C249.13 275.146 257.044 285.862 265.592 296.11C277.195 310.029 290.942 321.343 306.832 330.051C306.93 330.101 307.189 330.199 307.608 330.347C308.187 330.544 308.476 330.988 308.476 331.677C309.055 331.702 309.597 331.844 310.102 332.102C330.032 342.24 349.494 343.237 368.487 335.096C376.925 331.486 383.613 326.744 388.553 320.869C394.145 314.242 397.631 306.476 399.011 297.57C400.439 288.393 400.002 278.539 397.699 268.008L393.93 257.31C376.907 260.278 360.093 264.14 343.489 268.894C341.247 269.535 338.968 269.831 336.653 269.781C336.369 269.855 336.191 270.034 336.117 270.317C339.689 273.926 343.329 277.468 347.036 280.941C347.295 281.2 347.48 281.465 347.591 281.736C347.96 282.696 347.677 283.004 346.741 282.659C346.445 282.549 346.149 282.358 345.854 282.087C341.789 278.428 337.798 274.684 333.881 270.853C326.996 265.039 320.055 259.287 313.058 253.596C310.373 251.403 308.193 248.823 306.517 245.854C303.66 240.804 300.814 235.748 297.981 230.685C297.797 230.34 297.581 230.1 297.335 229.965C296.731 229.62 296.429 229.823 296.429 230.574C296.429 230.858 296.516 231.147 296.688 231.443C299.262 236.074 301.812 240.73 304.337 245.411C305.212 247.037 304.91 247.295 303.432 246.187C290.437 236.394 276.696 227.513 262.211 219.544C249.413 212.498 235.734 208.15 221.175 206.5Z" fill="#F3ACA1"/>
<path d="M192.924 226.898L193.534 227.822C198.978 220.998 206.184 218.054 215.151 218.99C215.496 219.027 215.823 219.015 216.131 218.953C218.878 218.473 218.693 218.005 215.576 217.549C205.969 216.12 198.418 219.236 192.924 226.898Z" fill="#A34B8A"/>
<path d="M188.453 225.05C186.962 227.526 185.133 229.724 182.965 231.646C179.627 234.578 176.788 237.922 174.448 241.679L181.524 248.145L195.382 234.288C193.953 232.342 193.337 230.186 193.534 227.821L192.924 226.897L188.453 225.05Z" fill="#21A0AA"/>
<path d="M203.16 244.062C203.345 244.493 203.653 244.801 204.084 244.986C209.159 241.389 214.856 239.973 221.175 240.737C223.318 240.995 224.094 240.657 223.503 239.72C223.364 239.507 223.158 239.321 222.899 239.178C222.641 239.034 222.336 238.935 222.006 238.889C214.948 238.002 208.666 239.727 203.16 244.062Z" fill="#9B3C81"/>
<path d="M174.448 241.679C173.426 243.218 172.859 244.912 172.748 246.76C174.091 247.548 175.144 248.601 175.908 249.919L181.524 248.145L174.448 241.679Z" fill="white"/>
<path d="M410.632 246.298C410.669 246.975 410.49 247.228 410.096 247.055C409.542 246.834 409.197 246.717 409.062 246.704C402.829 246.076 396.707 246.735 390.696 248.681C392.494 251.293 393.572 254.169 393.929 257.31L397.699 268.008C405.126 265.938 410.3 262.206 413.219 256.811C415.14 253.227 414.278 249.722 410.632 246.298Z" fill="#5B2448"/>
<path d="M172.748 246.76C171.147 250.985 172.2 252.038 175.907 249.919C175.144 248.601 174.091 247.548 172.748 246.76Z" fill="#9B3C81"/>
<path d="M390.696 248.681C372.158 254.372 354.144 261.405 336.653 269.781C338.968 269.831 341.247 269.535 343.489 268.894C360.093 264.14 376.907 260.278 393.93 257.31C393.572 254.169 392.495 251.292 390.696 248.681Z" fill="#9B3C59"/>
<path d="M91.8397 249.143C98.9716 260.845 104.551 273.23 108.579 286.299C108.912 287.359 109.208 287.531 109.466 286.817C109.565 286.57 109.534 286.151 109.374 285.56C107.539 278.909 105.383 272.664 102.907 266.825C102.427 265.704 102.716 265.445 103.775 266.049C117.485 273.92 129.673 283.171 140.34 293.801C140.525 292.63 140.18 291.46 139.306 290.29C126.261 272.861 110.439 259.145 91.8397 249.143Z" fill="#9B3C59"/>
<path d="M233.185 257.772H235.494C229.224 251.539 221.822 249.34 213.285 251.176C212.981 251.24 212.706 251.382 212.505 251.579C212.304 251.776 212.189 252.018 212.177 252.266C212.14 252.992 212.725 253.122 213.932 252.654C214.573 252.395 215.115 252.247 215.558 252.21C222.185 251.607 228.06 253.461 233.185 257.772Z" fill="#A34B8A"/>
<path d="M336.117 270.317L333.881 270.853C337.798 274.684 341.789 278.429 345.854 282.087C346.15 282.358 346.445 282.549 346.741 282.66C347.677 283.005 347.96 282.697 347.591 281.736C347.48 281.465 347.295 281.2 347.036 280.941C343.329 277.468 339.689 273.926 336.117 270.317Z" fill="#9B3C81"/>
</svg>
