<svg width="470" height="351" viewBox="0 0 470 351" fill="none" xmlns="http://www.w3.org/2000/svg">
<g clip-path="url(#clip0_201_18933)">
<path d="M98.5469 91.2558C96.1961 90.0665 94.3569 90.3085 93.0294 91.9817C92.4901 92.6593 91.9854 93.0949 91.5153 93.2885L83.5918 96.3998C83.4504 96.4548 83.3002 96.4833 83.1507 96.4836C83.0012 96.4838 82.8556 96.4558 82.7231 96.4012C82.5906 96.3467 82.4741 96.2668 82.3808 96.1666C82.2876 96.0664 82.2196 95.9481 82.1813 95.819C81.8632 94.7819 82.1122 93.8485 82.928 93.0188C83.0959 92.8441 83.2243 92.6534 83.2979 92.4696C83.3714 92.2857 83.387 92.1163 83.3428 91.9817C83.2322 91.5807 82.8727 91.6084 82.2643 92.0647C78.3371 95.0654 75.4193 98.882 73.5111 103.514C72.0038 107.206 70.213 107.345 68.1388 103.929C65.9402 100.292 62.9395 97.2779 59.1367 94.8856" stroke="#A86975" stroke-width="4.14844"/>
<path d="M86.6201 134.296L76.2697 130.189C76.1676 130.147 76.0564 130.128 75.9465 130.134C75.8366 130.139 75.7314 130.169 75.6406 130.221C75.5498 130.272 75.4763 130.344 75.4268 130.429C75.3772 130.514 75.3533 130.61 75.3571 130.708C75.5645 136.709 78.7726 140.124 84.9815 140.954" stroke="#A86975" stroke-width="4.14844"/>
<path d="M84.6289 147.177C71.0911 151.422 57.9268 150.53 45.1357 144.501" stroke="#F77E74" stroke-width="4.14844"/>
<path d="M136.837 239.479L121.363 241.118" stroke="#F77E74" stroke-width="4.14844"/>
<path d="M121.363 241.118C120.381 241.215 119.517 240.987 118.771 240.434" stroke="#D25165" stroke-width="4.14844"/>
<path d="M118.771 240.434C116.088 230.837 113.433 221.233 110.806 211.623C106.311 195.223 98.4639 180.931 87.2632 168.749C81.8149 162.844 76.6639 158.861 71.8102 156.801C63.8176 153.399 56.786 154.589 50.7154 160.369C47.0648 163.84 43.8221 169.398 40.9873 177.045C38.7195 183.157 36.9495 189.442 35.6773 195.9C32.7043 210.987 30.6992 226.204 29.6621 241.554" stroke="#F77E74" stroke-width="4.14844"/>
<path d="M29.6621 241.554C31.6672 245.896 35.2694 248.489 40.4688 249.332C45.8894 250.217 49.3188 250.736 50.7569 250.888" stroke="#AA3A47" stroke-width="4.14844"/>
<path d="M50.7571 250.888C53.9929 259.793 58.5285 267.827 64.364 274.99C69.6048 281.434 75.2744 286.163 81.3726 289.178C88.3558 292.649 95.8091 294.232 103.733 293.928C116.358 293.444 130.158 291.197 145.134 287.187" stroke="#F77E74" stroke-width="4.14844"/>
<path d="M118.771 240.434C114.622 241.747 110.571 243.317 106.616 245.142C105.33 245.737 105.115 246.089 105.973 246.2C106.18 246.228 106.408 246.186 106.657 246.075C111.4 243.946 116.302 242.293 121.363 241.118" stroke="#CF8194" stroke-width="4.14844"/>
<path d="M50.7571 250.888L49.2014 245.184" stroke="#A86975" stroke-width="4.14844"/>
<path d="M49.2014 245.184C68.6023 235.836 89.0264 232.178 110.474 234.211" stroke="#C87592" stroke-width="4.14844"/>
<path d="M110.474 234.211C111.76 234.101 112.894 234.266 113.875 234.709C114.636 235.055 114.947 234.813 114.809 233.983C112.14 217.763 107.162 202.413 99.8744 187.935C94.1357 176.527 86.0532 167.394 75.6268 160.535C71.9347 158.101 68.6159 156.649 65.6705 156.179C61.4668 155.515 57.7332 156.317 54.4698 158.585C48.6481 162.651 44.3891 169.095 41.6926 177.917C36.0092 196.599 32.725 215.688 31.84 235.186C31.8284 235.382 31.9048 235.618 32.0615 235.87C32.2182 236.121 32.4496 236.379 32.7319 236.617C33.05 236.894 33.209 237.302 33.209 237.841" stroke="#F77E74" stroke-width="4.14844"/>
<path d="M33.209 237.841L29.6621 241.554" stroke="#A86975" stroke-width="4.14844"/>
<path d="M110.474 234.211C110.391 233.16 109.526 232.496 107.881 232.22C87.4567 228.86 68.2633 228.811 50.3006 232.075C48.8209 232.351 47.445 232.891 46.1729 233.693" stroke="#CA4664" stroke-width="4.14844"/>
<path d="M46.1729 233.692C41.6372 234.398 37.3159 235.78 33.209 237.841" stroke="#AA3A47" stroke-width="4.14844"/>
<path d="M49.2012 245.184C47.2376 241.644 46.2282 237.813 46.1729 233.692" stroke="#7B3065" stroke-width="4.14844"/>
<path d="M286.782 254.6L282.198 249.664C281.974 249.426 281.679 249.272 281.375 249.233C281.07 249.195 280.779 249.274 280.559 249.456L272.926 255.783C272.703 255.969 272.567 256.244 272.544 256.555C272.52 256.866 272.613 257.19 272.802 257.463L276.847 263.333" stroke="#F77E74" stroke-width="4.14844"/>
<path d="M268.55 271.111C264.941 272.909 262.521 275.675 261.29 279.408" stroke="#FAB55A" stroke-width="4.14844"/>
<path d="M429.82 241.554C404.778 241.775 382.362 249.38 362.574 264.37" stroke="#ADAFC9" stroke-width="4.14844"/>
<path d="M362.574 264.37L328.806 224.068C328.414 223.595 327.856 223.293 327.253 223.227C326.651 223.16 326.053 223.336 325.591 223.716L291.449 251.324" stroke="#B3C08F" stroke-width="4.14844"/>
<path d="M291.449 251.323L291.532 250.369" stroke="#ADAFC9" stroke-width="4.14844"/>
<path d="M291.532 250.369C295.833 233.167 300.458 216.055 305.409 199.032C306.086 196.695 306.017 195.783 305.201 196.294C304.987 196.426 304.783 196.644 304.604 196.934C304.425 197.224 304.275 197.579 304.164 197.974L294.872 231.722C294.834 231.852 294.771 231.973 294.685 232.078C294.599 232.183 294.492 232.269 294.372 232.331C294.251 232.393 294.12 232.43 293.984 232.439C293.849 232.449 293.714 232.43 293.586 232.386C287.806 230.311 282.012 228.272 276.204 226.267C275.886 226.156 275.582 226.108 275.291 226.121C274.06 226.149 273.957 226.536 274.98 227.283C275.215 227.463 275.505 227.58 275.851 227.636C282.032 228.687 287.647 231.044 292.694 234.709C292.983 234.921 293.206 235.195 293.333 235.492C293.459 235.79 293.483 236.096 293.399 236.368L290.412 246.304" stroke="#21A0AA" stroke-width="4.14844"/>
<path d="M290.412 246.304C283.429 241.602 275.996 237.744 268.114 234.729" stroke="#ADAFC9" stroke-width="4.14844"/>
<path d="M291.532 250.369C291.781 248.765 291.408 247.41 290.412 246.304" stroke="#C6C1CE" stroke-width="4.14844"/>
<path d="M362.574 264.37C359.048 267.841 352.321 273.414 342.392 281.088C335.201 286.661 327.949 290.18 320.633 291.646C320.495 291.66 319.755 291.93 318.414 292.455C317.488 292.815 316.623 292.642 315.821 291.936" stroke="#FABE68" stroke-width="4.14844"/>
<path d="M315.821 291.937L342.745 269.307C342.873 269.201 342.979 269.07 343.057 268.923C343.134 268.776 343.182 268.615 343.198 268.449C343.213 268.284 343.196 268.117 343.147 267.958C343.097 267.799 343.017 267.651 342.911 267.523L326.4 247.59C326.04 247.161 325.527 246.889 324.975 246.834C324.423 246.78 323.876 246.947 323.455 247.3L293.938 271.775C293.813 271.879 293.71 272.005 293.633 272.148C293.557 272.291 293.51 272.447 293.494 272.607C293.479 272.768 293.496 272.929 293.543 273.082C293.591 273.234 293.669 273.375 293.772 273.497L309.599 292.455" stroke="#FFE796" stroke-width="4.14844"/>
<path d="M309.598 292.455C305.989 293.05 302.373 293.637 298.75 294.218C295.957 294.675 295.107 295.629 296.199 297.081C296.614 297.648 297.34 298.194 298.377 298.719C301.557 300.323 304.593 301.602 307.483 302.557C309.751 303.303 309.903 304.181 307.939 305.191L299.746 309.401" stroke="#FABE68" stroke-width="4.14844"/>
<path d="M299.746 309.401C299.221 308.185 297.797 306.352 295.473 303.905C287.743 295.815 278.769 284.884 268.55 271.111" stroke="#FFC61F" stroke-width="4.14844"/>
<path d="M268.55 271.111L276.847 263.333" stroke="#FABE68" stroke-width="4.14844"/>
<path d="M276.847 263.333C281.037 261.411 284.349 258.5 286.782 254.601" stroke="#FC8F3A" stroke-width="4.14844"/>
<path d="M286.782 254.6C288.843 254.199 290.398 253.107 291.449 251.323" stroke="#FABE68" stroke-width="4.14844"/>
<path d="M350.648 161.696L348.407 164.808" stroke="#ADAFC9" stroke-width="4.14844"/>
<path d="M348.407 164.808L343.74 169.475" stroke="#C6C1CE" stroke-width="4.14844"/>
<path d="M343.74 169.475C338.43 173.499 332.927 175.746 327.23 176.216C320.371 176.769 317.778 173.685 319.451 166.965" stroke="#ADAFC9" stroke-width="4.14844"/>
<path d="M320.571 157.029C324.651 155.771 328.045 153.468 330.756 150.122C331.986 148.601 331.627 147.716 329.677 147.467C326.248 147.011 322.839 147.806 319.451 149.852" stroke="#A86975" stroke-width="4.14844"/>
<path d="M425.236 279.844C432.413 267.758 433.941 254.995 429.82 241.554" stroke="#A86975" stroke-width="4.14844"/>
<path d="M429.821 241.554C428.659 236.589 426.758 231.922 424.116 227.553" stroke="#616A9C" stroke-width="4.14844"/>
<path d="M424.116 227.553L423.598 225.479" stroke="#7A7DA1" stroke-width="4.14844"/>
<path d="M423.598 225.479C427.193 216.905 426.232 208.906 420.715 201.48C410.98 188.385 399.177 177.543 385.308 168.956C373.872 161.876 362.318 159.456 350.647 161.696" stroke="#616A9C" stroke-width="4.14844"/>
<path d="M350.647 161.696L344.217 135.893C343.925 134.735 343.818 133.614 343.91 132.654C344.001 131.695 344.287 130.935 344.736 130.459C347.598 127.416 348.483 123.946 347.391 120.046C347.204 119.38 346.782 118.816 346.209 118.47C342.627 116.34 338.831 117.232 334.821 121.145C334.205 121.742 333.48 122.176 332.721 122.402C331.962 122.629 331.197 122.639 330.507 122.431L313.27 117.101C312.717 116.935 312.592 117.087 312.897 117.557C315.275 121.249 314.044 122.438 309.205 121.125C307.006 120.516 305.713 118.698 305.326 115.669C305.188 114.577 305.754 114.017 307.027 113.989C307.898 113.975 308.015 113.671 307.379 113.077C305.872 111.694 304.047 110.615 301.903 109.841" stroke="#A86975" stroke-width="4.14844"/>
<path d="M357.306 321.494C356.573 320.83 355.881 320.63 355.231 320.892C343.726 325.552 332.145 330.019 320.488 334.292" stroke="#FABE68" stroke-width="4.14844"/>
<path d="M320.488 334.292C316.907 334.721 313.623 335.931 310.636 337.922" stroke="#FAB55A" stroke-width="4.14844"/>
<path d="M301.737 335.931C304.226 334.949 306.792 334.285 309.433 333.939C309.944 333.87 310.387 333.753 310.76 333.587C312.516 332.812 312.523 332.245 310.781 331.886C310.366 331.803 309.931 331.844 309.474 332.01C306.612 332.978 303.715 333.794 300.783 334.458" stroke="#C6889B" stroke-width="4.14844"/>
<path d="M295.079 320.291L305.409 318.424C305.707 318.373 305.993 318.249 306.248 318.063C306.503 317.876 306.719 317.631 306.881 317.345C307.794 315.797 307.013 315.811 304.538 317.387C302.878 318.452 299.553 319.129 294.561 319.42" stroke="#BB8492" stroke-opacity="0.996" stroke-width="4.14844"/>
<path d="M289.977 313.114C293.517 312.644 296.773 311.406 299.746 309.401" stroke="#FAB55A" stroke-width="4.14844"/>
<path d="M309.599 292.455C311.756 293.16 313.83 292.987 315.821 291.937" stroke="#FAD6D1" stroke-width="4.14844"/>
<path d="M424.116 227.553C404.328 226.336 386.22 231.867 369.792 244.146C369.589 244.301 369.419 244.496 369.293 244.718C369.167 244.94 369.089 245.185 369.061 245.438C369.034 245.691 369.059 245.946 369.135 246.188C369.211 246.429 369.336 246.652 369.502 246.843C371.148 248.724 372.544 250.957 373.692 253.543C374.881 256.212 374.611 256.371 372.883 254.02C360.133 236.79 350.62 217.942 344.342 197.477C342.973 192.996 342.24 185.951 342.143 176.34C342.143 175.663 341.929 175.594 341.5 176.133C338.541 180.019 335.139 183.455 331.295 186.442C329.553 187.797 327.976 188.474 326.566 188.474C324.035 188.474 322.742 186.767 322.687 183.351C322.673 181.941 322.279 180.904 321.505 180.24C321.185 179.969 320.926 179.669 320.765 179.385C320.605 179.101 320.551 178.848 320.613 178.663L320.945 177.585C321.207 176.741 321.594 176.755 322.106 177.626C323.226 179.493 323.931 181.782 324.222 184.492C324.554 187.548 326.033 188.267 328.661 186.649C335.229 182.597 340.256 176.873 343.74 169.475" stroke="#21A0AA" stroke-width="4.14844"/>
<path d="M423.598 225.479C404.349 225.506 386.38 231.335 369.689 242.964C369.436 243.144 369.149 243.27 368.844 243.336C368.54 243.401 368.226 243.403 367.919 243.343C367.613 243.283 367.322 243.162 367.063 242.986C366.804 242.81 366.582 242.584 366.412 242.321C356.566 227.124 349.618 211.643 345.566 195.879C344.045 189.947 343.526 184.727 344.01 180.219C344.577 174.895 346.043 169.758 348.408 164.808" stroke="#21A0AA" stroke-width="4.14844"/>
<path d="M328.267 345.348L320.488 334.292" stroke="#FFC61F" stroke-width="4.14844"/>
<path d="M219.972 90.1348L219.806 89.6172" stroke="#C27892" stroke-width="4.14844"/>
<path d="M55.4862 99.5941C51.8355 98.0868 51.7042 98.3427 55.0921 100.362C57.6364 101.869 59.5516 104.192 60.8377 107.331C61.1142 108.009 61.2525 107.988 61.2525 107.269C61.2387 103.715 59.3166 101.157 55.4862 99.5941Z" stroke="#C6889B" stroke-width="4.14844"/>
<path d="M87.0557 101.441C89.7245 102.782 92.2481 103.003 94.6266 102.104C94.9329 101.983 95.2044 101.791 95.4176 101.545C95.6308 101.299 95.7794 101.007 95.8504 100.694C96.3205 98.592 95.318 98.0181 92.8427 98.9722C90.9345 99.719 89.0193 100.348 87.0972 100.86C86.5993 100.998 86.5855 101.192 87.0557 101.441Z" stroke="#A86975" stroke-width="4.14844"/>
<path d="M84.9192 112.931C84.9192 111.435 84.3248 110 83.2668 108.942C82.2087 107.884 80.7737 107.29 79.2774 107.29C77.781 107.29 76.346 107.884 75.288 108.942C74.2299 110 73.6355 111.435 73.6355 112.931C73.6355 114.428 74.2299 115.863 75.288 116.921C76.346 117.979 77.781 118.573 79.2774 118.573C80.7737 118.573 82.2087 117.979 83.2668 116.921C84.3248 115.863 84.9192 114.428 84.9192 112.931Z" stroke="#F09E9A" stroke-width="4.14844"/>
<path d="M89.5449 115.026C89.0332 114.874 88.9018 115.04 89.1508 115.524C90.4229 118.013 92.3796 118.691 95.0208 117.557C95.7399 117.253 95.726 116.976 94.9793 116.727L89.5449 115.026Z" stroke="#CF8194" stroke-width="4.14844"/>
<path d="M310.096 124.92C308.935 124.367 307.974 123.759 307.213 123.095C304.807 121.021 303.563 121.235 303.48 123.738C303.473 124.062 303.547 124.382 303.696 124.669C303.845 124.955 304.063 125.199 304.33 125.377C305.989 126.483 307.842 126.849 309.889 126.476C311.535 126.172 311.604 125.653 310.096 124.92Z" stroke="#A86975" stroke-width="4.14844"/>
<path d="M339.965 122.991C337.421 126.047 336.01 128.059 335.734 129.027C335.222 130.77 335.533 130.687 336.667 128.779C338.05 126.414 340.048 124.734 342.662 123.738C343.989 123.227 343.996 122.729 342.682 122.245C342.208 122.074 341.692 122.054 341.205 122.188C340.719 122.321 340.286 122.602 339.965 122.991Z" stroke="#C6889B" stroke-width="4.14844"/>
<path d="M327.541 131.682C327.541 130.274 326.981 128.923 325.985 127.928C324.99 126.932 323.639 126.372 322.231 126.372C320.822 126.372 319.472 126.932 318.476 127.928C317.48 128.923 316.921 130.274 316.921 131.682C316.921 133.091 317.48 134.441 318.476 135.437C319.472 136.433 320.822 136.992 322.231 136.992C323.639 136.992 324.99 136.433 325.985 135.437C326.981 134.441 327.541 133.091 327.541 131.682Z" stroke="#F09E9A" stroke-width="4.14844"/>
<path d="M307.358 139.523C310.055 140.117 311.59 139.253 311.963 136.93C312.101 136.086 311.797 135.81 311.05 136.1L307.089 137.594C305.014 138.382 305.104 139.025 307.358 139.523Z" stroke="#CF8194" stroke-width="4.14844"/>
<path d="M209.455 262.669C209.896 262.857 210.29 263.139 210.609 263.494C210.928 263.849 211.165 264.268 211.301 264.723C212.781 269.673 213.535 271.042 213.562 268.83C213.576 268.014 213.389 267.246 213.002 266.527C212.09 264.757 210.887 263.202 209.393 261.86C209.207 261.685 208.989 261.561 208.77 261.505C208.551 261.45 208.341 261.465 208.169 261.549C207.768 261.771 208.197 262.144 209.455 262.669Z" stroke="#BA7F87" stroke-opacity="0.996" stroke-width="4.14844"/>
<path d="M201.055 265.905L205.411 273.124C205.66 273.538 205.777 273.518 205.763 273.061C205.667 269.673 204.145 267.226 201.2 265.719C200.965 265.608 200.917 265.67 201.055 265.905Z" stroke="#BA7F87" stroke-opacity="0.996" stroke-width="4.14844"/>
<path d="M193.691 272.128C196.015 274.451 197.28 276.691 197.487 278.848C197.667 280.673 198.006 280.812 198.504 279.263C198.587 279.014 198.614 278.765 198.587 278.516C198.116 275.101 196.588 272.819 194.003 271.671C193.062 271.243 192.959 271.395 193.691 272.128Z" stroke="#C6889B" stroke-width="4.14844"/>
<path d="M185.768 279.263C183.016 278.102 180.243 277.915 177.45 278.703C176.427 278.994 176.434 279.18 177.471 279.263L185.643 279.906C186.957 280.003 186.998 279.789 185.768 279.263Z" stroke="#C6889B" stroke-width="4.14844"/>
<path d="M300.742 328.111C305.996 327.019 309.08 326.127 309.993 325.435C312.482 323.541 312.24 323.167 309.267 324.315C305.699 325.698 302.042 326.783 298.294 327.572C297.34 327.765 297.188 328.118 297.838 328.63C298.17 328.892 298.591 328.92 299.103 328.713C300.085 328.325 300.631 328.125 300.742 328.111Z" stroke="#CF8194" stroke-width="4.14844"/>
<path d="M326.025 256.843C325.987 256.797 325.94 256.758 325.887 256.73C325.834 256.702 325.776 256.685 325.717 256.679C325.657 256.673 325.597 256.679 325.54 256.697C325.482 256.714 325.429 256.743 325.383 256.781L304.352 274.118C304.306 274.156 304.268 274.203 304.239 274.256C304.211 274.308 304.194 274.366 304.188 274.426C304.182 274.486 304.188 274.546 304.206 274.603C304.224 274.66 304.252 274.714 304.29 274.76C304.328 274.806 304.375 274.845 304.428 274.873C304.481 274.901 304.539 274.918 304.599 274.924C304.658 274.93 304.719 274.924 304.776 274.906C304.833 274.889 304.886 274.86 304.933 274.822L325.963 257.485C326.01 257.447 326.048 257.4 326.076 257.347C326.104 257.295 326.122 257.237 326.127 257.177C326.133 257.117 326.127 257.057 326.109 257C326.092 256.942 326.063 256.889 326.025 256.843Z" stroke="#BFA8B5" stroke-opacity="0.996" stroke-width="4.14844"/>
<path d="M272.468 91.6766L272.468 91.6772L165.74 116.134C165.951 115.635 165.658 115.245 164.86 114.964L165.027 114.493C165.027 114.493 165.026 114.493 165.026 114.493C148.248 108.534 135.376 97.9225 126.393 82.6471C122.201 73.2114 120.688 64.1969 121.828 55.5932C122.968 46.9821 126.77 38.7463 133.261 30.8827C141.089 21.4065 150.706 14.3977 162.118 9.8517C163.221 9.42171 163.967 8.68325 164.295 7.64374L164.453 7.59318C165.123 7.66943 165.674 7.71534 166.104 7.72908C166.33 7.73631 166.529 7.7349 166.698 7.7229C166.859 7.7115 167.024 7.68873 167.164 7.63795C190.025 -0.426888 213.204 -0.558646 236.719 7.24755C255.348 13.4344 269.205 24.463 278.321 40.3338C282.32 47.3047 284.255 54.3246 284.146 61.4002C284.009 69.5503 281.94 77.2692 277.935 84.5632L277.931 84.5685C277.917 84.5876 277.896 84.6163 277.866 84.6556C277.807 84.7339 277.72 84.8489 277.604 85.0012C277.372 85.3055 277.027 85.7556 276.57 86.3518C275.654 87.5441 274.287 89.3189 272.468 91.6766ZM184.867 119.97C178.644 118.771 172.433 117.526 166.236 116.237L269.359 99.5113L268.872 99.399C268.872 99.3996 268.871 99.4002 268.871 99.4008C268.783 99.7864 268.788 100.188 268.888 100.571C268.987 100.955 269.177 101.309 269.441 101.606C269.441 101.606 269.442 101.607 269.442 101.607L283.126 117.178C283.126 117.178 283.127 117.179 283.127 117.179C283.152 117.209 283.17 117.244 283.179 117.281C283.188 117.318 283.187 117.354 283.179 117.385C283.171 117.415 283.157 117.439 283.14 117.455L283.499 117.804L283.14 117.455C283.133 117.463 283.125 117.469 283.116 117.475C283.107 117.481 283.096 117.486 283.085 117.489C281.673 117.846 280.102 117.562 278.343 116.544C272.888 113.371 265.889 110.234 257.354 107.131L257.351 107.13C256.97 106.994 256.563 106.947 256.161 106.991C255.759 107.035 255.372 107.17 255.03 107.385C246.988 112.388 238.342 115.948 229.09 118.065L229.202 118.553L229.09 118.065C220.904 119.94 212.642 121.104 204.305 121.559L204.303 121.559C198.56 121.888 192.083 121.361 184.867 119.97ZM277.942 84.5526C277.947 84.5452 277.949 84.5438 277.943 84.5514L277.942 84.5526Z" fill="white" stroke="#986293"/>
<path d="M176.662 101.855C172.168 101.606 167.293 101.247 162.039 100.777C161.808 100.756 161.585 100.686 161.383 100.572C161.182 100.457 161.007 100.301 160.87 100.113C160.733 99.9245 160.636 99.709 160.588 99.4802C160.539 99.2515 160.539 99.0147 160.587 98.7854C166.464 72.0556 170.19 44.6483 171.767 16.5634C171.793 16.1565 171.975 15.7758 172.273 15.5012C172.57 15.2266 172.962 15.0794 173.364 15.0907L243.12 16.6256C243.257 16.628 243.392 16.6587 243.517 16.7158C243.642 16.7729 243.755 16.8553 243.848 16.9581C243.941 17.0608 244.013 17.1817 244.059 17.3135C244.105 17.4453 244.124 17.5852 244.115 17.7249C242.456 47.331 238.598 76.6535 232.541 105.693C232.481 105.982 232.322 106.24 232.094 106.419C231.865 106.599 231.582 106.687 231.297 106.667C217.911 105.782 204.567 104.579 191.264 103.058C187.005 102.574 182.138 102.173 176.662 101.855ZM174.297 16.3974C173.987 16.3804 173.682 16.4861 173.449 16.6919C173.217 16.8976 173.074 17.1868 173.053 17.4968C171.227 43.9915 167.556 70.9287 162.039 98.3083C162.006 98.459 162.006 98.6151 162.04 98.7659C162.074 98.9167 162.14 99.0589 162.235 99.1827C162.329 99.3065 162.449 99.4092 162.587 99.4838C162.725 99.5584 162.877 99.6032 163.034 99.6151L230.384 105.423C230.853 105.462 231.32 105.326 231.692 105.042C232.064 104.758 232.315 104.347 232.396 103.888C237.208 75.9967 240.672 48.1883 242.788 20.4629C242.817 20.102 242.77 19.739 242.649 19.3973C242.528 19.0556 242.336 18.7428 242.086 18.479C241.836 18.2152 241.533 18.0063 241.196 17.8657C240.86 17.7251 240.498 17.656 240.133 17.6627C218.713 18.2712 196.768 17.8494 174.297 16.3974Z" fill="#986293"/>
<path d="M98.5471 91.256C96.1963 90.0667 94.3571 90.3087 93.0296 91.9819C92.4904 92.6595 91.9856 93.0951 91.5155 93.2887L83.592 96.4C83.4506 96.455 83.3004 96.4836 83.1509 96.4838C83.0014 96.484 82.8558 96.456 82.7233 96.4014C82.5908 96.3469 82.4743 96.267 82.381 96.1668C82.2878 96.0666 82.2199 95.9483 82.1815 95.8192C81.8634 94.7821 82.1124 93.8487 82.9282 93.019C83.0961 92.8443 83.2245 92.6536 83.2981 92.4698C83.3716 92.2859 83.3872 92.1165 83.3431 91.9819C83.2324 91.5809 82.8729 91.6086 82.2645 92.0649C78.3373 95.0656 75.4195 98.8822 73.5113 103.515C72.004 107.207 70.2133 107.345 68.139 103.929C65.9404 100.293 62.9397 97.2781 59.1369 94.8858C60.0496 89.2716 59.7315 83.8095 58.1828 78.4995C57.2286 75.2361 57.7126 72.2077 59.6347 69.4144C63.9629 63.1365 69.6325 61.6154 76.6433 64.8512C78.5516 65.7362 80.0934 65.425 81.2688 63.9178C81.7525 63.2871 82.2857 62.8415 82.783 62.6525C88.2175 60.5921 92.5526 61.8505 95.7884 66.4276C95.8298 66.4967 96.2723 67.4024 97.1159 69.1448C98.1945 71.3711 100.227 72.1455 103.214 71.4679C106.782 70.6521 109.07 72.1662 110.08 76.0105C112.679 85.8008 108.835 90.8826 98.5471 91.256Z" fill="#5B2448"/>
<path d="M191.493 75.6162C189.944 78.6169 190.462 81.1682 193.048 83.2701C197.127 86.5888 200.909 86.2016 204.394 82.1085C204.671 81.7766 204.94 81.5554 205.203 81.4448C205.991 81.1267 206.213 81.5969 205.867 82.8552C205.743 83.3097 205.72 83.7862 205.799 84.2517C205.878 84.7172 206.057 85.1607 206.323 85.5517C207.747 87.626 206.939 87.7573 203.896 85.9458C203.619 85.7765 203.301 85.6852 202.976 85.6815C202.651 85.6779 202.331 85.762 202.05 85.9251C199.119 87.626 196.823 87.7297 195.164 86.2362C194.569 85.6969 194.03 85.289 193.546 85.0124C191.97 84.0998 190.905 82.7239 190.352 80.8847C188.983 76.3215 190.317 73.625 194.355 72.7953C195.008 72.6628 195.697 72.7888 196.284 73.1479C199.935 75.4572 200.273 78.1191 197.3 81.1337C196.803 81.6453 196.706 81.5761 197.01 80.9262C199.222 76.1693 197.895 74.0536 193.027 74.5791C192.702 74.6112 192.391 74.723 192.123 74.9042C191.855 75.0855 191.638 75.3303 191.493 75.6162Z" fill="#EC8E91"/>
<path d="M212.11 82.1498C212.29 81.3892 212.684 81.1127 213.293 81.3201C213.571 81.4142 213.803 81.6209 213.948 81.9026C214.093 82.1843 214.14 82.5223 214.081 82.855C213.763 84.6112 212.747 85.9318 211.032 86.8168C209.718 87.4805 209.732 86.7684 211.073 84.6803C211.571 83.8921 211.917 83.0486 212.11 82.1498Z" fill="#F16D22"/>
<path d="M219.972 90.1355L219.806 89.617C219.737 87.93 218.948 86.8998 217.441 86.5264C217.291 86.4895 217.147 86.4282 217.02 86.347C216.892 86.2659 216.785 86.1669 216.705 86.0574C216.626 85.948 216.576 85.8308 216.56 85.7145C216.543 85.5983 216.561 85.4859 216.611 85.3856C216.888 84.8601 217.42 84.7702 218.209 85.1159C218.527 85.268 218.907 85.5792 219.349 86.0493C221.368 88.3033 223.394 88.3724 225.427 86.2567C225.925 85.7451 226.035 85.8073 225.759 86.4434C224.749 88.8495 222.82 90.0802 219.972 90.1355Z" fill="#EC8E91"/>
<path d="M425.236 279.844C432.413 267.758 433.941 254.995 429.82 241.554C428.659 236.59 426.757 231.923 424.116 227.553L423.598 225.479C427.193 216.905 426.232 208.906 420.715 201.48C410.98 188.385 399.177 177.544 385.308 168.956C373.872 161.876 362.318 159.456 350.647 161.696L344.217 135.893C343.925 134.735 343.818 133.614 343.91 132.654C344.001 131.695 344.287 130.935 344.736 130.459C347.598 127.417 348.483 123.946 347.391 120.046C347.204 119.38 346.782 118.817 346.209 118.47C342.627 116.34 338.831 117.232 334.821 121.145C334.205 121.742 333.48 122.176 332.721 122.403C331.962 122.629 331.197 122.639 330.507 122.432L313.27 117.101C312.717 116.935 312.592 117.087 312.897 117.557C315.275 121.249 314.044 122.438 309.205 121.125C307.006 120.516 305.713 118.698 305.326 115.67C305.188 114.577 305.754 114.017 307.027 113.989C307.898 113.976 308.015 113.671 307.379 113.077C305.872 111.694 304.047 110.615 301.903 109.841C301.917 106.923 302.277 104.891 302.982 103.743C308.098 95.4459 314.916 90.2189 323.434 88.0617C331.772 85.9598 339.585 87.0523 346.872 91.339C355.404 96.3448 360.092 104.586 360.936 116.064C361.24 120.143 362.332 123.545 364.213 126.269C365.983 128.799 368.873 130.341 372.883 130.894C376.644 131.406 380.959 131.648 385.826 131.62C399.295 131.523 411.125 135.637 421.316 143.962C425.755 147.571 429.143 151.616 431.48 156.096C433.969 160.867 435.538 166.018 436.188 171.549C437.059 178.961 440.593 184.713 446.788 188.807C456.619 195.278 463.229 204.135 466.617 215.377C472.826 235.898 468.366 252.921 453.238 266.445C445.688 273.193 436.354 277.659 425.236 279.844Z" fill="#5B2448"/>
<path d="M219.806 89.6171L219.972 90.1356C210.098 90.9653 200.294 90.4468 190.559 88.58C190.448 88.5579 190.341 88.5206 190.244 88.4704C190.148 88.4203 190.064 88.3583 189.998 88.2884C189.932 88.2184 189.885 88.1419 189.86 88.0637C189.835 87.9854 189.833 87.907 189.854 87.8332C189.937 87.5428 190.269 87.4599 190.849 87.5843C196.92 88.815 202.493 89.2783 207.568 88.9741C212.103 88.6975 216.183 88.9118 219.806 89.6171Z" fill="#986293"/>
<path d="M98.5469 91.2558C97.9661 95.1968 98.3948 98.958 99.8329 102.54C100.02 103.035 100.476 103.55 101.119 103.991C102.792 105.167 102.695 106.805 100.829 108.907C100.415 109.373 100.124 109.934 99.983 110.539C99.8417 111.144 99.8543 111.774 100.02 112.371C100.642 114.57 101.651 116.769 103.048 118.967C104.873 121.802 105.841 123.945 105.952 125.397C106.242 128.827 104.77 131.378 101.534 133.051C97.6204 135.056 92.6492 135.471 86.6201 134.296L76.2698 130.189C76.1676 130.147 76.0565 130.128 75.9466 130.134C75.8366 130.139 75.7315 130.169 75.6407 130.221C75.5499 130.272 75.4763 130.344 75.4268 130.429C75.3772 130.514 75.3533 130.61 75.3571 130.707C75.5645 136.709 78.7727 140.124 84.9815 140.954L84.6289 147.177C71.0911 151.422 57.9268 150.53 45.1357 144.501L57.1455 119.195C57.2533 118.965 57.3119 118.714 57.3181 118.458C57.3243 118.202 57.2778 117.945 57.1814 117.702C57.085 117.459 56.9406 117.235 56.7564 117.043C56.5723 116.85 56.352 116.694 56.1084 116.582C48.9316 113.291 45.7096 108.437 46.4425 102.021C46.802 98.9096 48.1088 96.6902 50.3628 95.3627C52.8518 93.8969 55.7765 93.7379 59.1367 94.8856C62.9395 97.2779 65.9402 100.292 68.1388 103.929C70.213 107.345 72.0038 107.206 73.5111 103.514C75.4193 98.882 78.3371 95.0654 82.2643 92.0647C82.8727 91.6084 83.2322 91.5807 83.3428 91.9817C83.387 92.1163 83.3714 92.2857 83.2979 92.4696C83.2243 92.6534 83.0959 92.8441 82.928 93.0188C82.1122 93.8485 81.8632 94.7819 82.1813 95.819C82.2196 95.9481 82.2876 96.0664 82.3808 96.1666C82.4741 96.2668 82.5906 96.3467 82.7231 96.4012C82.8556 96.4558 83.0012 96.4838 83.1507 96.4836C83.3002 96.4833 83.4504 96.4548 83.5918 96.3998L91.5153 93.2885C91.9854 93.0949 92.4902 92.6593 93.0294 91.9817C94.3569 90.3085 96.1961 90.0665 98.5469 91.2558ZM55.4861 99.5941C51.8355 98.0868 51.7041 98.3427 55.092 100.362C57.6364 101.869 59.5516 104.192 60.8376 107.331C61.1141 108.009 61.2524 107.988 61.2524 107.269C61.2386 103.715 59.3165 101.157 55.4861 99.5941ZM87.0557 101.44C89.7245 102.781 92.2482 103.003 94.6266 102.104C94.9329 101.982 95.2044 101.79 95.4176 101.545C95.6309 101.299 95.7794 101.007 95.8504 100.693C96.3205 98.5916 95.318 98.0177 92.8428 98.9719C90.9345 99.7186 89.0193 100.348 87.0972 100.859C86.5994 100.998 86.5855 101.191 87.0557 101.44ZM84.9193 112.931C84.9193 111.435 84.3248 110 83.2668 108.942C82.2087 107.884 80.7737 107.289 79.2774 107.289C77.7811 107.289 76.346 107.884 75.288 108.942C74.2299 110 73.6355 111.435 73.6355 112.931C73.6355 114.428 74.2299 115.863 75.288 116.921C76.346 117.979 77.7811 118.573 79.2774 118.573C80.7737 118.573 82.2087 117.979 83.2668 116.921C84.3248 115.863 84.9193 114.428 84.9193 112.931ZM89.5448 115.026C89.0331 114.874 88.9018 115.04 89.1507 115.524C90.4229 118.013 92.3795 118.691 95.0207 117.557C95.7398 117.253 95.7259 116.976 94.9792 116.727L89.5448 115.026Z" fill="#F4ADA2"/>
<path d="M55.4862 99.5941C59.3166 101.157 61.2387 103.715 61.2525 107.269C61.2525 107.988 61.1142 108.009 60.8377 107.331C59.5516 104.192 57.6364 101.869 55.0921 100.362C51.7042 98.3427 51.8355 98.0868 55.4862 99.5941Z" fill="#986293"/>
<path d="M87.0557 101.441C86.5855 101.192 86.5993 100.998 87.0972 100.86C89.0193 100.348 90.9345 99.719 92.8427 98.9722C95.318 98.0181 96.3205 98.592 95.8504 100.694C95.7794 101.007 95.6308 101.299 95.4176 101.545C95.2044 101.791 94.9329 101.983 94.6266 102.104C92.2481 103.003 89.7245 102.782 87.0557 101.441Z" fill="#5B2448"/>
<path d="M79.2774 118.573C82.3933 118.573 84.9192 116.047 84.9192 112.931C84.9192 109.816 82.3933 107.29 79.2774 107.29C76.1614 107.29 73.6355 109.816 73.6355 112.931C73.6355 116.047 76.1614 118.573 79.2774 118.573Z" fill="#EC8E91"/>
<path d="M301.903 109.841C304.047 110.615 305.872 111.694 307.379 113.077C308.015 113.671 307.898 113.975 307.027 113.989C305.755 114.017 305.188 114.577 305.326 115.669C305.713 118.698 307.006 120.516 309.205 121.125C314.044 122.438 315.275 121.249 312.897 117.557C312.593 117.087 312.717 116.935 313.27 117.101L330.507 122.431C331.197 122.639 331.962 122.629 332.721 122.402C333.48 122.176 334.205 121.742 334.821 121.145C338.831 117.232 342.627 116.34 346.209 118.47C346.782 118.816 347.205 119.38 347.391 120.046C348.483 123.946 347.598 127.416 344.736 130.459C344.287 130.935 344.001 131.695 343.91 132.654C343.818 133.614 343.925 134.735 344.217 135.893L350.648 161.696L348.407 164.808L343.74 169.475C338.43 173.499 332.927 175.746 327.23 176.216C320.371 176.769 317.778 173.685 319.451 166.965C320.571 163.784 320.945 160.472 320.571 157.029C324.651 155.771 328.045 153.469 330.756 150.122C331.986 148.601 331.627 147.716 329.677 147.467C326.248 147.011 322.839 147.806 319.451 149.853C310.518 153.794 304.863 151.132 302.484 141.867C301.779 139.115 301.15 136.342 300.597 133.549C300.476 132.935 300.106 132.371 299.56 131.973C296.918 130.023 296.849 127.845 299.352 125.439C299.794 125.01 300.08 124.402 300.161 123.717L301.903 109.841ZM310.097 124.92C308.935 124.367 307.974 123.759 307.213 123.095C304.807 121.021 303.563 121.235 303.48 123.738C303.473 124.062 303.548 124.382 303.696 124.669C303.845 124.955 304.063 125.199 304.33 125.377C305.99 126.483 307.843 126.849 309.889 126.476C311.535 126.172 311.604 125.653 310.097 124.92ZM339.965 122.991C337.421 126.047 336.01 128.059 335.734 129.027C335.222 130.77 335.533 130.687 336.667 128.778C338.05 126.414 340.048 124.734 342.662 123.738C343.989 123.226 343.996 122.729 342.683 122.245C342.208 122.074 341.692 122.054 341.206 122.188C340.719 122.321 340.286 122.602 339.965 122.991ZM327.541 131.682C327.541 130.274 326.981 128.923 325.985 127.928C324.99 126.932 323.639 126.372 322.231 126.372C320.822 126.372 319.472 126.932 318.476 127.928C317.48 128.923 316.921 130.274 316.921 131.682C316.921 133.091 317.48 134.441 318.476 135.437C319.472 136.433 320.822 136.992 322.231 136.992C323.639 136.992 324.99 136.433 325.985 135.437C326.981 134.441 327.541 133.091 327.541 131.682ZM307.359 139.523C310.055 140.117 311.59 139.253 311.963 136.93C312.102 136.087 311.797 135.81 311.051 136.1L307.089 137.594C305.015 138.382 305.105 139.025 307.359 139.523Z" fill="#F4ADA2"/>
<path d="M89.5449 115.026L94.9793 116.727C95.726 116.976 95.7399 117.253 95.0208 117.557C92.3796 118.691 90.4229 118.013 89.1508 115.524C88.9018 115.04 89.0332 114.874 89.5449 115.026Z" fill="#AA5485" fill-opacity="0.996"/>
<path d="M310.096 124.92C311.604 125.653 311.535 126.172 309.889 126.476C307.842 126.849 305.989 126.483 304.33 125.377C304.063 125.199 303.845 124.955 303.696 124.669C303.547 124.382 303.473 124.062 303.48 123.738C303.563 121.235 304.807 121.021 307.213 123.095C307.974 123.759 308.935 124.367 310.096 124.92Z" fill="#5B2448"/>
<path d="M339.965 122.991C340.286 122.602 340.719 122.321 341.205 122.188C341.692 122.054 342.208 122.074 342.682 122.245C343.996 122.729 343.989 123.227 342.662 123.738C340.048 124.734 338.05 126.414 336.667 128.779C335.533 130.687 335.222 130.77 335.734 129.027C336.01 128.059 337.421 126.047 339.965 122.991Z" fill="#986293"/>
<path d="M322.231 136.992C325.163 136.992 327.541 134.615 327.541 131.682C327.541 128.75 325.163 126.372 322.231 126.372C319.298 126.372 316.921 128.75 316.921 131.682C316.921 134.615 319.298 136.992 322.231 136.992Z" fill="#EC8E91"/>
<path d="M86.6201 134.296L84.9815 140.954C78.7726 140.124 75.5645 136.709 75.3571 130.708C75.3533 130.61 75.3772 130.514 75.4268 130.429C75.4763 130.344 75.5498 130.272 75.6406 130.221C75.7314 130.169 75.8366 130.139 75.9465 130.134C76.0564 130.128 76.1676 130.147 76.2697 130.189L86.6201 134.296Z" fill="#5B2448"/>
<path d="M307.359 139.523C305.105 139.025 305.015 138.382 307.089 137.594L311.051 136.1C311.797 135.81 312.102 136.086 311.963 136.93C311.59 139.253 310.055 140.117 307.359 139.523Z" fill="#AA5485" fill-opacity="0.996"/>
<path d="M45.1358 144.501C57.9268 150.53 71.0912 151.422 84.6289 147.177C99.826 159.401 111.511 173.443 119.683 189.304C127.261 204.031 132.979 220.756 136.837 239.479L121.363 241.118C120.382 241.215 119.517 240.987 118.771 240.434C116.088 230.837 113.433 221.233 110.806 211.623C106.311 195.223 98.464 180.931 87.2632 168.749C81.8149 162.844 76.6639 158.861 71.8102 156.801C63.8176 153.399 56.786 154.589 50.7154 160.369C47.0648 163.84 43.8221 169.399 40.9874 177.045C38.7195 183.157 36.9495 189.442 35.6773 195.9C32.7043 210.987 30.6992 226.204 29.6621 241.554C31.6672 245.896 35.2694 248.488 40.4688 249.332C45.8894 250.217 49.3188 250.736 50.7569 250.888C53.9927 259.793 58.5283 267.827 64.3638 274.99C69.6047 281.434 75.2742 286.163 81.3724 289.178C88.3556 292.649 95.809 294.232 103.732 293.928C116.358 293.444 130.158 291.197 145.134 287.186L146.627 298.118C146.705 298.678 146.575 299.243 146.265 299.693C145.954 300.143 145.489 300.441 144.968 300.524C126.079 303.524 107.667 305.619 89.7315 306.809C60.1255 308.772 30.7822 306.926 1.70165 301.27C1.41342 301.212 1.15527 301.054 0.973007 300.827C0.790745 300.599 0.696156 300.315 0.706023 300.026C1.23149 279.477 3.16052 259.067 6.4931 238.795C10.2129 216.131 16.8227 194.358 26.3226 173.478C31.1486 162.872 37.4197 153.213 45.1358 144.501Z" fill="#F16D22"/>
<path d="M320.571 157.029L319.451 149.852C322.839 147.806 326.248 147.011 329.677 147.467C331.627 147.716 331.986 148.601 330.756 150.122C328.045 153.468 324.651 155.771 320.571 157.029Z" fill="#5B2448"/>
<path d="M118.771 240.434C114.622 241.747 110.57 243.317 106.616 245.142C105.33 245.737 105.115 246.089 105.973 246.2C106.18 246.228 106.408 246.186 106.657 246.075C111.4 243.946 116.302 242.293 121.363 241.118L136.837 239.479L177.367 240.952C178.653 240.911 179.559 241.782 180.084 243.566C180.292 244.278 180.714 244.909 181.293 245.373C181.872 245.837 182.58 246.111 183.32 246.158C196.72 247.099 208.086 251.918 217.42 260.616C220.421 263.395 221.071 267.039 219.37 271.547C217.697 272.072 216.079 272.093 214.516 271.609C214.218 271.516 213.903 271.503 213.606 271.573C213.309 271.643 213.043 271.791 212.836 272.003C211.011 273.842 208.826 275.004 206.282 275.488C205.963 275.546 205.661 275.673 205.396 275.859C205.131 276.045 204.91 276.286 204.747 276.566C203.171 279.249 200.827 280.881 197.715 281.462C197.01 281.6 196.374 281.849 195.807 282.208C189.335 286.467 182.152 285.845 174.256 280.342C173.577 279.863 172.736 279.669 171.912 279.802C162.454 281.337 153.528 283.799 145.134 287.186C130.158 291.197 116.358 293.444 103.732 293.928C95.8089 294.232 88.3556 292.649 81.3724 289.178C75.2742 286.163 69.6046 281.434 64.3638 274.99C58.5283 267.827 53.9927 259.793 50.7569 250.888L49.2012 245.184C68.6021 235.836 89.0262 232.178 110.474 234.211C111.76 234.1 112.894 234.266 113.875 234.709C114.636 235.054 114.947 234.812 114.809 233.983C112.14 217.762 107.162 202.413 99.8744 187.935C94.1357 176.527 86.0532 167.393 75.6268 160.535C71.9347 158.101 68.6159 156.649 65.6705 156.179C61.4668 155.515 57.7332 156.317 54.4698 158.585C48.6481 162.65 44.3891 169.094 41.6926 177.917C36.0092 196.598 32.725 215.688 31.84 235.186C31.8284 235.382 31.9048 235.618 32.0615 235.869C32.2182 236.121 32.4496 236.379 32.732 236.617C33.05 236.894 33.209 237.301 33.209 237.841L29.6621 241.554C30.6992 226.204 32.7043 210.987 35.6773 195.9C36.9495 189.442 38.7195 183.157 40.9873 177.045C43.8221 169.398 47.0648 163.84 50.7154 160.369C56.786 154.589 63.8176 153.399 71.8102 156.801C76.6639 158.861 81.8149 162.844 87.2632 168.749C98.4639 180.931 106.311 195.223 110.806 211.623C113.433 221.233 116.088 230.837 118.771 240.434ZM209.455 262.669C209.896 262.857 210.29 263.139 210.609 263.494C210.928 263.848 211.165 264.268 211.301 264.723C212.781 269.673 213.535 271.042 213.562 268.83C213.576 268.014 213.389 267.246 213.002 266.527C212.09 264.757 210.887 263.202 209.393 261.86C209.207 261.685 208.989 261.561 208.77 261.505C208.551 261.45 208.341 261.465 208.169 261.549C207.768 261.77 208.197 262.144 209.455 262.669ZM201.055 265.905L205.411 273.123C205.66 273.538 205.777 273.517 205.763 273.061C205.666 269.673 204.145 267.226 201.2 265.718C200.965 265.608 200.917 265.67 201.055 265.905ZM193.691 272.128C196.014 274.451 197.28 276.691 197.487 278.848C197.667 280.673 198.006 280.812 198.504 279.263C198.586 279.014 198.614 278.765 198.586 278.516C198.116 275.101 196.588 272.819 194.002 271.671C193.062 271.243 192.958 271.395 193.691 272.128ZM185.768 279.263C183.016 278.101 180.243 277.915 177.45 278.703C176.427 278.993 176.434 279.18 177.471 279.263L185.643 279.906C186.957 280.003 186.999 279.788 185.768 279.263Z" fill="#F4ADA2"/>
<path d="M110.474 234.211C110.391 233.16 109.526 232.496 107.881 232.219C87.4567 228.859 68.2633 228.811 50.3006 232.074C48.821 232.351 47.4451 232.89 46.1729 233.692C41.6373 234.397 37.316 235.78 33.209 237.841C33.209 237.301 33.05 236.893 32.7319 236.617C32.4496 236.379 32.2182 236.121 32.0615 235.869C31.9048 235.618 31.8284 235.382 31.84 235.186C32.725 215.688 36.0092 196.598 41.6926 177.916C44.3891 169.094 48.6481 162.65 54.4698 158.585C57.7332 156.317 61.4668 155.515 65.6705 156.179C68.6159 156.649 71.9347 158.101 75.6268 160.534C86.0532 167.393 94.1357 176.527 99.8744 187.935C107.162 202.413 112.14 217.762 114.809 233.983C114.947 234.812 114.636 235.054 113.875 234.708C112.894 234.266 111.76 234.1 110.474 234.211Z" fill="#F16D22"/>
<path d="M423.598 225.479C404.349 225.506 386.379 231.335 369.689 242.964C369.436 243.144 369.148 243.27 368.844 243.336C368.54 243.401 368.225 243.403 367.919 243.343C367.613 243.283 367.322 243.162 367.062 242.986C366.803 242.81 366.582 242.584 366.412 242.321C356.566 227.124 349.617 211.644 345.566 195.879C344.045 189.947 343.526 184.727 344.01 180.219C344.577 174.895 346.043 169.758 348.407 164.808L350.647 161.696C362.318 159.456 373.872 161.876 385.308 168.956C399.177 177.543 410.98 188.385 420.715 201.48C426.232 208.906 427.193 216.905 423.598 225.479Z" fill="#21A0AA"/>
<path d="M348.407 164.808C346.043 169.758 344.577 174.895 344.01 180.219C343.526 184.727 344.045 189.947 345.566 195.879C349.617 211.643 356.566 227.124 366.412 242.321C366.582 242.584 366.804 242.81 367.063 242.986C367.322 243.162 367.613 243.283 367.919 243.343C368.226 243.403 368.54 243.401 368.844 243.336C369.148 243.27 369.436 243.144 369.689 242.964C386.379 231.335 404.349 225.506 423.598 225.479L424.116 227.553C404.328 226.336 386.22 231.867 369.793 244.146C369.589 244.301 369.419 244.496 369.293 244.718C369.168 244.94 369.089 245.185 369.062 245.438C369.034 245.691 369.059 245.946 369.135 246.188C369.211 246.429 369.336 246.652 369.502 246.843C371.148 248.724 372.544 250.957 373.692 253.543C374.881 256.212 374.612 256.371 372.883 254.02C360.134 236.79 350.62 217.942 344.342 197.477C342.973 192.996 342.24 185.951 342.143 176.34C342.143 175.663 341.929 175.594 341.5 176.133C338.541 180.019 335.139 183.455 331.295 186.442C329.553 187.797 327.976 188.474 326.566 188.474C324.035 188.474 322.742 186.767 322.687 183.351C322.673 181.941 322.279 180.904 321.505 180.24C321.185 179.969 320.926 179.669 320.766 179.385C320.605 179.101 320.551 178.848 320.613 178.663L320.945 177.585C321.208 176.741 321.595 176.755 322.106 177.626C323.226 179.493 323.932 181.782 324.222 184.492C324.554 187.548 326.034 188.267 328.661 186.649C335.229 182.597 340.256 176.873 343.74 169.475L348.407 164.808Z" fill="#98D5FA"/>
<path d="M319.451 166.965C317.778 173.685 320.371 176.769 327.229 176.216C332.927 175.746 338.43 173.499 343.74 169.475C340.256 176.873 335.229 182.598 328.661 186.649C326.033 188.267 324.554 187.548 324.222 184.492C323.931 181.782 323.226 179.493 322.106 177.626C321.595 176.755 321.207 176.741 320.945 177.585L320.613 178.663C320.551 178.848 320.605 179.101 320.765 179.385C320.926 179.669 321.185 179.969 321.505 180.24C322.279 180.904 322.673 181.941 322.687 183.351C322.742 186.767 324.035 188.474 326.566 188.474C327.976 188.474 329.553 187.797 331.295 186.442C335.139 183.455 338.541 180.019 341.5 176.133C341.929 175.594 342.143 175.663 342.143 176.34C342.24 185.951 342.973 192.996 344.342 197.477C350.62 217.942 360.134 236.79 372.883 254.02C374.612 256.371 374.881 256.212 373.692 253.543C372.544 250.957 371.148 248.724 369.502 246.843C369.336 246.653 369.211 246.43 369.135 246.188C369.059 245.946 369.034 245.691 369.061 245.438C369.089 245.185 369.168 244.94 369.293 244.718C369.419 244.496 369.589 244.301 369.792 244.147C386.22 231.867 404.328 226.336 424.116 227.553C426.757 231.922 428.659 236.589 429.82 241.554C404.778 241.775 382.362 249.38 362.574 264.37L328.806 224.068C328.414 223.595 327.856 223.292 327.253 223.226C326.651 223.16 326.053 223.336 325.591 223.715L291.449 251.323L291.532 250.369C295.833 233.167 300.458 216.055 305.409 199.032C306.086 196.695 306.017 195.783 305.201 196.294C304.987 196.426 304.783 196.644 304.604 196.934C304.425 197.224 304.275 197.579 304.164 197.974L294.872 231.722C294.834 231.852 294.77 231.973 294.684 232.078C294.598 232.183 294.492 232.269 294.372 232.331C294.251 232.393 294.119 232.43 293.984 232.439C293.849 232.449 293.714 232.431 293.586 232.386C287.806 230.311 282.012 228.272 276.204 226.267C275.886 226.156 275.581 226.108 275.291 226.122C274.06 226.149 273.957 226.536 274.98 227.283C275.215 227.463 275.505 227.58 275.851 227.636C282.032 228.687 287.646 231.044 292.694 234.709C292.983 234.921 293.206 235.195 293.333 235.492C293.459 235.79 293.482 236.096 293.399 236.368L290.412 246.304C283.429 241.602 275.996 237.744 268.114 234.73L271.786 226.599C271.905 226.34 271.924 226.038 271.842 225.735C271.76 225.433 271.58 225.147 271.329 224.919C269.725 223.48 268.868 222.243 268.757 221.206C268.287 216.38 269.283 211.408 271.744 206.292C281.714 185.577 297.617 172.468 319.451 166.965Z" fill="#21A0AA"/>
<path d="M291.532 250.369C291.781 248.765 291.408 247.41 290.412 246.304L293.399 236.368C293.482 236.096 293.459 235.79 293.333 235.492C293.206 235.195 292.983 234.921 292.694 234.709C287.646 231.044 282.032 228.687 275.851 227.636C275.505 227.58 275.215 227.463 274.98 227.283C273.957 226.536 274.06 226.149 275.291 226.121C275.581 226.108 275.886 226.156 276.204 226.267C282.011 228.272 287.805 230.311 293.586 232.386C293.713 232.43 293.849 232.449 293.984 232.439C294.119 232.43 294.251 232.393 294.372 232.331C294.492 232.269 294.598 232.183 294.684 232.078C294.77 231.973 294.834 231.852 294.872 231.722L304.164 197.974C304.275 197.579 304.425 197.224 304.604 196.934C304.783 196.644 304.987 196.426 305.201 196.294C306.017 195.783 306.086 196.695 305.409 199.032C300.458 216.055 295.833 233.167 291.532 250.369Z" fill="#98D5FA"/>
<path d="M362.574 264.37C359.048 267.841 352.321 273.414 342.392 281.089C335.201 286.661 327.949 290.181 320.633 291.646C320.495 291.66 319.755 291.93 318.414 292.455C317.488 292.815 316.623 292.642 315.821 291.937L342.745 269.307C342.873 269.201 342.979 269.071 343.057 268.923C343.134 268.776 343.182 268.615 343.198 268.45C343.213 268.284 343.196 268.117 343.146 267.958C343.097 267.799 343.017 267.651 342.911 267.523L326.4 247.59C326.04 247.161 325.527 246.889 324.975 246.834C324.423 246.78 323.876 246.947 323.454 247.3L293.938 271.775C293.813 271.879 293.709 272.005 293.633 272.148C293.557 272.291 293.51 272.447 293.494 272.608C293.479 272.768 293.495 272.929 293.543 273.082C293.591 273.234 293.669 273.375 293.772 273.497L309.599 292.455C305.989 293.05 302.373 293.638 298.75 294.218C295.957 294.675 295.107 295.629 296.199 297.081C296.614 297.648 297.34 298.194 298.377 298.719C301.558 300.323 304.593 301.603 307.483 302.557C309.751 303.303 309.903 304.182 307.939 305.191L299.746 309.402C299.221 308.185 297.796 306.353 295.473 303.905C287.743 295.816 278.769 284.884 268.55 271.112L276.847 263.333C281.037 261.411 284.348 258.5 286.782 254.601C288.843 254.2 290.398 253.107 291.449 251.324L325.591 223.716C326.053 223.336 326.651 223.16 327.253 223.227C327.856 223.293 328.414 223.595 328.806 224.068L362.574 264.37Z" fill="#FFCF2D"/>
<path d="M110.474 234.211C89.0262 232.178 68.6021 235.836 49.2012 245.184C47.2376 241.644 46.2282 237.813 46.1729 233.693C47.445 232.891 48.8209 232.351 50.3006 232.075C68.2633 228.811 87.4567 228.86 107.881 232.22C109.526 232.496 110.391 233.16 110.474 234.211Z" fill="#9B3C59"/>
<path d="M46.1729 233.692C46.2282 237.813 47.2377 241.644 49.2012 245.184L50.7569 250.888C49.3188 250.736 45.8894 250.217 40.4688 249.332C35.2694 248.488 31.6672 245.896 29.6621 241.554L33.209 237.841C37.316 235.78 41.6373 234.398 46.1729 233.692Z" fill="#5B2448"/>
<path d="M268.114 234.729C275.996 237.744 283.429 241.602 290.412 246.303C291.408 247.41 291.781 248.765 291.532 250.369L291.449 251.323C290.398 253.107 288.842 254.199 286.782 254.6L282.198 249.664C281.974 249.426 281.679 249.272 281.375 249.233C281.07 249.194 280.779 249.274 280.559 249.456L272.926 255.783C272.703 255.969 272.567 256.244 272.543 256.555C272.52 256.866 272.613 257.19 272.802 257.463L276.847 263.333L268.55 271.111C264.941 272.909 262.521 275.674 261.29 279.408L220.926 272.065C222.419 267.834 221.769 264.19 218.976 261.134C209.988 251.247 198.545 245.944 184.648 245.225C184.279 245.205 183.93 245.129 183.621 245.001C183.311 244.873 183.047 244.695 182.843 244.478C181.557 243.123 181.709 242.19 183.299 241.678C184.724 241.235 185.498 240.987 185.622 240.931C190.435 238.912 195.454 237.868 200.681 237.799C200.944 237.799 200.951 237.751 200.702 237.654C199.319 237.156 199.492 236.935 201.221 236.99C204.857 237.101 205.203 236.748 202.258 235.932C224.175 233.54 246.127 233.139 268.114 234.729Z" fill="#F4ADA2"/>
<path d="M202.258 235.933C205.203 236.748 204.858 237.101 201.221 236.99C199.492 236.935 199.319 237.156 200.702 237.654C200.951 237.751 200.944 237.799 200.681 237.799C195.454 237.869 190.435 238.913 185.623 240.931C185.498 240.987 184.724 241.236 183.299 241.678C181.709 242.19 181.557 243.123 182.843 244.478C183.047 244.695 183.311 244.873 183.621 245.001C183.931 245.129 184.279 245.205 184.648 245.225C198.545 245.944 209.988 251.247 218.976 261.134C221.769 264.19 222.419 267.834 220.926 272.066C220.331 272.19 219.813 272.017 219.37 271.547C221.071 267.039 220.421 263.395 217.42 260.616C208.086 251.918 196.72 247.099 183.32 246.159C182.58 246.111 181.872 245.837 181.293 245.373C180.714 244.909 180.292 244.278 180.084 243.566C179.559 241.782 178.653 240.911 177.367 240.952C185.443 238.145 193.74 236.472 202.258 235.933Z" fill="#AA5485" fill-opacity="0.996"/>
<path d="M118.771 240.434C119.517 240.987 120.382 241.215 121.363 241.118C116.302 242.293 111.4 243.946 106.657 246.075C106.408 246.186 106.18 246.228 105.973 246.2C105.115 246.089 105.33 245.737 106.616 245.142C110.571 243.317 114.622 241.747 118.771 240.434Z" fill="#AA5485" fill-opacity="0.996"/>
<path d="M429.82 241.554C433.941 254.995 432.413 267.758 425.236 279.844C419.359 286.896 414.651 291.549 411.111 293.803C397.366 302.487 382.936 309.844 367.822 315.873C364.102 317.353 360.597 319.226 357.305 321.494C356.573 320.83 355.881 320.63 355.231 320.893C343.726 325.553 332.145 330.019 320.488 334.292C316.907 334.721 313.622 335.931 310.636 337.922C307.096 338.973 304.129 338.309 301.737 335.931C304.226 334.949 306.791 334.285 309.433 333.939C309.944 333.87 310.387 333.753 310.76 333.587C312.516 332.812 312.523 332.245 310.781 331.886C310.366 331.803 309.93 331.844 309.474 332.01C306.612 332.978 303.715 333.794 300.783 334.458C297.049 334.306 295.39 332.584 295.805 329.293C295.839 329.011 295.78 328.726 295.637 328.485C295.494 328.244 295.275 328.061 295.017 327.966C290.135 326.21 290.156 323.651 295.079 320.291L305.409 318.424C305.706 318.373 305.993 318.249 306.248 318.063C306.503 317.876 306.719 317.631 306.881 317.346C307.794 315.797 307.013 315.811 304.537 317.387C302.878 318.452 299.552 319.129 294.56 319.42C289.707 319.973 288.179 317.871 289.976 313.114C293.516 312.644 296.773 311.407 299.746 309.401L307.939 305.191C309.903 304.181 309.751 303.303 307.483 302.556C304.593 301.602 301.557 300.323 298.377 298.719C297.34 298.194 296.614 297.648 296.199 297.081C295.107 295.629 295.957 294.674 298.75 294.218C302.373 293.637 305.989 293.05 309.598 292.455C311.756 293.16 313.83 292.987 315.821 291.936C316.623 292.642 317.487 292.815 318.414 292.455C319.755 291.93 320.495 291.66 320.633 291.646C327.948 290.18 335.201 286.661 342.392 281.088C352.32 273.414 359.048 267.841 362.574 264.37C382.362 249.38 404.777 241.775 429.82 241.554ZM300.742 328.111C305.996 327.018 309.08 326.127 309.993 325.435C312.482 323.541 312.24 323.167 309.267 324.315C305.699 325.698 302.041 326.783 298.294 327.572C297.34 327.765 297.188 328.118 297.838 328.629C298.17 328.892 298.591 328.92 299.103 328.712C300.085 328.325 300.631 328.125 300.742 328.111Z" fill="#F4ADA2"/>
<path d="M315.821 291.937C313.83 292.988 311.756 293.16 309.599 292.455L293.772 273.497C293.669 273.375 293.591 273.234 293.543 273.082C293.495 272.929 293.479 272.768 293.494 272.607C293.51 272.447 293.557 272.291 293.633 272.148C293.709 272.005 293.813 271.879 293.938 271.775L323.454 247.3C323.876 246.947 324.423 246.78 324.975 246.834C325.527 246.889 326.04 247.161 326.4 247.59L342.91 267.523C343.017 267.651 343.097 267.799 343.146 267.958C343.196 268.117 343.213 268.284 343.198 268.449C343.182 268.615 343.134 268.776 343.057 268.923C342.979 269.07 342.873 269.201 342.745 269.307L315.821 291.937ZM326.025 256.843C325.987 256.797 325.94 256.758 325.887 256.73C325.834 256.702 325.776 256.685 325.717 256.679C325.657 256.673 325.597 256.679 325.539 256.697C325.482 256.714 325.429 256.743 325.383 256.781L304.352 274.118C304.306 274.156 304.267 274.203 304.239 274.256C304.211 274.308 304.194 274.366 304.188 274.426C304.182 274.486 304.188 274.546 304.206 274.603C304.223 274.661 304.252 274.714 304.29 274.76C304.328 274.806 304.375 274.845 304.428 274.873C304.481 274.901 304.539 274.918 304.598 274.924C304.658 274.93 304.718 274.924 304.776 274.906C304.833 274.889 304.886 274.86 304.932 274.822L325.963 257.485C326.009 257.447 326.048 257.4 326.076 257.347C326.104 257.295 326.121 257.237 326.127 257.177C326.133 257.117 326.127 257.057 326.109 257C326.092 256.942 326.063 256.889 326.025 256.843Z" fill="white"/>
<path d="M286.782 254.6C284.349 258.5 281.037 261.411 276.847 263.333L272.802 257.463C272.613 257.19 272.521 256.866 272.544 256.555C272.567 256.244 272.703 255.969 272.927 255.783L280.56 249.456C280.779 249.274 281.071 249.195 281.375 249.233C281.68 249.272 281.974 249.426 282.198 249.664L286.782 254.6Z" fill="#F16D22"/>
<path d="M325.383 256.781L304.352 274.117C304.158 274.278 304.13 274.565 304.29 274.76C304.451 274.954 304.738 274.982 304.933 274.821L325.963 257.485C326.158 257.325 326.186 257.037 326.025 256.843C325.865 256.648 325.577 256.62 325.383 256.781Z" fill="#7F506B" fill-opacity="0.988"/>
<path d="M209.455 262.669C208.197 262.144 207.768 261.771 208.169 261.549C208.341 261.465 208.551 261.45 208.77 261.505C208.989 261.561 209.207 261.685 209.393 261.86C210.887 263.202 212.09 264.757 213.002 266.527C213.389 267.246 213.576 268.014 213.562 268.83C213.535 271.042 212.781 269.673 211.301 264.723C211.165 264.268 210.928 263.849 210.609 263.494C210.29 263.139 209.896 262.857 209.455 262.669Z" fill="#7F506B" fill-opacity="0.988"/>
<path d="M201.055 265.905C200.916 265.67 200.965 265.608 201.2 265.719C204.145 267.226 205.666 269.673 205.763 273.061C205.777 273.518 205.659 273.538 205.41 273.124L201.055 265.905Z" fill="#7F506B" fill-opacity="0.988"/>
<path d="M193.691 272.127C192.958 271.395 193.062 271.242 194.002 271.671C196.588 272.819 198.116 275.101 198.586 278.516C198.614 278.765 198.586 279.014 198.503 279.263C198.006 280.812 197.667 280.673 197.487 278.848C197.28 276.691 196.014 274.451 193.691 272.127Z" fill="#986293"/>
<path d="M268.55 271.111C278.769 284.884 287.743 295.815 295.473 303.905C297.796 306.352 299.221 308.185 299.746 309.401C296.773 311.406 293.516 312.644 289.976 313.114L262.825 280.404C262.781 280.353 262.661 280.282 262.479 280.2C262.298 280.119 262.065 280.031 261.809 279.947C261.587 279.865 261.414 279.685 261.29 279.408C262.521 275.675 264.941 272.909 268.55 271.111Z" fill="#FFBD11"/>
<path d="M185.768 279.263C186.998 279.789 186.957 280.003 185.643 279.906L177.471 279.263C176.434 279.18 176.427 278.994 177.45 278.703C180.243 277.915 183.016 278.102 185.768 279.263Z" fill="#986293"/>
<path d="M295.079 320.291L294.561 319.42C299.553 319.129 302.878 318.452 304.538 317.387C307.013 315.811 307.794 315.797 306.881 317.345C306.719 317.631 306.503 317.876 306.248 318.063C305.993 318.249 305.707 318.373 305.409 318.424L295.079 320.291Z" fill="#815A82" fill-opacity="0.992"/>
<path d="M357.306 321.494L328.267 345.347L320.488 334.292C332.145 330.019 343.726 325.552 355.231 320.892C355.881 320.63 356.573 320.83 357.306 321.494Z" fill="#FFCF2D"/>
<path d="M299.103 328.713C298.591 328.92 298.169 328.892 297.838 328.63C297.188 328.118 297.34 327.765 298.294 327.572C302.041 326.783 305.699 325.698 309.267 324.315C312.24 323.167 312.482 323.541 309.993 325.435C309.08 326.127 305.996 327.019 300.742 328.111C300.631 328.125 300.085 328.325 299.103 328.713Z" fill="#AA5485" fill-opacity="0.996"/>
<path d="M301.737 335.931L300.783 334.458C303.715 333.794 306.612 332.978 309.474 332.01C309.931 331.844 310.366 331.803 310.781 331.886C312.523 332.245 312.516 332.812 310.76 333.587C310.387 333.753 309.944 333.87 309.433 333.939C306.792 334.285 304.226 334.949 301.737 335.931Z" fill="#986293"/>
<path d="M320.488 334.292L328.267 345.348L322.5 349.973C322.283 350.148 322 350.224 321.71 350.185C321.419 350.147 321.145 349.996 320.945 349.766L310.636 337.922C313.623 335.931 316.907 334.721 320.488 334.292Z" fill="#FFBD11"/>
<path d="M229.718 30.7545C230.332 29.9847 230.462 29.2461 230.109 28.5387C228.777 28.9444 227.862 29.7402 227.362 30.9261C226.665 32.5698 225.812 32.6582 224.803 31.1914C223.18 28.8404 221.396 26.6766 219.451 24.7C217.87 23.098 217.641 23.4517 218.764 25.7611C219.388 27.0095 220.169 28.1382 221.105 29.1472C221.781 29.865 222.619 30.9105 223.617 32.2837C225.427 34.7699 227.461 34.2602 229.718 30.7545Z" fill="#F16D22"/>
<path d="M230.109 28.5386C230.462 29.246 230.332 29.9846 229.719 30.7544C230.946 30.8272 231.133 32.3148 230.28 35.2172C230.189 35.5234 230.002 35.7921 229.746 35.9833C229.49 36.1745 229.18 36.278 228.86 36.2783H222.135C221.864 36.2784 221.596 36.2188 221.351 36.1035C221.106 35.9883 220.889 35.8204 220.716 35.6117C220.543 35.4031 220.418 35.1588 220.351 34.8964C220.283 34.634 220.274 34.3599 220.325 34.0937C220.574 32.7621 220.476 31.5502 220.028 30.4579C219.799 29.8961 219.602 29.9013 219.435 30.4735C218.905 32.3252 218.957 34.1769 219.591 36.0286C219.678 36.2838 219.824 36.5058 220.009 36.6629C220.194 36.8199 220.408 36.9038 220.621 36.9024L230.452 36.8244C230.779 36.8213 231.099 36.6882 231.36 36.4472C231.621 36.2061 231.807 35.8714 231.888 35.498C232.709 31.5138 232.704 28.3981 231.872 26.1511C231.794 25.946 231.649 25.77 231.456 25.647C231.264 25.5241 231.033 25.4604 230.795 25.4645C219.227 25.5062 219.04 25.7558 230.233 26.2135C230.395 26.2179 230.548 26.2812 230.659 26.3895C230.77 26.4977 230.83 26.6421 230.826 26.7909C230.826 27.4463 230.587 28.0288 230.109 28.5386Z" fill="#986293"/>
<path d="M196.84 30.4265H214.473C214.844 30.4265 215.144 30.7269 215.144 31.0975V31.316C215.144 31.6865 214.844 31.9869 214.473 31.9869H196.84C196.47 31.9869 196.169 31.6865 196.169 31.316V31.0975C196.169 30.7269 196.47 30.4265 196.84 30.4265Z" fill="#986293"/>
<path d="M178.944 30.4155L191.49 30.4374C191.895 30.4381 192.222 30.7671 192.222 31.1721L192.221 31.2657C192.221 31.6708 191.892 31.9986 191.487 31.9979L178.941 31.976C178.536 31.9753 178.208 31.6463 178.209 31.2413L178.209 31.1477C178.21 30.7426 178.539 30.4148 178.944 30.4155Z" fill="#986293"/>
<path d="M230.436 47.2012C230.53 46.8059 230.53 46.4158 230.436 46.0309C229.24 46.2597 228.236 47.1232 227.425 48.6212C227.3 48.8545 227.119 49.0533 226.899 49.2001C226.678 49.3469 226.424 49.4373 226.16 49.4635C225.895 49.4897 225.628 49.4507 225.38 49.3502C225.133 49.2496 224.913 49.0904 224.741 48.8864C223.097 46.8891 221.589 44.8449 220.216 42.754C219.966 42.3795 219.664 42.109 219.311 41.9426C217.48 41.0375 217.272 41.6305 218.686 43.7214C220.601 46.5406 222.9 48.9801 225.583 51.0398C225.788 51.1933 226.03 51.2783 226.264 51.2783C226.497 51.2783 226.705 51.1933 226.847 51.0398L230.436 47.2012Z" fill="#F16D22"/>
<path d="M230.436 46.0308C230.53 46.4157 230.53 46.8058 230.436 47.2011L230.842 51.9604C230.855 52.1059 230.828 52.2533 230.765 52.3941C230.701 52.5349 230.601 52.6664 230.47 52.7809C230.34 52.8955 230.181 52.9909 230.004 53.0616C229.827 53.1324 229.634 53.1771 229.438 53.1931L222.634 53.7237C222.355 53.7449 222.072 53.7166 221.808 53.6409C221.544 53.5652 221.304 53.444 221.106 53.2859C220.907 53.1278 220.755 52.9368 220.661 52.7265C220.566 52.5162 220.531 52.2919 220.559 52.0696C220.736 50.6757 220.564 49.5262 220.044 48.6211C219.742 48.101 219.518 48.1374 219.373 48.7303C218.301 53.0683 219.602 55.3465 223.274 55.565C225.885 55.721 227.835 55.6794 229.125 55.4401C231.643 54.9512 232.751 52.8551 232.449 49.1517C232.241 46.5822 232.023 44.7825 231.794 43.7526C231.744 43.5325 231.624 43.3315 231.448 43.1757C231.273 43.0199 231.051 42.9165 230.811 42.8788C228.262 42.4627 225.687 42.3638 223.087 42.5823C220.424 42.8008 220.424 42.9256 223.087 42.9568C226.166 42.988 228.408 43.2013 229.812 43.5966C231.518 44.0751 231.726 44.8865 230.436 46.0308Z" fill="#986293"/>
<path d="M207.428 47.9148L214.2 47.9857C214.579 47.9897 214.883 48.3003 214.88 48.6795L214.878 48.8667C214.874 49.2459 214.563 49.55 214.184 49.5461L207.412 49.4751C207.033 49.4712 206.729 49.1606 206.733 48.7814L206.735 48.5942C206.739 48.215 207.049 47.9108 207.428 47.9148Z" fill="#986293"/>
<path d="M181.712 48.1053L201.996 47.8575C202.375 47.8529 202.686 48.1565 202.691 48.5357L202.692 48.5981C202.696 48.9772 202.393 49.2884 202.013 49.293L181.729 49.5408C181.35 49.5454 181.039 49.2418 181.035 48.8627L181.034 48.8003C181.029 48.4211 181.333 48.11 181.712 48.1053Z" fill="#986293"/>
<path d="M229.625 72.0742C228.096 72.1886 226.582 72.3446 225.084 72.5423C221.131 73.0832 219.539 71.3564 220.309 67.3617C220.34 67.1745 220.356 66.9976 220.356 66.8312C220.273 58.8106 220.018 58.8106 219.591 66.8312C219.581 66.9976 219.555 67.1745 219.513 67.3617C218.619 71.6685 220.34 73.5306 224.678 72.948C226.114 72.7504 227.555 72.7556 229.001 72.9636C231.164 73.2653 232.283 72.3498 232.356 70.2173C232.418 68.532 232.449 66.8416 232.449 65.1459C232.449 61.6402 231.409 59.9497 229.328 60.0746C218.156 60.7507 218.333 61.172 229.859 61.3385C230.238 61.3466 230.599 61.5015 230.865 61.7698C231.13 62.0382 231.279 62.3987 231.279 62.7741V70.2953C231.28 70.7437 231.11 71.1762 230.804 71.506C230.497 71.8359 230.076 72.0388 229.625 72.0742Z" fill="#986293"/>
<path d="M191.8 65.5518H214.302C214.612 65.5518 214.863 65.8033 214.863 66.1135V66.1447C214.863 66.455 214.612 66.7065 214.302 66.7065H191.8C191.49 66.7065 191.239 66.455 191.239 66.1447V66.1135C191.239 65.8033 191.49 65.5518 191.8 65.5518Z" fill="#986293"/>
<path d="M176.165 65.7857C175.593 65.8689 175.39 66.0562 175.556 66.3475C175.633 66.4747 175.746 66.5794 175.886 66.6507C176.026 66.722 176.187 66.7574 176.352 66.7532L186.432 66.4411C187.244 66.4203 187.244 66.3214 186.432 66.1446C183.041 65.3956 179.619 65.276 176.165 65.7857Z" fill="#986293"/>
<path d="M230.436 65.2012C230.53 64.8059 230.53 64.4158 230.436 64.0309C229.24 64.2597 228.236 65.1232 227.425 66.6212C227.3 66.8545 227.119 67.0533 226.899 67.2001C226.678 67.3469 226.424 67.4373 226.16 67.4635C225.895 67.4897 225.628 67.4507 225.38 67.3502C225.133 67.2496 224.913 67.0904 224.741 66.8864C223.097 64.8891 221.589 62.8449 220.216 60.754C219.966 60.3795 219.664 60.109 219.311 59.9426C217.48 59.0375 217.272 59.6305 218.686 61.7214C220.601 64.5406 222.9 66.9801 225.583 69.0398C225.788 69.1933 226.03 69.2783 226.264 69.2783C226.497 69.2783 226.705 69.1933 226.847 69.0398L230.436 65.2012Z" fill="#F16D22"/>
</g>
<defs>
<clipPath id="clip0_201_18933">
<rect width="469" height="350" fill="white" transform="translate(0.5 0.71582)"/>
</clipPath>
</defs>
</svg>
