<svg width="42" height="42" viewBox="0 0 42 42" fill="none" xmlns="http://www.w3.org/2000/svg">
<rect width="42" height="42" rx="21" fill="#8A99B5"/>
<path d="M20.9973 12C19.3693 12.0005 17.772 12.4426 16.3754 13.2791C14.9788 14.1157 13.8352 15.3154 13.0666 16.7504C12.2979 18.1855 11.9328 19.8022 12.0103 21.4283C12.0878 23.0545 12.6049 24.6291 13.5065 25.9846L11.9973 30L17.0512 29.0862C18.2681 29.6808 19.6036 29.9932 20.9581 29.9999C22.3125 30.0066 23.651 29.7075 24.8738 29.1249C26.0966 28.5423 27.1721 27.6912 28.0202 26.6351C28.8682 25.579 29.467 24.345 29.7718 23.0253C30.0766 21.7056 30.0796 20.334 29.7805 19.013C29.4815 17.6919 28.8881 16.4554 28.0447 15.3956C27.2012 14.3358 26.1294 13.48 24.9092 12.8921C23.689 12.3041 22.3518 11.9992 20.9973 12Z" fill="white"/>
<path d="M16.1513 21.6922C16.5336 21.6922 16.8436 21.3823 16.8436 20.9999C16.8436 20.6176 16.5336 20.3076 16.1513 20.3076C15.7689 20.3076 15.459 20.6176 15.459 20.9999C15.459 21.3823 15.7689 21.6922 16.1513 21.6922Z" fill="#8A99B5" stroke="#8A99B5" stroke-linecap="round" stroke-linejoin="round"/>
<path d="M20.6513 21.6922C21.0336 21.6922 21.3436 21.3823 21.3436 20.9999C21.3436 20.6176 21.0336 20.3076 20.6513 20.3076C20.2689 20.3076 19.959 20.6176 19.959 20.9999C19.959 21.3823 20.2689 21.6922 20.6513 21.6922Z" fill="#8A99B5" stroke="#8A99B5" stroke-linecap="round" stroke-linejoin="round"/>
<path d="M25.1513 21.6922C25.5336 21.6922 25.8436 21.3823 25.8436 20.9999C25.8436 20.6176 25.5336 20.3076 25.1513 20.3076C24.7689 20.3076 24.459 20.6176 24.459 20.9999C24.459 21.3823 24.7689 21.6922 25.1513 21.6922Z" fill="#8A99B5" stroke="#8A99B5" stroke-linecap="round" stroke-linejoin="round"/>
</svg>
