<svg width="40" height="41" viewBox="0 0 40 41" fill="none" xmlns="http://www.w3.org/2000/svg">
<rect x="0.5" y="0.71582" width="39" height="39" rx="19.5" stroke="#21A0AA"/>
<path d="M22.1538 13.7543C22.7965 13.7543 23.4128 14.0096 23.8672 14.464C24.3216 14.9184 24.5769 15.5347 24.5769 16.1773C24.5769 16.82 24.3216 17.4363 23.8672 17.8907C23.4128 18.3451 22.7965 18.6004 22.1538 18.6004M23.8769 20.9589C24.7943 21.3079 25.5841 21.9272 26.1417 22.7348C26.6994 23.5425 26.9987 24.5005 27 25.482V26.6773H25.3846M20.2692 16.1773C20.2692 17.5156 19.1844 18.6004 17.8462 18.6004C16.5079 18.6004 15.4231 17.5156 15.4231 16.1773C15.4231 14.8391 16.5079 13.7543 17.8462 13.7543C19.1844 13.7543 20.2692 14.8391 20.2692 16.1773ZM22.6923 26.6773H13V25.6004C13 24.3151 13.5106 23.0825 14.4194 22.1737C15.3282 21.2648 16.5609 20.7543 17.8462 20.7543C19.1314 20.7543 20.3641 21.2648 21.2729 22.1737C22.1817 23.0825 22.6923 24.3151 22.6923 25.6004V26.6773Z" stroke="#21A0AA" stroke-linecap="round" stroke-linejoin="round"/>
</svg>
