<svg width="40" height="41" viewBox="0 0 40 41" fill="none" xmlns="http://www.w3.org/2000/svg">
<rect x="0.5" y="0.71582" width="39" height="39" rx="19.5" stroke="#21A0AA"/>
<path d="M18.8462 13.3545C18.9687 13.159 19.1388 12.9979 19.3406 12.8861C19.5424 12.7744 19.7693 12.7158 20 12.7158C20.2306 12.7158 20.4575 12.7744 20.6593 12.8861C20.8611 12.9979 21.0313 13.159 21.1537 13.3545L23.392 16.8965L26.3109 17.2542C26.553 17.2812 26.7831 17.3738 26.9765 17.522C27.1698 17.6702 27.319 17.8683 27.4081 18.0951C27.4971 18.3218 27.5226 18.5685 27.4817 18.8087C27.4409 19.0488 27.3352 19.2733 27.1762 19.4578L24.7418 22.2499L25.5264 26.1149C25.5756 26.3671 25.5517 26.628 25.4577 26.8672C25.3637 27.1063 25.2034 27.3136 24.9957 27.4648C24.7853 27.6132 24.5374 27.6994 24.2804 27.7137C24.0233 27.728 23.7675 27.6697 23.542 27.5455L20 25.6072L16.458 27.5455C16.2325 27.6697 15.9766 27.728 15.7195 27.7137C15.4625 27.6994 15.2146 27.6132 15.0043 27.4648C14.7965 27.3136 14.6362 27.1063 14.5422 26.8672C14.4482 26.628 14.4244 26.3671 14.4735 26.1149L15.2581 22.2499L12.8237 19.4578C12.6647 19.2733 12.5591 19.0488 12.5182 18.8087C12.4774 18.5685 12.5028 18.3218 12.5919 18.0951C12.6809 17.8683 12.8301 17.6702 13.0235 17.522C13.2168 17.3738 13.4469 17.2812 13.689 17.2542L16.608 16.8965L18.8462 13.3545Z" stroke="#21A0AA" stroke-linecap="round" stroke-linejoin="round"/>
</svg>
