<svg width="42" height="42" viewBox="0 0 42 42" fill="none" xmlns="http://www.w3.org/2000/svg">
<rect width="42" height="42" rx="21" fill="#60B1E2"/>
<path fill-rule="evenodd" clip-rule="evenodd" d="M27.1737 13.984C27.3903 13.8953 27.6268 13.8653 27.8589 13.8971C28.0911 13.9289 28.3105 14.0213 28.4948 14.165C28.679 14.3086 28.8215 14.4983 28.9076 14.7145C28.9937 14.9308 29.0203 15.1659 28.9846 15.3957C28.4711 18.709 27.5297 24.7806 27.03 28.0034C26.9954 28.2264 26.9034 28.4368 26.7629 28.6143C26.6224 28.7917 26.4382 28.9302 26.228 29.0163C26.0178 29.1024 25.7888 29.1332 25.563 29.1058C25.3373 29.0784 25.1225 28.9937 24.9394 28.8599C23.1716 27.5676 20.5212 25.63 19.1755 24.6459C19.0716 24.57 18.9859 24.4724 18.9242 24.3599C18.8626 24.2475 18.8265 24.123 18.8187 23.9952C18.8108 23.8675 18.8314 23.7396 18.8788 23.6206C18.9262 23.5015 18.9994 23.3943 19.0932 23.3064C20.3262 22.1509 22.7821 19.8496 24.4718 18.2662C24.5116 18.2286 24.5358 18.1777 24.5398 18.1234C24.5437 18.069 24.527 18.0152 24.4931 17.9724C24.4591 17.9296 24.4102 17.901 24.356 17.8921C24.3019 17.8832 24.2463 17.8947 24.2002 17.9243C22.0337 19.3263 18.7156 21.4733 17.0894 22.5256C16.7847 22.7228 16.4421 22.8555 16.0833 22.9153C15.7245 22.9751 15.3571 22.9608 15.0041 22.8732C14.1086 22.6511 12.817 22.3306 11.6676 22.0456C11.4877 22.001 11.3265 21.9011 11.207 21.7603C11.0876 21.6195 11.016 21.4449 11.0024 21.2614C10.9888 21.0778 11.0339 20.8947 11.1313 20.7381C11.2287 20.5815 11.3735 20.4593 11.5449 20.3891C15.5462 18.7493 23.3767 15.5404 27.1737 13.984Z" fill="white"/>
</svg>
