<svg width="42" height="42" viewBox="0 0 42 42" fill="none" xmlns="http://www.w3.org/2000/svg">
<rect x="0.5" y="0.5" width="41" height="41" rx="20.5" fill="#21A0AA"/>
<rect x="0.5" y="0.5" width="41" height="41" rx="20.5" stroke="#EFF1F4"/>
<path d="M23.2955 28.8359C24.1005 29.3553 25.0598 29.5816 26.0121 29.4769C26.9644 29.3721 27.8516 28.9427 28.5245 28.2607L29.1128 27.6855C29.3707 27.4217 29.5151 27.0675 29.5151 26.6986C29.5151 26.3296 29.3707 25.9754 29.1128 25.7116L26.6159 23.2408C26.3543 22.9838 26.0022 22.8397 25.6355 22.8397C25.2687 22.8397 24.9166 22.9838 24.655 23.2408C24.3912 23.4987 24.037 23.6431 23.668 23.6431C23.2991 23.6431 22.9448 23.4987 22.681 23.2408L18.7592 19.319C18.6284 19.1901 18.5245 19.0365 18.4536 18.867C18.3827 18.6976 18.3462 18.5157 18.3462 18.3321C18.3462 18.1484 18.3827 17.9665 18.4536 17.7971C18.5245 17.6276 18.6284 17.474 18.7592 17.3451C19.0163 17.0835 19.1604 16.7314 19.1604 16.3646C19.1604 15.9978 19.0163 15.6458 18.7592 15.3842L16.2754 12.9004C16.0116 12.6425 15.6574 12.498 15.2884 12.498C14.9195 12.498 14.5653 12.6425 14.3015 12.9004L13.7263 13.4886C13.0443 14.1615 12.6149 15.0487 12.5101 16.001C12.4054 16.9533 12.6317 17.9126 13.1511 18.7177C15.8572 22.7058 19.3004 26.1401 23.2955 28.8359Z" fill="white"/>
</svg>
