<svg width="42" height="42" viewBox="0 0 42 42" fill="none" xmlns="http://www.w3.org/2000/svg">
<path d="M21 42C32.598 42 42 32.598 42 21C42 9.40202 32.598 0 21 0C9.40202 0 0 9.40202 0 21C0 32.598 9.40202 42 21 42Z" fill="#45983E"/>
<path fill-rule="evenodd" clip-rule="evenodd" d="M21.6918 32.6836H21.6866C19.5967 32.6829 17.5432 32.1586 15.7193 31.1637L9.09961 32.9002L10.8711 26.4294C9.77838 24.5357 9.20337 22.3875 9.2043 20.1867C9.20704 13.3017 14.8088 7.7002 21.6917 7.7002C25.0322 7.70164 28.1674 9.00208 30.525 11.3624C32.8826 13.7227 34.1803 16.86 34.179 20.1965C34.1762 27.0799 28.5767 32.6808 21.6918 32.6836ZM16.0261 28.9031L16.4051 29.128C17.9986 30.0737 19.8253 30.574 21.6877 30.5747H21.6919C27.4124 30.5747 32.0684 25.9187 32.0707 20.1958C32.0718 17.4225 30.9932 14.8149 29.0337 12.8531C27.0741 10.8912 24.4682 9.81028 21.696 9.80932C15.971 9.80932 11.315 14.4649 11.3127 20.1874C11.3119 22.1485 11.8607 24.0584 12.8996 25.7109L13.1464 26.1036L12.0979 29.9335L16.0261 28.9031ZM27.5556 22.885C27.7732 22.9902 27.9202 23.0612 27.9829 23.1659C28.0609 23.296 28.0609 23.9207 27.801 24.6497C27.5409 25.3785 26.2944 26.0437 25.6949 26.1332C25.1574 26.2136 24.4771 26.2471 23.7297 26.0096C23.2765 25.8658 22.6954 25.6738 21.9509 25.3523C19.0259 24.0893 17.0491 21.2543 16.6755 20.7185C16.6494 20.6809 16.631 20.6547 16.6208 20.641L16.6183 20.6377C16.4532 20.4174 15.3468 18.9412 15.3468 17.4134C15.3468 15.9762 16.0528 15.2228 16.3778 14.8761C16.4 14.8523 16.4205 14.8305 16.4388 14.8104C16.7248 14.4981 17.0629 14.42 17.2709 14.42C17.4788 14.42 17.6871 14.4219 17.8689 14.431C17.8913 14.4322 17.9146 14.432 17.9388 14.4319C18.1206 14.4308 18.3473 14.4295 18.5709 14.9666C18.6569 15.1734 18.7828 15.4798 18.9156 15.8031C19.1841 16.4567 19.4807 17.1789 19.5329 17.2834C19.6109 17.4396 19.6629 17.6217 19.5589 17.83C19.5433 17.8613 19.5288 17.8907 19.515 17.9189C19.4369 18.0784 19.3795 18.1957 19.2469 18.3505C19.1948 18.4114 19.1409 18.477 19.087 18.5426C18.9796 18.6733 18.8723 18.804 18.7789 18.8971C18.6227 19.0527 18.46 19.2215 18.6421 19.5339C18.8241 19.8463 19.4503 20.868 20.3778 21.6954C21.3749 22.5847 22.2415 22.9606 22.6808 23.1512C22.7665 23.1884 22.836 23.2185 22.887 23.244C23.1989 23.4002 23.3809 23.3741 23.5629 23.1659C23.7449 22.9577 24.3429 22.2548 24.5509 21.9425C24.7588 21.6302 24.9669 21.6823 25.2529 21.7863C25.5389 21.8906 27.0729 22.6453 27.3849 22.8015C27.4459 22.832 27.5028 22.8595 27.5556 22.885Z" fill="#FDFDFD"/>
</svg>
